<svg xmlns="http://www.w3.org/2000/svg" width="14" height="14" viewBox="0 0 14 14"><path fill="#444" d="M14 10.5v1q0 .203-.148.352T13.5 12H.5q-.203 0-.352-.148T0 11.5v-1q0-.203.148-.352T.5 10h13q.203 0 .352.148T14 10.5zm0-3v1q0 .203-.148.352T13.5 9h-10q-.203 0-.352-.148T3 8.5v-1q0-.203.148-.352T3.5 7h10q.203 0 .352.148T14 7.5zm0-3v1q0 .203-.148.352T13.5 6h-12q-.203 0-.352-.148T1 5.5v-1q0-.203.148-.352T1.5 4h12q.203 0 .352.148T14 4.5zm0-3v1q0 .203-.148.352T13.5 3h-9q-.203 0-.352-.148T4 2.5v-1q0-.203.148-.352T4.5 1h9q.203 0 .352.148T14 1.5z"/></svg>