<svg xmlns="http://www.w3.org/2000/svg" width="14" height="14" viewBox="0 0 14 14"><path fill="#444" d="M14 10.5v1q0 .203-.148.352T13.5 12H.5q-.203 0-.352-.148T0 11.5v-1q0-.203.148-.352T.5 10h13q.203 0 .352.148T14 10.5zm-3-3v1q0 .203-.148.352T10.5 9h-7q-.203 0-.352-.148T3 8.5v-1q0-.203.148-.352T3.5 7h7q.203 0 .352.148T11 7.5zm2-3v1q0 .203-.148.352T12.5 6h-11q-.203 0-.352-.148T1 5.5v-1q0-.203.148-.352T1.5 4h11q.203 0 .352.148T13 4.5zm-3-3v1q0 .203-.148.352T9.5 3h-5q-.203 0-.352-.148T4 2.5v-1q0-.203.148-.352T4.5 1h5q.203 0 .352.148T10 1.5z"/></svg>