<svg xmlns="http://www.w3.org/2000/svg" width="14" height="14" viewBox="0 0 14 14"><path fill="#444" d="M12.117 11.531q.117-.047.203-.023t.086.137-.117.262q-.102.125-.344.34t-.746.531-1.102.578-1.469.453T6.835 14q-.93 0-1.859-.242t-1.633-.598-1.348-.813-1.035-.82-.656-.684q-.062-.07-.078-.129t.008-.094.062-.055.09-.016.09.035q1.5.914 2.344 1.297 3.039 1.375 6.242.703 1.484-.312 3.055-1.055zm1.617-.898q.086.125.02.543t-.223.801q-.266.648-.664.969-.133.109-.203.07t0-.187q.164-.352.348-.949t.051-.77q-.039-.055-.121-.09t-.211-.047-.23-.02-.273 0-.246.016-.242.023-.176.016q-.047.008-.102.012t-.086.008-.066.008-.055.004h-.078l-.023-.004-.016-.012-.012-.023q-.047-.125.367-.312t.805-.234q.359-.055.844-.008t.594.187zm-3.078-3.461q0 .242.105.5t.25.453.293.359.258.25l.102.086-1.773 1.75q-.312-.289-.617-.59t-.453-.457l-.148-.156q-.086-.086-.195-.258-.297.461-.762.801t-.996.496-1.094.18-1.074-.164-.918-.512-.648-.883-.242-1.27q0-.656.219-1.203t.563-.91.832-.648.957-.445 1.016-.27.934-.145.777-.051v-.992q0-.508-.164-.758-.266-.414-.945-.414-.047 0-.129.008t-.316.094-.438.23-.438.465-.375.75L2.94 3.257q0-.469.172-.93t.523-.883.844-.742T5.663.19t1.488-.191q.781 0 1.414.195t1.012.48.633.648.352.672.098.574V7.17zm-5.25.164q0 .672.547 1.039.516.344 1.086.172.656-.195.891-.961.109-.352.109-.789V5.531q-.461.016-.867.094t-.832.262-.68.555-.254.895z"/></svg>