<svg xmlns="http://www.w3.org/2000/svg" width="14" height="14" viewBox="0 0 14 14"><path fill="#444" d="M7.5 2q0-.203-.148-.352T7 1.5t-.352.148T6.5 2t.148.352T7 2.5t.352-.148T7.5 2zM14 9.25V12q0 .172-.156.234-.062.016-.094.016-.102 0-.18-.07l-.727-.727q-.93 1.117-2.488 1.77T7 13.875t-3.355-.652-2.488-1.77l-.727.727q-.07.07-.18.07-.031 0-.094-.016Q0 12.172 0 12V9.25q0-.109.07-.18T.25 9H3q.172 0 .234.156.062.148-.055.273l-.781.781q.523.711 1.48 1.199t2.121.645V6.999h-1.5q-.203 0-.352-.148t-.148-.352v-1q0-.203.148-.352t.352-.148h1.5V3.726q-.453-.266-.727-.723t-.273-1.004q0-.828.586-1.414t1.414-.586 1.414.586.586 1.414q0 .547-.273 1.004t-.727.723v1.273h1.5q.203 0 .352.148t.148.352v1q0 .203-.148.352t-.352.148h-1.5v5.055q1.164-.156 2.121-.645t1.48-1.199l-.781-.781q-.117-.125-.055-.273.062-.156.234-.156h2.75q.109 0 .18.07t.07.18z"/></svg>