<svg xmlns="http://www.w3.org/2000/svg" width="11" height="14" viewBox="0 0 11 14"><path fill="#444" d="M3.852 3.773q.125 0 .215-.09t.09-.215-.09-.215-.215-.09-.211.09-.086.215.086.215.211.09zm3.296 0q.125 0 .211-.09t.086-.215-.086-.215-.211-.09-.215.09-.09.215.09.215.215.09zM.805 5.211q.328 0 .563.234t.234.563v3.359q0 .336-.23.57t-.566.234-.57-.234-.234-.57V6.008q0-.328.234-.563t.57-.234zm8.281.148v5.203q0 .359-.25.609t-.602.25h-.586v1.773q0 .336-.234.57t-.57.234-.57-.234-.234-.57v-1.773H4.962v1.773q0 .336-.234.57t-.57.234q-.328 0-.563-.234t-.234-.57l-.008-1.773h-.578q-.359 0-.609-.25t-.25-.609V5.359h7.172zM7.273 2.195q.836.43 1.336 1.199t.5 1.684H1.882q0-.914.5-1.684t1.344-1.199l-.555-1.023q-.055-.102.039-.156.102-.047.156.047l.563 1.031q.742-.328 1.57-.328t1.57.328l.563-1.031q.055-.094.156-.047.094.055.039.156zM11 6.008v3.359q0 .336-.234.57t-.57.234q-.328 0-.563-.234t-.234-.57V6.008q0-.336.234-.566t.563-.23q.336 0 .57.23t.234.566z"/></svg>