<svg xmlns="http://www.w3.org/2000/svg" width="10" height="14" viewBox="0 0 10 14"><path fill="#444" d="M7.445 2.953l-.891 2.563.914.164q1.289-3.523 1.289-4.047 0-.438-.297-.438-.445 0-1.016 1.758zM5.109 8.32l.258.688q.289-.328.555-.523l-.258-.043-.301-.055-.254-.066zm-2.281-7q0 .766 1.242 4.07.141-.078.383-.078.117 0 .586.039l-.945-2.742Q3.508.89 3.133.89q-.148 0-.227.137t-.078.293zm-.617 5.93q0 .281.402.93t.918 1.195.781.547q.109 0 .199-.102t.09-.211q0-.187-.25-.797-.102-.25-.25-.563t-.371-.695-.48-.633-.484-.25q-.156 0-.355.211t-.199.367zM.977 9.867q0 .32.195.813.461 1.133 1.434 1.773t2.199.641q1.773 0 2.984-1.328 1.187-1.32 1.187-3.336 0-.336-.008-.523t-.09-.484-.238-.438q-.438-.383-1.652-.59t-2.113-.207q-.289 0-.383.086-.094.039-.094.273 0 .266.168.469T5 7.328t.605.184.684.09.664.031.547 0h.18q.187 0 .312.148.117.148.148.43-.219.219-.75.422-.477.172-.727.359-.5.359-.848.891t-.348 1.07q0 .242.145.691t.145.684l-.023.094q-.031.094-.031.109-1.07-.078-1.141-1.688-.062.016-.32.016.016.055.016.164 0 .414-.316.699t-.738.285q-.641 0-1.301-.609t-.66-1.242q0-.266.258-.523.406.5.469.594.602.813 1.039.813.094 0 .207-.066t.113-.16q0-.266-.684-1.133t-.91-.867q-.336 0-.547.348t-.211.707zm-.891.07q0-.789.332-1.273t1.066-.688q-.219-.578-.219-.813 0-.484.477-.961t.953-.477q.227 0 .547.117-1.273-3.609-1.273-4.43 0-.625.32-1.02t.93-.395q1.023 0 2.539 4.539.047.133.062.18.047-.125.227-.621t.34-.926.422-.996.504-.961.551-.676.598-.281q.555 0 .875.383t.32.953q0 .844-1.242 4.297.477.117.785.359t.457.609.203.73.055.863q0 1.172-.367 2.188t-1.031 1.758-1.648 1.172-2.172.43q-.867 0-1.742-.328-1.164-.445-2.016-1.496T.087 9.935z"/></svg>