<svg xmlns="http://www.w3.org/2000/svg" width="9" height="14" viewBox="0 0 9 14"><path fill="#444" d="M8.398 6.75q0 .102-.078.18l-3.641 3.641q-.078.078-.18.078t-.18-.078L.678 6.93Q.6 6.852.6 6.75t.078-.18l.391-.391q.078-.078.18-.078t.18.078l3.07 3.07 3.07-3.07q.078-.078.18-.078t.18.078l.391.391q.078.078.078.18zm0-3q0 .102-.078.18L4.679 7.571q-.078.078-.18.078t-.18-.078L.678 3.93Q.6 3.852.6 3.75t.078-.18l.391-.391q.078-.078.18-.078t.18.078l3.07 3.07 3.07-3.07q.078-.078.18-.078t.18.078l.391.391q.078.078.078.18z"/></svg>