<svg xmlns="http://www.w3.org/2000/svg" width="8" height="14" viewBox="0 0 8 14"><path fill="#444" d="M4.648 7.5q0 .102-.078.18L.929 11.321q-.078.078-.18.078t-.18-.078l-.391-.391Q.1 10.852.1 10.75t.078-.18l3.07-3.07-3.07-3.07Q.1 4.352.1 4.25t.078-.18l.391-.391q.078-.078.18-.078t.18.078L4.57 7.32q.078.078.078.18zm3 0q0 .102-.078.18l-3.641 3.641q-.078.078-.18.078t-.18-.078l-.391-.391q-.078-.078-.078-.18t.078-.18l3.07-3.07-3.07-3.07Q3.1 4.352 3.1 4.25t.078-.18l.391-.391q.078-.078.18-.078t.18.078L7.57 7.32q.078.078.078.18z"/></svg>