<svg xmlns="http://www.w3.org/2000/svg" width="9" height="14" viewBox="0 0 9 14"><path fill="#444" d="M8.398 10.25q0 .102-.078.18l-.391.391q-.078.078-.18.078t-.18-.078l-3.07-3.07-3.07 3.07q-.078.078-.18.078t-.18-.078l-.391-.391Q.6 10.352.6 10.25t.078-.18l3.641-3.641q.078-.078.18-.078t.18.078L8.32 10.07q.078.078.078.18zm0-3q0 .102-.078.18l-.391.391q-.078.078-.18.078t-.18-.078l-3.07-3.07-3.07 3.07q-.078.078-.18.078t-.18-.078L.678 7.43Q.6 7.352.6 7.25t.078-.18l3.641-3.641q.078-.078.18-.078t.18.078L8.32 7.07q.078.078.078.18z"/></svg>