<svg xmlns="http://www.w3.org/2000/svg" width="11" height="14" viewBox="0 0 11 14"><path fill="#444" d="M10.883 9.492q-.305.977-.961 1.953-1.008 1.531-2.008 1.531-.383 0-1.094-.25-.672-.25-1.18-.25-.477 0-1.109.258Q3.898 13 3.5 13q-1.187 0-2.352-2.023Q0 8.938 0 7.047q0-1.781.883-2.922Q1.758 3 3.102 3q.563 0 1.383.234.813.234 1.078.234.352 0 1.117-.266.797-.266 1.352-.266.93 0 1.664.508.406.281.813.781-.617.523-.891.922-.508.734-.508 1.617 0 .969.539 1.742t1.234.984zM7.945.328q0 .477-.227 1.062-.234.586-.727 1.078-.422.422-.844.563-.289.086-.813.133.023-1.164.609-2.008Q6.521.32 7.896 0q.008.023.02.086t.02.086q0 .031.004.078t.004.078z"/></svg>