<svg xmlns="http://www.w3.org/2000/svg" width="12" height="14" viewBox="0 0 12 14"><path fill="#444" d="M8.75 7.25q0 .094-.078.187L6.18 9.929q-.086.07-.18.07t-.18-.07l-2.5-2.5q-.117-.125-.055-.273Q3.327 7 3.499 7h1.5V4.25q0-.109.07-.18t.18-.07h1.5q.109 0 .18.07t.07.18V7h1.5q.109 0 .18.07t.07.18zM6 2.75q-1.156 0-2.133.57T2.32 4.867 1.75 7t.57 2.133 1.547 1.547T6 11.25t2.133-.57T9.68 9.133 10.25 7t-.57-2.133T8.133 3.32 6 2.75zM12 7q0 1.633-.805 3.012t-2.184 2.184-3.012.805-3.012-.805-2.184-2.184T-.002 7t.805-3.012 2.184-2.184T5.999.999t3.012.805 2.184 2.184T12 7z"/></svg>