<svg xmlns="http://www.w3.org/2000/svg" width="14" height="14" viewBox="0 0 14 14"><path fill="#444" d="M14 7q0 .203-.148.352l-2 2q-.148.148-.352.148t-.352-.148T11 9V8H8v3h1q.203 0 .352.148t.148.352-.148.352l-2 2Q7.204 14 7 14t-.352-.148l-2-2Q4.5 11.704 4.5 11.5t.148-.352T5 11h1V8H3v1q0 .203-.148.352T2.5 9.5t-.352-.148l-2-2Q0 7.204 0 7t.148-.352l2-2Q2.296 4.5 2.5 4.5t.352.148T3 5v1h3V3H5q-.203 0-.352-.148T4.5 2.5t.148-.352l2-2Q6.796 0 7 0t.352.148l2 2q.148.148.148.352t-.148.352T9 3H8v3h3V5q0-.203.148-.352T11.5 4.5t.352.148l2 2Q14 6.796 14 7z"/></svg>