<svg xmlns="http://www.w3.org/2000/svg" width="14" height="14" viewBox="0 0 14 14"><path d="M10.031 6.992q0-.211-.141-.352L6.351 3.101q-.141-.141-.352-.141t-.352.141L2.108 6.64q-.141.141-.141.352t.141.352l.711.711q.141.141.352.141t.352-.141L5 6.578V10.5q0 .203.148.352T5.5 11h1q.203 0 .352-.148T7 10.5V6.578l1.477 1.477q.148.148.352.148t.352-.148l.711-.711q.141-.141.141-.352zM12 7q0 1.633-.805 3.012t-2.184 2.184-3.012.805-3.012-.805-2.184-2.184T-.002 7t.805-3.012 2.184-2.184T5.999.999t3.012.805 2.184 2.184T12 7z" fill="#444"/></svg>