<svg xmlns="http://www.w3.org/2000/svg" width="12" height="14" viewBox="0 0 12 14"><path fill="#444" d="M9 6.25v1.5q0 .102-.074.176T8.75 8H6v1.5q0 .109-.07.18t-.18.07q-.094 0-.187-.078L3.071 7.18q-.07-.07-.07-.18t.07-.18l2.5-2.5q.07-.07.18-.07.102 0 .176.074t.074.176V6h2.75q.102 0 .176.074t.074.176zm1.25.75q0-1.156-.57-2.133T8.133 3.32 6 2.75t-2.133.57T2.32 4.867 1.75 7t.57 2.133 1.547 1.547T6 11.25t2.133-.57T9.68 9.133 10.25 7zM12 7q0 1.633-.805 3.012t-2.184 2.184-3.012.805-3.012-.805-2.184-2.184T-.002 7t.805-3.012 2.184-2.184T5.999.999t3.012.805 2.184 2.184T12 7z"/></svg>