<svg xmlns="http://www.w3.org/2000/svg" width="12" height="14" viewBox="0 0 12 14"><path fill="#444" d="M10 7.5v-1q0-.203-.148-.352T9.5 6H5.578l1.477-1.477q.148-.148.148-.352t-.148-.352l-.711-.711q-.141-.141-.352-.141t-.352.141L2.101 6.647q-.141.141-.141.352t.141.352L5.64 10.89q.141.141.352.141t.352-.141l.711-.711q.141-.141.141-.352t-.141-.352L5.578 7.998H9.5q.203 0 .352-.148T10 7.498zm2-.5q0 1.633-.805 3.012t-2.184 2.184-3.012.805-3.012-.805-2.184-2.184T-.002 7t.805-3.012 2.184-2.184T5.999.999t3.012.805 2.184 2.184T12 7z"/></svg>