<svg xmlns="http://www.w3.org/2000/svg" width="12" height="14" viewBox="0 0 12 14"><path fill="#444" d="M10.023 4.227L7.25 7l2.773 2.773 1.125-1.125q.227-.242.547-.109Q12 8.672 12 9v3.5q0 .203-.148.352T11.5 13H8q-.328 0-.461-.312-.133-.305.109-.539l1.125-1.125L6 8.251l-2.773 2.773 1.125 1.125q.242.234.109.539Q4.328 13 4 13H.5q-.203 0-.352-.148T0 12.5V9q0-.328.312-.461.305-.133.539.109l1.125 1.125L4.749 7 1.976 4.227.851 5.352Q.703 5.5.499 5.5q-.094 0-.187-.039Q0 5.328 0 5V1.5q0-.203.148-.352T.5 1H4q.328 0 .461.312.133.305-.109.539L3.227 2.976 6 5.749l2.773-2.773-1.125-1.125q-.242-.234-.109-.539Q7.672 1 8 1h3.5q.203 0 .352.148T12 1.5V5q0 .328-.305.461-.102.039-.195.039-.203 0-.352-.148z"/></svg>