<svg xmlns="http://www.w3.org/2000/svg" width="13" height="14" viewBox="0 0 13 14"><path fill="#444" d="M11.578 8.203q.359.203.465.605t-.098.762l-.5.859q-.203.359-.605.465t-.762-.098L8 9.601v2.398q0 .406-.297.703T7 12.999H6q-.406 0-.703-.297T5 11.999V9.601l-2.078 1.195q-.359.203-.762.098t-.605-.465l-.5-.859q-.203-.359-.098-.762t.465-.605L3.5 7 1.422 5.797q-.359-.203-.465-.605t.098-.762l.5-.859q.203-.359.605-.465t.762.098L5 4.399V2.001q0-.406.297-.703T6 1.001h1q.406 0 .703.297T8 2.001v2.398l2.078-1.195q.359-.203.762-.098t.605.465l.5.859q.203.359.098.762t-.465.605L9.5 7z"/></svg>