<svg xmlns="http://www.w3.org/2000/svg" width="12" height="14" viewBox="0 0 12 14"><path fill="#444" d="M7.594 6.055q0-.844-.418-1.32t-1.152-.477q-.492 0-.969.238t-.859.66-.621 1.07-.238 1.406q0 .875.418 1.352t1.176.477q.75 0 1.375-.52t.957-1.297.332-1.59zM12 7q0 .867-.289 1.539t-.77 1.055-1.027.582-1.133.215q-.047 0-.121.004t-.129.004q-.742 0-1.109-.414-.219-.258-.258-.648-.406.516-1.027.859t-1.355.344q-1.258 0-1.949-.746t-.691-2.105q0-1.227.516-2.266t1.398-1.645 1.922-.605q.68 0 1.211.277t.828.777l.016-.148.086-.438q.008-.047.043-.094t.074-.047h.922q.039 0 .102.086.039.039.023.125l-.937 4.797q-.039.187-.039.375 0 .305.098.406t.348.102q.219-.008.445-.043t.57-.187.602-.391.445-.699.187-1.07q0-2.281-1.359-3.641T6.002 2.001q-1.016 0-1.941.398T2.467 3.465 1.401 5.059 1.003 7t.398 1.941 1.066 1.594 1.594 1.066 1.941.398q1.781 0 3.164-1.125.086-.07.187-.062t.164.094l.32.383q.062.094.055.187-.016.102-.094.172-.797.648-1.777 1T6.001 13q-1.219 0-2.328-.477t-1.914-1.281T.478 9.328.001 7t.477-2.328 1.281-1.914 1.914-1.281T6.001 1q2.687 0 4.344 1.656T12.001 7z"/></svg>