<svg xmlns="http://www.w3.org/2000/svg" width="16" height="14" viewBox="0 0 16 14"><path fill="#444" d="M3.75 8.5q0-.516-.367-.883T2.5 7.25t-.883.367-.367.883.367.883.883.367.883-.367.367-.883zM4.031 6h7.937l-.695-2.789q-.016-.062-.109-.137T11 3H5q-.07 0-.164.074t-.109.137zM14.75 8.5q0-.516-.367-.883T13.5 7.25t-.883.367-.367.883.367.883.883.367.883-.367.367-.883zM16 7.75v3q0 .109-.07.18t-.18.07H15v1q0 .625-.438 1.062T13.5 13.5t-1.062-.438T12 12v-1H4v1q0 .625-.438 1.062T2.5 13.5t-1.062-.438T1 12v-1H.25q-.109 0-.18-.07T0 10.75v-3q0-.727.512-1.238T1.75 6h.219l.82-3.273q.18-.734.813-1.23T5 1.001h6q.766 0 1.398.496t.813 1.23L14.031 6h.219q.727 0 1.238.512T16 7.75z"/></svg>