<svg xmlns="http://www.w3.org/2000/svg" width="17" height="14" viewBox="0 0 17 14"><path fill="#444" d="M13.5 3.5l-3 5.5h6zm-10 0L.5 9h6zM9.914 2q-.109.312-.355.559T9 2.914V13h4.75q.109 0 .18.07t.07.18v.5q0 .109-.07.18t-.18.07H3.25q-.109 0-.18-.07T3 13.75v-.5q0-.109.07-.18t.18-.07H8V2.914q-.312-.109-.559-.355T7.086 2H3.25q-.109 0-.18-.07T3 1.75v-.5q0-.109.07-.18T3.25 1h3.836q.164-.445.547-.723T8.5 0t.867.277.547.723h3.836q.109 0 .18.07t.07.18v.5q0 .109-.07.18t-.18.07H9.914zM8.5 2.125q.258 0 .441-.184t.184-.441-.184-.441T8.5.875t-.441.184-.184.441.184.441.441.184zM17 9q0 .57-.363 1.023t-.918.711-1.129.387-1.09.129-1.09-.129-1.129-.387-.918-.711T10 9q0-.086.273-.633t.719-1.363.836-1.527.797-1.438.438-.781Q13.204 3 13.501 3t.438.258l.438.781q.407.726.797 1.438t.836 1.527.719 1.363.273.633zM7 9q0 .57-.363 1.023t-.918.711-1.129.387-1.09.129-1.09-.129-1.129-.387-.918-.711T0 9q0-.086.273-.633t.719-1.363.836-1.527.797-1.438.438-.781Q3.204 3 3.501 3t.438.258l.438.781q.407.726.797 1.438t.836 1.527.719 1.363.273.633z"/></svg>