<svg xmlns="http://www.w3.org/2000/svg" width="14" height="14" viewBox="0 0 14 14"><path fill="#444" d="M.492 12H0V1h.492v11zm.492-.008h-.25V1h.25v10.992zm.735 0h-.242V1h.242v10.992zm1.226 0h-.242V1h.242v10.992zm1.227 0h-.484V1h.484v10.992zm.984 0h-.242V1h.242v10.992zm.492 0h-.242V1h.242v10.992zm.493 0h-.242V1h.242v10.992zm1.226 0h-.492V1h.492v10.992zm1.227 0h-.492V1h.492v10.992zm.984 0h-.492V1h.492v10.992zm.984 0h-.492V1h.492v10.992zm.735 0h-.492V1h.492v10.992zm1.476 0h-.734V1h.734v10.992zm.493 0h-.25V1h.25v10.992zM14 12h-.492V1H14v11z"/></svg>