<svg xmlns="http://www.w3.org/2000/svg" width="12" height="14" viewBox="0 0 12 14"><path fill="#444" d="M9.75 1q.93 0 1.59.66T12 3.25v7.5q0 .93-.66 1.59T9.75 13h-7.5q-.93 0-1.59-.66T0 10.75v-7.5q0-.93.66-1.59T2.25 1h7.5zM3.898 3.867H1v6.148h2.984q.914 0 1.539-.449t.625-1.332q0-1.234-1.117-1.563.836-.406.836-1.281 0-.445-.152-.754t-.441-.473-.617-.23-.758-.066zm-.171 2.485H2.352V4.914h1.273q.93 0 .93.703 0 .734-.828.734zm.07 2.617H2.352V7.274h1.477q.969 0 .969.883 0 .813-1 .813zm5.078.25q-.531 0-.813-.297t-.281-.836h3.211Q11 8.008 11 7.852q0-1.031-.582-1.723t-1.59-.691q-1 0-1.641.672t-.641 1.688q0 1.055.617 1.695t1.664.641q1.602 0 2.086-1.492H9.835q-.086.266-.371.422t-.59.156zm-.078-2.86q.883 0 .969.953H7.782q.031-.438.305-.695t.711-.258zM7.531 4.281h2.492v.602H7.531v-.602z"/></svg>