<svg xmlns="http://www.w3.org/2000/svg" width="14" height="14" viewBox="0 0 14 14"><path fill="#444" d="M7.125 13.25q0-.125-.125-.125-.461 0-.793-.332T5.875 12q0-.125-.125-.125T5.625 12q0 .57.402.973t.973.402q.125 0 .125-.125zM13.5 11q0 .406-.297.703T12.5 12H9q0 .828-.586 1.414T7 14t-1.414-.586T5 12H1.5q-.406 0-.703-.297T.5 11q.391-.328.711-.688t.664-.934.582-1.238.391-1.609T3 4.5q0-1.187.914-2.207t2.398-1.238Q6.25.907 6.25.75q0-.312.219-.531T7 0t.531.219.219.531q0 .156-.062.305 1.484.219 2.398 1.238T11 4.5q0 1.086.152 2.031t.391 1.609.582 1.238.664.934.711.688z"/></svg>