<svg xmlns="http://www.w3.org/2000/svg" width="16" height="14" viewBox="0 0 16 14"><path fill="#444" d="M12.172 6.656Q12.649 9.437 14.5 11q0 .406-.297.703T13.5 12H10q0 .828-.586 1.414T8 14t-1.41-.582-.59-1.41zM8 13.375q.125 0 .125-.125T8 13.125q-.461 0-.793-.332T6.875 12q0-.125-.125-.125T6.625 12q0 .57.402.973t.973.402zm7.828-12.5q.062.078.059.184t-.082.176L1.18 13.907q-.078.062-.184.055t-.168-.086l-.656-.75q-.062-.078-.059-.184t.082-.168l1.453-1.258Q1.5 11.266 1.5 11q.391-.328.711-.688t.664-.934.582-1.238.391-1.609T4 4.5q0-1.187.914-2.207t2.398-1.238Q7.25.907 7.25.75q0-.312.219-.531T8 0t.531.219.219.531q0 .156-.062.305.969.141 1.711.645t1.156 1.23L14.821.094q.078-.062.184-.055t.168.086z"/></svg>