<svg xmlns="http://www.w3.org/2000/svg" width="18" height="14" viewBox="0 0 18 14"><path fill="#444" d="M5.953 9H3.5q-.312 0-.449-.273t.051-.523l1.469-1.961q-.508-.242-1.07-.242-1.031 0-1.766.734t-.734 1.766.734 1.766 1.766.734q.898 0 1.586-.566t.867-1.434zM4.5 8h1.453q-.141-.664-.586-1.156zm3.75 0l2.25-3H6.75l-.773 1.031q.82.805.984 1.969H8.25zm8.75.5q0-1.031-.734-1.766T14.5 6q-.469 0-.945.187l1.359 2.031q.117.18.078.383t-.211.312q-.117.086-.281.086-.273 0-.414-.227l-1.359-2.031Q12 7.483 12 8.499q0 1.031.734 1.766t1.766.734 1.766-.734T17 8.499zm1 0q0 1.445-1.027 2.473T14.5 12t-2.473-1.027T11 8.5q0-.758.309-1.434t.855-1.168l-.508-.766-2.758 3.664q-.141.203-.398.203H6.961q-.18 1.281-1.164 2.141t-2.297.859q-1.445 0-2.473-1.027T0 8.499t1.027-2.473T3.5 4.999q.891 0 1.68.43l1.07-1.43H4.5q-.203 0-.352-.148T4 3.499t.148-.352.352-.148h3v1h3.398l-.664-1H8.5q-.203 0-.352-.148T8 2.499t.148-.352.352-.148h2q.258 0 .414.219L13 5.343q.711-.344 1.5-.344 1.445 0 2.473 1.027T18 8.499z"/></svg>