<svg xmlns="http://www.w3.org/2000/svg" width="14" height="14" viewBox="0 0 14 14"><path fill="#444" d="M14 11v3H0v-3q.352 0 .664-.109t.461-.215.367-.293q.234-.211.402-.297T2.335 10t.434.086.41.297q.227.195.367.297t.453.211.672.109q.352 0 .664-.113t.453-.211.375-.293q.164-.148.254-.211t.242-.117.34-.055q.273 0 .441.086t.402.297q.219.187.367.293t.461.215.664.109.664-.109.461-.215.367-.293q.234-.211.402-.297t.441-.086q.266 0 .434.086t.402.297q.219.187.367.293t.461.215.664.109zm0-2.5V10q-.273 0-.434-.086t-.41-.297q-.227-.195-.367-.297t-.453-.211T11.672 9q-.359 0-.672.109t-.453.211-.367.297q-.172.148-.258.211t-.242.117-.344.055q-.273 0-.441-.086t-.402-.297q-.227-.195-.367-.297t-.453-.211T7.001 9q-.352 0-.664.113t-.453.211-.375.293q-.164.148-.254.211t-.242.117-.34.055q-.273 0-.441-.086t-.402-.297q-.219-.187-.367-.293t-.461-.215T2.338 9q-.359 0-.672.109t-.453.211-.367.297q-.234.211-.402.297T.003 10V8.5q0-.625.438-1.062T1.503 7h.5V3.5h2V7h2V3.5h2V7h2V3.5h2V7h.5q.625 0 1.062.438t.438 1.062zM4 1.75q0 .602-.281.926T3 3q-.414 0-.707-.293T2 2q0-.227.074-.398t.184-.266.242-.219.242-.246.184-.348T3 0q.297 0 .648.578T4 1.75zm4 0q0 .602-.281.926T7 3q-.414 0-.707-.293T6 2q0-.227.074-.398t.184-.266.242-.219.242-.246.184-.348T7 0q.297 0 .648.578T8 1.75zm4 0q0 .602-.281.926T11 3q-.414 0-.707-.293T10 2q0-.227.074-.398t.184-.266.242-.219.242-.246.184-.348T11 0q.297 0 .648.578T12 1.75z"/></svg>