<svg xmlns="http://www.w3.org/2000/svg" width="11" height="14" viewBox="0 0 11 14"><path fill="#444" d="M6.367 6.711q.062.492-.395.789t-.871.047q-.305-.133-.418-.453t-.004-.641T5.085 6q.281-.141.566-.094t.5.277.215.527zm.867-.164q-.109-.836-.883-1.281t-1.539-.102q-.492.219-.785.691t-.27 1.012q.031.711.605 1.211t1.293.438q.711-.062 1.187-.656t.391-1.313zm1.868-4.234q-.156-.211-.438-.348t-.453-.172-.555-.098q-2.273-.367-4.422.016-.336.055-.516.094t-.43.172-.391.336q.234.219.594.355t.574.172.684.09q1.781.227 3.5.008.492-.062.699-.094t.566-.168.586-.363zm.445 8.085q-.062.203-.121.598t-.109.656-.223.547-.453.441q-.672.375-1.48.559t-1.578.172-1.574-.145q-.359-.062-.637-.141t-.598-.211-.57-.34-.406-.48q-.195-.75-.445-2.281l.047-.125.141-.07q1.742 1.156 3.957 1.156t3.965-1.156q.164.047.187.18t-.039.352-.062.289zm1.414-7.507q-.203 1.305-.867 5.117-.039.234-.211.438t-.34.312T9.117 9q-1.969.984-4.766.688-1.937-.211-3.078-1.086-.117-.094-.199-.207t-.133-.273-.07-.266-.047-.309-.043-.273L.574 6.102Q.437 5.321.355 4.84T.171 3.688t-.172-1.234q.023-.203.137-.379t.246-.293.352-.234.359-.176.375-.145q.977-.359 2.445-.5 2.961-.289 5.281.391 1.211.359 1.68.953.125.156.129.398t-.043.422z"/></svg>