<svg xmlns="http://www.w3.org/2000/svg" width="12" height="14" viewBox="0 0 12 14"><path fill="#444" d="M6.625 6.797q0-.336-.32-.516t-.602-.008q-.336.156-.332.566t.34.551q.305.18.633-.031t.281-.563zm.625-.125q.062.516-.281.945t-.859.477-.93-.312-.438-.883q-.016-.383.199-.727t.566-.5q.547-.242 1.105.078t.637.922zm1.344-3.055q-.156.164-.418.266t-.414.125-.496.062q-1.211.156-2.531 0-.344-.047-.492-.074t-.41-.125-.426-.254q.102-.148.281-.242T4 3.254t.367-.066q1.547-.273 3.188-.008.258.039.398.066t.336.125.305.246zm.328 5.828q0-.055.043-.207t.023-.25-.137-.129q-1.258.828-2.852.828T3.14 8.859l-.094.047L3.007 9q.203 1.203.32 1.641.367.633 1.594.844 1.945.359 3.344-.414.266-.148.383-.402t.176-.668.098-.555zm1.015-5.414q.07-.414-.062-.586-.336-.43-1.211-.688-1.688-.492-3.805-.281-1.031.094-1.766.359-.297.117-.465.195t-.367.266-.23.422q.062.531.148 1.078t.227 1.336.187 1.07q.008.039.039.242t.055.281.094.211.172.219q.82.625 2.219.781 2.023.219 3.438-.492.187-.102.309-.18t.242-.227.152-.312q.375-2.086.625-3.695zM12 3.25v7.5q0 .93-.66 1.59T9.75 13h-7.5q-.93 0-1.59-.66T0 10.75v-7.5q0-.93.66-1.59T2.25 1h7.5q.93 0 1.59.66T12 3.25z"/></svg>