<svg xmlns="http://www.w3.org/2000/svg" width="10" height="14" viewBox="0 0 10 14"><path fill="#444" d="M9.117 5q.141 1.422-1.023 2.016.914.219 1.367.805t.352 1.672q-.055.555-.254.977t-.504.695-.758.457-.949.27-1.137.117v1.992H5.008V12.04q-.625 0-.953-.008v1.969H2.852v-1.992q-.141 0-.422-.004T2 12.001H.437l.242-1.43h.867q.391 0 .453-.398V7.032h.125q-.047-.008-.125-.008V4.782q-.102-.531-.695-.531H.437V2.97l1.656.008q.5 0 .758-.008V1.001h1.203v1.93q.641-.016.953-.016V1.001H6.21V2.97q.617.055 1.094.176t.883.352.645.609.285.895zM7.438 9.258q0-.281-.117-.5t-.289-.359-.449-.238-.512-.145-.578-.07-.539-.023-.504.008-.371.008v2.641l.289.004q.227.004.375.004t.414-.012.457-.031.445-.066.434-.109.371-.164.309-.234.191-.312.074-.398zm-.555-3.719q0-.258-.098-.457t-.238-.328-.375-.219-.43-.129-.48-.062-.453-.02-.422.008-.309.004v2.398l.27.004q.231.004.363 0t.391-.016.43-.043.402-.086.379-.145.289-.211.211-.301.07-.398z"/></svg>