<svg xmlns="http://www.w3.org/2000/svg" width="14" height="14" viewBox="0 0 14 14"><path fill="#444" d="M4.461 4.602q-.078-.195-.266-.273t-.383 0q-.844.344-1.492.992t-.992 1.492q-.078.195 0 .383t.273.266q.102.039.187.039.328 0 .469-.312.266-.656.77-1.16t1.16-.77q.195-.086.273-.273t0-.383zM11.82 1.82l.359.359-1.906 1.898.531.531q.148.148.148.355t-.148.355l-.5.5q.695 1.258.695 2.68 0 1.117-.434 2.137t-1.172 1.758-1.758 1.172-2.137.434-2.137-.434-1.758-1.172-1.172-1.758-.434-2.137.434-2.137 1.172-1.758 1.758-1.172 2.137-.434q1.422 0 2.68.695l.5-.5q.148-.148.355-.148t.355.148l.531.531zm.063-.437q-.078.078-.172.078-.102 0-.18-.078L10.82.68q-.07-.078-.07-.18t.07-.18q.078-.07.18-.07t.18.07l.703.711q.078.07.078.176t-.078.176zM13.68 3.18q-.086.07-.18.07t-.18-.07l-.703-.711q-.078-.07-.078-.176t.078-.176q.07-.078.176-.078t.176.078l.711.703q.07.078.07.18t-.07.18zM14 1.75q0 .109-.07.18t-.18.07H13q-.109 0-.18-.07t-.07-.18.07-.18.18-.07h.75q.109 0 .18.07t.07.18zM12.5.25V1q0 .109-.07.18t-.18.07-.18-.07T12 1V.25q0-.109.07-.18t.18-.07.18.07.07.18zm1.18.43l-.711.703q-.078.078-.172.078-.102 0-.18-.078-.078-.07-.078-.176t.078-.176L13.32.32q.078-.07.18-.07t.18.07q.07.078.07.18t-.07.18z"/></svg>