<svg xmlns="http://www.w3.org/2000/svg" width="13" height="14" viewBox="0 0 13 14"><path fill="#444" d="M12.805 3.734q.312.445.141 1.008l-2.148 7.078q-.148.5-.598.84t-.957.34H2.032q-.602 0-1.16-.418t-.777-1.027q-.187-.523-.016-.992 0-.031.023-.211t.031-.289q.008-.062-.023-.168t-.023-.152q.016-.086.062-.164t.129-.184.129-.184q.18-.297.352-.715t.234-.715q.023-.078.004-.234t-.004-.219q.023-.086.133-.219t.133-.18q.164-.281.328-.719t.195-.703q.008-.07-.02-.25t.004-.219q.031-.102.172-.238t.172-.176q.148-.203.332-.66t.215-.754q.008-.062-.023-.199t-.016-.207q.016-.062.07-.141t.141-.18.133-.164q.062-.094.129-.238t.117-.273.125-.281.152-.25.207-.184.281-.09.371.043l-.008.023q.297-.07.398-.07h5.945q.578 0 .891.438t.141 1.016L9.57 9.531q-.281.93-.559 1.199T8.007 11H1.218q-.211 0-.297.117-.086.125-.008.336Q1.1 12 2.038 12h7.211q.227 0 .438-.121t.273-.324l2.344-7.711q.055-.172.039-.445.297.117.461.336zm-8.313.016q-.031.102.016.176T4.664 4h4.75q.102 0 .199-.074t.129-.176l.164-.5q.031-.102-.016-.176T9.734 3h-4.75q-.102 0-.199.074t-.129.176zm-.648 2q-.031.102.016.176T4.016 6h4.75q.102 0 .199-.074t.129-.176l.164-.5q.031-.102-.016-.176T9.086 5h-4.75q-.102 0-.199.074t-.129.176z"/></svg>