<svg xmlns="http://www.w3.org/2000/svg" width="13" height="14" viewBox="0 0 13 14"><path fill="#444" d="M12.75 7.5q0 .203-.148.352T12.25 8H10.5q0 1.336-.523 2.266l1.625 1.633q.148.148.148.352t-.148.352q-.141.148-.352.148t-.352-.148l-1.547-1.539q-.039.039-.117.102t-.328.223-.508.285-.641.227-.758.102v-7h-1v7q-.398 0-.793-.105t-.68-.258-.516-.305-.34-.254l-.117-.109-1.43 1.617q-.156.164-.375.164-.187 0-.336-.125-.148-.141-.16-.348t.121-.363l1.578-1.773q-.453-.891-.453-2.141H.748q-.203 0-.352-.148t-.148-.352.148-.352.352-.148h1.75V4.706L1.146 3.354q-.148-.148-.148-.352t.148-.352.352-.148.352.148l1.352 1.352h6.594l1.352-1.352q.148-.148.352-.148t.352.148.148.352-.148.352L10.5 4.706v2.297h1.75q.203 0 .352.148t.148.352zM9 3H4q0-1.039.73-1.77T6.5.5t1.77.73T9 3z"/></svg>