<svg xmlns="http://www.w3.org/2000/svg" width="11" height="14" viewBox="0 0 11 14"><path fill="#444" d="M3 10.25v.5q0 .102-.074.176T2.75 11h-.5q-.102 0-.176-.074T2 10.75v-.5q0-.102.074-.176T2.25 10h.5q.102 0 .176.074T3 10.25zm0-2v.5q0 .102-.074.176T2.75 9h-.5q-.102 0-.176-.074T2 8.75v-.5q0-.102.074-.176T2.25 8h.5q.102 0 .176.074T3 8.25zm2 0v.5q0 .102-.074.176T4.75 9h-.5q-.102 0-.176-.074T4 8.75v-.5q0-.102.074-.176T4.25 8h.5q.102 0 .176.074T5 8.25zm-2-2v.5q0 .102-.074.176T2.75 7h-.5q-.102 0-.176-.074T2 6.75v-.5q0-.102.074-.176T2.25 6h.5q.102 0 .176.074T3 6.25zm6 4v.5q0 .102-.074.176T8.75 11h-.5q-.102 0-.176-.074T8 10.75v-.5q0-.102.074-.176T8.25 10h.5q.102 0 .176.074T9 10.25zm-2-2v.5q0 .102-.074.176T6.75 9h-.5q-.102 0-.176-.074T6 8.75v-.5q0-.102.074-.176T6.25 8h.5q.102 0 .176.074T7 8.25zm-2-2v.5q0 .102-.074.176T4.75 7h-.5q-.102 0-.176-.074T4 6.75v-.5q0-.102.074-.176T4.25 6h.5q.102 0 .176.074T5 6.25zm-2-2v.5q0 .102-.074.176T2.75 5h-.5q-.102 0-.176-.074T2 4.75v-.5q0-.102.074-.176T2.25 4h.5q.102 0 .176.074T3 4.25zm6 4v.5q0 .102-.074.176T8.75 9h-.5q-.102 0-.176-.074T8 8.75v-.5q0-.102.074-.176T8.25 8h.5q.102 0 .176.074T9 8.25zm-2-2v.5q0 .102-.074.176T6.75 7h-.5q-.102 0-.176-.074T6 6.75v-.5q0-.102.074-.176T6.25 6h.5q.102 0 .176.074T7 6.25zm-2-2v.5q0 .102-.074.176T4.75 5h-.5q-.102 0-.176-.074T4 4.75v-.5q0-.102.074-.176T4.25 4h.5q.102 0 .176.074T5 4.25zm-2-2v.5q0 .102-.074.176T2.75 3h-.5q-.102 0-.176-.074T2 2.75v-.5q0-.102.074-.176T2.25 2h.5q.102 0 .176.074T3 2.25zm6 4v.5q0 .102-.074.176T8.75 7h-.5q-.102 0-.176-.074T8 6.75v-.5q0-.102.074-.176T8.25 6h.5q.102 0 .176.074T9 6.25zm-2-2v.5q0 .102-.074.176T6.75 5h-.5q-.102 0-.176-.074T6 4.75v-.5q0-.102.074-.176T6.25 4h.5q.102 0 .176.074T7 4.25zm-2-2v.5q0 .102-.074.176T4.75 3h-.5q-.102 0-.176-.074T4 2.75v-.5q0-.102.074-.176T4.25 2h.5q.102 0 .176.074T5 2.25zm4 2v.5q0 .102-.074.176T8.75 5h-.5q-.102 0-.176-.074T8 4.75v-.5q0-.102.074-.176T8.25 4h.5q.102 0 .176.074T9 4.25zm-2-2v.5q0 .102-.074.176T6.75 3h-.5q-.102 0-.176-.074T6 2.75v-.5q0-.102.074-.176T6.25 2h.5q.102 0 .176.074T7 2.25zm2 0v.5q0 .102-.074.176T8.75 3h-.5q-.102 0-.176-.074T8 2.75v-.5q0-.102.074-.176T8.25 2h.5q.102 0 .176.074T9 2.25zM7 13h3V1H1v12h3v-1.75q0-.102.074-.176T4.25 11h2.5q.102 0 .176.074T7 11.25V13zM11 .5v13q0 .203-.148.352T10.5 14H.5q-.203 0-.352-.148T0 13.5V.5Q0 .297.148.148T.5 0h10q.203 0 .352.148T11 .5z"/></svg>