<svg xmlns="http://www.w3.org/2000/svg" width="11" height="14" viewBox="0 0 11 14"><path fill="#444" d="M10.5 0q.203 0 .352.148T11 .5v13q0 .203-.148.352T10.5 14H.5q-.203 0-.352-.148T0 13.5V.5Q0 .297.148.148T.5 0h10zM4 2.25v.5q0 .109.07.18t.18.07h.5q.109 0 .18-.07T5 2.75v-.5q0-.109-.07-.18T4.75 2h-.5q-.109 0-.18.07T4 2.25zm0 2v.5q0 .109.07.18t.18.07h.5q.109 0 .18-.07T5 4.75v-.5q0-.109-.07-.18T4.75 4h-.5q-.109 0-.18.07T4 4.25zm0 2v.5q0 .109.07.18t.18.07h.5q.109 0 .18-.07T5 6.75v-.5q0-.109-.07-.18T4.75 6h-.5q-.109 0-.18.07T4 6.25zm0 2v.5q0 .109.07.18t.18.07h.5q.109 0 .18-.07T5 8.75v-.5q0-.109-.07-.18T4.75 8h-.5q-.109 0-.18.07T4 8.25zm-1 2.5v-.5q0-.109-.07-.18T2.75 10h-.5q-.109 0-.18.07t-.07.18v.5q0 .109.07.18t.18.07h.5q.109 0 .18-.07t.07-.18zm0-2v-.5q0-.109-.07-.18T2.75 8h-.5q-.109 0-.18.07T2 8.25v.5q0 .109.07.18t.18.07h.5q.109 0 .18-.07T3 8.75zm0-2v-.5q0-.109-.07-.18T2.75 6h-.5q-.109 0-.18.07T2 6.25v.5q0 .109.07.18t.18.07h.5q.109 0 .18-.07T3 6.75zm0-2v-.5q0-.109-.07-.18T2.75 4h-.5q-.109 0-.18.07T2 4.25v.5q0 .109.07.18t.18.07h.5q.109 0 .18-.07T3 4.75zm0-2v-.5q0-.109-.07-.18T2.75 2h-.5q-.109 0-.18.07T2 2.25v.5q0 .109.07.18t.18.07h.5q.109 0 .18-.07T3 2.75zm4 10v-1.5q0-.109-.07-.18T6.75 11h-2.5q-.109 0-.18.07t-.07.18v1.5q0 .109.07.18t.18.07h2.5q.109 0 .18-.07t.07-.18zm0-4v-.5q0-.109-.07-.18T6.75 8h-.5q-.109 0-.18.07T6 8.25v.5q0 .109.07.18t.18.07h.5q.109 0 .18-.07T7 8.75zm0-2v-.5q0-.109-.07-.18T6.75 6h-.5q-.109 0-.18.07T6 6.25v.5q0 .109.07.18t.18.07h.5q.109 0 .18-.07T7 6.75zm0-2v-.5q0-.109-.07-.18T6.75 4h-.5q-.109 0-.18.07T6 4.25v.5q0 .109.07.18t.18.07h.5q.109 0 .18-.07T7 4.75zm0-2v-.5q0-.109-.07-.18T6.75 2h-.5q-.109 0-.18.07T6 2.25v.5q0 .109.07.18t.18.07h.5q.109 0 .18-.07T7 2.75zm2 8v-.5q0-.109-.07-.18T8.75 10h-.5q-.109 0-.18.07t-.07.18v.5q0 .109.07.18t.18.07h.5q.109 0 .18-.07t.07-.18zm0-2v-.5q0-.109-.07-.18T8.75 8h-.5q-.109 0-.18.07T8 8.25v.5q0 .109.07.18t.18.07h.5q.109 0 .18-.07T9 8.75zm0-2v-.5q0-.109-.07-.18T8.75 6h-.5q-.109 0-.18.07T8 6.25v.5q0 .109.07.18t.18.07h.5q.109 0 .18-.07T9 6.75zm0-2v-.5q0-.109-.07-.18T8.75 4h-.5q-.109 0-.18.07T8 4.25v.5q0 .109.07.18t.18.07h.5q.109 0 .18-.07T9 4.75zm0-2v-.5q0-.109-.07-.18T8.75 2h-.5q-.109 0-.18.07T8 2.25v.5q0 .109.07.18t.18.07h.5q.109 0 .18-.07T9 2.75z"/></svg>