<svg xmlns="http://www.w3.org/2000/svg" width="14" height="14" viewBox="0 0 14 14"><path fill="#444" d="M13 5q.414 0 .707.293T14 6t-.293.707T13 7v3q0 .406-.297.703T12 11Q8.742 8.289 5.656 8.031q-.453.148-.711.516t-.242.785.312.723q-.156.258-.18.512t.047.453.262.43.375.391.48.395q-.227.453-.871.648t-1.316.09-1.031-.434q-.055-.18-.23-.684t-.25-.738-.18-.695-.117-.789.027-.77.172-.863H1.25q-.516 0-.883-.367T0 6.751v-1.5q0-.516.367-.883t.883-.367H5q3.398 0 7-3 .406 0 .703.297t.297.703v3zm-1 4.719V2.266q-3.078 2.359-6 2.68v2.109q2.945.328 6 2.664z"/></svg>