<svg xmlns="http://www.w3.org/2000/svg" width="12" height="14" viewBox="0 0 12 14"><path fill="#444" d="M8 7q0 .828-.586 1.414T6 9t-1.414-.586T4 7t.586-1.414T6 5t1.414.586T8 7zm1 0q0-1.242-.879-2.121T6 4t-2.121.879T3 7t.879 2.121T6 10t2.121-.879T9 7zm1 0q0 1.656-1.172 2.828T6 11 3.172 9.828 2 7t1.172-2.828T6 3t2.828 1.172T10 7zm1 0q0-1.016-.398-1.941T9.536 3.465 7.942 2.399t-1.941-.398-1.941.398-1.594 1.066T1.4 5.059 1.002 7 1.4 8.941t1.066 1.594 1.594 1.066 1.941.398 1.941-.398 1.594-1.066 1.066-1.594T11 7zm1 0q0 1.633-.805 3.012t-2.184 2.184-3.012.805-3.012-.805-2.184-2.184T-.002 7t.805-3.012 2.184-2.184T5.999.999t3.012.805 2.184 2.184T12 7z"/></svg>