<svg xmlns="http://www.w3.org/2000/svg" width="12" height="14" viewBox="0 0 12 14"><path fill="#444" d="M3 9.5q0-.414-.293-.707T2 8.5t-.707.293T1 9.5t.293.707T2 10.5t.707-.293T3 9.5zm8 0q0-.414-.293-.707T10 8.5t-.707.293T9 9.5t.293.707.707.293.707-.293T11 9.5zm-.359-3.094l-.563-3q-.039-.18-.176-.293T9.586 3H2.414q-.18 0-.316.113t-.176.293l-.563 3q-.039.234.109.414t.383.18h8.297q.234 0 .383-.18t.109-.414zM8.875 1.625q0-.156-.109-.266T8.5 1.25h-5q-.156 0-.266.109t-.109.266.109.266T3.5 2h5q.156 0 .266-.109t.109-.266zM12 7.289V12h-1v1q0 .414-.293.707T10 14t-.707-.293T9 13v-1H3v1q0 .414-.293.707T2 14t-.707-.293T1 13v-1H0V7.289q0-.875.195-1.742L1 2q.07-.609.762-1.07T3.559.235 6 .001t2.441.234 1.797.695T11 2l.82 3.547q.18.797.18 1.742z"/></svg>