<svg xmlns="http://www.w3.org/2000/svg" width="13" height="14" viewBox="0 0 13 14"><path fill="#444" d="M12 2q.406 0 .703.297T13 3v10q0 .406-.297.703T12 14H1q-.406 0-.703-.297T0 13V3q0-.406.297-.703T1 2h1v-.75q0-.516.367-.883T3.25 0h.5q.516 0 .883.367T5 1.25V2h3v-.75q0-.516.367-.883T9.25 0h.5q.516 0 .883.367T11 1.25V2h1zm-3-.75V3.5q0 .109.07.18t.18.07h.5q.109 0 .18-.07T10 3.5V1.25q0-.109-.07-.18T9.75 1h-.5q-.109 0-.18.07T9 1.25zm-6 0V3.5q0 .109.07.18t.18.07h.5q.109 0 .18-.07T4 3.5V1.25q0-.109-.07-.18T3.75 1h-.5q-.109 0-.18.07T3 1.25zM12 13V5H1v8h11zM7 8.5h1.75q.109 0 .18.07t.07.18v.5q0 .109-.07.18t-.18.07H7v1.75q0 .109-.07.18t-.18.07h-.5q-.109 0-.18-.07T6 11.25V9.5H4.25q-.109 0-.18-.07T4 9.25v-.5q0-.109.07-.18t.18-.07H6V6.75q0-.109.07-.18t.18-.07h.5q.109 0 .18.07t.07.18V8.5z"/></svg>