<svg xmlns="http://www.w3.org/2000/svg" width="13" height="14" viewBox="0 0 13 14"><path fill="#444" d="M10.18 7.531l-4 4q-.078.07-.18.07t-.18-.07l-2.25-2.25q-.07-.078-.07-.18t.07-.172l.359-.359q.07-.07.172-.07t.18.07L6 10.289 9.469 6.82q.078-.07.18-.07t.172.07l.359.359q.07.07.07.172t-.07.18zM1 13h11V5H1v8zm3-9.5V1.25q0-.109-.07-.18T3.75 1h-.5q-.109 0-.18.07T3 1.25V3.5q0 .109.07.18t.18.07h.5q.109 0 .18-.07T4 3.5zm6 0V1.25q0-.109-.07-.18T9.75 1h-.5q-.109 0-.18.07T9 1.25V3.5q0 .109.07.18t.18.07h.5q.109 0 .18-.07T10 3.5zm3-.5v10q0 .406-.297.703T12 14H1q-.406 0-.703-.297T0 13V3q0-.406.297-.703T1 2h1v-.75q0-.516.367-.883T3.25 0h.5q.516 0 .883.367T5 1.25V2h3v-.75q0-.516.367-.883T9.25 0h.5q.516 0 .883.367T11 1.25V2h1q.406 0 .703.297T13 3z"/></svg>