<svg xmlns="http://www.w3.org/2000/svg" width="14" height="14" viewBox="0 0 14 14"><path fill="#444" d="M7.25 6.5q0-.109-.07-.18T7 6.25q-.516 0-.883.367T5.75 7.5q0 .109.07.18t.18.07.18-.07.07-.18q0-.312.219-.531T7 6.75q.109 0 .18-.07t.07-.18zM9 7.516q0 .828-.586 1.414T7 9.516 5.586 8.93 5 7.516t.586-1.414T7 5.516t1.414.586T9 7.516zM1 12h12v-1H1v1zm9-4.484q0-1.242-.879-2.121T7 4.516t-2.121.879T4 7.516t.879 2.121T7 10.516t2.121-.879T10 7.516zM2 2.5h3v-1H2v1zM1 4h12V2H6.531l-.5 1H1v1zm13-2v10q0 .414-.293.707T13 13H1q-.414 0-.707-.293T0 12V2q0-.414.293-.707T1 1h12q.414 0 .707.293T14 2z"/></svg>