<svg xmlns="http://www.w3.org/2000/svg" width="13" height="14" viewBox="0 0 13 14"><path fill="#444" d="M10 5.5q0-.203-.148-.352T9.5 5t-.352.148L8 6.289V4q0-.203-.148-.352T7.5 3.5t-.352.148T7 4v2.289L5.852 5.148Q5.704 5 5.5 5t-.352.148T5 5.5t.148.352l2 2Q7.296 8 7.5 8t.352-.148l2-2Q10 5.704 10 5.5zM5 12q0 .414-.293.707T4 13t-.707-.293T3 12t.293-.707T4 11t.707.293T5 12zm7 0q0 .414-.293.707T11 13t-.707-.293T10 12t.293-.707T11 11t.707.293T12 12zm1-8.5v4q0 .187-.125.332t-.32.168l-8.156.953q.008.055.035.168t.047.207.02.172q0 .125-.187.5h7.187q.203 0 .352.148t.148.352-.148.352-.352.148h-8q-.203 0-.352-.148t-.148-.352q0-.109.086-.309t.23-.465.16-.297l-1.383-6.43H.5q-.203 0-.352-.148T0 2.499t.148-.352.352-.148h2q.125 0 .223.051t.156.121.102.191.059.207.043.23.035.199h9.383q.203 0 .352.148t.148.352z"/></svg>