<svg xmlns="http://www.w3.org/2000/svg" width="18" height="14" viewBox="0 0 18 14"><path fill="#444" d="M.93 5.328h.695l-.352-.844zm4.851 4.11l.578-.617-.547-.617H4.539v.383h1.109v.43H4.539v.422h1.242zm1.235-.61l.773.859V7.992zm2.25-.367q0-.258-.312-.258h-.656v.539h.648q.32 0 .32-.281zm2.257-.031q0-.227-.328-.227h-.641v.477h.633q.336 0 .336-.25zM9.352 4.789q0-.227-.328-.227h-.641v.469h.633q.336 0 .336-.242zm3.586.539h.695l-.344-.844zM5.461 4.117v2.117h-.516V4.578l-.734 1.656h-.445l-.734-1.656v1.656H2.001l-.195-.469H.751l-.195.469H.009l.906-2.117h.75l.859 2.008V4.117h.828l.664 1.438.602-1.438h.844zm4.344 4.344q0 .156-.043.273t-.109.195-.176.129-.203.078-.246.035-.246.008-.254-.004-.23-.004v.711h-.984l-.625-.703-.648.703h-2V7.765h2.031l.625.695.641-.695h1.617q.852 0 .852.695zM7.531 5.797v.438H5.836V4.118h1.695v.445H6.344v.383H7.5v.43H6.344v.422h1.187zM18 10.164v1.789q0 .43-.301.738t-.73.309H1.032q-.43 0-.73-.309t-.301-.738V6.656h.867l.195-.477h.43l.195.477h1.703v-.359l.148.359h.883l.156-.367v.367h4.227v-.773l.078-.008q.078 0 .078.109v.672h2.18v-.18q.18.094.43.141t.41.051.492-.004.402-.008l.195-.477h.438l.195.477h1.773v-.453l.266.453h1.422V3.703h-1.406v.344l-.195-.344h-1.445v.344l-.18-.344h-1.945q-.539 0-.852.172v-.172H9.797v.172q-.187-.172-.57-.172H4.321l-.336.758-.336-.758H2.102v.344l-.172-.344H.61L.001 5.101V2.046q0-.43.301-.738t.73-.309h15.937q.43 0 .73.309t.301.738v5.297h-.937q-.398 0-.633.172v-.172h-1.383q-.43 0-.609.172v-.172h-2.469v.172q-.242-.172-.68-.172H9.656v.172q-.18-.172-.711-.172H7.117l-.422.453-.391-.453H3.577v2.953h2.68l.43-.461.406.461h1.648v-.695h.164q.461 0 .703-.102v.797h1.359v-.773h.062q.062 0 .078.016t.016.078v.68h4.133q.445 0 .688-.187v.187h1.313q.469 0 .742-.133zm-5.922-1.828q0 .18-.094.336t-.266.227q.195.07.266.203t.07.359v.422h-.508v-.352q0-.258-.094-.34t-.359-.082h-.539v.773h-.508V7.765h1.203q.375 0 .602.117t.227.453zM9.914 4.687q0 .187-.098.344t-.262.227q.203.07.27.199t.066.363v.414h-.508q0-.07.004-.207t0-.195-.023-.145-.066-.125-.137-.066-.23-.027h-.547v.766h-.5V4.118l1.195.008q.383 0 .609.113t.227.449zm4.133 4.758v.438h-1.688V7.766h1.688v.438h-1.18v.383h1.156v.43h-1.156v.422zm-3.328-5.328v2.117h-.516V4.117h.516zm5.414 5.094q0 .672-.797.672h-.984V9.43h.984q.266 0 .266-.195 0-.125-.133-.164t-.324-.039-.387-.027-.328-.176-.133-.43q0-.305.203-.469t.516-.164h1.016v.445h-.93q-.281 0-.281.195 0 .125.137.16t.328.031.383.02.328.168.137.426zM18 8.82v.789q-.187.273-.688.273h-.977v-.453h.977q.258 0 .258-.195 0-.102-.098-.148t-.242-.043-.312-.016-.312-.062-.242-.187-.098-.379q0-.305.207-.469t.52-.164h1.008v.445h-.922q-.281 0-.281.195 0 .156.227.172t.535.039.441.203zm-1.289-4.695v2.109h-.719l-.953-1.586v1.586h-1.031l-.203-.469h-1.047l-.195.469h-.586q-1.008 0-1.008-1.039 0-1.078 1.039-1.078h.492v.461q-.055 0-.219-.008t-.223-.004-.18.016-.168.051-.113.105-.09.18-.023.262q0 .297.105.453t.387.156h.227l.719-1.664h.758l.852 2v-2h.773l.891 1.469V4.125h.516z"/></svg>