<svg xmlns="http://www.w3.org/2000/svg" width="18" height="14" viewBox="0 0 18 14"><path fill="#444" d="M2.445 6.07q0 .398-.281.656-.227.203-.695.203h-.133V5.21h.133q.477 0 .695.211.281.242.281.648zm13.875-.508q0 .406-.5.406h-.148v-.789h.156q.492 0 .492.383zM2.969 6.07q0-.578-.391-.941T1.57 4.766H.828v2.602h.742q.578 0 .93-.297.469-.398.469-1zm.234 1.297h.508V4.765h-.508v2.602zm2.5-.789q0-.312-.16-.484t-.59-.328q-.227-.078-.309-.148t-.082-.18q0-.125.105-.207t.27-.082q.227 0 .414.211l.266-.344q-.32-.289-.766-.289-.344 0-.578.215t-.234.527q0 .273.141.434t.5.285q.289.102.352.148.148.094.148.266 0 .156-.109.262t-.281.105q-.375 0-.555-.344l-.328.312q.344.5.898.5.398 0 .648-.238t.25-.621zm2.172.703v-.602q-.289.289-.609.289-.383 0-.629-.254t-.246-.645q0-.375.246-.637t.605-.262q.336 0 .633.297v-.602q-.312-.156-.625-.156-.578 0-.98.395t-.402.965.398.965.977.395q.328 0 .633-.148zM17.5 12V7.883q-.508.312-1.129.656t-1.855.914-2.574 1.074-3.262 1.051-3.938.922H17q.203 0 .352-.148T17.5 12zm-6.648-5.914q0-.586-.414-1t-1-.414-1 .414-.414 1 .414 1 1 .414 1-.414.414-1zm1.187 1.352l1.125-2.672h-.555l-.703 1.75-.695-1.75h-.555l1.109 2.672h.273zm1.352-.071h1.438v-.438h-.93v-.703h.898v-.438h-.898V5.21h.93v-.445h-1.438v2.602zm3.054 0h.625l-.82-1.094q.594-.125.594-.734 0-.367-.242-.57t-.68-.203h-.758v2.602h.508V6.329h.07zM18 2.047v9.906q0 .438-.301.742t-.73.305H1.032q-.43 0-.73-.305t-.301-.742V2.047q0-.438.301-.742T1.032 1h15.937q.43 0 .73.305t.301.742z"/></svg>