<svg xmlns="http://www.w3.org/2000/svg" width="18" height="14" viewBox="0 0 18 14"><path fill="#444" d="M6.703 9.695V4.281q-.828.32-1.344 1.059t-.516 1.652.516 1.652 1.344 1.051zm3.938-2.703q0-.914-.516-1.652T8.781 4.281v5.422q.828-.32 1.344-1.059t.516-1.652zm1.679 0q0 1.242-.613 2.297t-1.668 1.668-2.297.613q-.93 0-1.777-.363t-1.461-.977-.977-1.461-.363-1.777q0-1.242.613-2.297t1.668-1.668 2.297-.613 2.297.613 1.668 1.668.613 2.297zm2.993.055q0-1.086-.434-2.043t-1.152-1.605-1.668-1.023-1.973-.375H7.734q-1.375 0-2.527.633T3.371 4.431t-.684 2.617q0 1.336.68 2.48t1.844 1.809 2.523.664h2.352q1.008 0 1.965-.395t1.676-1.055 1.152-1.582.434-1.922zM18 2v10q0 .406-.297.703T17 13H1q-.406 0-.703-.297T0 12V2q0-.406.297-.703T1 1h16q.406 0 .703.297T18 2z"/></svg>