<svg xmlns="http://www.w3.org/2000/svg" width="18" height="14" viewBox="0 0 18 14"><path fill="#444" d="M15.242 7.797q0 .203-.121.348t-.301.184q-.062.016-.141.016h-1.195V7.251h1.195q.078 0 .141.016.18.039.301.184t.121.348zm-.14-1.664q0 .195-.117.328t-.297.164q-.023.008-.117.008h-1.086V5.625h1.086q.023 0 .066.004t.051.004q.18.031.297.168t.117.332zM5.688 7.414V5.008H3.907v2.406q0 .453-.297.738t-.82.285q-.844 0-1.789-.461v.875q.414.117.945.18t.852.07l.328.008q2.563 0 2.563-1.695zm5.578 1.438v-.883q-.773.406-1.563.461-.844.062-1.32-.32t-.477-1.109.477-1.109 1.32-.32q.789.055 1.563.453V5.15q-.375-.094-.781-.152t-.625-.074l-.219-.016q-.992-.047-1.707.109t-1.098.469-.555.688-.172.828.172.828.555.688 1.098.469 1.707.109q.789-.031 1.625-.242zM17 7.953q0-.422-.336-.691t-.852-.309V6.93q.445-.062.695-.324t.25-.621q0-.43-.32-.688t-.836-.281l-.094-.004q-.071-.004-.109-.004h-3.555v3.984h3.836q.578 0 .949-.285t.371-.754zM18 2v10q0 .406-.297.703T17 13H1q-.406 0-.703-.297T0 12V2q0-.406.297-.703T1 1h16q.406 0 .703.297T18 2z"/></svg>