<svg xmlns="http://www.w3.org/2000/svg" width="18" height="14" viewBox="0 0 18 14"><path fill="#444" d="M5.242 7.289H5.14q-.367 0-.367.25 0 .172.156.172.133 0 .219-.117t.094-.305zm3.086-.281h.484v-.023q.008-.031.004-.051t-.008-.055-.016-.062-.035-.051-.059-.039-.09-.016q-.219 0-.281.297zm4.219.281h-.094q-.375 0-.375.25 0 .172.156.172.133 0 .219-.117t.094-.305zm2.492-.203q0-.32-.234-.32-.148 0-.242.156t-.094.398q0 .328.219.328.156 0 .254-.156t.098-.406zM3.75 5.984h.68l-.344 2.047h-.438l.25-1.57-.555 1.57h-.305l-.031-1.563-.266 1.563h-.414l.344-2.047h.633l.016 1.273zm1.977.836q0 .047-.031.328-.125.789-.133.883h-.367l.008-.172q-.156.203-.453.203-.18 0-.293-.125t-.113-.328q0-.305.203-.473t.57-.168q.109 0 .18.008 0-.023.004-.043t.008-.035.004-.023q0-.156-.281-.156-.227 0-.461.078 0-.031.055-.375.297-.086.523-.086.578 0 .578.484zm1.218-.453l-.062.383q-.172-.023-.32-.023-.211 0-.211.133 0 .062.035.094t.168.086q.312.148.312.469 0 .563-.68.555-.266 0-.453-.047 0-.016.055-.383.227.062.398.062.25 0 .25-.148 0-.055-.035-.09t-.168-.098q-.336-.156-.336-.461 0-.563.656-.563.234 0 .391.031zm.688 0h.219l-.055.406H7.57q-.016.133-.051.316t-.055.301-.02.141q0 .125.148.125.062 0 .125-.016l-.062.367q-.164.055-.312.055-.336 0-.352-.367 0-.094.062-.438.023-.156.195-1.141h.43zm1.586.571q0 .18-.055.406h-.867q-.023.172.078.258t.297.086q.234 0 .453-.109l-.07.422q-.234.062-.445.062-.742 0-.742-.742 0-.43.215-.707t.543-.277q.273 0 .434.164t.16.438zm1.086-.579q-.102.18-.172.484-.172-.016-.242.187t-.195 1h-.438l.023-.109q.172-1.016.227-1.555h.398l-.023.258q.109-.164.199-.23t.223-.035zm1.461-.32l-.07.445q-.219-.109-.391-.109-.242 0-.398.215t-.156.551q0 .234.105.367t.301.133q.164 0 .375-.102L11.454 8q-.219.062-.391.062-.352 0-.559-.238t-.207-.645q0-.547.277-.895t.715-.348q.203 0 .477.102zm1.265.781q0 .141-.031.328-.102.617-.133.883h-.359l.008-.172q-.156.203-.461.203-.18 0-.289-.125t-.109-.328q0-.305.199-.473t.566-.168q.117 0 .18.008.016-.055.016-.102 0-.156-.281-.156-.227 0-.461.078 0-.031.062-.375.297-.086.523-.086.57 0 .57.484zm1.102-.461q-.109.187-.164.484-.18-.016-.246.18t-.199 1.008h-.438l.023-.109q.148-.813.227-1.555h.406q0 .086-.031.258.117-.164.207-.23t.215-.035zm1.101-.375h.438l-.336 2.047h-.414l.023-.148q-.18.18-.406.18-.242 0-.387-.187t-.145-.5q0-.414.215-.719t.504-.305q.242 0 .414.227zM16.102 7q0-1.156-.566-2.133T13.989 3.32t-2.137-.57q-1.414 0-2.563.859.992.906 1.336 2.219h-.391Q9.89 4.656 9 3.851q-.891.805-1.234 1.977h-.391q.344-1.313 1.336-2.219-1.148-.859-2.563-.859-1.156 0-2.137.57T2.464 4.867 1.898 7t.566 2.133 1.547 1.547 2.137.57q1.414 0 2.563-.859-.937-.867-1.289-2.062h.391Q8.172 9.407 9 10.149q.828-.742 1.187-1.82h.391q-.352 1.195-1.289 2.062 1.148.859 2.563.859 1.156 0 2.137-.57t1.547-1.547T16.102 7zM18 2v10q0 .406-.297.703T17 13H1q-.406 0-.703-.297T0 12V2q0-.406.297-.703T1 1h16q.406 0 .703.297T18 2z"/></svg>