<svg xmlns="http://www.w3.org/2000/svg" width="18" height="14" viewBox="0 0 18 14"><path fill="#444" d="M5.82 7.078q0 .289-.199.48t-.488.191q-.227 0-.363-.125t-.137-.344q0-.289.195-.488t.484-.199q.219 0 .363.129t.145.355zm6.133-1.164q0 .328-.172.445t-.516.117l-.25.008.133-.836q.016-.086.102-.086h.141q.172 0 .273.016t.195.098.094.238zm2.742 1.164q0 .281-.199.477t-.48.195q-.227 0-.367-.125t-.141-.344q0-.289.195-.488t.484-.199q.219 0 .363.129t.145.355zM4.008 5.742q0-.461-.301-.668t-.785-.207h-1.25q-.148 0-.164.148L1 8.203q-.008.047.023.086t.078.039h.594q.156 0 .172-.148l.141-.859q.008-.062.055-.102t.117-.051.133-.012.148.008.109.008q.672 0 1.055-.379t.383-1.051zM6.422 8.18l.32-2.039q.008-.047-.023-.086t-.078-.039h-.594q-.109 0-.133.258-.211-.312-.742-.312-.563 0-.957.422t-.395.992q0 .461.27.734t.723.273q.219 0 .453-.094t.375-.25q-.031.094-.031.164 0 .125.102.125h.539q.148 0 .172-.148zm3.492-2.055q0-.039-.031-.074t-.07-.035h-.602q-.086 0-.141.078l-.828 1.219-.344-1.172q-.039-.125-.172-.125H7.14q-.039 0-.07.035t-.031.074q0 .016.152.461t.328.961.184.547q-.641.875-.641.937 0 .102.102.102h.602q.086 0 .141-.078L9.899 6.18q.016-.016.016-.055zm2.969-.383q0-.461-.301-.668t-.785-.207h-1.242q-.156 0-.172.148l-.508 3.188q-.008.047.023.086t.078.039h.641q.094 0 .125-.102l.141-.906q.008-.062.055-.102t.117-.051.133-.012.148.008.109.008q.672 0 1.055-.379t.383-1.051zm2.414 2.438l.32-2.039q.008-.047-.023-.086t-.078-.039h-.594q-.109 0-.133.258-.203-.312-.742-.312-.563 0-.957.422t-.395.992q0 .461.27.734t.723.273q.227 0 .461-.094t.367-.25q0 .008-.016.07t-.016.094q0 .125.102.125h.539q.148 0 .172-.148zM17 4.984v-.008q0-.109-.102-.109h-.578q-.086 0-.102.086l-.508 3.25-.008.016q0 .039.031.074t.078.035h.516q.148 0 .164-.148zM3.063 6.031q-.039.273-.203.359t-.469.086l-.258.008.133-.836q.016-.086.102-.086h.148q.312 0 .453.09t.094.379zM18 2v10q0 .406-.297.703T17 13H1q-.406 0-.703-.297T0 12V2q0-.406.297-.703T1 1h16q.406 0 .703.297T18 2z"/></svg>