<svg xmlns="http://www.w3.org/2000/svg" width="18" height="14" viewBox="0 0 18 14"><path fill="#444" d="M12.477 7.055q0 .539-.164.828-.148.273-.406.273-.18 0-.32-.07v-1.75q.227-.234.445-.234.445 0 .445.953zm3.421-.282h-.859q.047-.766.438-.766.398 0 .422.766zM3.719 7.828q0-.461-.258-.715t-.789-.449q-.281-.102-.406-.187t-.125-.195q0-.203.297-.203.453 0 .969.258l.141-.875q-.523-.25-1.164-.25-.602 0-.961.297-.375.305-.375.852 0 .453.254.707t.777.441q.305.109.426.199t.121.215q0 .242-.375.242-.227 0-.547-.098t-.563-.238L1 8.712q.563.32 1.312.32.633 0 1.008-.289.398-.32.398-.914zm2.304-1.68l.148-.867h-.75V4.226l-1.008.164-.141.891-.359.062-.133.805h.484v1.711q0 .656.344.937.297.234.867.234.25 0 .617-.086v-.922q-.25.055-.344.055-.328 0-.328-.391V6.147h.602zm2.469.196V5.258q-.117-.023-.219-.023-.25 0-.434.125t-.262.359l-.078-.438H6.476v3.68h1.172V6.57q.203-.242.641-.242.125 0 .203.016zm.289 2.617h1.172v-3.68H8.781v3.68zm4.86-1.945q0-.953-.352-1.398-.312-.406-.867-.406-.5 0-.914.438l-.062-.367h-1.031v5.039l1.172-.195v-1.18q.281.086.531.086.648 0 1.047-.438.477-.508.477-1.578zM9.984 4.297q0-.258-.18-.438t-.438-.18-.438.18-.18.438.18.441.438.184.438-.184.18-.441zM17 7.086q0-.883-.375-1.375-.391-.5-1.125-.5-.75 0-1.184.516t-.434 1.406q0 1 .492 1.469.43.43 1.258.43.789 0 1.25-.312l-.125-.805q-.445.242-1 .242-.336 0-.492-.148-.18-.148-.219-.516h1.937q.016-.109.016-.406zM18 2v10q0 .406-.297.703T17 13H1q-.406 0-.703-.297T0 12V2q0-.406.297-.703T1 1h16q.406 0 .703.297T18 2z"/></svg>