<svg xmlns="http://www.w3.org/2000/svg" width="18" height="14" viewBox="0 0 18 14"><path fill="#444" d="M15.43 7.734h-1.078q.109-.289.516-1.398l.023-.07.078-.203q.047-.125.07-.203l.094.43zM4.148 7.227l-.453-2.305Q3.609 4.5 3.109 4.5H1.015l-.016.102q2.43.617 3.148 2.625zM5.547 4.5L4.281 7.922l-.133-.695q-.203-.547-.664-1.012t-1.023-.691l1.055 3.984h1.367L6.922 4.5H5.547zm1.086 5.016H7.93L8.743 4.5H7.446zm6-4.891q-.539-.211-1.164-.211-.961 0-1.57.461T9.282 6.07q-.008.797 1.133 1.359.375.18.523.32t.148.305q0 .234-.234.359t-.539.125q-.672 0-1.219-.258l-.172-.086-.18 1.125q.578.266 1.445.266 1.016.008 1.629-.461t.629-1.25q0-.828-1.094-1.359-.383-.195-.555-.328t-.172-.297q0-.172.191-.301t.551-.129q.547-.008.969.187l.117.062zm3.32-.125h-1q-.508 0-.68.422l-1.922 4.594h1.359l.273-.75h1.656q.039.172.156.75h1.203zM18 2v10q0 .406-.297.703T17 13H1q-.406 0-.703-.297T0 12V2q0-.406.297-.703T1 1h16q.406 0 .703.297T18 2z"/></svg>