<svg xmlns="http://www.w3.org/2000/svg" width="16" height="14" viewBox="0 0 16 14"><path fill="#444" d="M6.133 7.875H7.75q-.109 1.234-.77 1.941t-1.676.707q-1.266 0-1.988-.906t-.723-2.469q0-1.516.727-2.434t1.82-.918q1.156 0 1.812.68t.758 1.93H6.124q-.039-.5-.277-.773T5.21 5.36q-.445 0-.691.473T4.273 7.22q0 .375.039.656t.141.543.312.402.516.141q.742 0 .852-1.086zm5.562 0h1.609q-.109 1.234-.766 1.941t-1.672.707q-1.266 0-1.988-.906t-.723-2.469q0-1.516.727-2.434t1.82-.918q1.156 0 1.812.68t.758 1.93h-1.594q-.031-.5-.273-.773t-.633-.273q-.445 0-.691.473T9.835 7.22q0 .375.039.656t.141.543.309.402.512.141q.383 0 .598-.297t.262-.789zm2.805-.93q0-1.617-.121-2.398t-.473-1.258q-.047-.062-.105-.109t-.168-.117-.125-.086q-.672-.492-5.445-.492-4.883 0-5.547.492-.039.031-.137.09t-.164.109-.113.113q-.352.469-.469 1.246t-.117 2.41q0 1.625.117 2.402t.469 1.254q.047.062.117.117t.16.109.137.094q.344.258 1.871.383t3.676.125q4.766 0 5.445-.508.039-.031.133-.086t.16-.109.105-.125q.359-.469.477-1.242t.117-2.414zM16 1v12H0V1h16z"/></svg>