<svg xmlns="http://www.w3.org/2000/svg" width="12" height="14" viewBox="0 0 12 14"><path fill="#444" d="M10.75 7l1.078 1.055q.234.219.156.547-.094.32-.406.398l-1.469.375.414 1.453q.094.32-.148.547-.227.242-.547.148l-1.453-.414L8 12.578q-.078.312-.398.406-.094.016-.148.016-.242 0-.398-.172L6.001 11.75l-1.055 1.078q-.219.234-.547.156-.32-.086-.398-.406l-.375-1.469-1.453.414q-.32.094-.547-.148-.242-.227-.148-.547l.414-1.453L.423 9q-.312-.078-.406-.398-.078-.328.156-.547L1.251 7 .173 5.945q-.234-.219-.156-.547.094-.32.406-.398l1.469-.375-.414-1.453q-.094-.32.148-.547.227-.242.547-.148l1.453.414.375-1.469q.078-.32.398-.398.32-.094.547.148l1.055 1.086 1.055-1.086q.227-.234.547-.148.32.078.398.398l.375 1.469 1.453-.414q.32-.094.547.148.242.227.148.547l-.414 1.453L11.579 5q.312.078.406.398.078.328-.156.547z"/></svg>