<svg xmlns="http://www.w3.org/2000/svg" width="13" height="14" viewBox="0 0 13 14"><path fill="#444" d="M11 7.266V9.75q0 .93-.66 1.59T8.75 12h-6.5q-.93 0-1.59-.66T0 9.75v-6.5q0-.93.66-1.59T2.25 1h6.5q.492 0 .914.195.117.055.141.18.023.133-.07.227l-.383.383q-.078.078-.18.078-.023 0-.07-.016Q8.922 2 8.75 2h-6.5q-.516 0-.883.367T1 3.25v6.5q0 .516.367.883T2.25 11h6.5q.516 0 .883-.367T10 9.75V7.766q0-.102.07-.172l.5-.5q.078-.078.18-.078.047 0 .094.023.156.062.156.227zm1.805-3.821L6.446 9.804q-.187.187-.445.187t-.445-.187L2.197 6.445Q2.01 6.258 2.01 6t.187-.445l.859-.859q.187-.187.445-.187t.445.187l2.055 2.055 5.055-5.055q.187-.187.445-.187t.445.187l.859.859q.187.187.187.445t-.187.445z"/></svg>