<svg xmlns="http://www.w3.org/2000/svg" width="12" height="14" viewBox="0 0 12 14"><path fill="#444" d="M10.031 5.734q0-.219-.141-.359l-.711-.703q-.148-.148-.352-.148t-.352.148l-3.188 3.18-1.766-1.766q-.148-.148-.352-.148t-.352.148l-.711.703q-.141.141-.141.359 0 .211.141.352l2.828 2.828q.148.148.352.148.211 0 .359-.148l4.242-4.242q.141-.141.141-.352zM12 7q0 1.633-.805 3.012t-2.184 2.184-3.012.805-3.012-.805-2.184-2.184T-.002 7t.805-3.012 2.184-2.184T5.999.999t3.012.805 2.184 2.184T12 7z"/></svg>