<svg xmlns="http://www.w3.org/2000/svg" width="14" height="14" viewBox="0 0 14 14"><path fill="#444" d="M6.977 0Q8.852-.016 10.5.937q1.812 1.047 2.75 2.906l-5.797-.305q-1.25-.07-2.297.582T3.711 5.913L1.555 2.6q1-1.242 2.43-1.918t2.992-.684zM1.141 3.164l2.633 5.18q.563 1.117 1.648 1.695t2.289.352l-1.797 3.523q-1.656-.258-3.008-1.23T.777 10.215 0 7q0-2.086 1.141-3.836zm12.39 1.32q.453 1.172.465 2.426t-.379 2.391-1.195 2.125-1.922 1.637q-1.797 1.039-3.891.93l3.164-4.867q.688-1.023.645-2.27t-.832-2.168zM7 4.641q.977 0 1.668.691T9.359 7t-.691 1.668T7 9.359t-1.668-.691T4.641 7t.691-1.668T7 4.641z"/></svg>