<svg xmlns="http://www.w3.org/2000/svg" width="14" height="14" viewBox="0 0 14 14"><path fill="#444" d="M6 13h7V8H9.75q-.312 0-.531-.219T9 7.25V4H6v9zM8 1.75v-.5q0-.102-.074-.176T7.75 1h-5.5q-.102 0-.176.074T2 1.25v.5q0 .102.074.176T2.25 2h5.5q.102 0 .176-.074T8 1.75zM10 7h2.336L10 4.664V7zm4 1v5.25q0 .312-.219.531T13.25 14h-7.5q-.312 0-.531-.219T5 13.25V12H.75q-.312 0-.531-.219T0 11.25V.75Q0 .438.219.219T.75 0h8.5q.312 0 .531.219T10 .75v2.563q.164.102.281.219l3.188 3.188q.219.219.375.594t.156.688z"/></svg>