<svg xmlns="http://www.w3.org/2000/svg" width="14" height="14" viewBox="0 0 14 14"><path fill="#444" d="M13 12.75v-8.5q0-.102-.074-.176T12.75 4h-8.5q-.102 0-.176.074T4 4.25v8.5q0 .102.074.176T4.25 13h8.5q.102 0 .176-.074T13 12.75zm1-8.5v8.5q0 .516-.367.883T12.75 14h-8.5q-.516 0-.883-.367T3 12.75v-8.5q0-.516.367-.883T4.25 3h8.5q.516 0 .883.367T14 4.25zm-3-3V2.5h-1V1.25q0-.102-.074-.176T9.75 1h-8.5q-.102 0-.176.074T1 1.25v8.5q0 .102.074.176T1.25 10H2.5v1H1.25q-.516 0-.883-.367T0 9.75v-8.5Q0 .734.367.367T1.25 0h8.5q.516 0 .883.367T11 1.25z"/></svg>