<svg xmlns="http://www.w3.org/2000/svg" width="15" height="14" viewBox="0 0 15 14"><path fill="#444" d="M10 6.75q0-.109-.07-.18L7.18 3.82q-.07-.07-.18-.07t-.18.07L4.078 6.562Q4 6.656 4 6.749q0 .109.07.18t.18.07H6v2.75q0 .102.074.176t.176.074h1.5q.102 0 .176-.074T8 9.749v-2.75h1.75q.102 0 .176-.074T10 6.749zM15 9q0 1.242-.879 2.121T12 12H3.5q-1.445 0-2.473-1.027T0 8.5q0-1.016.547-1.875t1.469-1.289Q2 5.102 2 5q0-1.656 1.172-2.828T6 1q1.219 0 2.23.68t1.473 1.805q.555-.484 1.297-.484.828 0 1.414.586T13 5.001q0 .594-.32 1.078 1.016.242 1.668 1.059T15 9.001z"/></svg>