<svg xmlns="http://www.w3.org/2000/svg" width="8" height="14" viewBox="0 0 8 14"><path fill="#444" d="M4.711 12H3.367q-.102 0-.176-.07t-.074-.18V9.172H.867q-.102 0-.176-.07t-.074-.18v-.805q0-.102.074-.176t.176-.074h2.25v-.664H.867q-.102 0-.176-.07t-.074-.18V6.14q0-.102.074-.176t.176-.074h1.672L.031 1.374q-.062-.125 0-.25Q.109.999.25.999h1.516q.148 0 .227.141l1.68 3.32q.148.297.438.977.078-.187.238-.531t.215-.477l1.492-3.281Q6.118 1 6.283 1h1.492q.133 0 .211.125.07.109.008.242L5.549 5.89h1.68q.102 0 .176.074t.074.176v.813q0 .109-.074.18t-.176.07H4.963v.664h2.266q.102 0 .176.074t.074.176v.805q0 .109-.074.18t-.176.07H4.963v2.578q0 .102-.074.176T4.713 12z"/></svg>