<svg xmlns="http://www.w3.org/2000/svg" width="15" height="14" viewBox="0 0 15 14"><path fill="#444" d="M4.82 10.93l-.391.391q-.078.078-.18.078t-.18-.078L.428 7.68Q.35 7.602.35 7.5t.078-.18l3.641-3.641q.078-.078.18-.078t.18.078l.391.391q.078.078.078.18t-.078.18L1.75 7.5l3.07 3.07q.078.078.078.18t-.078.18zm4.618-8.336L6.524 12.68q-.031.102-.121.152t-.184.02l-.484-.133q-.102-.031-.152-.121t-.02-.191L8.477 2.321q.031-.102.121-.152t.184-.02l.484.133q.102.031.152.121t.02.191zM14.57 7.68l-3.641 3.641q-.078.078-.18.078t-.18-.078l-.391-.391q-.078-.078-.078-.18t.078-.18l3.07-3.07-3.07-3.07q-.078-.078-.078-.18t.078-.18l.391-.391q.078-.078.18-.078t.18.078L14.57 7.32q.078.078.078.18t-.078.18z"/></svg>