<svg xmlns="http://www.w3.org/2000/svg" width="8" height="14" viewBox="0 0 8 14"><path fill="#444" d="M2.25 11.5q0-.312-.219-.531T1.5 10.75t-.531.219-.219.531.219.531.531.219.531-.219.219-.531zm0-9q0-.312-.219-.531T1.5 1.75t-.531.219T.75 2.5t.219.531.531.219.531-.219.219-.531zm5 1q0-.312-.219-.531T6.5 2.75t-.531.219-.219.531.219.531.531.219.531-.219.219-.531zm.75 0q0 .406-.203.754t-.547.543q-.016 2.242-1.766 3.234-.531.297-1.586.633-1 .312-1.324.555T2.25 10v.203q.344.195.547.543T3 11.5q0 .625-.438 1.062T1.5 13t-1.062-.438T0 11.5q0-.406.203-.754t.547-.543V3.797q-.344-.195-.547-.543T0 2.5q0-.625.438-1.062T1.5 1t1.062.438T3 2.5q0 .406-.203.754t-.547.543V7.68q.422-.203 1.203-.445.43-.133.684-.23t.551-.242.461-.309.316-.398.219-.543.066-.715q-.344-.195-.547-.543T5 3.501q0-.625.438-1.062T6.5 2.001t1.062.438T8 3.501z"/></svg>