<svg xmlns="http://www.w3.org/2000/svg" width="12" height="14" viewBox="0 0 12 14"><path fill="#444" d="M8 7q0-.828-.586-1.414T6 5t-1.414.586T4 7t.586 1.414T6 9t1.414-.586T8 7zm4-.852v1.734q0 .094-.062.18t-.156.102l-1.445.219q-.148.422-.305.711.273.391.836 1.078.078.094.078.195t-.07.18q-.211.289-.773.844t-.734.555q-.094 0-.203-.07l-1.078-.844q-.344.18-.711.297-.125 1.062-.227 1.453-.055.219-.281.219H5.135q-.109 0-.191-.066t-.09-.168l-.219-1.438q-.383-.125-.703-.289l-1.102.836q-.078.07-.195.07-.109 0-.195-.086-.984-.891-1.289-1.313-.055-.078-.055-.18 0-.094.062-.18.117-.164.398-.52t.422-.551q-.211-.391-.32-.773l-1.43-.211q-.102-.016-.164-.098T.002 7.85V6.116q0-.094.062-.18t.148-.102l1.453-.219q.109-.359.305-.719-.312-.445-.836-1.078-.078-.094-.078-.187 0-.078.07-.18.203-.281.77-.84t.738-.559q.102 0 .203.078l1.078.836q.344-.18.711-.297.125-1.062.227-1.453.055-.219.281-.219h1.734q.109 0 .191.066t.09.168l.219 1.438q.383.125.703.289l1.109-.836q.07-.07.187-.07.102 0 .195.078 1.008.93 1.289 1.328.055.062.055.172 0 .094-.062.18-.117.164-.398.52t-.422.551q.203.391.32.766l1.43.219q.102.016.164.098t.062.184z"/></svg>