<svg xmlns="http://www.w3.org/2000/svg" width="15" height="14" viewBox="0 0 15 14"><path fill="#444" d="M7 7q0-.828-.586-1.414T5 5t-1.414.586T3 7t.586 1.414T5 9t1.414-.586T7 7zm6 4q0-.406-.297-.703T12 10t-.703.297T11 11q0 .414.293.707T12 12t.707-.293T13 11zm0-8q0-.406-.297-.703T12 2t-.703.297T11 3q0 .414.293.707T12 4t.707-.293T13 3zm-3 3.289v1.445q0 .078-.055.152t-.125.082l-1.211.187q-.086.273-.25.594.266.375.703.898.055.078.055.156 0 .094-.055.148-.18.234-.645.699t-.613.465q-.086 0-.164-.055l-.898-.703q-.289.148-.602.242-.086.844-.18 1.211-.055.187-.234.187H4.273q-.086 0-.156-.059t-.078-.137l-.18-1.195q-.266-.078-.586-.242l-.922.695q-.055.055-.156.055-.086 0-.164-.062Q.906 10.013.906 9.802q0-.07.055-.148.078-.109.32-.414t.367-.477q-.18-.344-.273-.641L.188 7.935Q.11 7.927.055 7.861T0 7.709V6.264q0-.078.055-.152T.18 6.03l1.211-.187q.086-.273.25-.594-.266-.375-.703-.898-.055-.086-.055-.156 0-.094.055-.156.172-.234.641-.695t.617-.461q.086 0 .164.055l.898.703q.266-.141.602-.25.086-.844.18-1.203.055-.187.234-.187h1.453q.086 0 .156.059t.078.137l.18 1.195q.266.078.586.242l.922-.695q.062-.055.156-.055.086 0 .164.062 1.125 1.039 1.125 1.25 0 .07-.055.148-.094.125-.328.422t-.352.469q.18.375.266.641l1.187.18q.078.016.133.082T10 6.29zm5 4.164v1.094q0 .125-1.164.242-.094.211-.234.406.398.883.398 1.078 0 .031-.031.055-.953.555-.969.555-.062 0-.359-.367t-.406-.531q-.156.016-.234.016t-.234-.016q-.109.164-.406.531t-.359.367q-.016 0-.969-.555-.031-.023-.031-.055 0-.195.398-1.078-.141-.195-.234-.406-1.164-.117-1.164-.242v-1.094q0-.125 1.164-.242.102-.227.234-.406-.398-.883-.398-1.078 0-.031.031-.055.031-.016.273-.156t.461-.266.234-.125q.062 0 .359.363t.406.527q.156-.016.234-.016t.234.016q.398-.555.719-.875L13 8.124q.031 0 .969.547.031.023.031.055 0 .195-.398 1.078.133.18.234.406 1.164.117 1.164.242zm0-8v1.094q0 .125-1.164.242-.094.211-.234.406.398.883.398 1.078 0 .031-.031.055-.953.555-.969.555-.062 0-.359-.367t-.406-.531q-.156.016-.234.016t-.234-.016q-.109.164-.406.531t-.359.367q-.016 0-.969-.555-.031-.023-.031-.055 0-.195.398-1.078-.141-.195-.234-.406-1.164-.117-1.164-.242V2.453q0-.125 1.164-.242.102-.227.234-.406-.398-.883-.398-1.078 0-.031.031-.055.031-.016.273-.156t.461-.266.234-.125q.062 0 .359.363t.406.527q.156-.016.234-.016t.234.016q.398-.555.719-.875L13 .124q.031 0 .969.547.031.023.031.055 0 .195-.398 1.078.133.18.234.406Q15 2.327 15 2.452z"/></svg>