<svg xmlns="http://www.w3.org/2000/svg" width="14" height="14" viewBox="0 0 14 14"><path fill="#444" d="M11 6q0 1.086-.734 2.008T8.262 9.465 5.5 10q-.672 0-1.375-.125-.969.688-2.172 1-.281.07-.672.125h-.023q-.086 0-.16-.062t-.09-.164Q1 10.751 1 10.723t.004-.051.016-.047l.02-.039.027-.043.031-.039.035-.039.031-.035q.039-.047.18-.195t.203-.23.176-.227.195-.301.16-.344Q1.109 8.57.555 7.75T0 6q0-1.086.734-2.008t2.004-1.457T5.5 2t2.762.535 2.004 1.457T11 6zm3 2q0 .937-.555 1.754t-1.523 1.379q.078.187.16.344t.195.301.176.227.203.23.18.195l.031.035.035.039q.012.012.031.039t.027.043l.02.039.016.047.004.051-.008.051q-.023.109-.102.172t-.172.055q-.391-.055-.672-.125-1.203-.312-2.172-1-.703.125-1.375.125-2.117 0-3.687-1.031.453.031.688.031 1.258 0 2.414-.352t2.062-1.008q.977-.719 1.5-1.656t.523-1.984q0-.602-.18-1.187 1.008.555 1.594 1.391t.586 1.797z"/></svg>