<svg xmlns="http://www.w3.org/2000/svg" width="14" height="14" viewBox="0 0 14 14"><path fill="#444" d="M7 3q-1.594 0-2.98.543T1.817 5.008 1.001 7q0 .875.559 1.668t1.574 1.371l.68.391-.211.75q-.187.711-.547 1.344 1.187-.492 2.148-1.336l.336-.297.445.047Q6.524 11 7.001 11q1.594 0 2.98-.543t2.203-1.465T13 7t-.816-1.992-2.203-1.465T7.001 3zm7 4q0 1.359-.937 2.512t-2.547 1.82T7 12q-.547 0-1.133-.062-1.547 1.367-3.594 1.891-.383.109-.891.172h-.039q-.117 0-.211-.082t-.125-.215v-.008q-.023-.031-.004-.094t.016-.078.035-.074l.047-.07.055-.066.062-.07.242-.27q.187-.208.27-.297t.242-.309.254-.398.211-.461.203-.594Q1.413 10.22.706 9.196t-.707-2.195q0-1.359.937-2.512t2.547-1.82 3.516-.668 3.516.668 2.547 1.82.937 2.512z"/></svg>