<svg xmlns="http://www.w3.org/2000/svg" width="14" height="14" viewBox="0 0 14 14"><path fill="#444" d="M5 7q0-.414-.293-.707T4 6t-.707.293T3 7t.293.707T4 8t.707-.293T5 7zm3 0q0-.414-.293-.707T7 6t-.707.293T6 7t.293.707T7 8t.707-.293T8 7zm3 0q0-.414-.293-.707T10 6t-.707.293T9 7t.293.707T10 8t.707-.293T11 7zm3 0q0 1.359-.937 2.512t-2.547 1.82T7 12q-.859 0-1.648-.141Q4 13.211 1.954 13.648q-.406.078-.672.102-.094.008-.172-.047t-.102-.141q-.031-.117.156-.289.039-.039.184-.168t.199-.184.184-.199.187-.246.16-.289.156-.375.113-.449.098-.566Q1.304 10.094.652 9.106T0 7.001q0-1.359.937-2.512t2.547-1.82T7 2.001t3.516.668 2.547 1.82T14 7.001z"/></svg>