<svg xmlns="http://www.w3.org/2000/svg" width="14" height="14" viewBox="0 0 14 14"><path fill="#444" d="M14 7q0 1.359-.937 2.512t-2.547 1.82T7 12q-.547 0-1.133-.062-1.547 1.367-3.594 1.891-.383.109-.891.172-.133.016-.238-.07t-.137-.227v-.008q-.023-.031-.004-.094t.016-.078.035-.074l.047-.07.055-.066.062-.07.242-.27q.187-.208.27-.297t.242-.309.254-.398.211-.461.203-.594Q1.413 10.22.706 9.196t-.707-2.195q0-1.016.555-1.941t1.492-1.598T4.28 2.396t2.719-.395q1.906 0 3.516.668t2.547 1.82.937 2.512z"/></svg>