<svg xmlns="http://www.w3.org/2000/svg" width="16" height="14" viewBox="0 0 16 14"><path fill="#444" d="M16 6.992q0 .164-.102.285t-.258.152l-1.602 2.781q.023.07.023.141 0 .156-.098.277t-.254.152l-1.508 2.633q.023.062.023.125 0 .18-.129.312t-.316.133q-.195 0-.32-.141H8.334q-.133.156-.336.156t-.336-.156H4.545q-.133.156-.336.156-.18 0-.312-.129t-.133-.316q0-.062.031-.156L2.287 10.78q-.156-.031-.254-.152t-.098-.277q0-.07.023-.141L.349 7.429q-.156-.039-.254-.16t-.098-.277q0-.164.105-.285t.262-.152l1.555-2.687q0-.008-.004-.023t-.004-.023q0-.281.266-.398L3.81.588Q3.779.51 3.779.447q0-.187.133-.316t.312-.129q.203 0 .344.164h3.094q.125-.164.336-.164t.336.164h3.109q.141-.164.344-.164.18 0 .312.129t.133.316q0 .047-.031.141l1.617 2.797q.18.008.305.137t.125.301q0 .102-.055.211l1.461 2.531q.148.031.246.152t.098.277zm-7.695 6.242h3.039l-2.672-2.766H7.555l-2.672 2.766h2.812q.141-.125.305-.125t.305.125zM.875 6.891q.008.031.008.102 0 .078-.016.117l1.625 2.812q.016 0 .035.008t.043.02l.039.02 1.469-1.555V5.704L2.617 4.188q-.102.062-.227.078zM7.703.766H4.672l1.484 1.563L10.484.766H8.296q-.125.125-.297.125T7.702.766zm5.492 9.468q.008-.047.039-.086l-.5-.531-.133.617h.594zm-.828 0l.172-.82-1.969-2.078-2.313 2.398.492.5h3.617zm-.687 2.875l.125-.219.508-2.422H8.977l2.602 2.68q.062-.031.102-.039zm-7.164.125h.039l2.672-2.766H4.313v2.617l.031.047q.109.039.172.102zm-.203-3h3.141l.5-.516L5.54 7.21 4.313 8.507v1.727zm-1.508 0h1.273V8.757L2.765 10.14q.031.062.039.094zm-.008-6.445q0 .008.004.016t.004.016q0 .125-.062.227l1.336 1.383V3.329zm1.516-.547v2.43l1.195 1.227 2.32-2.453-1.742-1.844zM4.344.867l-.031.062v2.062l1.602-.578L4.423.843q-.047.016-.078.023zm6.961-.101h-.125l-4.852 1.75 1.664 1.758zM7.992 4.609L5.672 7.07l2.43 2.492 2.313-2.398zM5.375 7.047L4.313 5.945v2.219zm2.734 2.844l-.328.344h.664zm2.625-2.719l1.859 1.961 1.031-4.875-.023-.039-.008-.008zm2.688-3.125q-.062-.102-.062-.227v-.016L11.672.867q-.039-.008-.102-.039L8.156 4.445 10.578 7zm-9.344-.969V1.336L2.805 3.539zm0 7.391H2.805l1.273 2.211v-2.211zm8.477 0l-.375 1.773 1.016-1.773h-.641zm.953-.547l1.617-2.82q-.016-.078-.016-.109 0-.008.023-.125l-1.336-2.313-1.008 4.781.602.641q.039-.023.117-.055z"/></svg>