<svg xmlns="http://www.w3.org/2000/svg" width="14" height="14" viewBox="0 0 14 14"><path fill="#444" d="M1.078 1h1.539q-.547.5-.984 1.164-.281.438-.461.898t-.234.98-.066.937.082 1.031.164.984.219 1.066l.047.219q.398 1.859.633 2.57.445 1.336 1.187 2.148H1.079q-.375 0-.641-.266t-.266-.641V1.902q0-.375.266-.641t.641-.266zm9.438 0h2.406q.375 0 .641.266t.266.641v10.188q0 .375-.266.641t-.641.266h-1.391q1.656-1.641 1.531-4.414l-3.664.789q-.016.352-.094.641t-.242.563-.465.465-.73.285q-.961.203-1.555-.312-.25-.211-.414-.477t-.402-1.008-.504-2.016q-.273-1.273-.355-2.055t-.043-1.086.18-.602q.156-.32.488-.57t.801-.352q.352-.094.652-.051t.523.133.422.273.336.375.27.441l3.656-.781q-.531-1.367-1.406-2.242z"/></svg>