<svg xmlns="http://www.w3.org/2000/svg" width="14" height="14" viewBox="0 0 14 14"><path fill="#444" d="M13.25 3q.312 0 .531.219T14 3.75v9.5q0 .312-.219.531T13.25 14h-7.5q-.312 0-.531-.219T5 13.25V11H.75q-.312 0-.531-.219T0 10.25V5q0-.312.156-.688t.375-.594L3.719.53q.219-.219.594-.375t.688-.156h3.25q.312 0 .531.219t.219.531v2.563q.531-.312 1-.312h3.25zM9 4.664L6.664 7H9V4.664zm-5-3L1.664 4H4V1.664zm1.531 5.055L8 4.25V1H5v3.25q0 .312-.219.531T4.25 5H1v5h4V8q0-.312.156-.688t.375-.594zM13 13V4h-3v3.25q0 .312-.219.531T9.25 8H6v5h7z"/></svg>