<svg xmlns="http://www.w3.org/2000/svg" width="14" height="14" viewBox="0 0 14 14"><path fill="#444" d="M10.878 7.7c-.014-.028-.014-.056-.014-.056l-.742-1.862c-.042-2.086-1.75-3.822-3.85-3.822l-.014 8.68h1.974c.196 0 .378-.028.546-.07s.322-.112.448-.182l.126-.084c.126-.098.224-.21.308-.336.056-.084.098-.182.14-.294.042-.126.07-.252.098-.392h-1.26v-.28h1.288V8.19h.574c.056 0 .098-.014.154-.028a.382.382 0 0 0 .238-.35c0-.042-.014-.084-.014-.112zm-1.89-1.862c-.196 0-.35-.154-.35-.35s.154-.35.35-.35c.196 0 .35.154.35.35s-.154.35-.35.35zM5.992 2.24c-1.834.266-3.248 1.834-3.248 3.738.336.168 1.33.56 3.248.588V2.24z"/><path fill="#444" d="M8.232 10.906H5.978v-4.06c-1.75-.014-2.758-.336-3.22-.546.084.924.49 1.764 1.12 2.38v3.36h4.536v-1.134h-.182z"/></svg>