<svg xmlns="http://www.w3.org/2000/svg" width="14" height="14" viewBox="0 0 14 14"><path fill="#444" d="M4.727 9.633q1.195 0 2.008-.813.109-.141.023-.281l-.352-.641q-.047-.102-.187-.133-.125-.016-.211.086l-.031.023q-.031.031-.09.078t-.137.102-.184.113-.223.105-.262.074-.293.027q-.594 0-.977-.391t-.383-.992q0-.594.375-.98t.953-.387q.289 0 .559.109t.395.219l.125.109q.086.086.203.078.125-.016.187-.109l.414-.609q.102-.156-.016-.305-.023-.031-.086-.094t-.234-.184-.379-.219-.527-.176-.672-.078q-1.156 0-1.922.754t-.766 1.879q0 1.141.758 1.887t1.93.746zm4.921 0q1.195 0 2.008-.813.109-.141.031-.281l-.352-.641q-.062-.109-.195-.133-.125-.016-.211.086l-.031.023q-.031.031-.09.078t-.137.102-.184.113-.223.105-.262.074-.293.027q-.594 0-.977-.391t-.383-.992q0-.594.375-.98t.953-.387q.289 0 .559.109t.395.219l.125.109q.086.086.203.078.125-.016.187-.109l.414-.609q.102-.156-.016-.305-.023-.031-.086-.094t-.234-.184-.379-.219-.527-.176-.672-.078q-1.148 0-1.918.754t-.77 1.879q0 1.141.758 1.887t1.93.746zM7 1.25q-1.172 0-2.234.457T2.934 2.934 1.707 4.766 1.25 7t.457 2.234 1.227 1.832 1.832 1.227T7 12.75t2.234-.457 1.832-1.227 1.227-1.832T12.75 7t-.457-2.234-1.227-1.832-1.832-1.227T7 1.25zM7 0q1.422 0 2.719.555t2.234 1.492 1.492 2.234T14 7t-.555 2.719-1.492 2.234-2.234 1.492T7 14t-2.719-.555-2.234-1.492T.555 9.719 0 7t.555-2.719 1.492-2.234T4.281.555 7 0z"/></svg>