<svg xmlns="http://www.w3.org/2000/svg" width="12" height="14" viewBox="0 0 12 14"><path fill="#444" d="M9.352 8H8.5q-.203 0-.352-.148T8 7.5v-1q0-.203.148-.352T8.5 6h.852q-.25-.844-.879-1.473T7 3.648V4.5q0 .203-.148.352T6.5 5h-1q-.203 0-.352-.148T5 4.5v-.852q-.844.25-1.473.879T2.648 6H3.5q.203 0 .352.148T4 6.5v1q0 .203-.148.352T3.5 8h-.852q.25.844.879 1.473T5 10.352V9.5q0-.203.148-.352T5.5 9h1q.203 0 .352.148T7 9.5v.852q.844-.25 1.473-.879T9.352 8zM12 6.5v1q0 .203-.148.352T11.5 8h-1.117q-.289 1.258-1.207 2.176T7 11.383V12.5q0 .203-.148.352T6.5 13h-1q-.203 0-.352-.148T5 12.5v-1.117q-1.258-.289-2.176-1.207T1.617 8H.5q-.203 0-.352-.148T0 7.5v-1q0-.203.148-.352T.5 6h1.117q.289-1.258 1.207-2.176T5 2.617V1.5q0-.203.148-.352T5.5 1h1q.203 0 .352.148T7 1.5v1.117q1.258.289 2.176 1.207T10.383 6H11.5q.203 0 .352.148T12 6.5z"/></svg>