<svg xmlns="http://www.w3.org/2000/svg" width="17" height="14" viewBox="0 0 17 14"><path fill="#444" d="M5 12.75l3-1.5V8.797l-3 1.281v2.672zm-.5-3.547l3.156-1.352L4.5 6.499 1.344 7.851zM13 12.75l3-1.5V8.797l-3 1.281v2.672zm-.5-3.547l3.156-1.352L12.5 6.499 9.344 7.851zM9 6.914l3-1.289V3.547L9 4.828v2.086zm-.5-2.961l3.445-1.477L8.5.999 5.055 2.476zM17 8v3.25q0 .281-.148.523t-.406.367l-3.5 1.75q-.195.109-.445.109t-.445-.109l-3.5-1.75q-.039-.016-.055-.031-.016.016-.055.031l-3.5 1.75q-.195.109-.445.109t-.445-.109l-3.5-1.75q-.258-.125-.406-.367t-.148-.523V8q0-.297.168-.547t.441-.375l3.391-1.453V2.5q0-.297.168-.547t.441-.375l3.5-1.5Q8.291 0 8.502 0t.391.078l3.5 1.5q.273.125.441.375t.168.547v3.125l3.391 1.453q.281.125.445.375t.164.547z"/></svg>