<svg xmlns="http://www.w3.org/2000/svg" width="14" height="14" viewBox="0 0 14 14"><path fill="#444" d="M7.5 7q.203 0 .352.148T8 7.5t-.148.352T7.5 8t-.352-.148T7 7.5t.148-.352T7.5 7zm2.344.5l3.961 3.109q.219.156.195.438-.039.273-.273.398l-1 .5Q12.625 12 12.5 12q-.133 0-.242-.062L6.867 8.915l-.859.516q-.062.031-.094.039.109.383.078.758-.055.602-.438 1.152t-1.031.965q-1.031.656-2.164.656-1.062 0-1.734-.609-.703-.656-.617-1.617.055-.594.438-1.148t1.023-.969q1.031-.656 2.172-.656.648 0 1.18.242.07-.102.172-.172l.953-.57-.953-.57q-.102-.07-.172-.172-.531.242-1.18.242-1.141 0-2.172-.656-.641-.414-1.023-.969T.008 4.229q-.039-.461.121-.883t.496-.727q.664-.617 1.734-.617 1.133 0 2.164.656.648.406 1.031.961t.438 1.156q.031.375-.078.758.031.008.094.039l.859.516 5.391-3.023q.109-.062.242-.062.125 0 .227.055l1 .5q.234.125.273.398.023.281-.195.438zM4.523 5.469q.359-.328.164-.844t-.828-.914q-.719-.461-1.5-.461-.578 0-.883.281-.359.328-.164.844t.828.914q.719.461 1.5.461.578 0 .883-.281zm-.664 5.82q.633-.398.828-.914t-.164-.844q-.305-.281-.883-.281-.781 0-1.5.461-.633.398-.828.914t.164.844q.305.281.883.281.781 0 1.5-.461zM5.25 6.5l.75.453v-.086q0-.281.258-.438l.109-.062L5.75 6l-.203.203q-.023.023-.078.086t-.094.094q-.016.016-.031.027t-.023.02zM7 8.25l.75.25L13.5 4l-1-.5-6 3.367v.883l-1.25.75.07.062q.016.016.055.047.031.031.086.094t.086.094L5.75 9zm5.5 3.25l1-.5-4.063-3.188L8.054 8.89q-.016.023-.102.055z"/></svg>