<svg xmlns="http://www.w3.org/2000/svg" width="11" height="14" viewBox="0 0 11 14"><path fill="#444" d="M5 .5v5q0 .477-.277.867T4 6.914V13q0 .406-.297.703T3 14H2q-.406 0-.703-.297T1 13V6.914q-.445-.156-.723-.547T0 5.5v-5Q0 .297.148.148T.5 0t.352.148T1 .5v3.25q0 .203.148.352t.352.148.352-.148T2 3.75V.5q0-.203.148-.352T2.5 0t.352.148T3 .5v3.25q0 .203.148.352t.352.148.352-.148T4 3.75V.5q0-.203.148-.352T4.5 0t.352.148T5 .5zm6 0V13q0 .406-.297.703T10 14H9q-.406 0-.703-.297T8 13V9H6.25q-.102 0-.176-.074T6 8.75V2.5q0-1.031.734-1.766T8.5 0h2q.203 0 .352.148T11 .5z"/></svg>