<svg xmlns="http://www.w3.org/2000/svg" width="14" height="14" viewBox="0 0 14 14"><path fill="#444" d="M3 9q0-.414-.293-.707T2 8t-.707.293T1 9t.293.707T2 10t.707-.293T3 9zm1.5-3.5q0-.414-.293-.707T3.5 4.5t-.707.293T2.5 5.5t.293.707.707.293.707-.293T4.5 5.5zm3.344 3.758l.789-2.984q.047-.203-.059-.379t-.301-.23-.375.051-.234.309l-.789 2.984q-.469.039-.836.34t-.492.77q-.156.602.156 1.141t.914.695 1.141-.156.695-.914q.125-.469-.047-.914t-.563-.711zM13 9q0-.414-.293-.707T12 8t-.707.293T11 9t.293.707T12 10t.707-.293T13 9zM8 4q0-.414-.293-.707T7 3t-.707.293T6 4t.293.707T7 5t.707-.293T8 4zm3.5 1.5q0-.414-.293-.707T10.5 4.5t-.707.293T9.5 5.5t.293.707.707.293.707-.293.293-.707zM14 9q0 2.039-1.102 3.773-.148.227-.422.227H1.523q-.273 0-.422-.227Q-.001 11.046-.001 9q0-1.422.555-2.719t1.492-2.234T4.28 2.555 6.999 2t2.719.555 2.234 1.492 1.492 2.234T13.999 9z"/></svg>