<svg xmlns="http://www.w3.org/2000/svg" width="12" height="14" viewBox="0 0 12 14"><path fill="#444" d="M6 6q1.852 0 3.461-.336T12 4.672V6q0 .539-.805 1t-2.188.73T5.999 8t-3.008-.27T.803 7t-.805-1V4.672q.93.656 2.539.992T5.998 6zm0 6q1.852 0 3.461-.336T12 10.672V12q0 .539-.805 1t-2.188.73-3.008.27-3.008-.27T.803 13t-.805-1v-1.328q.93.656 2.539.992T5.998 12zm0-3q1.852 0 3.461-.336T12 7.672V9q0 .539-.805 1t-2.188.73-3.008.27-3.008-.27T.803 10t-.805-1V7.672q.93.656 2.539.992T5.998 9zm0-9q1.625 0 3.008.27t2.188.73.805 1v1q0 .539-.805 1t-2.188.73T6 5t-3.008-.27T.804 4t-.805-1V2q0-.539.805-1T2.992.27 6 0z"/></svg>