<svg xmlns="http://www.w3.org/2000/svg" width="14" height="14" viewBox="0 0 14 14"><path fill="#444" d="M3 4.25v4.5q0 .102-.074.176T2.75 9q-.109 0-.18-.07L.32 6.68Q.25 6.61.25 6.5t.07-.18l2.25-2.25Q2.64 4 2.75 4q.102 0 .176.074T3 4.25zm11 6v1.5q0 .102-.074.176T13.75 12H.25q-.102 0-.176-.074T0 11.75v-1.5q0-.102.074-.176T.25 10h13.5q.102 0 .176.074t.074.176zm0-3v1.5q0 .102-.074.176T13.75 9h-8.5q-.102 0-.176-.074T5 8.75v-1.5q0-.102.074-.176T5.25 7h8.5q.102 0 .176.074T14 7.25zm0-3v1.5q0 .102-.074.176T13.75 6h-8.5q-.102 0-.176-.074T5 5.75v-1.5q0-.102.074-.176T5.25 4h8.5q.102 0 .176.074T14 4.25zm0-3v1.5q0 .102-.074.176T13.75 3H.25q-.102 0-.176-.074T0 2.75v-1.5q0-.102.074-.176T.25 1h13.5q.102 0 .176.074T14 1.25z"/></svg>