<svg xmlns="http://www.w3.org/2000/svg" width="14" height="14" viewBox="0 0 14 14"><path fill="#444" d="M10.906 5.88c0-2.156-1.764-3.92-3.92-3.92s-3.92 1.764-3.92 3.92c0 1.246.574 2.352 1.484 3.066L3.5 10.78h1.4l.84 1.26L7 9.8l1.26 2.24.84-1.26h1.4L9.45 8.932a3.951 3.951 0 0 0 1.456-3.052zM7.308 9.226c-.098.014-.21.014-.322.014-.098 0-.196 0-.294-.014a3.23 3.23 0 0 1-1.862-.77A3.375 3.375 0 0 1 3.626 5.88c0-1.848 1.512-3.36 3.36-3.36s3.36 1.512 3.36 3.36A3.36 3.36 0 0 1 9.17 8.428a3.342 3.342 0 0 1-1.862.798z"/><path fill="#444" d="M5.362 6.692L5.068 7.98l1.288-.294 2.282-2.282-.994-.994-2.282 2.282zm.798.798l-.49.098-.21-.196.098-.49.602.588zm3.066-3.08l-.588-.588a.27.27 0 0 0-.392 0l-.406.392.994.994.392-.392a.287.287 0 0 0 0-.406z"/></svg>