<svg xmlns="http://www.w3.org/2000/svg" width="8" height="14" viewBox="0 0 8 14"><path fill="#444" d="M7.641 9.258q0 1.195-.777 2.059t-2.02 1.066v1.367q0 .109-.07.18t-.18.07H3.539q-.102 0-.176-.074t-.074-.176v-1.367q-.516-.07-.996-.242t-.793-.348-.578-.375-.363-.293-.137-.141q-.133-.164-.016-.32l.805-1.055q.055-.078.18-.094.117-.016.187.07l.016.016q.883.773 1.898.977.289.062.578.062.633 0 1.113-.336t.48-.953q0-.219-.117-.414t-.262-.328-.457-.293-.516-.25-.625-.254q-.305-.125-.48-.195t-.48-.207-.488-.242-.441-.277-.418-.332-.34-.383-.277-.453-.164-.52-.066-.609q0-1.078.766-1.891T3.29 1.656V.25q0-.102.074-.176T3.54 0h1.055q.109 0 .18.07t.07.18v1.375q.445.047.863.18t.68.262.496.293.305.227.117.109q.133.141.039.297l-.633 1.141q-.062.117-.18.125-.109.023-.211-.055-.023-.023-.113-.094t-.305-.207-.457-.25-.582-.203-.668-.09q-.742 0-1.211.336t-.469.867q0 .203.066.375t.23.324.309.258.438.242.473.211.547.215q.414.156.633.246t.594.273.59.332.484.391.414.496.246.598.102.734z"/></svg>