<svg xmlns="http://www.w3.org/2000/svg" width="12" height="14" viewBox="0 0 12 14"><path fill="#444" d="M9.117 12.391q-.039-.148-.187-.039-.234.172-.68.305t-1.023.133q-1.008 0-1.508-.383-.039-.031-.102-.031-.086 0-.203.094-.055.047-.059.125t.059.156q.266.25.684.359t.801.098.773-.035q.32-.031.66-.16t.508-.234.223-.16q.094-.094.055-.227zm-.305-.899q-.148-.367-.305-.477-.18-.117-.594-.117-.367 0-.555.078-.227.094-.609.438-.203.187-.094.344.07.062.137.035t.246-.184q.023-.016.082-.066t.082-.066.078-.055.09-.055.098-.039.117-.035.129-.02.16-.008q.211 0 .348.059t.18.113.105.172q.078.133.098.156t.098-.008q.18-.094.109-.266zm2.774-2.195q0-.172-.039-.348t-.129-.352-.266-.285-.41-.109q-.258 0-.758.324t-1.008.652-.789.328q-.211.008-.496-.148t-.594-.383-.652-.453-.781-.383-.867-.148q-.898.008-1.539.613T2.602 10q-.016.875.578 1.281.227.156.488.223t.809.066q.445 0 1.031-.254t1.047-.555.937-.551.727-.242q.203.008.508.246t.559.523.531.527.434.25q.273.023.457-.109t.434-.492q.219-.32.332-.789t.113-.828zM12 8.047q0 1.281-.484 2.379t-1.297 1.844-1.895 1.168-2.27.422-2.289-.449-1.934-1.227-1.332-1.887-.5-2.359q0-.695.152-1.348t.383-1.137.551-.926.613-.734.613-.543.504-.363.332-.191q.109-.062.398-.207t.426-.223.375-.234.473-.344q.281-.219.453-.566t.234-.98Q6.514 1.353 6.959 1.65q.344.227 1.016.531t1.008.516q.164.102.305.195t.473.363.594.551.586.742.539.953.367 1.16.152 1.387z"/></svg>