<svg xmlns="http://www.w3.org/2000/svg" width="14" height="14" viewBox="0 0 14 14"><path fill="#444" d="M6.938 9.25l.906-.906-1.187-1.187-.906.906v.438h.75v.75h.438zm3.437-5.625q-.125-.125-.258.008L7.383 6.367q-.133.133-.008.258t.258-.008l2.734-2.734q.133-.133.008-.258zM11 8.266V9.75q0 .93-.66 1.59T8.75 12h-6.5q-.93 0-1.59-.66T0 9.75v-6.5q0-.93.66-1.59T2.25 1h6.5q.492 0 .914.195.117.055.141.18.023.133-.07.227l-.383.383q-.109.109-.25.062Q8.922 2 8.75 2h-6.5q-.516 0-.883.367T1 3.25v6.5q0 .516.367.883T2.25 11h6.5q.516 0 .883-.367T10 9.75v-.984q0-.102.07-.172l.5-.5q.117-.117.273-.055t.156.227zM10.25 2.5l2.25 2.25L7.25 10H5V7.75zm3.469 1.031L13 4.25 10.75 2l.719-.719q.219-.219.531-.219t.531.219l1.187 1.187q.219.219.219.531t-.219.531z"/></svg>