<svg xmlns="http://www.w3.org/2000/svg" width="14" height="14" viewBox="0 0 14 14"><path fill="#444" d="M6.828 12.797v.516q-1.625-.047-3.008-.855t-2.211-2.152l.453-.266q.227.383.57.773l.508-.445q1.156 1.313 2.875 1.656l-.133.672q.508.094.945.102zM2.156 8.656l-.648.219q.172.469.383.875l-.445.258Q.68 8.602.68 7t.766-3.008l.445.258q-.234.438-.383.875l.641.219Q1.876 6.125 1.876 7q0 .852.281 1.656zm9.782 1.383l.453.266q-.828 1.344-2.211 2.152t-3.008.855v-.516q.438-.008.945-.102l-.133-.672q1.719-.344 2.875-1.656l.508.445q.344-.391.57-.773zm-1.18-4.328l-1.82.625q.109.328.109.664t-.109.664l1.812.625q-.242.719-.766 1.32L8.539 8.343q-.445.523-1.148.664l.375 1.883q-.406.078-.766.078t-.766-.078l.375-1.883q-.703-.141-1.148-.664L4.016 9.609q-.523-.602-.766-1.32l1.812-.625Q4.953 7.336 4.953 7t.109-.664l-1.82-.625q.258-.727.773-1.32L5.46 5.657q.461-.531 1.148-.672L6.233 3.11q.344-.078.766-.078t.766.078L7.39 4.985q.688.141 1.148.672l1.445-1.266q.516.594.773 1.32zM6.828.688v.516q-.508.016-.945.102l.133.672q-1.719.328-2.875 1.648l-.508-.438q-.297.328-.57.766l-.445-.258q.828-1.344 2.203-2.152T6.829.689zM13.32 7q0 1.602-.766 3.008l-.445-.258q.211-.406.383-.875l-.648-.219q.281-.805.281-1.656 0-.875-.273-1.656l.641-.219q-.148-.438-.383-.875l.445-.258q.766 1.406.766 3.008zm-.937-3.305l-.445.258q-.273-.438-.57-.766l-.508.438q-1.156-1.32-2.875-1.648l.133-.672q-.438-.086-.945-.102V.687q1.633.047 3.008.855t2.203 2.152zM13.656 7q0-1.352-.527-2.586t-1.418-2.125T9.586.871 7 .344 4.414.871 2.289 2.289.871 4.414.344 7t.527 2.586 1.418 2.125 2.125 1.418T7 13.656t2.586-.527 2.125-1.418 1.418-2.125T13.656 7zM14 7q0 1.422-.555 2.719t-1.492 2.234-2.234 1.492T7 14t-2.719-.555-2.234-1.492T.555 9.719 0 7t.555-2.719 1.492-2.234T4.281.555 7 0t2.719.555 2.234 1.492 1.492 2.234T14 7z"/></svg>