<svg xmlns="http://www.w3.org/2000/svg" width="14" height="14" viewBox="0 0 14 14"><path fill="#444" d="M14 5.547v6.203q0 .516-.367.883T12.75 13H1.25q-.516 0-.883-.367T0 11.75V5.547q.344.383.789.68 2.828 1.922 3.883 2.695.445.328.723.512t.738.375.859.191h.016q.398 0 .859-.191t.738-.375.723-.512q1.328-.961 3.891-2.695.445-.305.781-.68zm0-2.297q0 .617-.383 1.18t-.953.961L9.008 7.93l-.332.238q-.254.183-.422.297t-.406.254-.449.211-.391.07h-.016q-.18 0-.391-.07t-.449-.211-.406-.254-.422-.297-.332-.238q-.711-.5-2.047-1.426T1.343 5.391q-.484-.328-.914-.902t-.43-1.066q0-.609.324-1.016t.926-.406h11.5q.508 0 .879.367t.371.883z"/></svg>