<svg xmlns="http://www.w3.org/2000/svg" width="12" height="14" viewBox="0 0 12 14"><path fill="#444" d="M9.75 1q.93 0 1.59.66T12 3.25v7.5q0 .93-.66 1.59T9.75 13h-7.5q-.93 0-1.59-.66T0 10.75v-7.5q0-.93.66-1.59T2.25 1h7.5zM10 9.25V5.844q-.242.273-.5.43-.266.172-1.035.664t-1.184.773Q6.515 8.25 6 8.25q-.516 0-1.281-.539-.359-.25-1.105-.723t-1.113-.723q-.094-.062-.258-.211t-.242-.211v3.406q0 .312.219.531t.531.219h6.5q.312 0 .531-.219t.219-.531zm0-4.477q0-.32-.215-.547t-.535-.227h-6.5q-.312 0-.531.219T2 4.749q0 .289.238.598t.527.504q.367.25 1.074.695t1.012.648l.133.09.164.109q.054.035.164.102t.184.102.168.074.176.059.16.02.16-.02.176-.059.168-.074.184-.102.164-.102.164-.109.133-.09l2.086-1.359q.273-.18.52-.488t.246-.574z"/></svg>