<svg xmlns="http://www.w3.org/2000/svg" width="8" height="14" viewBox="0 0 8 14"><path fill="#444" d="M7.625 10.211l.273 1.242q.023.094-.023.176t-.133.113l-.039.008q-.031.016-.082.027t-.125.035-.168.043-.199.039-.234.039-.262.035-.285.023-.301.008q-1.828 0-3.195-1.02T.993 8.233H.251q-.102 0-.176-.074t-.074-.176V7.1q0-.102.074-.176t.176-.074h.516q-.016-.445.008-.82H.252q-.109 0-.18-.07t-.07-.18v-.891q0-.109.07-.18t.18-.07h.766q.523-1.641 1.902-2.641t3.129-1q.797 0 1.516.18.086.023.156.117.047.086.023.187l-.336 1.242q-.023.102-.109.152t-.187.02l-.031-.008q-.031-.008-.09-.02l-.137-.027-.176-.027-.203-.023-.227-.02-.23-.008q-.984 0-1.766.5T3.08 4.638h3.656q.125 0 .195.094.078.094.055.203l-.187.891q-.039.203-.25.203H2.737q-.023.289 0 .82h3.586q.117 0 .195.094.07.094.047.211l-.187.875q-.016.086-.086.145t-.156.059H3.113q.375.914 1.168 1.449t1.785.535q.141 0 .281-.012t.262-.027.23-.035.191-.039.145-.035l.094-.023.039-.016q.102-.039.203.016.094.055.117.164z"/></svg>