<svg xmlns="http://www.w3.org/2000/svg" width="14" height="14" viewBox="0 0 14 14"><path fill="#444" d="M14 9.25v1.5q0 .102-.074.176T13.75 11H3v1.5q0 .102-.074.176t-.176.074q-.094 0-.187-.078l-2.492-2.5q-.07-.07-.07-.172 0-.109.07-.18l2.5-2.5q.07-.07.18-.07.102 0 .176.074t.074.176V9h10.75q.102 0 .176.074t.074.176zM14 5q0 .109-.07.18l-2.5 2.5q-.07.07-.18.07-.102 0-.176-.074T11 7.5V6H.25q-.102 0-.176-.074T0 5.75v-1.5q0-.102.074-.176T.25 4H11V2.5q0-.109.07-.18t.18-.07q.094 0 .187.078l2.492 2.492q.07.07.07.18z"/></svg>