<svg xmlns="http://www.w3.org/2000/svg" width="14" height="14" viewBox="0 0 14 14"><path fill="#444" d="M8 10.742V9.258q0-.109-.074-.184T7.75 9h-1.5q-.102 0-.176.074T6 9.258v1.484q0 .109.074.184T6.25 11h1.5q.102 0 .176-.074T8 10.742zM7.984 7.82l.141-3.586q0-.094-.078-.148Q7.945 4 7.86 4H6.141q-.086 0-.187.086-.078.055-.078.164l.133 3.57q0 .078.078.129T6.274 8h1.445q.109 0 .184-.051t.082-.129zM7.875.523l6 11q.273.492-.016.984-.133.227-.363.359t-.496.133H1q-.266 0-.496-.133t-.363-.359q-.289-.492-.016-.984l6-11q.133-.242.367-.383T7-.001t.508.141.367.383z"/></svg>