<svg xmlns="http://www.w3.org/2000/svg" width="12" height="14" viewBox="0 0 12 14"><path fill="#444" d="M6 1q1.633 0 3.012.805t2.184 2.184.805 3.012-.805 3.012-2.184 2.184T6 13.002t-3.012-.805-2.184-2.184-.805-3.012.805-3.012 2.184-2.184T6 1zm1 9.742V9.258q0-.109-.07-.184T6.758 9h-1.5q-.102 0-.18.078T5 9.258v1.484q0 .102.078.18t.18.078h1.5q.102 0 .172-.074t.07-.184zm-.016-2.687l.141-4.852q0-.094-.078-.141Q6.969 3 6.86 3H5.141q-.109 0-.187.062-.078.047-.078.141l.133 4.852q0 .078.078.137t.187.059h1.445q.109 0 .184-.059t.082-.137z"/></svg>