<svg xmlns="http://www.w3.org/2000/svg" width="12" height="14" viewBox="0 0 12 14"><path fill="#444" d="M5.898 8.25q0 .102-.078.18l-2.594 2.594 1.125 1.125q.148.148.148.352t-.148.352-.352.148h-3.5q-.203 0-.352-.148t-.148-.352v-3.5q0-.203.148-.352t.352-.148.352.148l1.125 1.125L4.57 7.18q.078-.078.18-.078t.18.078l.891.891q.078.078.078.18zM12 1.5V5q0 .203-.148.352T11.5 5.5t-.352-.148l-1.125-1.125-2.594 2.594q-.078.078-.18.078t-.18-.078l-.891-.891Q6.1 5.852 6.1 5.75t.078-.18l2.594-2.594-1.125-1.125q-.148-.148-.148-.352t.148-.352.352-.148h3.5q.203 0 .352.148t.148.352z"/></svg>