<svg xmlns="http://www.w3.org/2000/svg" width="14" height="14" viewBox="0 0 14 14"><path fill="#444" d="M7 .5q-1.32 0-2.523.516T2.403 2.403 1.016 4.477.5 7t.516 2.523 1.387 2.074 2.074 1.387T7 13.5t2.523-.516 2.074-1.387 1.387-2.074T13.5 7t-.516-2.523-1.387-2.074-2.074-1.387T7 .5zM7 0q1.422 0 2.719.555t2.234 1.492 1.492 2.234T14 7t-.555 2.719-1.492 2.234-2.234 1.492T7 14t-2.719-.555-2.234-1.492T.555 9.719 0 7t.555-2.719 1.492-2.234T4.281.555 7 0zM3.875 6.5Q4 6.5 4 6.625v3.75q0 .125-.125.125h-.25q-.125 0-.125-.125v-3.75q0-.125.125-.125h.25zM7 7q.414 0 .707.293T8 8q0 .273-.137.5t-.363.359v.891q0 .109-.07.18t-.18.07h-.5q-.109 0-.18-.07t-.07-.18v-.891q-.227-.133-.363-.359T6 8q0-.414.293-.707T7 7zm0-6q1.633 0 3.012.805t2.184 2.184.805 3.012-.805 3.012-2.184 2.184T7 13.002t-3.012-.805-2.184-2.184-.805-3.012.805-3.012 2.184-2.184T7 1zM4.25 4.75v.75q0 .109.07.18t.18.07H5q.109 0 .18-.07t.07-.18v-.75q0-.727.512-1.238T7 3t1.238.512.512 1.238v.75q0 .109.07.18t.18.07h.5q.109 0 .18-.07t.07-.18v-.75q0-1.141-.805-1.945T7 2t-1.945.805T4.25 4.75zM11 10.5v-4q0-.203-.148-.352T10.5 6h-7q-.203 0-.352.148T3 6.5v4q0 .203.148.352T3.5 11h7q.203 0 .352-.148T11 10.5z"/></svg>