<svg xmlns="http://www.w3.org/2000/svg" width="14" height="14" viewBox="0 0 14 14"><path fill="#444" d="M4.336 10.43l.609-1.102q-.68-.492-1.062-1.242T3.5 6.5q0-.945.477-1.758Q2.188 5.656 1 7.5q1.305 2.016 3.336 2.93zM7.375 4.5q0-.156-.109-.266T7 4.125q-.977 0-1.676.699T4.625 6.5q0 .156.109.266T5 6.875t.266-.109.109-.266q0-.672.477-1.148T7 4.875q.156 0 .266-.109t.109-.266zm2.836-1.492q0 .055-.008.07-.82 1.469-2.461 4.422t-2.469 4.43l-.383.695q-.078.125-.219.125-.094 0-1.047-.547-.125-.078-.125-.219 0-.094.344-.68-1.117-.508-2.059-1.352T.155 8.038q-.156-.242-.156-.539t.156-.539Q1.35 5.124 3.124 4.062T6.999 3q.695 0 1.406.133l.422-.758q.078-.125.219-.125.039 0 .141.047t.242.121.258.145.246.145.152.09q.125.078.125.211zM10.5 6.5q0 1.086-.617 1.98T8.25 9.765l2.188-3.922q.062.352.062.656zm3.5 1q0 .273-.156.539-.305.5-.852 1.133-1.172 1.344-2.715 2.086T7 12l.578-1.031q1.656-.141 3.066-1.07t2.355-2.398q-.898-1.398-2.203-2.297l.492-.875q.742.5 1.426 1.195t1.129 1.438q.156.266.156.539z"/></svg>