<svg xmlns="http://www.w3.org/2000/svg" width="14" height="14" viewBox="0 0 14 14"><path d="M13 7.5q-1.187-1.844-2.977-2.758.477.813.477 1.758 0 1.445-1.027 2.473T7 10 4.527 8.973 3.5 6.5q0-.945.477-1.758Q2.188 5.656 1 7.5q1.039 1.602 2.605 2.551T7 11t3.395-.949T13 7.5zm-5.625-3q0-.156-.109-.266T7 4.125q-.977 0-1.676.699T4.625 6.5q0 .156.109.266T5 6.875t.266-.109.109-.266q0-.672.477-1.148T7 4.875q.156 0 .266-.109t.109-.266zM14 7.5q0 .266-.156.539-1.094 1.797-2.941 2.879T7.001 12t-3.902-1.086T.158 8.039Q.002 7.766.002 7.5t.156-.539q1.094-1.789 2.941-2.875T7.001 3t3.902 1.086 2.941 2.875Q14 7.234 14 7.5z" fill="#444"/></svg>