<svg xmlns="http://www.w3.org/2000/svg" width="14" height="14" viewBox="0 0 14 14"><path fill="#444" d="M2.25 3q.516 0 .883.367t.367.883v8.5q0 .516-.367.883T2.25 14h-1q-.516 0-.883-.367T0 12.75v-8.5q0-.516.367-.883T1.25 3h1zM13 4.273q.453.266.727.727T14 6v6q0 .828-.586 1.414T12 14H5.25q-.516 0-.883-.367T4 12.75v-12q0-.312.219-.531T4.75 0H10q.312 0 .688.156t.594.375l1.187 1.187q.219.219.375.594T13 3v1.273zM7.25 12v-1q0-.109-.07-.18T7 10.75H6q-.109 0-.18.07t-.07.18v1q0 .109.07.18t.18.07h1q.109 0 .18-.07t.07-.18zm0-2V9q0-.109-.07-.18T7 8.75H6q-.109 0-.18.07T5.75 9v1q0 .109.07.18t.18.07h1q.109 0 .18-.07t.07-.18zm0-2V7q0-.109-.07-.18T7 6.75H6q-.109 0-.18.07T5.75 7v1q0 .109.07.18t.18.07h1q.109 0 .18-.07T7.25 8zm2 4v-1q0-.109-.07-.18T9 10.75H8q-.109 0-.18.07t-.07.18v1q0 .109.07.18t.18.07h1q.109 0 .18-.07t.07-.18zm0-2V9q0-.109-.07-.18T9 8.75H8q-.109 0-.18.07T7.75 9v1q0 .109.07.18t.18.07h1q.109 0 .18-.07t.07-.18zm0-2V7q0-.109-.07-.18T9 6.75H8q-.109 0-.18.07T7.75 7v1q0 .109.07.18t.18.07h1q.109 0 .18-.07T9.25 8zm2 4v-1q0-.109-.07-.18t-.18-.07h-1q-.109 0-.18.07t-.07.18v1q0 .109.07.18t.18.07h1q.109 0 .18-.07t.07-.18zm0-2V9q0-.109-.07-.18T11 8.75h-1q-.109 0-.18.07T9.75 9v1q0 .109.07.18t.18.07h1q.109 0 .18-.07t.07-.18zm0-2V7q0-.109-.07-.18T11 6.75h-1q-.109 0-.18.07T9.75 7v1q0 .109.07.18t.18.07h1q.109 0 .18-.07t.07-.18zM12 5V3h-1.25q-.312 0-.531-.219T10 2.25V1H5v4h7z"/></svg>