<svg xmlns="http://www.w3.org/2000/svg" width="10" height="14" viewBox="0 0 10 14"><path fill="#444" d="M10 8.25q0 .312-.219.531T9.25 9q-.398 0-.625-.336L6.852 6H6.5v1.031l1.93 3.211q.07.117.07.258 0 .203-.148.352T8 11H6.5v2.125q0 .359-.258.617T5.625 14h-1.25q-.359 0-.617-.258t-.258-.617V11H2q-.203 0-.352-.148T1.5 10.5q0-.141.07-.258L3.5 7.031V6h-.352L1.375 8.664Q1.148 9 .75 9q-.312 0-.531-.219T0 8.25q0-.227.125-.414l2-3Q2.695 4 3.5 4h3q.805 0 1.375.836l2 3q.125.187.125.414zM6.75 2q0 .727-.512 1.238T5 3.75t-1.238-.512T3.25 2 3.762.762 5 .25t1.238.512T6.75 2z"/></svg>