<svg xmlns="http://www.w3.org/2000/svg" width="12" height="14" viewBox="0 0 12 14"><path fill="#444" d="M11.469 2.969q.219.219.375.594t.156.688v9q0 .312-.219.531t-.531.219H.75q-.312 0-.531-.219T0 13.251V.751Q0 .439.219.22T.75.001h7q.312 0 .688.156t.594.375zM8 1.062v2.937h2.937q-.078-.227-.172-.32L8.32 1.234Q8.226 1.14 8 1.062zM11 13V5H7.75q-.312 0-.531-.219T7 4.25V1H1v12h10zM3 6.25q0-.109.07-.18T3.25 6h5.5q.109 0 .18.07t.07.18v.5q0 .109-.07.18T8.75 7h-5.5q-.109 0-.18-.07T3 6.75v-.5zM8.75 8q.109 0 .18.07t.07.18v.5q0 .109-.07.18T8.75 9h-5.5q-.109 0-.18-.07T3 8.75v-.5q0-.109.07-.18T3.25 8h5.5zm0 2q.109 0 .18.07t.07.18v.5q0 .109-.07.18t-.18.07h-5.5q-.109 0-.18-.07T3 10.75v-.5q0-.109.07-.18t.18-.07h5.5z"/></svg>