<svg xmlns="http://www.w3.org/2000/svg" width="12" height="14" viewBox="0 0 12 14"><path fill="#444" d="M11.469 2.969q.219.219.375.594t.156.688v9q0 .312-.219.531t-.531.219H.75q-.312 0-.531-.219T0 13.251V.751Q0 .439.219.22T.75.001h7q.312 0 .688.156t.594.375zM8 1.062v2.937h2.937q-.078-.227-.172-.32L8.32 1.234Q8.226 1.14 8 1.062zM11 13V5H7.75q-.312 0-.531-.219T7 4.25V1H1v12h10zm-7.75-1.828V12h2.555v-.828h-.727V9.867h1.07q.594 0 .922-.117.523-.18.832-.68t.309-1.141q0-.633-.289-1.102t-.781-.68q-.375-.148-1.016-.148H3.25v.836h.719v4.336H3.25zm2.758-2.188h-.93V6.89h.937q.406 0 .648.141.438.258.438.898 0 .695-.484.937-.242.117-.609.117z"/></svg>