<svg xmlns="http://www.w3.org/2000/svg" width="12" height="14" viewBox="0 0 12 14"><path fill="#444" d="M5 3V2H4v1h1zm1 1V3H5v1h1zM5 5V4H4v1h1zm1 1V5H5v1h1zm5.469-3.031q.219.219.375.594t.156.688v9q0 .312-.219.531t-.531.219H.75q-.312 0-.531-.219T0 13.251V.751Q0 .439.219.22T.75.001h7q.312 0 .688.156t.594.375zM8 1.062v2.937h2.937q-.078-.227-.172-.32L8.32 1.234Q8.226 1.14 8 1.062zM11 13V5H7.75q-.312 0-.531-.219T7 4.25V1H6v1H5V1H1v12h10zM6.102 7.367l.836 2.727Q7 10.305 7 10.5q0 .648-.566 1.074T5 12t-1.434-.426T3 10.5q0-.195.062-.406.164-.492.937-3.094V6h1v1h.617q.172 0 .305.102t.18.266zM5 11q.414 0 .707-.148T6 10.5t-.293-.352T5 10t-.707.148T4 10.5t.293.352T5 11z"/></svg>