<svg xmlns="http://www.w3.org/2000/svg" width="12" height="14" viewBox="0 0 12 14"><path fill="#444" d="M11.469 2.969q.219.219.375.594t.156.688v9q0 .312-.219.531t-.531.219H.75q-.312 0-.531-.219T0 13.251V.751Q0 .439.219.22T.75.001h7q.312 0 .688.156t.594.375zM8 1.062v2.937h2.937q-.078-.227-.172-.32L8.32 1.234Q8.226 1.14 8 1.062zM11 13V5H7.75q-.312 0-.531-.219T7 4.25V1H1v12h10zM4.844 6.641Q5 6.703 5 6.875v4.25q0 .172-.156.234-.062.016-.094.016-.094 0-.18-.07L3.273 10H2.25q-.109 0-.18-.07T2 9.75v-1.5q0-.109.07-.18T2.25 8h1.023L4.57 6.695q.125-.117.273-.055zm3.258 5.382q.242 0 .391-.187Q9.501 10.594 9.501 9T8.493 6.164Q8.368 6 8.157 5.977t-.367.109q-.164.133-.184.34t.113.371Q8.5 7.758 8.5 9t-.781 2.203q-.133.164-.113.371t.184.332q.141.117.312.117zm-1.649-1.156q.211 0 .367-.156Q7.5 9.984 7.5 9t-.68-1.711q-.141-.148-.352-.156t-.359.133-.156.348.141.363Q6.5 8.422 6.5 9t-.406 1.023q-.148.156-.141.363t.156.348q.156.133.344.133z"/></svg>