<svg xmlns="http://www.w3.org/2000/svg" width="12" height="14" viewBox="0 0 12 14"><path fill="#444" d="M11.469 2.969q.219.219.375.594t.156.688v9q0 .312-.219.531t-.531.219H.75q-.312 0-.531-.219T0 13.251V.751Q0 .439.219.22T.75.001h7q.312 0 .688.156t.594.375zM8 1.062v2.937h2.937q-.078-.227-.172-.32L8.32 1.234Q8.226 1.14 8 1.062zM11 13V5H7.75q-.312 0-.531-.219T7 4.25V1H1v12h10zM6.984 8.367q.258.203.656.438.461-.055.914-.055 1.148 0 1.383.383.125.172.016.406 0 .008-.008.016l-.016.016v.008q-.047.297-.555.297-.375 0-.898-.156T7.46 9.306q-1.727.187-3.063.648-1.195 2.047-1.891 2.047-.117 0-.219-.055l-.187-.094q-.008-.008-.047-.039-.078-.078-.047-.281.07-.312.438-.715t1.031-.754q.109-.07.18.047.016.016.016.031.406-.664.836-1.539.531-1.062.813-2.047-.187-.641-.238-1.246t.051-.996q.086-.312.328-.312h.172q.18 0 .273.117.141.164.07.531-.016.047-.031.062.008.023.008.062v.234q-.016.961-.109 1.5.43 1.281 1.141 1.859zm-4.5 3.211q.406-.187 1.07-1.234-.398.312-.684.656t-.387.578zm3.11-7.187q-.117.328-.016 1.031l.055-.344q0-.023.055-.336.008-.031.031-.062-.008-.008-.008-.016t-.004-.012-.004-.012q-.008-.172-.102-.281 0 .008-.008.016v.016zm-.969 5.164q1.055-.422 2.219-.633-.016-.008-.102-.074t-.125-.105q-.594-.523-.992-1.375-.211.672-.648 1.539-.234.438-.352.648zm5.047-.125q-.187-.187-1.094-.187.594.219.969.219.109 0 .141-.008 0-.008-.016-.023z"/></svg>