<svg xmlns="http://www.w3.org/2000/svg" width="12" height="14" viewBox="0 0 12 14"><path fill="#444" d="M11.469 2.969q.219.219.375.594t.156.688v9q0 .312-.219.531t-.531.219H.75q-.312 0-.531-.219T0 13.251V.751Q0 .439.219.22T.75.001h7q.312 0 .688.156t.594.375zM8 1.062v2.937h2.937q-.078-.227-.172-.32L8.32 1.234Q8.226 1.14 8 1.062zM11 13V5H7.75q-.312 0-.531-.219T7 4.25V1H1v12h10zM1.82 6v.836h.547L3.648 12H4.89l1-3.789q.055-.156.078-.359.016-.125.016-.187h.031l.023.187q.008.023.027.156t.043.203l1 3.789H8.35l1.281-5.164h.547V6H7.834v.836h.703l-.773 3.422q-.039.156-.055.359l-.016.164h-.031l-.023-.164-.031-.164q-.023-.125-.039-.195L6.444 6h-.891l-1.125 4.258q-.016.07-.035.191t-.027.168l-.031.164h-.031l-.016-.164q-.016-.203-.055-.359L3.46 6.836h.703V6H1.819z"/></svg>