<svg xmlns="http://www.w3.org/2000/svg" width="12" height="14" viewBox="0 0 12 14"><path fill="#444" d="M11.469 2.969q.219.219.375.594t.156.688v9q0 .312-.219.531t-.531.219H.75q-.312 0-.531-.219T0 13.251V.751Q0 .439.219.22T.75.001h7q.312 0 .688.156t.594.375zM8 1.062v2.937h2.937q-.078-.227-.172-.32L8.32 1.234Q8.226 1.14 8 1.062zM11 13V5H7.75q-.312 0-.531-.219T7 4.25V1H1v12h10zM3.75 6q.062-.086.164-.098t.187.051l.398.297q.086.062.098.164t-.051.187L3.124 8.499l1.422 1.898q.062.086.051.187t-.098.164l-.398.297q-.086.062-.187.051t-.164-.098L1.984 8.646q-.109-.148 0-.297zm6.266 2.352q.109.148 0 .297L8.25 11.001q-.062.086-.164.098t-.187-.051l-.398-.297q-.086-.062-.098-.164t.051-.187l1.422-1.898-1.422-1.898q-.062-.086-.051-.187t.098-.164l.398-.297q.086-.062.187-.051t.164.098zm-4.844 3.601q-.102-.016-.16-.102t-.043-.187l1.078-6.492q.016-.102.102-.16t.187-.043l.492.078q.102.016.16.102t.043.187l-1.078 6.492q-.016.102-.102.16t-.187.043z"/></svg>