<svg xmlns="http://www.w3.org/2000/svg" width="12" height="14" viewBox="0 0 12 14"><path fill="#444" d="M11.469 3.719q.109.109.219.281H8.001V.313q.172.109.281.219zM7.75 5H12v8.25q0 .312-.219.531T11.25 14H.75q-.312 0-.531-.219T0 13.25V.75Q0 .438.219.219T.75 0H7v4.25q0 .312.219.531T7.75 5zM9 10.75v-.5q0-.109-.07-.18T8.75 10h-5.5q-.109 0-.18.07t-.07.18v.5q0 .109.07.18t.18.07h5.5q.109 0 .18-.07t.07-.18zm0-2v-.5q0-.109-.07-.18T8.75 8h-5.5q-.109 0-.18.07T3 8.25v.5q0 .109.07.18t.18.07h5.5q.109 0 .18-.07T9 8.75zm0-2v-.5q0-.109-.07-.18T8.75 6h-5.5q-.109 0-.18.07T3 6.25v.5q0 .109.07.18t.18.07h5.5q.109 0 .18-.07T9 6.75z"/></svg>