<svg xmlns="http://www.w3.org/2000/svg" width="12" height="14" viewBox="0 0 12 14"><path fill="#444" d="M11.469 2.969q.219.219.375.594t.156.688v9q0 .312-.219.531t-.531.219H.75q-.312 0-.531-.219T0 13.251V.751Q0 .439.219.22T.75.001h7q.312 0 .688.156t.594.375zM8 1.062v2.937h2.937q-.078-.227-.172-.32L8.32 1.234Q8.226 1.14 8 1.062zM11 13V5H7.75q-.312 0-.531-.219T7 4.25V1H1v12h10zm-7.648-1.828V12h2.195v-.828h-.586l.805-1.258q.039-.055.078-.129t.059-.105.027-.031h.016q.008.031.039.078.016.031.035.059t.047.062.051.066l.836 1.258H6.36V12h2.273v-.828h-.531l-1.5-2.133 1.523-2.203h.523V6h-2.18v.836h.578l-.805 1.242q-.031.055-.078.129t-.07.105l-.016.023h-.016q-.008-.031-.039-.078-.047-.086-.133-.18l-.828-1.242h.594v-.836H3.389v.836h.531L5.397 8.96l-1.516 2.211H3.35z"/></svg>