<svg xmlns="http://www.w3.org/2000/svg" width="12" height="14" viewBox="0 0 12 14"><path fill="#444" d="M11.469 2.969q.219.219.375.594t.156.688v9q0 .312-.219.531t-.531.219H.75q-.312 0-.531-.219T0 13.251V.751Q0 .439.219.22T.75.001h7q.312 0 .688.156t.594.375zM8 1.062v2.937h2.937q-.078-.227-.172-.32L8.32 1.234Q8.226 1.14 8 1.062zM11 13V5H7.75q-.312 0-.531-.219T7 4.25V1H1v12h10zM6 6q.406 0 .703.297T7 7v3q0 .406-.297.703T6 11H3q-.406 0-.703-.297T2 10V7q0-.406.297-.703T3 6h3zm3.844.016q.156.062.156.234v4.5q0 .172-.156.234Q9.782 11 9.75 11q-.109 0-.18-.07L7.5 8.852v-.703l2.07-2.078q.07-.07.18-.07.031 0 .094.016z"/></svg>