<svg xmlns="http://www.w3.org/2000/svg" width="15" height="14" viewBox="0 0 15 14"><path fill="#444" d="M3 12.5v-1q0-.203-.148-.352T2.5 11h-1q-.203 0-.352.148T1 11.5v1q0 .203.148.352T1.5 13h1q.203 0 .352-.148T3 12.5zm0-3v-1q0-.203-.148-.352T2.5 8h-1q-.203 0-.352.148T1 8.5v1q0 .203.148.352T1.5 10h1q.203 0 .352-.148T3 9.5zm0-3v-1q0-.203-.148-.352T2.5 5h-1q-.203 0-.352.148T1 5.5v1q0 .203.148.352T1.5 7h1q.203 0 .352-.148T3 6.5zm8 6v-4q0-.203-.148-.352T10.5 8h-6q-.203 0-.352.148T4 8.5v4q0 .203.148.352T4.5 13h6q.203 0 .352-.148T11 12.5zm-8-9v-1q0-.203-.148-.352T2.5 2h-1q-.203 0-.352.148T1 2.5v1q0 .203.148.352T1.5 4h1q.203 0 .352-.148T3 3.5zm11 9v-1q0-.203-.148-.352T13.5 11h-1q-.203 0-.352.148T12 11.5v1q0 .203.148.352T12.5 13h1q.203 0 .352-.148T14 12.5zm-3-6v-4q0-.203-.148-.352T10.5 2h-6q-.203 0-.352.148T4 2.5v4q0 .203.148.352T4.5 7h6q.203 0 .352-.148T11 6.5zm3 3v-1q0-.203-.148-.352T13.5 8h-1q-.203 0-.352.148T12 8.5v1q0 .203.148.352T12.5 10h1q.203 0 .352-.148T14 9.5zm0-3v-1q0-.203-.148-.352T13.5 5h-1q-.203 0-.352.148T12 5.5v1q0 .203.148.352T12.5 7h1q.203 0 .352-.148T14 6.5zm0-3v-1q0-.203-.148-.352T13.5 2h-1q-.203 0-.352.148T12 2.5v1q0 .203.148.352T12.5 4h1q.203 0 .352-.148T14 3.5zm1-1.25v10.5q0 .516-.367.883T13.75 14H1.25q-.516 0-.883-.367T0 12.75V2.25q0-.516.367-.883T1.25 1h12.5q.516 0 .883.367T15 2.25z"/></svg>