<svg xmlns="http://www.w3.org/2000/svg" width="11" height="14" viewBox="0 0 11 14"><path fill="#444" d="M4 1.5q0-.203-.148-.352T3.5 1t-.352.148T3 1.5t.148.352T3.5 2t.352-.148T4 1.5zm7-.25v2.5q0 .125-.094.195Q10.844 4 10.75 4q-.031 0-.055-.008l-3.5-.75q-.086-.016-.141-.086T6.999 3h-2v.797q.867.18 1.434.867t.566 1.586v6.25q0 .203-.148.352T6.499 13h-4q-.203 0-.352-.148t-.148-.352V6.25q0-.828.488-1.488t1.262-.895V3h-.25q-.461 0-.898.184t-.715.414-.516.52-.316.418-.109.191Q.812 5 .5 5q-.125 0-.227-.055-.18-.094-.246-.289t.027-.383q.039-.078.113-.203t.293-.418.473-.547.664-.523.848-.41Q2.25 1.844 2.25 1.5q0-.516.367-.883T3.5.25t.883.367.367.883q0 .258-.109.5H7q0-.086.055-.156t.141-.086l3.5-.75Q10.719 1 10.751 1q.094 0 .156.055.094.07.094.195z"/></svg>