<svg xmlns="http://www.w3.org/2000/svg" width="11" height="14" viewBox="0 0 11 14"><path fill="#444" d="M11 13.25v.5q0 .102-.074.176T10.75 14H.25q-.102 0-.176-.074T0 13.75v-.5q0-.102.074-.176T.25 13h10.5q.102 0 .176.074t.074.176zM9 5q0 .609-.191 1.125t-.5.879-.684.688-.75.605-.684.563-.5.637-.191.754q0 .75.523 1.75l-.031-.008.008.008q-.703-.32-1.25-.648t-1.082-.781-.887-.957-.566-1.176T2 7.001q0-.609.191-1.125t.5-.879.684-.688.75-.605.684-.563.5-.637.191-.754q0-.734-.516-1.75l.023.008L4.999 0q.703.32 1.25.648t1.082.781.887.957.566 1.176T8.999 5z"/></svg>