<svg xmlns="http://www.w3.org/2000/svg" width="14" height="14" viewBox="0 0 14 14"><path fill="#444" d="M7.055 14q-2.211 0-3.941-1.176T.54 9.711Q.087 8.688.017 7.359T.22 4.761t.867-2.438T2.485.428l-.086 2.195q.086-.109.531-.121t.547.121q.328-.633 1.254-1.078t1.832-.461q-.422.352-.934 1.16t-.457 1.277q.195.062.488.105t.492.059.531.031.395.023q.117.039.074.355t-.238.59q-.039.055-.129.145t-.441.277-.789.266l.117 1.477-1.086-.523q-.141.336-.059.637t.281.52.512.324.633.051q.398-.07.766-.27t.652-.352.574-.137q.477.031.699.258t.152.508l-.02.043q-.012.027-.066.098t-.141.121-.246.082-.363.008q-.469.742-1.129 1.059t-1.637.23q.578.477 1.27.645t1.316.047 1.207-.406 1-.684.629-.813q.336-.711.305-1.504t-.293-1.473-.613-.977q.68.297 1.07.621t.602.879q.117-1.328-.449-2.68T9.601.942q2.07.602 3.219 2.184T14 7.169q.016.992-.316 1.992t-.965 1.859-1.477 1.531-1.934 1.059-2.254.387z"/></svg>