<svg xmlns="http://www.w3.org/2000/svg" width="14" height="14" viewBox="0 0 14 14"><path fill="#444" d="M13 8.164V3.351q-1.32.711-2.391.711-.641 0-1.133-.25-.781-.383-1.438-.598t-1.391-.215q-1.352 0-3.148.992v4.68q1.914-.883 3.383-.883.43 0 .809.059t.766.203.602.242.645.309l.219.109q.344.172.789.172.937 0 2.289-.719zM2.5 2q0 .273-.137.5T2 2.859v9.891q0 .109-.07.18t-.18.07h-.5q-.109 0-.18-.07T1 12.75V2.859Q.773 2.726.637 2.5T.5 2q0-.414.293-.707T1.5 1t.707.293T2.5 2zm11.5.5v5.961q0 .305-.273.445-.078.039-.133.07-1.703.906-2.883.906-.688 0-1.234-.273L9.258 9.5q-.5-.258-.773-.375t-.711-.227-.891-.109q-.797 0-1.84.344t-1.785.797Q3.141 10 3 10q-.125 0-.25-.062Q2.5 9.79 2.5 9.5V3.703q0-.273.242-.43.273-.164.613-.332t.891-.406 1.191-.387T6.648 2q.875 0 1.633.242t1.633.672q.297.148.695.148.953 0 2.422-.875l.242-.133q.242-.125.484.016.242.156.242.43z"/></svg>