<svg xmlns="http://www.w3.org/2000/svg" width="14" height="14" viewBox="0 0 14 14"><path fill="#444" d="M2.5 2q0 .563-.5.859v9.891q0 .102-.074.176T1.75 13h-.5q-.102 0-.176-.074T1 12.75V2.859Q.5 2.562.5 2q0-.414.293-.707T1.5 1t.707.293T2.5 2zm11.5.5v5.961q0 .195-.098.301t-.309.215q-1.68.906-2.883.906-.477 0-.965-.172t-.848-.375-.902-.375-1.113-.172q-1.5 0-3.625 1.141-.133.07-.258.07-.203 0-.352-.148T2.499 9.5V3.703q0-.25.242-.43.164-.109.617-.336Q5.202 2 6.647 2q.836 0 1.563.227t1.711.688q.297.148.688.148.422 0 .918-.164t.859-.367.688-.367.426-.164q.203 0 .352.148t.148.352z"/></svg>