<svg xmlns="http://www.w3.org/2000/svg" width="12" height="14" viewBox="0 0 12 14"><path fill="#444" d="M3 12h6V9H3v3zm7 0h1V5q0-.109-.078-.301t-.156-.27L8.571 2.234q-.078-.078-.266-.156T8 2v3.25q0 .312-.219.531T7.25 6h-4.5q-.312 0-.531-.219T2 5.25V2H1v10h1V8.75q0-.312.219-.531T2.75 8h6.5q.312 0 .531.219T10 8.75V12zM7 4.75v-2.5q0-.102-.074-.176T6.75 2h-1.5q-.102 0-.176.074T5 2.25v2.5q0 .102.074.176T5.25 5h1.5q.102 0 .176-.074T7 4.75zM12 5v7.25q0 .312-.219.531T11.25 13H.75q-.312 0-.531-.219T0 12.25V1.75q0-.312.219-.531T.75 1H8q.312 0 .688.156t.594.375l2.188 2.187q.219.219.375.594t.156.688z"/></svg>