<svg xmlns="http://www.w3.org/2000/svg" width="15" height="14" viewBox="0 0 15 14"><path fill="#444" d="M13.914 7.273Q13.914 7 13.5 7H5q-.312 0-.668.168t-.559.41l-2.297 2.836q-.141.187-.141.312 0 .273.414.273h8.5q.312 0 .672-.172t.555-.414l2.297-2.836q.141-.172.141-.305zM5 6h6V4.75q0-.312-.219-.531T10.25 4h-4.5q-.312 0-.531-.219T5 3.25v-.5q0-.312-.219-.531T4.25 2h-2.5q-.312 0-.531.219T1 2.75v6.664l2-2.461q.344-.414.906-.684T5 5.999zm9.914 1.273q0 .484-.359.937l-2.305 2.836q-.336.414-.906.684T10.25 12h-8.5q-.719 0-1.234-.516T0 10.25v-7.5q0-.719.516-1.234T1.75 1h2.5q.719 0 1.234.516T6 2.75V3h4.25q.719 0 1.234.516T12 4.75V6h1.5q.422 0 .773.191t.523.551q.117.25.117.531z"/></svg>