<svg xmlns="http://www.w3.org/2000/svg" width="12" height="14" viewBox="0 0 12 14"><path fill="#444" d="M0 1h12v12H0V1zm7.094 2.5L7 3.758l.586.648-.242.891.195.195.836-.445.836.445.195-.195-.242-.891.586-.648-.094-.258h-.742L8.5 2.75h-.25l-.414.75h-.742zM5.008 4.773q.25 0 .348.125t.09.492l1.359-.164q0-.43-.137-.723t-.395-.438-.539-.199-.664-.055q-1.039 0-1.555.449t-.516 1.426v.563h-.75v1h.594q.156 0 .156.062v2.984q0 .109-.039.156t-.141.055l-.57.055v.688h3.5v-.672l-1.164-.109-.066-.012q-.019-.004-.027-.02t-.004-.031.008-.055.004-.078V7.249h1.492l.297-1H4.484q-.047 0-.016-.047t.031-.07v-.625q0-.211.012-.316t.059-.219.152-.156.285-.043zM9.75 11.25v-.672l-.422-.07q-.055-.008-.074-.02t-.02-.023.008-.059.008-.094V6.249H7.102l-.18.789.648.172q.18.055.18.211v2.891q0 .109-.047.145t-.156.051l-.547.07v.672h2.75z"/></svg>