<svg xmlns="http://www.w3.org/2000/svg" width="13" height="14" viewBox="0 0 13 14"><path fill="#444" d="M5.664 4.367L4.336 7.883q.258 0 1.066.016t1.254.016q.148 0 .445-.016-.68-1.977-1.438-3.531zM0 13l.016-.617q.18-.055.438-.098t.445-.082.387-.113.348-.227.242-.395l1.852-4.813L5.916.999h1q.062.109.086.164l1.602 3.75q.258.609.828 2.012t.891 2.145q.117.266.453 1.129t.563 1.316q.156.352.273.445.148.117.688.23t.656.16q.047.297.047.445 0 .031-.004.102t-.004.102q-.492 0-1.484-.062t-1.492-.062q-.594 0-1.68.055t-1.391.062q0-.336.031-.609l1.023-.219q.008 0 .098-.02t.121-.027.113-.035.117-.051.086-.062.07-.086.02-.109q0-.125-.242-.754t-.563-1.387-.328-.781l-3.516-.016q-.203.453-.598 1.527t-.395 1.27q0 .172.109.293t.34.191.379.105.445.066.32.031q.008.148.008.453 0 .07-.016.211-.453 0-1.363-.078t-1.363-.078q-.062 0-.207.031t-.168.031q-.625.109-1.469.109z"/></svg>