<svg xmlns="http://www.w3.org/2000/svg" width="12" height="14" viewBox="0 0 12 14"><path fill="#444" d="M7.297 1.172q-2.477.945-4.344 2.832T.156 8.383Q0 7.688 0 7.008q0-1.625.801-3.004t2.176-2.18 3-.801q.641 0 1.32.148zm2.101.93q.727.508 1.281 1.211-3.039.883-5.27 3.129t-3.098 5.285q-.727-.563-1.211-1.266.875-3.016 3.086-5.242t5.211-3.117zM3.672 12.523q.898-2.781 2.965-4.859t4.84-3q.312.719.422 1.523-2.281.937-4.031 2.695t-2.68 4.047q-.805-.109-1.516-.406zm8.328.454q-1.508-.391-2.867-.898-1.055.656-2.266.836.852-1.602 2.141-2.895t2.883-2.152q-.164 1.187-.789 2.219.508 1.367.898 2.891z"/></svg>