<svg xmlns="http://www.w3.org/2000/svg" width="10" height="14" viewBox="0 0 10 14"><path fill="#444" d="M7.813 3.391l.289-1.516q.039-.18-.07-.312t-.273-.133H2.197q-.18 0-.301.133t-.121.289v8.602q0 .055.047.008l2.273-2.75q.18-.203.297-.262t.375-.059h1.867q.172 0 .289-.113t.141-.23q.187-1.016.289-1.492.031-.164-.09-.312t-.285-.148H4.681q-.227 0-.375-.148t-.148-.375v-.328q0-.227.148-.371t.375-.145h2.703q.141 0 .273-.105t.156-.23zm1.773-1.735q-.117.57-.418 2.082t-.543 2.734-.273 1.355l-.07.254q-.023.082-.109.254t-.191.258-.301.164-.453.078H5.111q-.102 0-.172.078-.062.07-3.328 3.859-.172.195-.457.223t-.379-.043q-.43-.172-.43-.766V1.17q0-.43.297-.801t.937-.371h6.938q.742 0 .992.414t.078 1.242zm0 0L8.352 7.828q.031-.133.273-1.355t.543-2.734.418-2.082z"/></svg>