<svg xmlns="http://www.w3.org/2000/svg" width="14" height="14" viewBox="0 0 14 14"><path fill="#444" d="M4.758 6.375L7 4.75l2.242 1.625L8.39 9H5.617zM7 0q1.422 0 2.719.555t2.234 1.492 1.492 2.234T14 7t-.555 2.719-1.492 2.234-2.234 1.492T7 14t-2.719-.555-2.234-1.492T.555 9.719 0 7t.555-2.719 1.492-2.234T4.281.555 7 0zm4.836 10.547Q13 8.961 13 7v-.023l-.797.695-1.875-1.75.492-2.523 1.047.094Q10.695 1.884 8.828 1.29l.414.969L7 3.501 4.758 2.259l.414-.969q-1.867.594-3.039 2.203l1.055-.094.484 2.523-1.875 1.75L1 6.977V7q0 1.961 1.164 3.547l.234-1.031 2.547.312 1.086 2.328-.906.539Q6.039 13 7 13t1.875-.305l-.906-.539 1.086-2.328 2.547-.312z"/></svg>