<svg xmlns="http://www.w3.org/2000/svg" width="15" height="14" viewBox="0 0 15 14"><path fill="#444" d="M6.5 8.5v-1q0-.109-.07-.18t-.18-.07h-1.5v-1.5q0-.109-.07-.18T4.5 5.5h-1q-.109 0-.18.07t-.07.18v1.5h-1.5q-.109 0-.18.07t-.07.18v1q0 .109.07.18t.18.07h1.5v1.5q0 .109.07.18t.18.07h1q.109 0 .18-.07t.07-.18v-1.5h1.5q.109 0 .18-.07t.07-.18zM11 9q0-.414-.293-.707T10 8t-.707.293T9 9t.293.707T10 10t.707-.293T11 9zm2-2q0-.414-.293-.707T12 6t-.707.293T11 7t.293.707T12 8t.707-.293T13 7zm2 1q0 1.656-1.172 2.828T11 12q-1.5 0-2.641-1H6.64q-1.141 1-2.641 1-1.656 0-2.828-1.172T-.001 8t1.172-2.828T3.999 4h7q1.656 0 2.828 1.172T14.999 8z"/></svg>