<svg xmlns="http://www.w3.org/2000/svg" width="14" height="14" viewBox="0 0 14 14"><path fill="#444" d="M13.836 12q0 .414-.289.703l-.836.844q-.305.289-.711.289-.414 0-.703-.289l-2.836-2.844q-.297-.281-.297-.703 0-.414.336-.75l-2-2-.984.984q-.109.109-.266.109t-.266-.109l.098.094q.082.078.098.102t.078.09.078.105.047.105.043.129.012.141q0 .297-.219.531-.023.023-.129.141t-.148.16-.145.129-.172.121-.172.07-.203.035q-.312 0-.531-.219L.531 6.78q-.219-.219-.219-.531 0-.102.035-.203t.07-.172.121-.172.129-.145.16-.148.141-.129q.234-.219.531-.219.078 0 .141.012t.129.043.105.047.105.078.09.078.102.098.094.098q-.109-.109-.109-.266t.109-.266l2.719-2.719q.109-.109.266-.109t.266.109l-.098-.094q-.082-.078-.098-.102t-.078-.09-.078-.105-.047-.105-.043-.129-.012-.141q0-.297.219-.531.023-.023.129-.141t.148-.16.145-.129.172-.121.172-.07.203-.035q.312 0 .531.219l3.188 3.188q.219.219.219.531 0 .102-.035.203t-.07.172-.121.172-.129.145-.16.148-.141.129q-.234.219-.531.219-.078 0-.141-.012t-.129-.043-.105-.047-.105-.078-.09-.078-.102-.098-.094-.098q.109.109.109.266t-.109.266l-.984.984 2 2q.336-.336.75-.336.406 0 .711.289l2.836 2.836q.289.305.289.711z"/></svg>