<svg xmlns="http://www.w3.org/2000/svg" width="8" height="14" viewBox="0 0 8 14"><path fill="#444" d="M7.969 8.883v2.867q0 .109-.07.18t-.18.07H.25q-.109 0-.18-.07T0 11.75v-1.172q0-.102.074-.176t.176-.074h.758V7.336H.266q-.109 0-.18-.074t-.07-.176V6.063q0-.109.07-.18t.18-.07h.742V4.071q0-1.336.965-2.203t2.457-.867q1.445 0 2.617.977.07.062.078.16t-.055.176l-.805.992q-.07.086-.172.094-.102.016-.18-.055-.039-.039-.203-.148t-.539-.25-.727-.141q-.664 0-1.07.367t-.406.961v1.68h2.383q.102 0 .176.07t.074.18v1.023q0 .102-.074.176t-.176.074H2.968v2.961h3.234V8.884q0-.102.07-.176t.18-.074h1.266q.109 0 .18.074t.07.176z"/></svg>