<svg xmlns="http://www.w3.org/2000/svg" width="13" height="14" viewBox="0 0 13 14"><path fill="#444" d="M12.227 1q.508 0 .859.355t.352.863v4.055q0 1.375-.531 2.625t-1.426 2.148-2.141 1.426-2.613.527q-1.375 0-2.621-.527t-2.145-1.426-1.43-2.148T0 6.273V2.218q0-.5.359-.859T1.218 1h11.008zm-5.5 8.313q.367 0 .641-.258l3.156-3.031q.289-.273.289-.664 0-.383-.27-.652t-.652-.27q-.367 0-.641.258L6.727 7.118 4.204 4.696q-.273-.258-.633-.258-.383 0-.652.27t-.27.652q0 .398.281.664l3.164 3.031q.258.258.633.258z"/></svg>