<svg xmlns="http://www.w3.org/2000/svg" width="14" height="14" viewBox="0 0 14 14"><path fill="#444" d="M5.602 10.578l2.117-2.117-2.18-2.18-.688.688 1.5 1.492-.75.75-2.18-2.18 2.18-2.18.312.312.68-.68-.992-1L2.054 7.03zm2.796-.062l3.547-3.547-3.547-3.547-2.117 2.117 2.18 2.18.688-.688-1.5-1.492.75-.75 2.18 2.18-2.18 2.18-.312-.312-.68.688zM14 7q0 1.422-.555 2.719t-1.492 2.234-2.234 1.492T7 14t-2.719-.555-2.234-1.492T.555 9.719 0 7t.555-2.719 1.492-2.234T4.281.555 7 0t2.719.555 2.234 1.492 1.492 2.234T14 7z"/></svg>