<svg xmlns="http://www.w3.org/2000/svg" width="12" height="14" viewBox="0 0 12 14"><path fill="#444" d="M4.547 10.219q0 .516-.727.516-.836 0-.836-.492 0-.5.766-.5.797 0 .797.477zm-.281-3.641q0 .664-.578.664-.602 0-.602-.656 0-.703.602-.703.281 0 .43.199t.148.496zm1.296-.586v-.977q-.609.227-1.055.227-.391-.227-.859-.227-.672 0-1.133.445t-.461 1.117q0 .391.23.797t.574.523v.023q-.297.133-.297.664 0 .414.32.602v.023q-.883.289-.883 1.086 0 .352.156.613t.422.398.563.199.633.062q1.75 0 1.75-1.469 0-.523-.375-.773t-.984-.359q-.211-.039-.402-.16t-.191-.309q0-.344.383-.406.602-.117.953-.547t.352-1.047q0-.187-.078-.406.289-.07.383-.102zm.461 3.274h1.07q-.016-.211-.016-.641V5.602q0-.359.016-.539h-1.07q.023.18.023.555v3.063q0 .391-.023.586zM10 9.141v-.945q-.234.164-.531.164-.414 0-.414-.641V5.961h.406q.07 0 .207.008t.207.008v-.914h-.82q0-.641.023-.797H7.984q.031.187.031.43v.367h-.469v.914l.289-.023q.023 0 .086.004t.094.004v.016h-.016v1.695q0 .289.02.5t.09.441.191.379.34.242.516.094q.5 0 .844-.187zM7.219 3.625q0-.281-.187-.496t-.469-.215-.473.211-.191.5q0 .281.195.488t.469.207.465-.211.191-.484zM12 3.25v7.5q0 .93-.66 1.59T9.75 13h-7.5q-.93 0-1.59-.66T0 10.75v-7.5q0-.93.66-1.59T2.25 1h7.5q.93 0 1.59.66T12 3.25z"/></svg>