<svg xmlns="http://www.w3.org/2000/svg" width="14" height="14" viewBox="0 0 14 14"><path fill="#444" d="M4.648 11.828q0-.781-1.289-.781-1.234 0-1.234.813 0 .789 1.344.789 1.18 0 1.18-.82zm-.46-5.898q0-.477-.234-.797t-.695-.32q-.969 0-.969 1.133 0 1.055.969 1.055.93 0 .93-1.07zm2.101-2.532v1.578q-.281.094-.617.172.125.336.125.656 0 .992-.57 1.691t-1.539.879q-.312.062-.465.211t-.152.453q0 .242.176.402t.453.25.613.172.672.199.613.293.453.5.176.77q0 2.375-2.836 2.375-.539 0-1.016-.098t-.906-.32-.684-.641-.254-.996q0-1.289 1.422-1.758v-.031q-.523-.32-.523-.984 0-.852.492-1.07V8.07q-.563-.187-.934-.848T.617 5.929q0-1.086.742-1.809t1.836-.723q.75 0 1.391.367.766 0 1.703-.367zm2.484 6.883H7.039q.031-.352.031-1.047V4.476q0-.734-.031-1h1.734q-.031.258-.031.969v4.789q0 .695.031 1.047zm4.696-1.734v1.531q-.555.305-1.359.305-.484 0-.836-.156t-.547-.391-.309-.609-.145-.719-.031-.805V4.961h.016V4.93q-.055 0-.148-.008t-.141-.008q-.164 0-.461.047V3.477h.75v-.594q0-.422-.047-.695h1.773q-.047.32-.047 1.289h1.336v1.484q-.117 0-.34-.016t-.332-.016h-.664v2.852q0 1.023.68 1.023.477 0 .852-.258zm-4.5-7.399q0 .453-.305.793t-.75.34q-.453 0-.766-.34t-.312-.793q0-.461.309-.805t.77-.344q.453 0 .754.348t.301.801z"/></svg>