<svg xmlns="http://www.w3.org/2000/svg" width="12" height="14" viewBox="0 0 12 14"><path fill="#444" d="M3.078 10.562q-.062.07-.156-.023-.102-.086-.031-.148.062-.07.156.023.094.086.031.148zm-.328-.476q.07.094 0 .148-.062.047-.133-.055t0-.141q.07-.055.133.047zm-.477-.469q-.039.055-.102.016-.078-.039-.055-.094.023-.039.102-.016.078.039.055.094zm.243.266q-.047.055-.125-.023-.07-.086-.016-.125.047-.047.125.023.07.086.016.125zm1.007.875q-.031.094-.148.047-.133-.031-.102-.117t.148-.055q.125.039.102.125zm.493.039q0 .086-.125.086-.133.016-.133-.086 0-.086.125-.086.133-.016.133.086zm.453-.078q.016.078-.109.109t-.141-.062.109-.117q.125-.016.141.07zM12 3.25v7.5q0 .93-.66 1.59T9.75 13H8q-.125 0-.191-.008t-.152-.039-.125-.113-.039-.215v-1.867q0-.758-.406-1.109.445-.047.801-.141t.734-.305.633-.52.414-.82.16-1.176q0-.945-.617-1.609.289-.711-.062-1.594-.219-.07-.633.086t-.719.344l-.297.187q-.727-.203-1.5-.203t-1.5.203q-.125-.086-.332-.211t-.652-.301-.672-.105q-.344.883-.055 1.594-.617.664-.617 1.609 0 .664.16 1.172t.41.82.629.523.734.305.801.141q-.312.281-.383.805-.164.078-.352.117t-.445.039-.512-.168-.434-.488q-.148-.25-.379-.406t-.387-.187l-.156-.023q-.164 0-.227.035t-.039.09.07.109.102.094l.055.039q.172.078.34.297t.246.398l.078.18q.102.297.344.48t.523.234.543.055.434-.027l.18-.031q0 .297.004.805t.004.531q0 .172-.086.262t-.172.102-.258.012H2.25q-.93 0-1.59-.66T0 10.752v-7.5q0-.93.66-1.59t1.59-.66h7.5q.93 0 1.59.66t.66 1.59z"/></svg>