<svg xmlns="http://www.w3.org/2000/svg" width="12" height="14" viewBox="0 0 12 14"><path fill="#444" d="M12 7q0 1.961-1.145 3.527t-2.957 2.168q-.211.039-.309-.055t-.098-.234v-1.648q0-.758-.406-1.109.445-.047.801-.141t.734-.305.633-.52.414-.82.16-1.176q0-.945-.617-1.609.289-.711-.062-1.594-.219-.07-.633.086t-.719.344l-.297.187q-.727-.203-1.5-.203t-1.5.203q-.125-.086-.332-.211t-.652-.301-.672-.105q-.344.883-.055 1.594-.617.664-.617 1.609 0 .664.16 1.172t.41.82.629.523.734.305.801.141q-.312.281-.383.805-.164.078-.352.117t-.445.039-.512-.168-.434-.488q-.148-.25-.379-.406t-.387-.187l-.156-.023q-.164 0-.227.035t-.039.09.07.109.102.094l.055.039q.172.078.34.297t.246.398l.078.18q.102.297.344.48t.523.234.543.055.434-.027l.18-.031q0 .297.004.695t.004.422q0 .141-.102.234t-.312.055q-1.812-.602-2.957-2.168T-.002 7.001q0-1.633.805-3.012t2.184-2.184T5.999 1t3.012.805 2.184 2.184T12 7.001z"/></svg>