<svg xmlns="http://www.w3.org/2000/svg" width="14" height="14" viewBox="0 0 14 14"><path d="M6 1q1.633 0 3.012.805t2.184 2.184.805 3.012-.805 3.012-2.184 2.184T6 13.002t-3.012-.805-2.184-2.184-.805-3.012.805-3.012 2.184-2.184T6 1zm2.141 4.07q-.016.008-.074.074t-.105.074q.016 0 .035-.039t.039-.086.027-.055q.047-.055.172-.117.109-.047.406-.094.266-.062.398.086-.016-.016.074-.102t.113-.094q.023-.016.117-.035t.117-.059l.016-.172q-.094.008-.137-.055t-.051-.164q0 .016-.047.062 0-.055-.035-.062t-.09.008-.07.008q-.078-.023-.117-.059t-.062-.129-.031-.117q-.016-.039-.074-.082t-.074-.082l-.02-.043-.023-.051q-.011-.024-.031-.043t-.043-.02-.055.039-.059.078-.035.039q-.023-.016-.047-.012t-.035.008-.035.023-.039.027q-.023.016-.066.023t-.066.016q.117-.039-.008-.086-.078-.031-.125-.023.07-.031.059-.094t-.066-.109h.039q-.008-.031-.066-.066t-.137-.066-.102-.047q-.062-.039-.266-.074t-.258-.004q-.039.047-.035.082t.031.109.027.098q.008.047-.043.102t-.051.094q0 .055.109.121t.078.168q-.023.062-.125.125t-.125.094q-.039.062-.012.145t.082.129q.016.016.012.031t-.027.035-.043.031-.051.027l-.023.016q-.086.039-.16-.047t-.105-.203q-.055-.195-.125-.234-.18-.062-.227.008-.039-.102-.32-.203-.195-.07-.453-.031.047-.008 0-.117-.055-.117-.148-.094.023-.047.031-.137t.008-.105q.023-.102.094-.18.008-.008.055-.066t.074-.105.004-.047q.273.031.391-.086.039-.039.09-.133t.082-.133q.07-.047.109-.043t.113.043.113.039q.109.008.121-.086t-.059-.156q.094.008.023-.133-.039-.055-.062-.07-.094-.031-.211.039-.062.031.016.062-.008-.008-.074.082t-.129.137-.125-.039q-.008-.008-.043-.105t-.074-.105q-.062 0-.125.117.023-.062-.086-.117t-.187-.062q.148-.094-.062-.211-.055-.031-.16-.039t-.152.031q-.039.055-.043.09t.039.062.082.043.09.031.066.023q.109.078.062.109-.016.008-.066.027t-.09.035-.047.031q-.023.031 0 .109t-.016.109q-.039-.039-.07-.137t-.055-.129q.055.07-.195.047l-.078-.008q-.031 0-.125.016t-.16.008-.105-.062q-.031-.062 0-.156.008-.031.031-.016-.031-.023-.086-.074t-.078-.066q-.359.117-.734.32.047.008.094-.008.039-.016.102-.051t.078-.043q.266-.109.328-.055l.039-.039q.109.125.156.195-.055-.031-.234-.008-.156.047-.172.094.055.094.039.141-.031-.023-.09-.078t-.113-.086-.117-.039q-.125 0-.172.008-1.141.625-1.836 1.734.055.055.094.062.031.008.039.07t.02.086.09-.023q.07.062.023.148.008-.008.344.211.148.133.164.164.023.086-.078.141-.008-.016-.07-.07t-.07-.031q-.023.039.004.145t.082.098q-.055 0-.074.125t-.02.277-.008.184l.016.008q-.023.094.043.27t.168.152q-.102.023.156.336.047.062.062.07.023.016.094.059t.117.078.078.082q.031.039.078.176t.109.184q-.016.047.074.156t.082.18q-.008 0-.02.008t-.02.008q.023.055.121.109t.121.102q.008.023.016.078t.023.086.062.016q.016-.156-.187-.484-.117-.195-.133-.227-.023-.039-.043-.121t-.035-.113q.016 0 .047.012t.066.027.059.031.016.023q-.023.055.016.137t.094.145.133.148.094.102q.047.047.109.152t0 .105q.07 0 .156.078t.133.156q.039.062.062.203t.039.187q.016.055.066.105t.098.074l.125.062.102.055q.039.016.145.082t.168.09q.078.031.125.031t.113-.02.105-.027q.117-.016.227.117t.164.164q.281.148.43.086-.016.008.004.059t.062.121.07.113.043.066q.039.047.141.117t.141.117q.047-.031.055-.07-.023.062.055.156t.141.078q.109-.023.109-.25-.242.117-.383-.141 0-.008-.02-.043t-.031-.066-.02-.066 0-.059.039-.023q.07 0 .078-.027t-.016-.098-.031-.102q-.008-.062-.086-.156t-.094-.117q-.039.07-.125.062t-.125-.07q0 .008-.012.043t-.012.051q-.102 0-.117-.008.008-.023.02-.137t.027-.176q.008-.031.043-.094t.059-.113.031-.098-.035-.074-.137-.02q-.148.008-.203.156-.008.023-.023.082t-.039.09-.07.055q-.055.023-.187.016t-.187-.039q-.102-.062-.176-.227t-.074-.289q0-.078.02-.207t.023-.195-.043-.191q.023-.016.07-.074t.078-.082q.016-.008.035-.012t.035 0 .031-.012.023-.047q-.008-.008-.031-.023-.023-.023-.031-.023.055.023.223-.012t.215.012q.117.086.172-.016 0-.008-.02-.074t-.004-.105q.039.211.227.07.023.023.121.039t.137.039q.023.016.055.043t.043.035.039-.004.066-.051q.078.109.094.187.086.312.148.344.055.023.086.016t.035-.074 0-.109-.012-.098l-.008-.062v-.141l-.008-.062q-.117-.023-.145-.094t.012-.145.117-.145q.008-.008.062-.027t.121-.051.098-.062q.164-.148.117-.273.055 0 .086-.07-.008 0-.039-.023t-.059-.039-.035-.016q.07-.039.016-.125.039-.023.059-.086t.059-.078q.07.094.164.016.055-.062.008-.125.039-.055.16-.082t.145-.074q.055.016.062-.016t.008-.094.023-.094q.031-.039.117-.07t.102-.039l.133-.086q.023-.031 0-.031.141.016.242-.086.078-.086-.047-.156.023-.047-.023-.074t-.117-.043q.023-.008.09-.004t.082-.012q.117-.078-.055-.125-.133-.039-.336.094zm-1.274 6.852q1.609-.281 2.742-1.477-.023-.023-.098-.035t-.098-.027q-.141-.055-.187-.062.008-.055-.02-.102t-.062-.07-.098-.062-.086-.055q-.016-.016-.055-.047t-.055-.043-.059-.035-.066-.016-.078.008l-.023.008q-.023.008-.043.02t-.043.023-.031.023 0 .02q-.164-.133-.281-.172-.039-.008-.086-.043t-.082-.055-.078-.012-.09.055q-.039.039-.047.117t-.016.102q-.055-.039 0-.137t.016-.145q-.023-.047-.082-.035t-.094.035-.09.066-.07.051-.066.043-.066.059q-.023.031-.047.094t-.039.086q-.016-.031-.09-.051t-.074-.043q.016.078.031.273t.039.297q.055.242-.094.375-.211.195-.227.312-.031.172.094.203 0 .055-.062.16t-.055.168q0 .047.016.125z" fill="#444"/></svg>