<svg xmlns="http://www.w3.org/2000/svg" width="13" height="14" viewBox="0 0 13 14"><path fill="#444" d="M5.742 6.219q0 .281.25.551t.605.531.707.574.602.813.25 1.109q0 .703-.375 1.352-.563.953-1.648 1.402T3.805 13q-1.031 0-1.926-.324t-1.34-1.074Q.25 11.133.25 10.579q0-.633.348-1.172t.926-.898q1.023-.641 3.156-.781-.25-.328-.371-.578t-.121-.57q0-.281.164-.664-.359.031-.531.031-1.156 0-1.949-.754t-.793-1.91q0-.641.281-1.242t.773-1.023Q2.735.502 3.559.252t1.699-.25h3.266L7.446.69H6.423q.578.492.875 1.039t.297 1.25q0 .563-.191 1.012t-.461.727-.543.508-.465.48-.191.516zm-1.14-.75q.297 0 .609-.129T5.727 5q.414-.445.414-1.242 0-.453-.133-.977t-.379-1.012-.66-.809-.914-.32q-.328 0-.645.152t-.512.41q-.367.461-.367 1.25 0 .359.078.762t.246.805.406.723.586.523.754.203zm.015 6.82q.453 0 .871-.102t.773-.305.57-.57.215-.852q0-.195-.055-.383t-.113-.328-.211-.324-.23-.273-.301-.27-.285-.227-.324-.234-.285-.203q-.125-.016-.375-.016-.414 0-.82.055t-.84.195-.758.359-.535.582-.211.824q0 .547.273.965t.715.648.93.344.996.113zm6.328-6.844h1.664v.844h-1.664V8h-.82V6.289H8.469v-.844h1.656V3.75h.82v1.695z"/></svg>