<svg xmlns="http://www.w3.org/2000/svg" width="10" height="14" viewBox="0 0 10 14"><path fill="#444" d="M7.664 10.461q0-.195-.055-.383t-.113-.328-.211-.324-.23-.273-.301-.27-.285-.227-.324-.234-.285-.203q-.125-.016-.383-.016-.414 0-.816.055t-.836.195-.758.359-.535.582-.211.824q0 .438.184.797t.477.59.68.391.781.227.793.066q.453 0 .871-.102t.773-.305.57-.57.215-.852zM6.75 3.758q0-.461-.133-.98T6.242 1.77 5.586.961t-.914-.32q-.328 0-.645.152t-.52.41q-.359.461-.359 1.25 0 .359.078.762t.246.805.406.723.586.523.754.203q.289 0 .605-.129T6.335 5q.414-.438.414-1.242zM5.875 0h3.258l-1.07.688H7.032q.586.492.883 1.039t.297 1.25q0 .563-.191 1.012t-.465.727-.543.508-.461.48-.191.516q0 .281.25.551t.602.531.707.574.605.813.25 1.109q0 .711-.383 1.352-.555.953-1.637 1.402t-2.332.449q-1.031 0-1.926-.324t-1.348-1.074q-.281-.461-.281-1.023 0-.633.348-1.172t.926-.898q1.023-.641 3.156-.781-.25-.32-.371-.574t-.121-.574q0-.312.164-.664-.359.031-.531.031-1.156 0-1.949-.754t-.793-1.91q0-.641.281-1.242t.773-1.023Q3.345.503 4.173.253t1.703-.25z"/></svg>