<svg xmlns="http://www.w3.org/2000/svg" width="12" height="14" viewBox="0 0 12 14"><path fill="#444" d="M6.477 9.516q0 .594-.457.879t-1.09.285q-.32 0-.629-.074t-.59-.223-.453-.414-.172-.609q0-.359.195-.625t.512-.402.641-.195.66-.059q.156 0 .242.016.016.008.18.129t.203.148.18.141.191.172.148.176.133.203.07.207.035.246zm-.579-4.258q0 .469-.258.777t-.719.309q-.414 0-.727-.332t-.449-.754-.137-.828q0-.477.25-.813t.719-.336q.414 0 .73.352t.453.789.137.836zm.829-2.008l.688-.5h-2.07q-.664 0-1.258.25t-.996.766-.402 1.195q0 .727.504 1.207t1.238.48q.172 0 .336-.023-.102.227-.102.422 0 .344.312.734-1.367.094-2.008.492-.367.227-.59.57t-.223.742q0 .336.145.605t.379.441.539.289.605.164.598.047q.469 0 .941-.121t.887-.359.672-.645.258-.914q0-.383-.156-.699t-.383-.52-.453-.371-.383-.344-.156-.348.121-.332.293-.309.344-.328.293-.465.121-.645q0-.469-.176-.777t-.566-.707h.648zM9 6.75h1v-.5H9v-1h-.5v1h-1v.5h1V8H9V6.75zm3-3.5v7.5q0 .93-.66 1.59T9.75 13h-7.5q-.93 0-1.59-.66T0 10.75v-7.5q0-.93.66-1.59T2.25 1h7.5q.93 0 1.59.66T12 3.25z"/></svg>