<svg xmlns="http://www.w3.org/2000/svg" width="14" height="14" viewBox="0 0 14 14"><path fill="#444" d="M4.703 4.586q.148.477.242.965t.133 1.105-.109 1.242-.484 1.133q-.164-.633-.523-1.227t-.746-.992-.773-.707-.613-.449-.258-.148q-.484-.266-.637-.781t.113-1 .789-.637 1.008.113q1.078.648 1.859 1.383zm2.539-2.242l.16.359q.074.164.285.785t.332 1.176.199 1.402 0 1.605-.371 1.637-.824 1.629q-.398.563-1.078.563-.422 0-.766-.242-.445-.312-.539-.852t.219-.992q.469-.664.633-1.523t.102-1.559-.25-1.41-.305-1-.172-.406q-.242-.492-.066-1.012t.668-.762q.266-.133.586-.133.367 0 .691.195t.496.539zM9.75 7.57Q9.617 8.82 9.187 10q-.133-1.023-.492-1.922.195-1.359-.039-2.82-.211-1.391-.734-2.672.891.703 1.656 1.648.07.289.117.625.203 1.398.055 2.711zM11.875.75q.07.133.184.387t.34.918.395 1.391.266 1.777.039 2.102-.367 2.344-.879 2.527q-.172.375-.516.59t-.742.215q-.305 0-.578-.125-.523-.242-.723-.781t.035-1.062q.453-.984.703-2.012t.293-1.871-.027-1.668-.207-1.41T9.79 2.99t-.254-.703-.121-.254q-.266-.508-.09-1.059t.684-.816q.289-.156.633-.156.383 0 .715.199t.52.551z"/></svg>