<svg xmlns="http://www.w3.org/2000/svg" width="18" height="14" viewBox="0 0 18 14"><path fill="#444" d="M13.859 6.531L14 9q.031.539-.641 1t-1.836.73T9 11t-2.523-.27T4.641 10 4 9l.141-2.469 4.484 1.414Q8.797 8 9 8t.375-.055zM18 4q0 .18-.172.242l-8.75 2.75Q9.047 7 9 7t-.078-.008L3.828 5.383q-.336.266-.555.871t-.266 1.395q.492.281.492.852 0 .539-.453.836l.453 3.383q.016.109-.062.195-.07.086-.187.086h-1.5q-.117 0-.187-.086-.078-.086-.062-.195l.453-3.383q-.453-.297-.453-.836 0-.57.508-.867.086-1.617.766-2.578L.173 4.243q-.172-.062-.172-.242t.172-.242l8.75-2.75q.031-.008.078-.008t.078.008l8.75 2.75q.172.062.172.242z"/></svg>