<svg xmlns="http://www.w3.org/2000/svg" width="15" height="14" viewBox="0 0 15 14"><path fill="#444" d="M4.633 7q-1.266.039-2.07 1H1.516Q.875 8 .438 7.684T0 6.758Q0 4 .969 4q.047 0 .34.164t.762.332.93.168q.523 0 1.039-.18-.039.289-.039.516 0 1.086.633 2zM13 11.977q0 .937-.57 1.48T10.914 14H4.086q-.945 0-1.516-.543T2 11.977q0-.414.027-.809t.109-.852.207-.848.336-.762.484-.633.668-.418.871-.156q.078 0 .336.168t.57.375.836.375 1.055.168 1.055-.168.836-.375.57-.375.336-.168q.477 0 .871.156t.668.418.484.633.336.762.207.848.109.852.027.809zM5 2q0 .828-.586 1.414T3 4t-1.414-.586T1 2 1.586.586 3 0t1.414.586T5 2zm5.5 3q0 1.242-.879 2.121T7.5 8t-2.121-.879T4.5 5t.879-2.121T7.5 2t2.121.879T10.5 5zM15 6.758q0 .609-.438.926T13.484 8h-1.047q-.805-.961-2.07-1Q11 6.086 11 5q0-.227-.039-.516.516.18 1.039.18.461 0 .93-.168t.762-.332.34-.164q.969 0 .969 2.758zM14 2q0 .828-.586 1.414T12 4t-1.414-.586T10 2t.586-1.414T12 0t1.414.586T14 2z"/></svg>