<svg xmlns="http://www.w3.org/2000/svg" width="12" height="14" viewBox="0 0 12 14"><path fill="#444" d="M11 7.5q0-.656-.25-1.43t-.5-1.516T10 3.249v-.25H5v.25q0 .273-.094.527t-.289.488-.359.391-.422.383q-.07.062-.109.094-.633.563-1.133.875-.172.109-.531.297-.023.008-.176.082t-.281.145-.277.156-.238.168-.09.145q0 .555.238.902t.762.348q.336 0 .66-.117t.531-.258.43-.258.379-.117V12q0 .391.301.695t.699.305q.406 0 .703-.297T6.001 12V9.414q.359.273.805.273.539 0 .93-.414.25.141.539.141t.574-.137.41-.371q.187.031.438.031.664 0 .984-.379t.32-1.059zm-1-6q0-.203-.148-.352T9.5 1t-.352.148T9 1.5t.148.352T9.5 2t.352-.148T10 1.5zm2 5.969q0 1.109-.605 1.797t-1.699.68l-.039-.008q-.594.477-1.391.477-.172 0-.336-.023-.422.234-.93.289v1.32q0 .82-.594 1.41t-1.414.59q-.805 0-1.398-.594T3 12.001V9.079q-.422.172-1 .172-.945 0-1.473-.637T0 7.001q0-.297.137-.543t.387-.43.492-.316.563-.289.484-.258q.43-.273 1.008-.781.023-.016.133-.109t.168-.148.168-.16.176-.187.141-.176.109-.184.035-.168v-2.25q0-.414.293-.707t.707-.293h5q.414 0 .707.293t.293.707v2.25q0 .461.461 1.742.539 1.484.539 2.477z"/></svg>