<svg xmlns="http://www.w3.org/2000/svg" width="14" height="14" viewBox="0 0 14 14"><path fill="#444" d="M2 10.5q0-.203-.148-.352T1.5 10t-.352.148T1 10.5t.148.352T1.5 11t.352-.148T2 10.5zM13 6q0-.398-.305-.699T12 5H7.5q0-.156.117-.379t.258-.43.258-.531T8.25 3q0-.523-.348-.762T7 2q-.187 0-.703 1.086-.187.344-.289.508-.312.5-.875 1.133-.555.633-.789.828Q3.805 6 3.25 6H3v5h.25q.563 0 1.305.25t1.512.5 1.402.25q1.477 0 1.477-1.305 0-.203-.039-.438.234-.125.371-.41t.137-.574-.141-.539q.414-.391.414-.93 0-.195-.078-.434t-.195-.371h2.586q.406 0 .703-.297t.297-.703zm1-.008q0 .82-.59 1.414T12 8h-1.32q-.031.484-.289.93.023.164.023.336 0 .789-.469 1.391.008 1.086-.664 1.715t-1.773.629q-1.039 0-2.516-.539-1.281-.461-1.742-.461H1q-.414 0-.707-.293T0 11.001v-5q0-.414.293-.707T1 5.001h2.25q.078 0 .168-.035t.184-.109.176-.141.187-.176.16-.168.148-.168.109-.133q.508-.578.781-1.008.102-.164.258-.484t.289-.563.316-.492.43-.387T6.999 1q.977 0 1.613.523T9.249 3q0 .531-.172 1h2.922q.813 0 1.406.594t.594 1.398z"/></svg>