<svg xmlns="http://www.w3.org/2000/svg" width="12" height="14" viewBox="0 0 12 14"><path fill="#444" d="M10.063 5.055q.469 0 .836.18 1.102.492 1.102 1.766v1.383q0 .734-.18 1.453l-.664 2.648q-.164.672-.707 1.094t-1.23.422H4.001q-.828 0-1.414-.586t-.586-1.414V8.868L.134 3.962Q.001 3.61.001 3.251q0-.828.586-1.414t1.414-.586q.625 0 1.137.355t.73.934l.133.344v-.883q0-.828.586-1.414T6.001.001t1.414.586.586 1.414V4.04q.211-.039.375-.039.539 0 .996.285t.691.77zM8.375 5q-.258 0-.473.141t-.324.375L7 6.789 6.445 8h.43q.391 0 .703.246t.391.629l1.203-2.641q.078-.156.078-.359 0-.359-.258-.617T8.375 5zm1.727 1.055q-.172 0-.316.062t-.227.125-.184.23-.133.238-.133.289L8.078 9.265Q8 9.421 8 9.624q0 .359.258.617t.617.258q.258 0 .473-.141t.324-.375l1.25-2.75q.07-.141.07-.297 0-.391-.25-.637t-.641-.246zM1 3.25q0 .172.062.359l1.937 5.078v.539l.797-.867Q4.132 8 4.624 8h1.547l.828-1.82V2q0-.414-.293-.707T5.999 1t-.707.293T4.999 2v5h-.5L2.936 2.891q-.109-.289-.367-.465t-.57-.176q-.414 0-.707.293t-.293.707zM9.219 13q.344 0 .613-.211t.355-.547l.664-2.648q.148-.57.148-1.211v-.711l-1.102 2.422q-.133.297-.414.477t-.609.18q-.414 0-.73-.27t-.379-.676q-.344.445-.891.445H5.249V10h1.625q.359 0 .633-.258t.273-.617-.242-.617-.602-.258H4.623q-.383 0-.641.281l-.984 1.062v2.406q0 .414.293.707t.707.293h5.219z"/></svg>