<svg xmlns="http://www.w3.org/2000/svg" width="12" height="14" viewBox="0 0 12 14"><path fill="#444" d="M6 3q-.414 0-.707.293T5 4v1h-.25v-.727q0-.375-.25-.637t-.625-.262q-.359 0-.617.258T3 4.249v3.352l-.25-.234V6.023q0-.375-.25-.637t-.625-.262q-.359 0-.617.258T1 5.999v1.75q0 .367.273.641l2.422 2.313Q4 11.008 4 11.5q0 .203.148.352T4.5 12h5q.203 0 .352-.148T10 11.5v-.195q0-.32.078-.602l.844-3.406Q11 7.016 11 6.695V4.773q0-.375-.25-.637t-.625-.262q-.359 0-.617.258t-.258.617v.25H9v-.977q0-.312-.195-.566t-.5-.316q-.109-.016-.18-.016-.359 0-.617.258t-.258.617v1H7v-.953q0-.398-.254-.699t-.645-.34q-.039-.008-.102-.008zm0-1q.656 0 1.164.391.445-.266.961-.266.461 0 .867.211t.672.594q.211-.055.461-.055.781 0 1.328.559T12 4.774v1.922q0 .398-.102.844l-.852 3.406q-.047.187-.047.555 0 .625-.438 1.062t-1.062.438h-5q-.656 0-1.078-.457t-.422-1.113L.593 9.118q-.594-.57-.594-1.367v-1.75q0-.773.551-1.324t1.324-.551q.086 0 .125.008.047-.742.59-1.25t1.285-.508q.406 0 .766.164.563-.539 1.359-.539z"/></svg>