<svg xmlns="http://www.w3.org/2000/svg" width="13" height="14" viewBox="0 0 13 14"><path fill="#444" d="M5 1q-.414 0-.707.293T4 2v7L2.82 7.422Q2.5 7 1.984 7q-.406 0-.695.297T1 8q0 .336.203.602l3 4Q4.5 13 5 13h5.609q.172 0 .309-.105t.176-.27l.719-2.875Q12 9 12 8.234V6.539q0-.32-.219-.555t-.531-.234-.531.219-.219.531h-.25v-.477q0-.375-.25-.637t-.625-.262q-.359 0-.617.258t-.258.617v.5h-.25v-.703q0-.43-.289-.738t-.711-.309q-.414 0-.707.293t-.293.707v.75H6V2.046q0-.43-.289-.738T5 .999zm0-1q.836 0 1.418.605T7 2.046v1.719q.172-.016.25-.016.773 0 1.352.539.367-.164.773-.164.883 0 1.438.68.211-.055.438-.055.734 0 1.242.527t.508 1.262v1.695q0 .906-.219 1.758l-.719 2.875q-.125.5-.531.816t-.922.316H5.001q-.469 0-.895-.215t-.707-.582l-3-4Q.001 8.67.001 7.998q0-.82.582-1.41t1.402-.59q.555 0 1.016.273V1.998q0-.828.586-1.414t1.414-.586zm1 11V8h-.25v3H6zm2 0V8h-.25v3H8zm2 0V8h-.25v3H10z"/></svg>