<svg xmlns="http://www.w3.org/2000/svg" width="15" height="14" viewBox="0 0 15 14"><path fill="#444" d="M6.375 1Q6 1 5.754 1.266t-.246.641q0 .109.023.219l1.172 4.875H6.5l-.906-3.766q-.07-.297-.309-.484t-.543-.187q-.367 0-.617.266t-.25.633q0 .086.031.227.023.102.305 1.258t.531 2.203.25 1.078v1.773L2.594 8.205q-.266-.203-.602-.203-.406 0-.699.285T1 8.978q0 .523.438.859l3.961 2.961q.266.203.594.203h5.422q.258 0 .461-.16t.266-.41l.781-3.133q.062-.234.078-.688t.07-.672l.906-3.734Q14 4.11 14 4.001q0-.359-.258-.617t-.625-.258q-.297 0-.539.199t-.312.488l-.773 3.188h-.203l1.031-4.273q.023-.109.023-.219 0-.367-.25-.625t-.625-.258q-.297 0-.535.187t-.309.484L9.492 7H8.5L7.219 1.672q-.07-.297-.309-.484t-.535-.187zm5.039 13H5.992q-.664 0-1.195-.398L.836 10.633q-.391-.297-.613-.734T0 8.977q0-.82.586-1.398t1.406-.578q.195 0 .387.043t.324.086.32.16.273.18.301.23.293.223l-.961-4q-.055-.273-.055-.461 0-.727.469-1.266t1.187-.617q.109-.68.629-1.129T6.374.001q.648 0 1.156.402t.664 1.035l.805 3.344.648-2.719q.156-.633.664-1.035t1.156-.402q.68 0 1.191.422t.645 1.086q.727.078 1.211.609t.484 1.258q0 .234-.055.445l-.906 3.727q-.039.172-.039.523 0 .398-.102.844l-.789 3.133q-.148.586-.621.957t-1.074.371z"/></svg>