<svg xmlns="http://www.w3.org/2000/svg" width="12" height="14" viewBox="0 0 12 14"><path fill="#444" d="M10 12.5q0-.203-.148-.352T9.5 12t-.352.148T9 12.5t.148.352T9.5 13t.352-.148T10 12.5zm1-5.969q0-1.477-1.305-1.477-.203 0-.438.039-.125-.234-.41-.371t-.574-.137-.539.141q-.391-.414-.93-.414-.195 0-.434.078t-.371.195V1.999q0-.406-.297-.703T4.999.999q-.398 0-.699.305t-.301.695v4.5q-.156 0-.379-.117t-.43-.258-.531-.258-.66-.117q-.523 0-.762.348t-.238.902q0 .187 1.086.703.344.187.508.289.5.312 1.133.875.633.555.828.789.445.539.445 1.094v.25h5v-.25q0-.563.25-1.305t.5-1.512.25-1.402zm1-.039q0 1.039-.539 2.516Q11 10.289 11 10.75V13q0 .414-.293.707T10 14H5q-.414 0-.707-.293T4 13v-2.25q0-.078-.035-.168t-.109-.184-.141-.176-.176-.187-.168-.16-.168-.148-.133-.109q-.578-.508-1.008-.781-.164-.102-.484-.258t-.563-.289-.492-.316-.387-.43-.137-.543q0-.977.523-1.613t1.477-.637q.531 0 1 .172V2.001q0-.813.594-1.406T4.991.001q.82 0 1.414.59t.594 1.41v1.32q.484.031.93.289.164-.023.336-.023.789 0 1.391.469 1.086-.008 1.715.664T12 6.493z"/></svg>