<svg xmlns="http://www.w3.org/2000/svg" width="14" height="14" viewBox="0 0 14 14"><path fill="#444" d="M10.75 11H11V6h-.25q-.273 0-.527-.094t-.488-.289-.391-.359-.383-.422q-.016-.023-.027-.035t-.031-.035-.035-.039q-.563-.633-.875-1.133-.109-.172-.297-.531-.008-.023-.082-.176t-.145-.281-.156-.277-.168-.238T7 2.001q-.555 0-.902.238t-.348.762q0 .336.117.66t.258.531.258.43.117.379H2q-.391 0-.695.301T1 6.001q0 .406.297.703T2 7.001h2.586q-.117.133-.195.371t-.078.434q0 .539.414.93-.141.25-.141.539t.137.574.371.41q-.031.187-.031.438 0 .664.379.984t1.059.32q.656 0 1.43-.25t1.516-.5 1.305-.25zm2.25-.5q0-.203-.148-.352T12.5 10t-.352.148T12 10.5t.148.352.352.148.352-.148T13 10.5zM14 6v5q0 .414-.293.707T13 12h-2.25q-.461 0-1.742.461Q7.524 13 6.531 13q-1.109 0-1.797-.605t-.68-1.699l.008-.039q-.477-.594-.477-1.391 0-.172.023-.336-.258-.445-.289-.93h-1.32q-.82 0-1.41-.594t-.59-1.414q0-.805.594-1.398T1.999 4h2.922q-.172-.469-.172-1 0-.953.637-1.477T6.999 1q.297 0 .543.137t.43.387.316.492.289.563.258.484q.273.43.781 1.008.016.023.109.133t.148.168.16.168.187.176.176.141.184.109.168.035h2.25q.414 0 .707.293t.293.707z"/></svg>