<svg xmlns="http://www.w3.org/2000/svg" width="13" height="14" viewBox="0 0 13 14"><path fill="#444" d="M6.875 1q-.359 0-.617.258T6 1.875V7h-.25V2.875q0-.359-.258-.617T4.875 2t-.617.258T4 2.875V9L2.797 7.398Q2.5 7 2 7q-.414 0-.707.293T1 8q0 .336.203.602l3 4Q4.5 13 5 13h5.375q.266 0 .477-.172t.266-.438l.594-3.164q.039-.25.039-.461V4.874q0-.359-.258-.617t-.617-.258-.617.258-.258.617v2.125h-.25V2.874q0-.359-.258-.617t-.617-.258-.617.258-.258.617v4.125h-.25V1.874q0-.359-.258-.617T6.876.999zm0-1q.531 0 .98.277t.691.754Q8.694 1 8.874 1q.773 0 1.324.551t.551 1.324v.133q.82-.047 1.41.5t.59 1.367v3.891q0 .312-.062.648l-.594 3.156q-.109.617-.598 1.023t-1.121.406H4.999q-.469 0-.895-.215t-.707-.582l-3-4q-.398-.531-.398-1.203 0-.828.586-1.414t1.414-.586q.609 0 1 .266V2.874q0-.773.551-1.324T4.874.999q.18 0 .328.031.242-.477.691-.754t.98-.277z"/></svg>