<svg xmlns="http://www.w3.org/2000/svg" width="14" height="14" viewBox="0 0 14 14"><path fill="#444" d="M8.383 13H7q-1.273 0-1.766-1.102-.18-.383-.18-.797v-.039q-.484-.234-.77-.691t-.285-.996q0-.297.039-.375H1.999q-.828 0-1.414-.586T-.001 7t.586-1.414T1.999 5h.883l-.344-.133q-.578-.219-.934-.73T1.249 3q0-.828.586-1.414T3.249 1q.359 0 .711.133L8.866 3h3.133q.828 0 1.414.586T13.999 5v5.219q0 .688-.422 1.23t-1.094.707l-2.648.664q-.719.18-1.453.18zM8 7.445L6.789 8l-1.273.578q-.234.109-.375.324T5 9.375q0 .359.258.617t.617.258q.203 0 .359-.078l2.641-1.203q-.383-.078-.629-.391T8 7.875v-.43zm2.5 2.43q0-.359-.258-.617T9.625 9q-.203 0-.359.078L7 10.109q-.219.102-.289.133t-.238.133-.23.184-.125.227-.062.316q0 .391.246.641t.637.25q.156 0 .297-.07l2.75-1.25q.234-.109.375-.324t.141-.473zM8.688 4L3.61 2.063q-.187-.062-.359-.062-.414 0-.707.293t-.293.707q0 .312.176.57t.465.367l4.109 1.563v.5h-5q-.414 0-.707.293t-.293.707.293.707.707.293h4.18l1.82-.828V5.626q0-.492.359-.828l.867-.797h-.539zm-.305 8q.641 0 1.211-.148l2.648-.664q.336-.086.547-.355T13 10.22V5.001q0-.414-.293-.707T12 4.001H9.594l-1.062.984q-.281.258-.281.641v2.313q0 .359.258.602t.617.242.617-.273.258-.633V6.252h.25v1.625q0 .547-.445.891.406.062.676.379t.27.73q0 .328-.18.609t-.477.414l-2.422 1.102h.711z"/></svg>