<svg xmlns="http://www.w3.org/2000/svg" width="16" height="14" viewBox="0 0 16 14"><path fill="#444" d="M8.992 0q.477 0 .906.219t.711.602l4.469 6.102Q16 8.165 16 9.728v2.773q0 .625-.438 1.062t-1.062.438h-3q-.625 0-1.062-.438T10 12.501v-1.383l-2.234-1.117H3.5q-.625 0-1.062-.438T2 8.501v-.25q0-.93.66-1.59t1.59-.66h3.281l.328-1H2.5q-.781 0-1.355-.527T.508 3.173Q0 2.556 0 1.751v-.25Q0 .876.438.439T1.5.001h7.492zM15 12.5V9.727q0-1.227-.727-2.219L9.796 1.406Q9.491 1 8.991 1H1.499q-.203 0-.352.148T.999 1.5q0 .25.012.387t.074.316.195.336q.078-.242.277-.391T1.998 2h6.5v.25h-6.5q-.203 0-.352.148t-.148.352q0 .344.023.453.062.344.344.57T2.498 4h5.711q.312 0 .531.219t.219.531q0 .117-.039.234l-.5 1.5q-.078.227-.273.371T7.71 7H4.249q-.516 0-.883.367t-.367.883v.25q0 .203.148.352T3.499 9h4.383q.125 0 .227.055l2.477 1.234q.187.102.301.281t.113.391V12.5q0 .203.148.352T11.5 13h3q.203 0 .352-.148T15 12.5z"/></svg>