<svg xmlns="http://www.w3.org/2000/svg" width="12" height="14" viewBox="0 0 12 14"><path fill="#444" d="M8.125 9.5q0 .258-.184.441t-.441.184-.441-.184-.184-.441.184-.441.441-.184.441.184.184.441zm2 0q0 .258-.184.441t-.441.184-.441-.184-.184-.441.184-.441.441-.184.441.184.184.441zM11 10.75v-2.5q0-.102-.074-.176T10.75 8h-9.5q-.102 0-.176.074T1 8.25v2.5q0 .102.074.176T1.25 11h9.5q.102 0 .176-.074T11 10.75zM1.391 7h9.219L9.383 3.234q-.031-.102-.125-.168T9.055 3H2.946q-.109 0-.203.066t-.125.168zM12 8.25v2.5q0 .516-.367.883T10.75 12h-9.5q-.516 0-.883-.367T0 10.75v-2.5q0-.195.125-.586L1.664 2.93q.133-.414.492-.672T2.945 2h6.109q.43 0 .789.258t.492.672l1.539 4.734q.125.391.125.586z"/></svg>