<svg xmlns="http://www.w3.org/2000/svg" width="13" height="14" viewBox="0 0 13 14"><path fill="#444" d="M13 6.922q0 1.297-.469 2.453l-.156.383-1.445.258q-.172.648-.707 1.066T9 11.5v.25q0 .109-.07.18t-.18.07h-.5q-.109 0-.18-.07T8 11.75v-4.5q0-.109.07-.18T8.25 7h.5q.109 0 .18.07t.07.18v.25q.555 0 1.016.277t.727.746l.531-.094q.227-.742.227-1.508 0-1.156-.688-2.18T8.965 3.108 6.5 2.499t-2.465.609-1.848 1.633-.688 2.18q0 .766.227 1.508l.531.094q.266-.469.727-.746T4 7.5v-.25q0-.109.07-.18T4.25 7h.5q.109 0 .18.07t.07.18v4.5q0 .109-.07.18t-.18.07h-.5q-.109 0-.18-.07T4 11.75v-.25q-.688 0-1.223-.418t-.707-1.066L.625 9.758l-.156-.383Q0 8.219 0 6.922q0-1.18.523-2.273t1.398-1.895 2.078-1.277T6.499 1t2.5.477 2.078 1.277 1.398 1.895.523 2.273z"/></svg>