<svg xmlns="http://www.w3.org/2000/svg" width="14" height="14" viewBox="0 0 14 14"><path fill="#444" d="M13 4.656q0-.633-.168-1.117t-.43-.77-.637-.465-.734-.242T10.265 2t-.875.199-.863.5-.676.563-.469.48q-.141.172-.383.172t-.383-.172q-.187-.219-.469-.48t-.676-.563-.863-.5T3.733 2t-.766.062-.734.242-.637.465-.43.77-.168 1.117q0 1.313 1.461 2.773l4.539 4.375 4.531-4.367q1.469-1.469 1.469-2.781zm1 0q0 1.727-1.789 3.516l-4.867 4.687Q7.203 13 7 13t-.344-.141L1.781 8.156q-.078-.062-.215-.203t-.434-.512-.531-.762-.418-.945-.184-1.078q0-1.719.992-2.687T3.733 1q.484 0 .988.168t.937.453.746.535.594.531q.281-.281.594-.531t.746-.535.937-.453.988-.168q1.75 0 2.742.969t.992 2.687z"/></svg>