<svg xmlns="http://www.w3.org/2000/svg" width="14" height="14" viewBox="0 0 14 14"><path fill="#444" d="M10 8h2.383q-.039.047-.078.082t-.07.059l-.023.031-4.867 4.687Q7.204 13 7.001 13t-.344-.141L1.782 8.156Q1.743 8.14 1.618 8h2.883q.172 0 .309-.105t.176-.27l.547-2.195 1.484 5.211q.047.156.18.258t.305.102q.164 0 .297-.102t.18-.258L9.12 6.852l.438.875q.141.273.445.273zm4-3.344Q14 5.789 13.195 7h-2.883l-.867-1.727q-.062-.133-.199-.211T8.961 5q-.352.039-.438.359L7.515 8.718 5.984 3.359q-.047-.156-.184-.258t-.309-.102-.305.105-.172.27l-.906 3.625H.803q-.805-1.211-.805-2.344 0-1.719.992-2.687T3.732.999q.484 0 .988.168t.937.453.746.535.594.531q.281-.281.594-.531t.746-.535.937-.453.988-.168q1.75 0 2.742.969t.992 2.687z"/></svg>