<svg xmlns="http://www.w3.org/2000/svg" width="13" height="14" viewBox="0 0 13 14"><path fill="#444" d="M11 7.75v3.75q0 .203-.148.352T10.5 12h-3V9h-2v3h-3q-.203 0-.352-.148T2 11.5V7.75q0-.008.004-.023t.004-.023L6.5 4.001l4.492 3.703q.008.016.008.047zm1.742-.539l-.484.578q-.062.07-.164.086h-.023q-.102 0-.164-.055L6.501 3.312 1.095 7.82q-.094.062-.187.055-.102-.016-.164-.086L.26 7.211q-.062-.078-.055-.184t.086-.168l5.617-4.68q.25-.203.594-.203t.594.203l1.906 1.594V2.25q0-.109.07-.18t.18-.07h1.5q.109 0 .18.07t.07.18v3.188l1.711 1.422q.078.062.086.168t-.055.184z"/></svg>