<svg xmlns="http://www.w3.org/2000/svg" width="12" height="14" viewBox="0 0 12 14"><path fill="#444" d="M11.75 12.5q.109 0 .18.07t.07.18v1q0 .109-.07.18t-.18.07H.25q-.109 0-.18-.07T0 13.75v-1q0-.109.07-.18t.18-.07h11.5zM1.016 12q.023-.43.125-.836t.234-.742.359-.68.418-.594.504-.543.516-.469.551-.43.52-.371.508-.336q-.336-.219-.508-.336t-.52-.371-.551-.43-.516-.469-.504-.543-.418-.594-.359-.68-.234-.742-.125-.836h9.969q-.023.43-.125.836t-.234.742-.359.68-.418.594-.504.543-.516.469-.551.43-.52.371-.508.336q.336.219.508.336t.52.371.551.43.516.469.504.543.418.594.359.68.234.742.125.836H1.016zM11.75 0q.109 0 .18.07t.07.18v1q0 .109-.07.18t-.18.07H.25q-.109 0-.18-.07T0 1.25v-1Q0 .141.07.07T.25 0h11.5z"/></svg>