<svg xmlns="http://www.w3.org/2000/svg" width="12" height="14" viewBox="0 0 12 14"><path fill="#444" d="M11 1q0 2.039-.832 3.605T8.086 7q1.25.828 2.082 2.395T11 13h.75q.109 0 .18.07t.07.18v.5q0 .109-.07.18t-.18.07H.25q-.109 0-.18-.07T0 13.75v-.5q0-.109.07-.18T.25 13H1q0-2.039.832-3.605T3.914 7q-1.25-.828-2.082-2.395T1 1H.25Q.141 1 .07.93T0 .75v-.5Q0 .141.07.07T.25 0h11.5q.109 0 .18.07t.07.18v.5q0 .109-.07.18t-.18.07H11zm-1 0H2q0 .516.07 1h7.859q.07-.477.07-1zm0 12q0-1.016-.266-1.949t-.707-1.625-.988-1.187-1.141-.738H5.101q-.594.242-1.141.738t-.988 1.187-.707 1.625T1.999 13h8z"/></svg>