<svg xmlns="http://www.w3.org/2000/svg" width="11" height="14" viewBox="0 0 11 14"><path fill="#444" d="M7.75 4.875V8.75q0 .109-.07.18T7.5 9H6.25q-.109 0-.18-.07T6 8.75V4.875q0-.875-.625-1.5t-1.5-.625H1.75v9q0 .109-.07.18T1.5 12H.25q-.109 0-.18-.07T0 11.75V1.25q0-.109.07-.18T.25 1h3.625q1.055 0 1.945.52t1.41 1.41.52 1.945zm3-3.625v6.875q0 1.055-.52 1.945t-1.41 1.41-1.945.52H3.25q-.109 0-.18-.07T3 11.75v-7.5q0-.109.07-.18T3.25 4H4.5q.109 0 .18.07t.07.18v6h2.125q.875 0 1.5-.625T9 8.125V1.25q0-.109.07-.18T9.25 1h1.25q.109 0 .18.07t.07.18z"/></svg>