<svg xmlns="http://www.w3.org/2000/svg" width="12" height="14" viewBox="0 0 12 14"><path fill="#444" d="M8 10.75V9.5q0-.109-.07-.18t-.18-.07H7v-4q0-.109-.07-.18T6.75 5h-2.5q-.109 0-.18.07T4 5.25V6.5q0 .109.07.18t.18.07H5v2.5h-.75q-.109 0-.18.07T4 9.5v1.25q0 .109.07.18t.18.07h3.5q.109 0 .18-.07t.07-.18zm-1-7V2.5q0-.109-.07-.18t-.18-.07h-1.5q-.109 0-.18.07T5 2.5v1.25q0 .109.07.18t.18.07h1.5q.109 0 .18-.07T7 3.75zM12 7q0 1.633-.805 3.012t-2.184 2.184-3.012.805-3.012-.805-2.184-2.184T-.002 7t.805-3.012 2.184-2.184T5.999.999t3.012.805 2.184 2.184T12 7z"/></svg>