<svg xmlns="http://www.w3.org/2000/svg" width="14" height="14" viewBox="0 0 14 14"><path fill="#444" d="M8.68 3.836a.938.938 0 0 0 .728-1.12c-.098-.518-.602-.84-1.106-.742s-.84.602-.728 1.12a.94.94 0 0 0 1.106.742zm1.694 1.008l.336-.602H9.282l.336.602c.112-.056.238-.098.378-.098s.266.042.378.098zm.126 1.288l-.056.056-1.722 1.148c-.014.014-.028.014-.042.028h-.014c-.014 0-.028.014-.028.014-.042.014-.07.028-.112.042-.224.434-.378.882-.392 1.26 0 .952.42 1.862 1.862 1.862 1.442 0 1.862-.91 1.862-1.862 0-.826-.728-1.974-1.358-2.548zm-.35 3.836h-.28a.14.14 0 0 1 0-.28h.28c.084 0 .14.07.14.14s-.07.14-.14.14zm.14-.434h-.574a.14.14 0 0 1 0-.28h.574c.084 0 .14.07.14.14 0 .084-.056.14-.14.14zm.336-1.218s-.196.308-.196.644a.14.14 0 0 1-.14.14h-.56a.14.14 0 0 1-.14-.14c0-.336-.196-.644-.196-.644a.727.727 0 0 1-.098-.35c0-.392.322-.714.714-.714s.714.322.714.714a.727.727 0 0 1-.098.35z"/><path fill="#444" d="M10.416 5.264c-.028-.028-.042-.056-.07-.084l-.028-.028c-.014-.014-.042-.028-.07-.042-.014 0-.028-.014-.028-.014-.028-.014-.042-.014-.07-.028-.014 0-.014-.014-.028-.014-.042-.014-.084-.014-.112-.014-.028 0-.056 0-.084.014h-.028c-.028 0-.042.014-.07.014-.014 0-.014 0-.028.014l-.084.042-1.134.756-.392-1.358a.815.815 0 0 0-.602-.56c-.028-.014-.07-.014-.098-.014h-.098c-.042 0-.098 0-.14.014-.014 0-.028 0-.028.014l-.126.042h-.014a.567.567 0 0 0-.126.07c-.014 0-.014.014-.028.014a.377.377 0 0 0-.112.098l-.028.028-1.848 2.086a2.11 2.11 0 0 0-.616 1.372L4.13 8.974l-1.666.35a.485.485 0 0 0-.378.588.494.494 0 0 0 .49.392c.028 0 .07 0 .112-.014l2.002-.434h.014c.014 0 .028-.014.042-.014s.028-.014.028-.014c.014 0 .028-.014.042-.014s.028-.014.028-.014a.03.03 0 0 0 .028-.028l.028-.028.028-.028.028-.028.028-.028c.014-.014.014-.028.028-.028 0-.014.014-.014.014-.028s.014-.028.014-.042c0-.014.014-.014.014-.028l.476-1.33 1.12 1.19-.126 2.072a.501.501 0 0 0 .462.532h.028c.266 0 .476-.21.504-.476l.14-2.282v-.126c0-.014-.014-.042-.014-.056S7.63 9.03 7.63 9.03l-.028-.056c0-.014-.014-.014-.014-.028 0 0 0-.014-.014-.014L6.342 7.154 7.56 5.838l.266.952c0 .014 0 .014.014.028 0 .014.014.028.014.042.014.014.014.028.028.042 0 .014 0 .014.014.028l.014.014c.014.028.042.042.056.07l.014.014a.293.293 0 0 0 .084.056c.014 0 .014.014.028.014a.199.199 0 0 0 .084.028c.014 0 .028 0 .042.014.028 0 .056.014.07.014h.084c.028 0 .056-.014.084-.014.028-.014.056-.014.084-.028.014 0 .014-.014.028-.014s.014-.014.028-.014l.28-.182 1.414-.938.014-.014a.504.504 0 0 0 .112-.686zm-3.332-1.26l.126-.042-.126.042zm-.28.182a.701.701 0 0 1 .112-.098c-.042.028-.07.056-.112.098zm.448-.238c.042-.014.098-.014.14-.014-.056 0-.098.014-.14.014zm-.308.126zm.518-.126h.042-.042z"/></svg>