<svg xmlns="http://www.w3.org/2000/svg" width="7" height="14" viewBox="0 0 7 14"><path fill="#444" d="M7.016 3.672v.797q0 .109-.07.18t-.18.07H5.453q-.18 1.125-1.008 1.828t-2.156.859q1.305 1.391 3.586 4.188.109.125.031.266-.062.141-.227.141H4.156q-.125 0-.195-.094Q1.57 9.04.07 7.446 0 7.376 0 7.274v-.992q0-.102.074-.176t.176-.074h.875q1.031 0 1.66-.336t.801-.977H.25q-.109 0-.18-.07T0 4.469v-.797q0-.109.07-.18t.18-.07h3.227q-.445-.883-2.094-.883H.25q-.102 0-.176-.074T0 2.289V1.25q0-.109.07-.18T.25 1h6.5q.109 0 .18.07t.07.18v.797q0 .109-.07.18t-.18.07H4.93q.367.477.5 1.125h1.336q.109 0 .18.07t.07.18z"/></svg>