<svg xmlns="http://www.w3.org/2000/svg" width="12" height="14" viewBox="0 0 12 14"><path fill="#444" d="M10.641 11.141V6.078H9.586q.156.492.156 1.023 0 .984-.5 1.816t-1.359 1.316-1.875.484q-1.539 0-2.633-1.059T2.281 7.099q0-.531.156-1.023H1.335v5.063q0 .203.137.34t.34.137h8.352q.195 0 .336-.137t.141-.34zM8.422 6.977q0-.969-.707-1.652t-1.707-.684q-.992 0-1.699.684t-.707 1.652.707 1.652 1.699.684q1 0 1.707-.684t.707-1.652zm2.219-2.813V2.875q0-.219-.156-.379t-.383-.16H8.743q-.227 0-.383.16t-.156.379v1.289q0 .227.156.383t.383.156h1.359q.227 0 .383-.156t.156-.383zM12 2.539v8.922q0 .633-.453 1.086T10.461 13H1.539q-.633 0-1.086-.453T0 11.461V2.539q0-.633.453-1.086T1.539 1h8.922q.633 0 1.086.453T12 2.539z"/></svg>