<svg xmlns="http://www.w3.org/2000/svg" width="14" height="14" viewBox="0 0 14 14"><path fill="#444" d="M5.594 12.539q-1.117-.273-2.043-.891t-1.543-1.492Q.922 12.5 1.875 13.265q.203.164.664.191t.996-.074 1.102-.324.957-.52zm-.18-6.492h3.531q0-.844-.48-1.32T7.149 4.25q-.805 0-1.27.488t-.465 1.309zm8.055-2.93h-.266q.203-.797.176-1.328T13.184.93t-.496-.445-.73-.086-.898.207-1.004.441-1.047.617q1.008.289 1.863.887t1.445 1.398.859 1.809.121 2.047H5.445q0 .469.078.828t.266.664.543.469.879.164q.68 0 1.113-.344t.566-.953h4.219q-.555 1.797-2.199 2.945t-3.73 1.148q-.648 0-1.242-.117-.273.312-1.18.734t-1.937.609-1.711-.273q-.609-.469-.781-1.242t.055-1.672.688-1.891 1.121-1.937 1.355-1.77 1.387-1.434 1.223-.875v-.187q-.937.289-2.02 1.074T2.259 5.362 1.017 6.889q.031-.828.266-1.57t.625-1.32.922-1.059 1.152-.785 1.313-.512 1.41-.23 1.445.062Q10.572.022 12.08-.002h.055q.445 0 .805.141.625.234.766 1.035t-.234 1.941z"/></svg>