<svg xmlns="http://www.w3.org/2000/svg" width="11" height="14" viewBox="0 0 11 14"><path fill="#444" d="M8 .25q0-.109.07-.18T8.25 0h2.25q.203 0 .352.148T11 .5v2.25q0 .109-.07.18t-.18.07h-.5q-.109 0-.18-.07T10 2.75V1.703L8.016 3.695Q9 4.929 9 6.5q0 1.727-1.152 3.004T5 10.969V12h.75q.109 0 .18.07t.07.18v.5q0 .109-.07.18t-.18.07H5v.75q0 .109-.07.18t-.18.07h-.5q-.109 0-.18-.07T4 13.75V13h-.75q-.109 0-.18-.07T3 12.75v-.5q0-.109.07-.18t.18-.07H4v-1.031q-1.164-.125-2.113-.805T.43 8.418.016 6.141q.125-1.594 1.25-2.762t2.711-1.348q.922-.109 1.781.148t1.547.805L9.297 1H8.25q-.109 0-.18-.07T8 .75v-.5zM4.5 10q1.445 0 2.473-1.027T8 6.5 6.973 4.027 4.5 3 2.027 4.027 1 6.5t1.027 2.473T4.5 10z"/></svg>