<svg xmlns="http://www.w3.org/2000/svg" width="14" height="14" viewBox="0 0 14 14"><path fill="#444" d="M8.61 3.85A1.61 1.61 0 0 1 7 5.46c-.896 0-1.61-.714-1.61-1.61S6.104 2.24 7 2.24c.882 0 1.61.714 1.61 1.61zM3.962 6.496c-.238.182-.42.406-.56.658a.42.42 0 0 0-.056.14c.014-.042.028-.098.056-.14.14-.266.336-.49.56-.658zm0 0zm.518-.294c.098-.042.182-.07.28-.098-.084.028-.182.056-.28.098z"/><path fill="#444" d="M11.326 9.492a.494.494 0 0 0-.042-.196l-.728-2.058c-.014-.028-.028-.056-.042-.098-.042-.084-.098-.168-.154-.252-.112-.154-.252-.294-.406-.42s-.322-.224-.518-.294a2.222 2.222 0 0 0-.28-.098 4.38 4.38 0 0 0-.616-.056H5.306c-.21 0-.42.028-.616.084-.098.028-.196.056-.28.098-.182.07-.364.182-.518.294-.056.042-.112.098-.168.14a2.023 2.023 0 0 0-.392.518.42.42 0 0 0-.056.14l-.588 2.058a.66.66 0 0 0 .014.434c.014.042.028.084.056.126s.042.07.07.112l1.47 1.764c.084.112.21.182.336.224.07.028.154.042.238.042h1.61a.264.264 0 0 0 .112-.028c.042-.014.07-.042.098-.056.028-.028.042-.056.056-.098s.028-.07.028-.112c0-.084-.028-.168-.098-.21-.014-.014-.042-.028-.07-.042-.014-.028-.056-.028-.098-.028h-.518L4.214 9.366l.364-1.302h.28v1.624l1.26 1.512h1.666l1.204-1.372V8.064h.308l.462 1.302-.77.882L7.91 11.48h-.56c-.056.014-.126.028-.168.07l-.042.042a.226.226 0 0 0-.056.098c0 .014-.014.042-.014.056a.29.29 0 0 0 .126.238c.028.028.07.042.112.042h1.666a.778.778 0 0 0 .546-.238l1.61-1.764a.705.705 0 0 0 .182-.35.371.371 0 0 0 .014-.182zM7.14 10.5h-.28c-.084 0-.14-.056-.14-.14s.056-.14.14-.14h.28c.084 0 .14.056.14.14s-.056.14-.14.14zm.14-.42h-.56c-.084 0-.14-.056-.14-.14s.056-.14.14-.14h.56c.084 0 .14.056.14.14s-.056.14-.14.14zm.42-1.176c-.294.364-.28.616-.28.616 0 .084-.056.14-.14.14h-.56c-.084 0-.14-.056-.14-.14 0 0 .014-.252-.28-.616a.9.9 0 0 1-.21-.574c0-.504.406-.91.91-.91s.91.406.91.91a.83.83 0 0 1-.21.574z"/></svg>