<svg xmlns="http://www.w3.org/2000/svg" width="14" height="14" viewBox="0 0 14 14"><path fill="#444" d="M6.594 5.852a.322.322 0 1 1-.644 0 .322.322 0 0 1 .644 0zM8.008 7.07a.335.335 0 1 1-.67.001.335.335 0 0 1 .67-.001z"/><path fill="#444" d="M9.24 6.44C9.24 5.208 8.232 4.2 7 4.2S4.76 5.208 4.76 6.44c0 .49.154.938.42 1.302.686.896.84 1.358.84 1.778 0 .154.126.28.28.28h1.4a.28.28 0 0 0 .28-.28v-.028c.014-.392.168-.826.742-1.61A2.27 2.27 0 0 0 9.24 6.44zm-2.814-.014c-.042.014-.098.014-.154.014l-.112.28-.21-.056.028-.294c-.042-.028-.084-.056-.112-.084l-.28.112-.112-.182.224-.196c-.014-.042-.014-.098-.014-.154l-.28-.126.056-.21.294.028c.028-.042.056-.084.084-.112l-.112-.28.182-.112.196.224c.042-.014.098-.014.154-.014l.126-.266.21.056-.028.294a.777.777 0 0 1 .112.084l.28-.112.112.182-.224.196a.525.525 0 0 1 .014.154l.266.126-.056.21-.294-.028c-.028.042-.056.084-.084.112l.112.28-.182.112-.196-.238zm2.17.756l-.308.056a.42.42 0 0 1-.056.14l.182.252-.168.168-.252-.182c-.042.028-.098.042-.14.056l-.056.308H7.56l-.056-.308a.42.42 0 0 1-.14-.056l-.252.182-.168-.168.182-.252c-.028-.042-.042-.098-.056-.14l-.308-.056v-.224l.308-.056a.42.42 0 0 1 .056-.14l-.182-.252.168-.168.252.182c.042-.028.098-.042.14-.056l.056-.308h.224l.056.308a.42.42 0 0 1 .14.056l.252-.182.168.168-.182.252c.028.042.042.098.056.14l.308.056v.224zM7 3.92a.28.28 0 0 1-.28-.28v-1.4c0-.154.126-.28.28-.28s.28.126.28.28v1.4a.28.28 0 0 1-.28.28zm.63 6.16H6.37c-.196 0-.35.154-.35.35s.154.35.35.35h1.26c.196 0 .35-.154.35-.35s-.154-.35-.35-.35zm0 .98H6.37c-.196 0-.35.154-.35.35s.154.35.35.35h.07c0 .154.126.28.28.28h.56a.28.28 0 0 0 .28-.28h.07c.196 0 .35-.154.35-.35s-.154-.35-.35-.35zm-2.59-6.3a.276.276 0 0 1-.196-.084l-.98-.98c-.112-.112-.112-.28 0-.392s.28-.112.392 0l.98.98a.27.27 0 0 1 0 .392.276.276 0 0 1-.196.084zm3.92 0a.276.276 0 0 1-.196-.084.27.27 0 0 1 0-.392l.98-.98c.112-.112.28-.112.392 0s.112.28 0 .392l-.98.98a.276.276 0 0 1-.196.084zM4.2 6.72H2.8c-.154 0-.28-.126-.28-.28s.126-.28.28-.28h1.4c.154 0 .28.126.28.28s-.126.28-.28.28zm7 0H9.8c-.154 0-.28-.126-.28-.28s.126-.28.28-.28h1.4c.154 0 .28.126.28.28s-.126.28-.28.28z"/></svg>