<svg xmlns="http://www.w3.org/2000/svg" width="16" height="14" viewBox="0 0 16 14"><path fill="#444" d="M11.43 6.5q0 .273-.195.473t-.477.199H5.274q-.281 0-.477-.199T4.602 6.5t.195-.473.477-.199h5.484q.281 0 .477.199t.195.473zm1.672 0q0-.672-.18-1.328H5.25q-.281 0-.477-.195t-.195-.469q0-.281.195-.477t.477-.195h7.094q-.688-1.117-1.836-1.773t-2.5-.656q-1.383 0-2.559.684T3.59 3.946t-.684 2.555q0 .672.18 1.328h7.672q.281 0 .477.195t.195.469q0 .281-.195.477t-.477.195H3.664q.688 1.117 1.84 1.773t2.504.656q1.031 0 1.977-.402t1.625-1.086 1.086-1.625.406-1.98zM16 4.508q0 .273-.195.469t-.477.195h-1.023q.133.664.133 1.328 0 1.305-.512 2.496t-1.371 2.055-2.051 1.375-2.496.512q-1.922 0-3.504-1.039T2.149 9.165H.672q-.281 0-.477-.195T0 8.493q0-.273.195-.469t.477-.195h1.031q-.133-.664-.133-1.328 0-1.305.512-2.496T3.453 1.95 5.504.575 8.008.063q1.914 0 3.496 1.039t2.355 2.734h1.469q.281 0 .477.195t.195.477z"/></svg>