<svg xmlns="http://www.w3.org/2000/svg" width="12" height="14" viewBox="0 0 12 14"><path fill="#444" d="M8.359 8.383l-1.25 1.25-1.18 1.187-.234.234q-.508.5-1.184.68t-1.34.016q-.125.547-.563.898T1.6 13q-.664 0-1.133-.473t-.469-1.137q0-.563.348-1t.887-.563q-.172-.672.008-1.352t.688-1.187l.094-.094 1.18 1.187-.086.086q-.289.289-.289.695t.289.703q.289.289.695.289t.695-.289l.234-.234 1.18-1.187 1.258-1.25zM5.695 3.055l.094.094-1.187 1.187-.094-.094q-.289-.289-.695-.289t-.695.289-.289.699.289.699l2.664 2.664-1.18 1.187-1.258-1.25-1.18-1.187-.234-.234q-.531-.523-.703-1.246t.039-1.402q-.547-.117-.898-.555T.016 2.609q0-.664.469-1.137T1.618.999q.594 0 1.043.383t.543.961q.656-.156 1.324.027t1.168.684zM12 11.391q0 .664-.469 1.137t-1.133.473q-.578 0-1.023-.367t-.555-.922q-.672.219-1.402.047t-1.262-.703l-.086-.094 1.18-1.187.094.094q.289.289.695.289t.695-.289.289-.695-.289-.695L6.062 5.807 7.249 4.62l2.438 2.438.227.234q.5.5.684 1.176t.02 1.34q.594.086.988.535t.395 1.051zm-.016-8.782q0 .602-.398 1.055t-.992.539q.203.664.023 1.379T9.914 6.82l-.094.094-1.18-1.187.094-.094q.289-.289.289-.695t-.289-.695-.695-.289-.695.289L4.672 6.915 3.485 5.728l1.258-1.25L5.93 3.291l.227-.234q.523-.523 1.242-.699t1.391.027q.086-.586.535-.984t1.059-.398q.664 0 1.133.473t.469 1.137z"/></svg>