<svg xmlns="http://www.w3.org/2000/svg" width="16" height="14" viewBox="0 0 16 14"><path fill="#444" d="M14.062 6.031q.867.359 1.402 1.137t.535 1.73q0 1.281-.922 2.191t-2.227.91q-.031 0-.09-.004t-.082-.004H3.17q-1.328-.078-2.25-.98T-.002 8.82q0-.859.43-1.586t1.148-1.148q-.094-.305-.094-.641 0-.898.641-1.531t1.555-.633q.742 0 1.344.453.586-1.203 1.738-1.937t2.551-.734q1.297 0 2.391.629t1.73 1.707.637 2.352q0 .047-.004.141t-.004.141zM3.656 8.109q0 .953.656 1.508t1.625.555q1.07 0 1.875-.773-.125-.156-.371-.441t-.34-.395q-.523.508-1.125.508-.43 0-.73-.262t-.301-.684q0-.414.301-.68t.715-.266q.344 0 .66.164t.57.43.508.586.539.641.602.586.758.43.949.164q.945 0 1.598-.559t.652-1.488q0-.945-.656-1.5t-1.617-.555q-1.117 0-1.883.758l.23.266.27.312q.149.171.227.266.516-.5 1.109-.5.406 0 .719.258t.312.656q0 .445-.289.715t-.734.27q-.336 0-.645-.164t-.563-.43-.512-.586-.543-.641-.605-.586-.754-.43-.926-.164q-.953 0-1.617.551t-.664 1.48z"/></svg>