<svg xmlns="http://www.w3.org/2000/svg" width="14" height="14" viewBox="0 0 14 14"><path fill="#444" d="M6.5 4q0-.625-.438-1.062T5 2.5t-1.062.438T3.5 4q0 .328.148.648Q3.328 4.5 3 4.5q-.625 0-1.062.438T1.5 6t.438 1.062T3 7.5t1.062-.438T4.5 6q0-.328-.148-.648.32.148.648.148.625 0 1.062-.438T6.5 4zm6.648 5.5q0 .133-.383.516t-.516.383q-.07 0-.223-.125t-.285-.258-.301-.312-.191-.203l-.75.75 1.719 1.719q.219.219.219.531 0 .328-.305.633t-.633.305q-.312 0-.531-.219L5.726 7.978Q4.351 9.001 2.874 9.001 1.601 9.001.8 8.2t-.801-2.074q0-1.25.742-2.445t1.937-1.937 2.445-.742q1.273 0 2.074.801t.801 2.074q0 1.477-1.023 2.852l2.773 2.773.75-.75-.203-.191q-.18-.168-.312-.301t-.258-.285-.125-.223q0-.133.383-.516t.516-.383q.102 0 .18.078.047.047.359.348t.641.621.676.672.57.609.223.32z"/></svg>