<svg xmlns="http://www.w3.org/2000/svg" width="15" height="14" viewBox="0 0 15 14"><path fill="#444" d="M3 9.125v.75Q3 10 2.875 10h-.75Q2 10 2 9.875v-.75Q2 9 2.125 9h.75Q3 9 3 9.125zm1-2v.75Q4 8 3.875 8h-1.75Q2 8 2 7.875v-.75Q2 7 2.125 7h1.75Q4 7 4 7.125zm-1-2v.75Q3 6 2.875 6h-.75Q2 6 2 5.875v-.75Q2 5 2.125 5h.75Q3 5 3 5.125zm8 4v.75q0 .125-.125.125h-6.75Q4 10 4 9.875v-.75Q4 9 4.125 9h6.75Q11 9 11 9.125zm-5-2v.75Q6 8 5.875 8h-.75Q5 8 5 7.875v-.75Q5 7 5.125 7h.75Q6 7 6 7.125zm-1-2v.75Q5 6 4.875 6h-.75Q4 6 4 5.875v-.75Q4 5 4.125 5h.75Q5 5 5 5.125zm3 2v.75Q8 8 7.875 8h-.75Q7 8 7 7.875v-.75Q7 7 7.125 7h.75Q8 7 8 7.125zm-1-2v.75Q7 6 6.875 6h-.75Q6 6 6 5.875v-.75Q6 5 6.125 5h.75Q7 5 7 5.125zm3 2v.75Q10 8 9.875 8h-.75Q9 8 9 7.875v-.75Q9 7 9.125 7h.75Q10 7 10 7.125zm3 2v.75q0 .125-.125.125h-.75Q12 10 12 9.875v-.75Q12 9 12.125 9h.75Q13 9 13 9.125zm-4-4v.75Q9 6 8.875 6h-.75Q8 6 8 5.875v-.75Q8 5 8.125 5h.75Q9 5 9 5.125zm2 0v.75Q11 6 10.875 6h-.75Q10 6 10 5.875v-.75Q10 5 10.125 5h.75Q11 5 11 5.125zm2 0v2.75Q13 8 12.875 8h-1.75Q11 8 11 7.875v-.75Q11 7 11.125 7H12V5.125Q12 5 12.125 5h.75Q13 5 13 5.125zM14 11V4H1v7h13zm1-7v7q0 .414-.293.707T14 12H1q-.414 0-.707-.293T0 11V4q0-.414.293-.707T1 3h13q.414 0 .707.293T15 4z"/></svg>