<svg xmlns="http://www.w3.org/2000/svg" width="14" height="14" viewBox="0 0 14 14"><path fill="#444" d="M4.016 9.336L4.649 7H3.407l.586 2.344q.008.008.008.023t.008.023q0-.008.004-.027t.004-.027zM4.922 6l.273-1H2.914l.25 1h1.758zm1.5 0h1.086l-.273-1h-.547zM9.93 9.344L10.539 7H9.273l.633 2.336q0 .008.004.027t.012.027q0-.008.004-.023t.004-.023zM10.797 6l.258-1h-2.32l.266 1h1.797zM14 6.25v.5q0 .109-.07.18t-.18.07h-1.664l-1.281 4.813q-.055.187-.242.187H9.321q-.187 0-.242-.187L7.782 7H6.149l-1.305 4.813Q4.789 12 4.602 12H3.36q-.086 0-.152-.055t-.082-.133l-1.25-4.813H.251q-.109 0-.18-.07t-.07-.18v-.5q0-.109.07-.18t.18-.07h1.367l-.258-1H.251q-.109 0-.18-.07t-.07-.18v-.5q0-.109.07-.18t.18-.07h.852L.408 1.312q-.039-.117.039-.219Q.525.999.65.999h1.07q.203 0 .242.187l.703 2.812H5.47l.758-2.812q.055-.187.242-.187h.984q.187 0 .242.187l.766 2.812h2.852l.727-2.812q.039-.187.242-.187h1.07q.125 0 .203.094.078.102.039.219l-.711 2.687h.867q.109 0 .18.07t.07.18v.5q0 .109-.07.18t-.18.07h-1.133l-.266 1h1.398q.109 0 .18.07t.07.18z"/></svg>