<svg xmlns="http://www.w3.org/2000/svg" width="12" height="14" viewBox="0 0 12 14"><path fill="#444" d="M5.109 8.422q-.008.023-.098-.004t-.246-.09l-.156-.07q-.344-.156-.68-.383-.055-.039-.32-.246t-.297-.223q-.523.805-1.047 1.414-.633.742-.82.859-.031.016-.152.031t-.145 0q.047-.031.641-.719.164-.187.668-.898t.613-.922q.133-.234.398-.77t.281-.605q-.062-.008-.859.258l-.215.059q-.153.043-.27.074t-.133.039q-.016.016-.016.082t-.008.074q-.039.078-.242.117-.18.055-.367 0-.141-.031-.219-.164-.031-.047-.039-.18.047-.016.191-.039t.23-.047q.453-.125.82-.25.781-.273.797-.273.078-.016.336-.152t.344-.168q.07-.023.168-.062t.113-.043.047.004q.016.094-.008.258 0 .016-.098.211t-.207.418-.133.262q-.195.391-.602 1.023l.5.219q.094.047.582.25t.527.219q.031.008.082.199t.035.238zM3.508 4.625q.023.117-.031.219-.094.18-.391.297-.234.094-.469.094-.203-.023-.383-.203-.109-.117-.141-.32l.008-.023q.023.023.152.039t.207 0 .453-.125q.281-.094.43-.109.133 0 .164.133zm5.453 1.008l.492 1.773-1.086-.328zm-8.656 6.25l5.422-1.812V2.009L.305 3.829v8.055zM10 9.406l.797.242-1.414-5.133-.781-.242-1.688 4.188.797.242.352-.859 1.648.508zM6.07 1.891l4.477 1.438V.36zM8.5 12.227l1.234.102-.422 1.25L9 13.063q-1.016.648-2.156.844-.453.094-.711.094h-.656q-.617 0-1.559-.305t-1.434-.664q-.062-.055-.062-.125 0-.062.039-.105t.102-.043q.031 0 .141.059t.238.129.16.086q.57.289 1.246.48t1.23.191q.742 0 1.305-.113t1.227-.395q.117-.055.238-.121t.266-.148.223-.129zm3.5-8.43v8.43l-6.047-1.922q-.109.047-2.93.996t-2.875.949q-.102 0-.141-.102 0-.008-.008-.023V3.703q.023-.07.031-.078.039-.047.156-.086.828-.273 1.164-.391v-3l4.359 1.547q.016 0 1.254-.43T9.432.417t1.262-.418q.156 0 .156.164v3.266z"/></svg>