<svg xmlns="http://www.w3.org/2000/svg" width="15" height="14" viewBox="0 0 15 14"><path fill="#444" d="M3.25 10q-.516 0-.883-.367T2 8.75v-5.5q0-.516.367-.883T3.25 2h8.5q.516 0 .883.367T13 3.25v5.5q0 .516-.367.883T11.75 10h-8.5zM3 3.25v5.5q0 .102.074.176T3.25 9h8.5q.102 0 .176-.074T12 8.75v-5.5q0-.102-.074-.176T11.75 3h-8.5q-.102 0-.176.074T3 3.25zm10.75 7.25H15v.75q0 .312-.367.531T13.75 12H1.25q-.516 0-.883-.219T0 11.25v-.75h13.75zm-5.625.75q.125 0 .125-.125T8.125 11h-1.25q-.125 0-.125.125t.125.125h1.25z"/></svg>