<svg xmlns="http://www.w3.org/2000/svg" width="14" height="14" viewBox="0 0 14 14"><path fill="#444" d="M9.24 6.02v1.12l-2.8-1.12v1.12l-2.8-1.12v1.12h-.28l-.28-5.18h-.7L2.1 7.14v4.9h.98l-.126-1.554c-.168-.07-.294-.224-.294-.406v-.84c0-.238.182-.42.42-.42h.7c.238 0 .42.182.42.42v.84c0 .196-.126.35-.294.406L3.78 12.04H4.9l-.126-1.554c-.168-.07-.294-.224-.294-.406v-.84c0-.238.182-.42.42-.42h.7c.238 0 .42.182.42.42v.84c0 .196-.126.35-.294.406L5.6 12.04h1.12l-.126-1.554c-.168-.07-.294-.224-.294-.406v-.84c0-.238.182-.42.42-.42h.7c.238 0 .42.182.42.42v.84c0 .196-.126.35-.294.406L7.42 12.04h1.12l-.126-1.554c-.168-.07-.294-.224-.294-.406v-.84c0-.238.182-.42.42-.42h.7c.238 0 .42.182.42.42v.84c0 .196-.126.35-.294.406L9.24 12.04h1.12l-.126-1.554c-.168-.07-.294-.224-.294-.406v-.84c0-.238.182-.42.42-.42h.7c.238 0 .42.182.42.42v.84c0 .196-.126.35-.294.406l-.126 1.554h.98v-4.9l-2.8-1.12zM3.43 8.54c-.196 0-.35-.154-.35-.35s.154-.35.35-.35c.196 0 .35.154.35.35 0 .182-.154.35-.35.35zm1.82 0c-.196 0-.35-.154-.35-.35s.154-.35.35-.35c.196 0 .35.154.35.35 0 .182-.154.35-.35.35zm1.82 0c-.196 0-.35-.154-.35-.35s.154-.35.35-.35c.196 0 .35.154.35.35 0 .182-.154.35-.35.35zm1.82 0c-.196 0-.35-.154-.35-.35s.154-.35.35-.35c.196 0 .35.154.35.35 0 .182-.154.35-.35.35zm1.82 0c-.196 0-.35-.154-.35-.35s.154-.35.35-.35c.196 0 .35.154.35.35 0 .182-.154.35-.35.35zm-.14-3.92h-.56c-.084 0-.14-.056-.14-.14s.056-.14.14-.14h.56c.084 0 .14.056.14.14s-.056.14-.14.14zm-.14.42h-.28c-.084 0-.14-.056-.14-.14s.056-.14.14-.14h.28c.084 0 .14.056.14.14s-.056.14-.14.14zm.77-2.17c0-.504-.406-.91-.91-.91s-.91.406-.91.91c0 .224.07.42.21.574.294.364.28.616.28.616 0 .084.056.14.14.14h.56c.084 0 .14-.056.14-.14 0 0-.014-.252.28-.616a.83.83 0 0 0 .21-.574z"/></svg>