<svg xmlns="http://www.w3.org/2000/svg" width="14" height="14" viewBox="0 0 14 14"><path fill="#444" d="M10.094 5.5q0 .047.078.32.078.227.195.387t.32.266.344.156.43.129Q14 7.469 14 9.352q0 1.141-.824 1.895t-1.988.754q-.461 0-.871-.145t-.715-.355T9 10.919t-.492-.684-.418-.809-.34-.805-.309-.832-.277-.742q-.25-.633-.48-1.043T6.11 5.25t-.813-.5-1.109-.156q-.75 0-1.43.434T1.68 6.157t-.398 1.445q0 1.25.832 2.184t2.059.934q1.383 0 2.016-.742.438-.492.648-.906l.656 1.187q-.117.266-.344.547l.008.008q-1.023 1.187-3.031 1.187-1.148 0-2.105-.617T.533 9.763.002 7.618q0-.82.34-1.609t.906-1.379 1.344-.949 1.598-.359q.68 0 1.242.148t.965.391.742.625.566.773.457.914.395.973.391 1.02.43.992q.75 1.563 1.82 1.563.633 0 1.082-.379t.449-1.004q0-.328-.148-.563t-.395-.359-.566-.246-.66-.211-.684-.266-.633-.406-.508-.641-.305-.957q-.023-.125-.023-.258 0-.859.684-1.5t1.551-.609q.609.023.941.113t.707.418h-.008q.094.086.18.191t.203.281.148.215l-1.008.773q-.203-.383-.422-.547v-.008q-.18-.164-.758-.164-.383 0-.656.258t-.273.648z"/></svg>