<svg xmlns="http://www.w3.org/2000/svg" width="12" height="14" viewBox="0 0 12 14"><path fill="#444" d="M11.188 8.219q0-1.352-1.828-1.867-.273-.078-.414-.129t-.297-.195-.227-.363q0-.016-.016-.066t-.023-.094-.008-.059q0-.281.191-.465t.473-.184q.422 0 .555.117h-.008q.156.117.305.398l.727-.555q-.305-.422-.383-.5-.258-.227-.527-.305t-.668-.078q-.625 0-1.109.449t-.484 1.074q0 .055.016.18.125.75.504 1.094t1.16.57q.227.062.383.121t.352.168.301.27.105.363v.039q.008.453-.316.727t-.785.273q-.758 0-1.305-1.125-.18-.367-.402-.949t-.375-.98-.422-.863-.578-.746-.809-.473-1.148-.191q-.789 0-1.5.438T1.503 5.469t-.391 1.5v.008q.031.844.395 1.555T2.55 9.684t1.531.441q1.453 0 2.18-.859.156-.211.242-.398l-.469-.852q-.328.625-.773.906t-1.141.281q-.898 0-1.492-.68t-.594-1.594q0-.82.641-1.477t1.453-.656q.875 0 1.328.418t.813 1.348l.199.535q.137.371.223.598t.246.582.301.578.355.488.434.418.516.258.625.105q.836 0 1.43-.543t.594-1.363zM12 3.25v7.5q0 .93-.66 1.59T9.75 13h-7.5q-.93 0-1.59-.66T0 10.75v-7.5q0-.93.66-1.59T2.25 1h7.5q.93 0 1.59.66T12 3.25z"/></svg>