<svg xmlns="http://www.w3.org/2000/svg" width="14" height="14" viewBox="0 0 14 14"><path fill="#444" d="M10 5.5q0-.203-.148-.352T9.5 5q-1.344 0-2.484.387T4.989 6.434t-1.84 1.715q-.148.164-.148.352 0 .203.148.352t.352.148q.187 0 .352-.148.211-.187.578-.555t.523-.516q1.07-.969 2.098-1.375t2.449-.406q.203 0 .352-.148t.148-.352zm4-1.547q0 .742-.156 1.508-.359 1.75-1.441 2.992T9.61 10.547q-1.672.844-3.422.844-1.156 0-2.234-.367-.117-.039-.688-.328t-.75-.289q-.125 0-.309.25t-.352.547-.41.547-.469.25q-.234 0-.398-.086t-.242-.187-.211-.328l-.047-.086-.043-.078q-.012-.023-.023-.074T0 11.057q0-.273.242-.574t.531-.512.531-.438.242-.375q0-.031-.109-.297t-.125-.344q-.07-.398-.07-.813 0-.898.34-1.719t.93-1.441 1.332-1.086 1.594-.746q.43-.141 1.133-.199t1.402-.07 1.395-.047 1.277-.187.887-.441l.23-.23.23-.219.211-.156.285-.125.34-.035q.305 0 .551.359t.371.875.187.969.062.75z"/></svg>