<svg xmlns="http://www.w3.org/2000/svg" width="16" height="14" viewBox="0 0 16 14"><path fill="#444" d="M14.789 3.063L16 13q-1.023 0-2.008-.445-1.563-.711-3.07-.711Q9.156 11.844 8 13q-1.156-1.156-2.922-1.156-1.508 0-3.07.711-1 .445-1.969.445H0l1.211-9.937q1.75-.992 3.766-.992 1.82 0 3.023.828 1.203-.828 3.023-.828 2.016 0 3.766.992zm-3.867 7.71q1.008 0 1.812.223t2.031.73l-.969-7.977q-1.336-.609-2.875-.609-1.75 0-2.922 1.102Q6.827 3.14 5.077 3.14q-1.539 0-2.875.609l-.969 7.977q.82-.336 1.293-.508t1.16-.309 1.391-.137q1.578 0 2.922.844 1.344-.844 2.922-.844zm.312-.265l-.43-7.086q-1.648.031-2.805 1.211-1.187-1.211-2.922-1.211-1.375 0-2.625.516l-.891 7.352q.969-.398 1.785-.594t1.73-.195q1.633 0 2.922.797 1.344-.836 2.922-.797z"/></svg>