<svg xmlns="http://www.w3.org/2000/svg" width="12" height="14" viewBox="0 0 12 14"><path fill="#444" d="M10.992 6.453q0-.344-.055-.887t-.141-.754q-.094-.234-.133-.344t-.07-.285-.031-.379q0-.18.039-.535t.039-.527q0-.289-.078-.43-.031-.008-.102-.008-.148 0-.453.035t-.461.035q-.469 0-1.375-.187T6.804 2q-.336 0-.738.09t-.664.184-.699.266q-1.07.422-1.578.805-.75.57-1.246 1.48t-.688 1.844T1 8.61q0 .312.098.937t.098.945q0 .18-.086.52t-.086.512.094.285.266.113q.187 0 .566-.086t.574-.086q.445 0 1.324.121t1.324.121q1.414 0 2.219-.281 1.008-.352 1.84-1.191t1.297-1.918.465-2.148zm1-.016q0 1.289-.547 2.559t-1.531 2.25-2.195 1.41Q6.75 13 5.172 13q-.445 0-1.328-.113t-1.32-.113q-.187 0-.566.113T1.384 13q-.57 0-.965-.434t-.395-1.004q0-.187.086-.531t.086-.523q0-.312-.098-.941T0 8.618q0-.867.141-1.699t.426-1.637.785-1.516 1.172-1.219q.609-.461 1.812-.937 1.516-.609 2.469-.609.469 0 1.371.187t1.355.187q.148 0 .445-.039t.453-.039q.633 0 .922.395t.289 1.051q0 .18-.039.531t-.039.531q0 .078.008.145t.023.133.031.105.051.125.051.133q.125.312.195.926t.07 1.066z"/></svg>