<svg xmlns="http://www.w3.org/2000/svg" width="14" height="14" viewBox="0 0 14 14"><path fill="#444" d="M7 0q1.422 0 2.719.555t2.234 1.492 1.492 2.234T14 7t-.555 2.719-1.492 2.234-2.234 1.492T7 14t-2.719-.555-2.234-1.492T.555 9.719 0 7t.555-2.719 1.492-2.234T4.281.555 7 0zm0 1q-1.484 0-2.82.703l1.516 1.516Q6.337 3 7.001 3t1.305.219l1.516-1.516Q8.486 1 7.002 1zM1.703 9.82l1.516-1.516Q3 7.663 3 6.999t.219-1.305L1.703 4.178Q1 5.514 1 6.998t.703 2.82zM7 13q1.484 0 2.82-.703l-1.516-1.516Q7.663 11 6.999 11t-1.305-.219l-1.516 1.516Q5.514 13 6.998 13zm0-3q1.242 0 2.121-.879T10 7t-.879-2.121T7 4t-2.121.879T4 7t.879 2.121T7 10zm3.781-1.695l1.516 1.516Q13 8.485 13 7.001t-.703-2.82l-1.516 1.516Q11 6.338 11 7.002t-.219 1.305z"/></svg>