<svg xmlns="http://www.w3.org/2000/svg" width="8" height="14" viewBox="0 0 8 14"><path fill="#444" d="M5.75 4.5q0 .102-.074.176T5.5 4.75t-.176-.074T5.25 4.5q0-.359-.422-.555T4 3.75q-.102 0-.176-.074T3.75 3.5t.074-.176T4 3.25q.391 0 .777.125t.68.422.293.703zM7 4.5q0-.563-.27-1.047t-.703-.793-.961-.484T4 2t-1.066.176-.961.484-.703.793T1 4.5q0 .789.531 1.406l.238.258.238.258q1 1.195 1.102 2.328H4.89q.102-1.133 1.102-2.328l.238-.258.238-.258q.531-.617.531-1.406zm1 0q0 1.211-.805 2.094-.352.383-.582.68t-.465.746-.266.84q.367.219.367.641 0 .289-.195.5.195.211.195.5 0 .406-.352.633.102.18.102.367 0 .359-.246.555t-.605.195q-.156.344-.469.547t-.68.203-.68-.203-.469-.547q-.359 0-.605-.195t-.246-.555q0-.187.102-.367-.352-.227-.352-.633 0-.289.195-.5-.195-.211-.195-.5 0-.422.367-.641-.031-.391-.266-.84t-.465-.746-.582-.68Q-.002 5.711-.002 4.5q0-.773.348-1.441T1.26 1.95t1.281-.695 1.457-.254 1.457.254 1.281.695.914 1.109.348 1.441z"/></svg>