<svg xmlns="http://www.w3.org/2000/svg" width="12" height="14" viewBox="0 0 12 14"><path fill="#444" d="M1.852 11.047h1.805V5.625H1.852v5.422zm1.921-7.094q-.008-.406-.281-.672t-.727-.266-.738.266-.285.672q0 .398.277.668t.723.27h.008q.461 0 .742-.27t.281-.668zm4.571 7.094h1.805V7.938q0-1.203-.57-1.82t-1.508-.617q-1.062 0-1.633.914h.016v-.789H4.649q.023.516 0 5.422h1.805V8.017q0-.297.055-.438.117-.273.352-.465t.578-.191q.906 0 .906 1.227v2.898zM12 3.25v7.5q0 .93-.66 1.59T9.75 13h-7.5q-.93 0-1.59-.66T0 10.75v-7.5q0-.93.66-1.59T2.25 1h7.5q.93 0 1.59.66T12 3.25z"/></svg>