<svg xmlns="http://www.w3.org/2000/svg" width="12" height="14" viewBox="0 0 12 14"><path fill="#444" d="M5.18 3.211q-.086.008-.121.082t-.066.074q-.039.008-.039-.039 0-.094.148-.117h.078zm.679.109q-.031.008-.09-.051t-.137-.035q.187-.086.25.016.023.047-.023.07zM3.117 6.656q-.031-.008-.047.023t-.035.098-.043.105-.078.102q-.055.078-.008.094.031.008.098-.055t.098-.141q.008-.023.016-.055t.016-.047.012-.035.004-.031v-.023l-.008-.02-.023-.016zm6.68 2.805q0-.141-.43-.328.031-.117.059-.215t.039-.203.023-.168.004-.176-.008-.152-.027-.172-.031-.16-.039-.195-.043-.207q-.078-.375-.367-.805t-.563-.586q.187.156.445.648.68 1.266.422 2.172-.086.312-.391.328-.242.031-.301-.145t-.062-.652-.09-.836q-.07-.305-.152-.539t-.152-.355-.121-.191-.102-.117-.059-.055q-.109-.484-.242-.805t-.23-.438-.184-.258-.117-.312q-.031-.164.047-.418t.035-.387-.348-.195q-.117-.023-.348-.141t-.277-.125q-.062-.008-.086-.203t.062-.398.281-.211q.289-.023.398.234t.031.453q-.086.148-.016.207t.234.004q.102-.031.102-.281v-.289q-.039-.234-.105-.391t-.164-.238-.184-.117-.211-.059q-.836.062-.695 1.047 0 .117-.008.117-.07-.07-.23-.082t-.258.004-.121-.039q.008-.445-.125-.703t-.352-.266q-.211-.008-.324.215t-.129.465q-.008.117.027.289t.102.293.121.105q.078-.023.125-.109.031-.07-.055-.062-.055 0-.121-.113t-.074-.262q-.008-.172.07-.289t.266-.109q.133 0 .211.164t.074.305-.012.172q-.172.117-.242.227-.062.094-.215.184t-.16.098q-.102.109-.121.211t.059.141q.109.062.195.152t.125.148.145.102.277.051q.367.016.797-.117.016-.008.18-.055t.27-.082.23-.102.164-.137q.07-.109.156-.062.039.023.051.066t-.023.094-.129.074q-.156.047-.441.168t-.355.152q-.344.148-.547.18-.195.039-.617-.016-.078-.016-.07.016t.133.148q.195.18.523.172.133-.008.281-.055t.281-.109.262-.137.234-.133.191-.094.137-.02.066.086q0 .016-.008.035t-.031.039-.047.035-.066.039-.07.035-.078.039-.074.035q-.219.109-.527.344t-.52.336-.383.008q-.164-.086-.492-.57-.172-.242-.195-.172-.008.023-.008.078 0 .195-.117.441t-.23.434-.164.453.09.492q-.18.047-.488.703t-.371 1.102q-.016.141-.012.539t-.043.461q-.062.187-.227.023-.25-.242-.281-.734-.016-.219.031-.438.031-.148-.008-.141l-.031.039q-.281.508.078 1.297.039.094.195.219t.187.156q.156.18.813.707t.727.598q.125.117.137.297t-.109.336-.355.18q.062.117.227.348t.219.422.055.551q.359-.187.055-.719-.031-.062-.082-.125t-.074-.094-.016-.047q.023-.039.102-.074t.156.02q.359.406 1.297.281 1.039-.117 1.383-.68.18-.297.266-.234.094.047.078.406-.008.195-.18.719-.07.18-.047.293t.187.121q.023-.148.113-.602t.105-.703q.016-.164-.051-.574t-.059-.758.18-.551q.117-.141.398-.141.008-.289.27-.414t.566-.082.469.176zM4.891 3q.023-.133-.02-.234t-.09-.117q-.07-.016-.07.055.016.039.039.047.078 0 .055.117-.023.156.062.156.023 0 .023-.023zm3.273 1.539q-.016-.062-.051-.09t-.102-.039-.113-.043q-.039-.023-.074-.062t-.055-.062-.043-.051-.031-.031-.031.012q-.109.125.055.34t.305.246q.07.008.113-.062t.027-.156zM6.773 2.875q0-.086-.039-.152t-.086-.098-.07-.023q-.109.008-.055.055l.031.016q.109.031.141.242 0 .023.062-.016zm.422-1.82q0-.016-.02-.039t-.07-.055-.074-.047Q6.914.797 6.844.797q-.07.008-.09.059t-.008.102-.004.098q-.008.031-.047.082t-.047.07.023.066q.031.023.062 0t.086-.07.117-.07q.008-.008.07-.008t.117-.016.07-.055zm4.414 10.476q.156.094.242.191t.094.187-.02.176-.121.172-.184.152-.234.145-.246.129-.25.121-.211.102q-.297.148-.668.438t-.59.5q-.133.125-.531.152t-.695-.113q-.141-.07-.23-.184t-.129-.199-.172-.152-.367-.074q-.344-.008-1.016-.008-.148 0-.445.012t-.453.02q-.344.008-.621.117t-.418.234-.34.223-.418.09q-.227-.008-.867-.242t-1.141-.336q-.148-.031-.398-.074t-.391-.07-.309-.074-.262-.113-.133-.152q-.078-.18.055-.52t.141-.426q.008-.125-.031-.312t-.078-.332-.035-.285.082-.211q.109-.094.445-.109t.469-.094q.234-.141.328-.273t.094-.398q.164.57-.25.828-.25.156-.648.117-.266-.023-.336.078-.102.117.039.445.016.047.062.141t.066.141.035.133.008.172q0 .117-.133.383t-.109.375q.023.133.289.203.156.047.66.145t.777.16q.187.047.578.172t.645.18.434.031q.336-.047.504-.219t.18-.375-.059-.457-.148-.406-.156-.285q-.945-1.484-1.32-1.891-.531-.578-.883-.312-.086.07-.117-.117-.023-.125-.016-.297.008-.227.078-.406t.187-.367.172-.328q.062-.164.207-.563t.23-.609.234-.477.305-.422q.859-1.117.969-1.523-.094-.875-.125-2.422-.016-.703.187-1.184t.828-.816q.305-.164.813-.164.414-.008.828.105t.695.324q.445.328.715.949t.23 1.152q-.039.742.234 1.672.266.883 1.039 1.703.43.461.777 1.273t.465 1.492q.062.383.039.66t-.094.434-.156.172q-.078.016-.184.148t-.211.277-.316.262-.477.109q-.141-.008-.246-.039t-.176-.105-.105-.121-.09-.16-.07-.152q-.172-.289-.32-.234t-.219.383.055.758q.156.547.008 1.523-.078.508.141.785t.57.258.664-.277q.461-.383.699-.52t.809-.332q.414-.141.602-.285t.145-.27-.195-.223-.402-.184q-.258-.086-.387-.375t-.117-.566.121-.371q.008.242.062.441t.113.316.16.223.164.148.168.102.129.074z"/></svg>