<svg xmlns="http://www.w3.org/2000/svg" width="14" height="14" viewBox="0 0 14 14"><path fill="#444" d="M2 10.25v1.5q0 .102-.074.176T1.75 12H.25q-.102 0-.176-.074T0 11.75v-1.5q0-.102.074-.176T.25 10h1.5q.102 0 .176.074T2 10.25zm0-3v1.5q0 .102-.074.176T1.75 9H.25q-.102 0-.176-.074T0 8.75v-1.5q0-.102.074-.176T.25 7h1.5q.102 0 .176.074T2 7.25zm0-3v1.5q0 .102-.074.176T1.75 6H.25q-.102 0-.176-.074T0 5.75v-1.5q0-.102.074-.176T.25 4h1.5q.102 0 .176.074T2 4.25zm12 6v1.5q0 .102-.074.176T13.75 12H3.25q-.102 0-.176-.074T3 11.75v-1.5q0-.102.074-.176T3.25 10h10.5q.102 0 .176.074t.074.176zm-12-9v1.5q0 .102-.074.176T1.75 3H.25q-.102 0-.176-.074T0 2.75v-1.5q0-.102.074-.176T.25 1h1.5q.102 0 .176.074T2 1.25zm12 6v1.5q0 .102-.074.176T13.75 9H3.25q-.102 0-.176-.074T3 8.75v-1.5q0-.102.074-.176T3.25 7h10.5q.102 0 .176.074T14 7.25zm0-3v1.5q0 .102-.074.176T13.75 6H3.25q-.102 0-.176-.074T3 5.75v-1.5q0-.102.074-.176T3.25 4h10.5q.102 0 .176.074T14 4.25zm0-3v1.5q0 .102-.074.176T13.75 3H3.25q-.102 0-.176-.074T3 2.75v-1.5q0-.102.074-.176T3.25 1h10.5q.102 0 .176.074T14 1.25z"/></svg>