<svg xmlns="http://www.w3.org/2000/svg" width="13" height="14" viewBox="0 0 13 14"><path fill="#444" d="M9.297 4.539l2.289-2.289-.836-.836-2.289 2.289zm3.492-2.289q0 .211-.141.352L2.601 12.649q-.141.141-.352.141t-.352-.141L.35 11.102q-.141-.141-.141-.352t.141-.352L10.397.351q.141-.141.352-.141t.352.141l1.547 1.547q.141.141.141.352zM2.234.766L3 1l-.766.234L2 2l-.234-.766L1 1l.766-.234L2 0zm2.735 1.265L6.5 2.5l-1.531.469L4.5 4.5l-.469-1.531L2.5 2.5l1.531-.469L4.5.5zm7.265 3.735L13 6l-.766.234L12 7l-.234-.766L11 6l.766-.234L12 5zm-5-5L8 1l-.766.234L7 2l-.234-.766L6 1l.766-.234L7 0z"/></svg>