<svg xmlns="http://www.w3.org/2000/svg" width="14" height="14" viewBox="0 0 14 14"><path fill="#444" d="M14 8.75q0 1.297-.992 3.523-.023.055-.082.187t-.105.234-.102.172q-.094.133-.219.133-.117 0-.184-.078t-.066-.195q0-.07.02-.207t.02-.184q.039-.531.039-.961 0-.789-.137-1.414t-.379-1.082-.625-.789-.824-.543-1.039-.332-1.203-.168-1.371-.047h-1.75v2q0 .203-.148.352t-.352.148-.352-.148l-4-4q-.148-.148-.148-.352t.148-.352l4-4q.148-.148.352-.148t.352.148.148.352v2h1.75q5.57 0 6.836 3.148.414 1.047.414 2.602z"/></svg>