<svg xmlns="http://www.w3.org/2000/svg" width="14" height="14" viewBox="0 0 14 14"><path fill="#444" d="M14 5q0 .203-.148.352l-4 4Q9.704 9.5 9.5 9.5t-.352-.148T9 9V7H7.25q-.766 0-1.371.047t-1.203.168-1.039.332-.824.543-.625.789-.379 1.082-.137 1.414q0 .43.039.961 0 .047.02.184t.02.207q0 .117-.066.195T1.501 13q-.125 0-.219-.133-.055-.07-.102-.172t-.105-.234-.082-.187Q.001 10.047.001 8.751q0-1.555.414-2.602 1.266-3.148 6.836-3.148h1.75v-2q0-.203.148-.352t.352-.148.352.148l4 4q.148.148.148.352z"/></svg>