<svg xmlns="http://www.w3.org/2000/svg" width="14" height="14" viewBox="0 0 14 14"><path fill="#444" d="M5 8.453V9q0 .328-.305.461-.102.039-.195.039-.211 0-.352-.148l-4-4Q0 5.204 0 5t.148-.352l4-4q.227-.242.547-.109Q5 .672 5 1v.539L1.898 4.648Q1.75 4.796 1.75 5t.148.352zm9 .297q0 .453-.133 1.043t-.301 1.078-.375.977-.316.707l-.156.312Q12.657 13 12.5 13q-.047 0-.07-.008-.195-.062-.18-.266.336-3.125-.828-4.414-.5-.555-1.332-.863T8 7.039V9q0 .328-.305.461-.102.039-.195.039-.211 0-.352-.148l-4-4Q3 5.204 3 5t.148-.352l4-4q.227-.242.547-.109Q8 .672 8 1v2.047q3.211.219 4.68 1.727Q14 6.126 14 8.751z"/></svg>