<svg xmlns="http://www.w3.org/2000/svg" width="14" height="14" viewBox="0 0 14 14"><path fill="#444" d="M7.126 2.884c-.252-.546-.812-.924-1.456-.924s-1.19.378-1.456.91a.856.856 0 0 0-.294.658c0 .238.098.448.238.602a1.61 1.61 0 0 0 3.024-.014.889.889 0 0 0 .238-.588.848.848 0 0 0-.294-.644zm-.588 1.232a.602.602 0 0 1-.56-.406c-.042-.14-.168-.224-.308-.224s-.266.098-.322.224a.602.602 0 0 1-.56.406c-.322 0-.588-.266-.588-.588s.266-.588.588-.588h1.75c.322 0 .588.266.588.588s-.252.588-.588.588zM11.06 9.52H9.1V7.56c0-1.078-.882-1.96-1.96-1.96H3.92a1.988 1.988 0 0 0-1.96 1.932v3.948c0 .308.252.56.56.56s.56-.252.56-.56V7.588h.42v4.452h4.06V7.574h.42v2.506c0 .308.252.56.56.56h2.52c.308 0 .56-.252.56-.56s-.252-.56-.56-.56z"/><path fill="#444" d="M11.914 6.412h-.14a.14.14 0 0 0-.14.14c0 .098-.224.098-.322.028l-.154-.112a.472.472 0 0 0-.238-.07h-.308c-.98 0-1.218.714-1.218.714l.196.154c.168-.21.308-.294.588-.294.168 0 .294.126.294.294l-.14 3.22h.882l-.14-3.22c0-.084.014-.294.294-.294.294 0 .294.14.294.14 0 .084.07.14.14.14h.14a.14.14 0 0 0 .14-.14v-.588c-.028-.056-.098-.112-.168-.112z"/></svg>