<svg xmlns="http://www.w3.org/2000/svg" width="14" height="14" viewBox="0 0 14 14"><path fill="#444" d="M13.633 2.32q.078.078.078.18t-.078.18l-1.102 1.102q-.219.219-.531.219H1.5q-.203 0-.352-.148T1 3.501v-2q0-.203.148-.352t.352-.148H6v-.5q0-.203.148-.352T6.5.001h1q.203 0 .352.148T8 .501v.5h4q.312 0 .531.219zM6 9.5h2v4q0 .203-.148.352T7.5 14h-1q-.203 0-.352-.148T6 13.5v-4zM12.5 6q.203 0 .352.148T13 6.5v2q0 .203-.148.352T12.5 9H2q-.312 0-.531-.219L.367 7.679q-.078-.078-.078-.18t.078-.18l1.102-1.102q.219-.219.531-.219h4v-1.5h2v1.5h4.5z"/></svg>