<svg xmlns="http://www.w3.org/2000/svg" width="14" height="14" viewBox="0 0 14 14"><path fill="#444" d="M4 0q.102 0 .176.074T4.25.25v11.5q0 .156-.133.219l-3.75 2Q.312 14 .25 14q-.102 0-.176-.074T0 13.75V2.25q0-.156.133-.219l3.75-2Q3.938 0 4 0zm9.75 0q.102 0 .176.074T14 .25v11.5q0 .156-.133.219l-3.75 2Q10.062 14 10 14q-.102 0-.176-.074t-.074-.176V2.25q0-.156.133-.219l3.75-2Q13.688 0 13.75 0zM5 0q.062 0 .109.023l4 2q.141.078.141.227v11.5q0 .102-.074.176T9 14q-.062 0-.109-.023l-4-2q-.141-.078-.141-.227V.25q0-.102.074-.176T5 0z"/></svg>