<svg xmlns="http://www.w3.org/2000/svg" width="15" height="14" viewBox="0 0 15 14"><path fill="#444" d="M12 3.25q0-.109.07-.18t.18-.07h2.25q.203 0 .352.148T15 3.5v2.25q0 .109-.07.18t-.18.07h-.5q-.109 0-.18-.07T14 5.75V4.703l-1.984 1.992q.594.742.84 1.672t.074 1.93q-.242 1.422-1.297 2.438t-2.484 1.219q-1.641.227-3.004-.625t-1.887-2.344q-.914-.047-1.727-.449T1.144 9.497.257 7.993t-.25-1.797q.07-1.055.609-1.969t1.422-1.496 1.937-.699q.922-.109 1.777.148t1.551.805l1.992-1.984H8.248q-.109 0-.18-.07t-.07-.18v-.5q0-.109.07-.18t.18-.07h2.25q.203 0 .352.148t.148.352v2.25q0 .109-.07.18t-.18.07h-.5q-.109 0-.18-.07t-.07-.18V1.704L8.014 3.696q.461.578.727 1.32 1.422.07 2.563.969l1.992-1.984h-1.047q-.109 0-.18-.07t-.07-.18v-.5zM8 6.5q0-.156-.031-.453-1.266.195-2.117 1.172T5 9.5q0 .156.031.453 1.266-.195 2.117-1.172T8 6.5zm-7 0q0 1.313.867 2.297t2.156 1.164Q4 9.734 4 9.5q0-1.641 1.055-2.887t2.641-1.535q-.414-.937-1.277-1.508T4.501 3Q3.056 3 2.028 4.027T1.001 6.5zM8.5 13q1.445 0 2.473-1.027T12 9.5q0-1.313-.867-2.297T8.977 6.039Q9 6.266 9 6.5q0 1.641-1.055 2.887t-2.641 1.535q.414.937 1.277 1.508t1.918.57z"/></svg>