<svg xmlns="http://www.w3.org/2000/svg" width="9" height="14" viewBox="0 0 9 14"><path fill="#444" d="M5 5.031q1.695.187 2.848 1.465T9 9.5q0 1.305-.68 2.391t-1.844 1.656-2.492.422q-1.039-.117-1.918-.688T.644 11.812.015 9.867q-.094-1.211.41-2.281t1.453-1.75 2.121-.805V4h-1.25q-.109 0-.18-.07t-.07-.18v-.5q0-.109.07-.18t.18-.07h1.25V1.711l-.719.719q-.078.07-.18.07t-.172-.07l-.359-.359q-.07-.07-.07-.172t.07-.18L4.147.149q.148-.148.352-.148t.352.148l1.578 1.57q.07.078.07.18t-.07.172l-.359.359q-.07.07-.172.07t-.18-.07l-.719-.719V3h1.25q.109 0 .18.07t.07.18v.5q0 .109-.07.18t-.18.07h-1.25v1.031zM4.5 13q1.445 0 2.473-1.027T8 9.5 6.973 7.027 4.5 6 2.027 7.027 1 9.5t1.027 2.473T4.5 13z"/></svg>