<svg xmlns="http://www.w3.org/2000/svg" width="12" height="14" viewBox="0 0 12 14"><path fill="#444" d="M11.5 1q.203 0 .352.148T12 1.5v3.25q0 .109-.07.18t-.18.07h-.5q-.109 0-.18-.07T11 4.75V2.703L9.336 4.375l1.094 1.094q.07.078.07.18t-.07.172l-.359.359q-.07.07-.172.07t-.18-.07L8.625 5.078l-.609.617Q9 6.914 9 8.5q0 .914-.355 1.746t-.961 1.438-1.438.961T4.5 13t-1.746-.355-1.438-.961-.961-1.438T0 8.5t.355-1.746.961-1.438 1.438-.961T4.5 4q1.586 0 2.805.984l.609-.609L6.57 3.031q-.07-.078-.07-.18t.07-.172l.359-.359q.07-.07.172-.07t.18.07l1.344 1.344L10.289 2H8.25q-.109 0-.18-.07T8 1.75v-.5q0-.109.07-.18T8.25 1h3.25zm-7 11q1.445 0 2.473-1.027T8 8.5 6.973 6.027 4.5 5 2.027 6.027 1 8.5t1.027 2.473T4.5 12z"/></svg>