<svg xmlns="http://www.w3.org/2000/svg" width="15" height="14" viewBox="0 0 15 14"><path fill="#444" d="M14.852 7.148Q15 7.296 15 7.5t-.148.352l-2.297 2.297q-.07.078-.176.078t-.176-.078l-.352-.352q-.078-.07-.078-.176t.078-.176L13.296 8h-2.297v1.75q0 .109-.07.18t-.18.07h-.5q-.109 0-.18-.07t-.07-.18V8H8.968q-.187 1.695-1.465 2.848T4.499 12q-1.305 0-2.391-.68T.452 9.476.03 6.984q.117-1.039.688-1.918t1.469-1.422 1.945-.629q1.211-.094 2.281.41t1.75 1.453.805 2.121h1.031v-1.75q0-.109.07-.18t.18-.07h.5q.109 0 .18.07t.07.18v1.75h2.297l-1.445-1.445q-.078-.07-.078-.176t.078-.176l.352-.352q.07-.078.176-.078t.176.078zM4.5 11q1.445 0 2.473-1.027T8 7.5 6.973 5.027 4.5 4 2.027 5.027 1 7.5t1.027 2.473T4.5 11z"/></svg>