<svg xmlns="http://www.w3.org/2000/svg" width="12" height="14" viewBox="0 0 12 14"><path fill="#444" d="M10.242 6.578v.891q0 .187-.105.297t-.293.109H8.266q-.187 0-.297-.109t-.109-.297v-.891q0-.187.109-.297t.297-.109h1.578q.187 0 .293.109t.105.297zM6.414 8.375V6.422q0-.414-.254-.668T5.492 5.5H4.453q-.531 0-.75.406-.219-.406-.75-.406H1.937q-.414 0-.668.254t-.254.668v1.953q0 .172.164.172h.43q.172 0 .172-.172V6.578q0-.187.105-.297t.301-.109h.734q.187 0 .297.109t.109.297v1.797q0 .172.164.172h.422q.172 0 .172-.172V6.578q0-.187.109-.297t.297-.109h.758q.187 0 .293.109t.105.297v1.797q0 .172.172.172h.43q.164 0 .164-.172zm4.602-.75V6.422q0-.414-.258-.668t-.672-.254H8.024q-.414 0-.672.254t-.258.668v3.203q0 .164.172.164h.43q.164 0 .164-.164V8.219q.242.328.734.328h1.492q.414 0 .672-.254t.258-.668zM12 2.812v8.375q0 .75-.531 1.281t-1.281.531H1.813q-.75 0-1.281-.531t-.531-1.281V2.812q0-.75.531-1.281T1.813 1h8.375q.75 0 1.281.531T12 2.812z"/></svg>