<svg xmlns="http://www.w3.org/2000/svg" width="14" height="14" viewBox="0 0 14 14"><path fill="#444" d="M6.86 4.228L2.8 7.98h.84v4.06h6.44V7.98h.84L6.86 4.228zm0 3.612c.196 0 .35.154.35.35s-.154.35-.35.35-.35-.154-.35-.35c0-.196.154-.35.35-.35zm.77 2.24c0 .196-.126.35-.294.406L7.21 12.04h-.7l-.126-1.554a.425.425 0 0 1-.294-.406v-.84c0-.238.182-.42.42-.42h.7c.238 0 .42.182.42.42v.84zm2.24-5.46h-.56c-.084 0-.14-.056-.14-.14s.056-.14.14-.14h.56c.084 0 .14.056.14.14s-.056.14-.14.14zm-.14.42h-.28c-.084 0-.14-.056-.14-.14s.056-.14.14-.14h.28c.084 0 .14.056.14.14s-.056.14-.14.14zm.77-2.17c0-.504-.406-.91-.91-.91s-.91.406-.91.91c0 .224.07.42.21.574.294.364.28.616.28.616 0 .084.056.14.14.14h.56c.084 0 .14-.056.14-.14 0 0-.014-.252.28-.616a.83.83 0 0 0 .21-.574z"/></svg>