<svg xmlns="http://www.w3.org/2000/svg" width="15" height="14" viewBox="0 0 15 14"><path fill="#444" d="M6 9h3v-.75H8v-3.5h-.891L5.953 5.82l.602.625q.328-.289.43-.445h.016v2.25h-1V9zm4-2q0 .547-.164 1.109t-.465 1.047-.793.789-1.078.305-1.078-.305-.793-.789-.465-1.047T5 7t.164-1.109.465-1.047.793-.789T7.5 3.75t1.078.305.793.789.465 1.047T10 7zm4 2V5q-.828 0-1.414-.586T12 3H3q0 .828-.586 1.414T1 5v4q.828 0 1.414.586T3 11h9q0-.828.586-1.414T14 9zm1-6.5v9q0 .203-.148.352T14.5 12H.5q-.203 0-.352-.148T0 11.5v-9q0-.203.148-.352T.5 2h14q.203 0 .352.148T15 2.5z"/></svg>