<svg xmlns="http://www.w3.org/2000/svg" width="12" height="14" viewBox="0 0 12 14"><path fill="#444" d="M9.859 10.18q-.422.07-.859.07-1.422 0-2.633-.703T4.453 7.633 3.75 5q0-1.5.813-2.789Q2.993 2.68 1.997 4t-.996 3q0 1.016.398 1.941t1.066 1.594 1.594 1.066T6 11.999q1.125 0 2.137-.48t1.723-1.34zm1.586-.664q-.734 1.586-2.215 2.535T6 13q-1.219 0-2.328-.477t-1.914-1.281T.477 9.328 0 7q0-1.195.449-2.285t1.219-1.887 1.84-1.285 2.266-.535q.344-.016.477.305.141.32-.117.563-.672.609-1.027 1.418t-.355 1.707q0 1.156.57 2.133t1.547 1.547 2.133.57q.922 0 1.781-.398.32-.141.563.102.109.109.137.266t-.035.297z"/></svg>