<svg xmlns="http://www.w3.org/2000/svg" width="18" height="14" viewBox="0 0 18 14"><path fill="#444" d="M17.977 8.094q.094.805-.172 1.551t-.773 1.277-1.238.828-1.535.242q-1.258-.086-2.184-.977t-1.051-2.141q-.094-.867.215-1.645t.926-1.332l-.555-.836q-.75.625-1.18 1.516T10 8.483q0 .211-.145.363t-.355.152H6.961q-.18 1.281-1.164 2.141t-2.297.859q-1.445 0-2.473-1.027T0 8.498t1.027-2.473T3.5 4.998q.594 0 1.187.211l.187-.352q-.961-.859-2.375-.859h-.5q-.203 0-.352-.148t-.148-.352.148-.352.352-.148h1q.609 0 1.133.105t.91.301.559.309.398.285h4.898l-.664-1H8.499q-.234 0-.383-.176t-.109-.41q.031-.18.18-.297t.336-.117H10.5q.258 0 .414.219l.547.82.891-.891q.148-.148.359-.148h.789q.203 0 .352.148t.148.352v1q0 .203-.148.352t-.352.148h-1.398L13 5.342q1.023-.492 2.148-.281 1.117.203 1.906 1.051t.922 1.98zM3.5 11q.898 0 1.586-.566T5.953 9H3.5q-.273 0-.43-.242-.141-.25-.008-.492L4.21 6.102Q3.843 6 3.499 6q-1.031 0-1.766.734T.999 8.5t.734 1.766T3.499 11zm11 0q1.031 0 1.766-.734T17 8.5t-.734-1.766T14.5 6q-.469 0-.945.187l1.359 2.031q.117.18.078.383t-.211.312q-.117.086-.281.086-.273 0-.414-.227l-1.359-2.031Q12 7.483 12 8.499q0 1.031.734 1.766t1.766.734z"/></svg>