<svg xmlns="http://www.w3.org/2000/svg" width="10" height="14" viewBox="0 0 10 14"><path fill="#444" d="M5 7.086q-1.469 0-2.508-1.039t-1.039-2.5q0-1.469 1.039-2.508T5 0t2.508 1.039 1.039 2.508q0 1.461-1.039 2.5T5 7.086zm0-5.289q-.719 0-1.23.512t-.512 1.238q0 .719.512 1.23T5 5.289t1.23-.512.512-1.23q0-.727-.512-1.238T5 1.797zm4.086 5.719q.102.211.117.387t-.035.316-.207.301-.332.289-.48.324q-.898.57-2.461.734l.57.563 2.086 2.086q.234.242.234.578t-.234.57l-.094.102Q8.008 14 7.672 14t-.578-.234q-.523-.531-2.086-2.094l-2.086 2.094Q2.68 14 2.344 14t-.57-.234l-.094-.102q-.242-.234-.242-.57t.242-.578l2.648-2.648q-1.586-.164-2.477-.734-.305-.195-.48-.324t-.332-.289-.207-.301-.035-.316.117-.387q.078-.156.219-.273t.328-.172.438.016.508.273q.039.031.117.086t.336.191.539.238.719.187.883.086q.711 0 1.359-.199t.937-.395l.297-.195q.258-.203.508-.273t.438-.016.328.172.219.273z"/></svg>