<svg xmlns="http://www.w3.org/2000/svg" width="12" height="14" viewBox="0 0 12 14"><path fill="#444" d="M7.242 4.531q0 .516-.363.879T6 5.773t-.879-.363-.363-.879.363-.879T6 3.289t.879.363.363.879zm1.672 2.836q-.078-.156-.219-.25t-.371-.074-.473.215q-.078.062-.227.156t-.633.25-.992.156-.969-.141-.672-.281l-.211-.141q-.242-.195-.473-.215t-.371.074-.219.25q-.172.352-.016.582t.68.574q.648.414 1.766.523l-.398.406q-1.109 1.109-1.492 1.484-.172.172-.172.41t.172.41l.07.07q.172.172.41.172t.41-.172l1.492-1.492q.891.898 1.492 1.492.172.172.41.172t.41-.172l.07-.07q.172-.172.172-.41t-.172-.41L6.896 9.451l-.406-.406q1.102-.109 1.758-.523.523-.344.68-.574t-.016-.582zm-.383-2.836q0-1.047-.742-1.789T6 2t-1.789.742-.742 1.789.742 1.789T6 7.062t1.789-.742.742-1.789zM12 3.25v7.5q0 .93-.66 1.59T9.75 13h-7.5q-.93 0-1.59-.66T0 10.75v-7.5q0-.93.66-1.59T2.25 1h7.5q.93 0 1.59.66T12 3.25z"/></svg>