<svg xmlns="http://www.w3.org/2000/svg" width="18" height="14" viewBox="0 0 18 14"><path fill="#444" d="M11.906 12.195q0 .531-.375.906t-.906.375-.91-.375-.379-.906.379-.91.91-.379.906.379.375.91zm-5.851 0q0 .531-.379.906t-.91.375-.906-.375-.375-.906.375-.91.906-.379.91.379.379.91zM0 .523q.445.469.863.816t.945.641 1.062.492 1.297.355 1.563.246 1.953.145 2.375.074 2.91.02q1.086 0 1.91.039t1.414.129.969.215.555.309.187.402-.152.5-.441.598-.699.711-.906.816-1.086.93q-1.445 1.227-2.234 1.93.227-.398.598-.852t.734-.824.738-.77.648-.715.422-.629.102-.547-.355-.434-.91-.32-1.594-.184-2.375-.039Q9.18 4.593 8.04 4.53t-2-.18-1.598-.32-1.246-.402-.957-.488-.715-.52-.531-.559-.395-.543T.286.987.001.522z"/></svg>