<svg xmlns="http://www.w3.org/2000/svg" width="18" height="14" viewBox="0 0 18 14"><path fill="#444" d="M3.734 13.086q-.062.125-.211.27t-.289.199q-.195.07-.402-.027t-.223-.246q-.008-.172.312-.43t.531-.297q.18-.031.266.168t.016.363zm10.477 0q.055.125.203.27t.297.199q.195.07.402-.027t.215-.246q.016-.172-.309-.43t-.535-.297q-.172-.031-.258.168t-.016.363zm.375-.852q.102.211.441.465t.605.324q.352.102.641-.035t.289-.395q0-.359-.527-.785t-.902-.465q-.312-.039-.496.293t-.051.598zm-11.242 0q-.102.211-.438.465t-.602.324q-.352.102-.641-.035t-.289-.395q0-.359.527-.785t.902-.465q.312-.039.492.293t.047.598zm5.703-8.781h.008q-.32 0-.594.117.211.062.344.238t.133.387q0 .273-.211.469t-.508.195q-.406 0-.625-.336-.039.18-.039.328 0 .578.438.988t1.055.41q.625 0 1.062-.41t.438-.988-.438-.988-1.062-.41zm2.375-1.703Q10.649.898 9.699.723t-1.918.348q.211-.469.645-.754t.922-.309.949.133.777.582.348 1.027zm5.859 9.68q.062.086-.086.328.055.18.055.312.008.438-.348.879t-.855.715-.922.289q-.375.016-.719-.168t-.516-.512q-5.367.195-9.836 0-.18.32-.52.508t-.723.172q-.672-.023-1.402-.629T.686 12.07q.016-.172.055-.312-.148-.242-.086-.328.047-.078.242-.008.109-.172.32-.398-.055-.227.016-.297.086-.078.305.031.227-.156.461-.266 0-.227.102-.289.18-.094.398.125.273-.039.477.016.141.031.297.148v-.57q-.086 0-.141-.016-.414-.078-.758-.348t-.43-.684q-.07-.297 0-.633.117-.484.727-.742.016-.133.148-.277t.281-.184.258.059.148.238h.102q.359.039.469.18.023.023.039.055l.238-.027.238-.027q-.117-.086-.234-.133-.18-.312-.711-.336 0-.047.008-.078-.484-.016-.926-.145t-.66-.371q-.25-.281-.332-.719t-.02-.875q.125-.984.703-1.398.18-.125.406-.035t.25.316l.012.109.02.164q.008.063.023.156t.043.148.066.078q.211.109.594.094.375-.359.766-.578-.312-.031-1.266.109l.367-.359q.477-.453 1.273-.867 1.133-.57 2.203-.672-.156-.062-.32-.121t-.367-.109-.332-.082-.371-.086-.336-.078q4.648-.984 7.062 1.086.766.656 1.234 1.734.664.078.945-.07h.008q.039-.023.066-.078t.043-.148.023-.152.023-.168l.008-.109q.023-.219.25-.312t.406.039q.57.406.711 1.391.055.445-.027.883t-.332.711q-.219.25-.652.379t-.902.145v.078q-.555.016-.742.336-.109.039-.242.133.086.008.25.027t.234.027q.008-.031.039-.062.125-.141.469-.18h.102q.039-.141.148-.234t.258-.062.281.18.148.281q.617.25.727.742.07.312.008.633-.094.414-.438.688t-.758.344q-.078.016-.133.016 0 .383-.008.57.156-.117.297-.148.203-.055.477-.016.219-.219.398-.125.109.07.109.289.258.125.461.266.211-.102.297-.031.078.078.016.297.219.234.32.398.18-.062.242.008zm-2.148-7.438q0 .227-.07.422.641.25.875 1.031.031-.289-.074-.77t-.324-.707q-.156-.148-.281-.133t-.125.156zm-.61.781q.273.328.371.848t-.004.973q.523-.102.758-.352.102-.109.141-.219-.023-.5-.242-.895t-.617-.52q-.117.117-.406.164zm-.289.032q-.234 0-.344-.008.328.898.414 1.867.164 0 .336-.023.125-.531.008-1.055t-.414-.781zm-12.218.64q.234-.781.875-1.031-.07-.195-.07-.422 0-.141-.129-.156t-.277.133q-.219.227-.324.707t-.074.77zm.281.797q.227.242.758.352-.102-.453-.004-.973t.371-.848q-.289-.047-.406-.164-.398.125-.613.516t-.246.898q.07.133.141.219zm1.383.422q.109-.969.57-1.836-.148.031-.43.141l-.352.148v-.008q-.359.695-.156 1.531.195.023.367.023zm7.523.305q.062.297.129.848t.09.699q.023.141.074.168t.184-.035q.312-.156.484-.668t.18-.98q-.187-.016-1.141-.031zM9 1.961q-.906 0-1.555.645t-.648 1.551q0 .914.648 1.559T9 6.361t1.555-.645.648-1.559q0-.906-.648-1.551T9 1.961zm1.781 4.992q-.828-.016-1.648 0v-.008q-.008.211.02.672t.105.516q.227.109.73.113t.746-.082q.07-.023.086-.305t-.004-.543-.035-.363zM8.688 8.508q.062-.031.074-.375t-.004-.688-.031-.492v-.008l-1.672.023q-.031.156-.055.484T7 8.1t.109.359q.266.117.789.125t.789-.078zM5.609 7.031q-.125.461.035.926t.605.66q.117.062.187.039t.094-.164q.023-.125.062-.703t.078-.805q-.539.016-1.062.047zm-.992.985q.023.18-.266.281 1.031 1.102 2.121 1.875t2.387 1.203q1.344-.383 2.426-1.141t2.293-1.953q-.258-.102-.234-.266l.023-.07q-.133-.016-.391-.043t-.375-.035q-.203.703-.641 1.031-.398.297-.641-.008-.039-.047-.07-.109-.055-.102-.133-.484-.016.039-.039.07t-.059.055-.062.043-.074.031l-.078.02-.094.016-.094.012-.105.008-.105.004q-.828.07-1.273-.086-.031.133-.078.207t-.164.117-.18.055-.281.027q-.016 0-.023.004t-.023.004h-.023q-1.398.133-1.586-.312-.016.492-.438.422-.367-.062-.711-.422-.094-.102-.156-.203-.133-.227-.203-.508-.453.047-.68.078.008.016.031.078zm-.656 4.906q.023-.109.023-.234-.133-.555-.398-1.016t-.57-.547q-.32-.094-.793.113t-.816.625-.305.84q.273.414.781.727t.93.328q.398.016.734-.219t.414-.617zm.023-1.336q.18.492.211.93 1.523-.883 3.063-1.359-.766-.406-1.41-.937T4.446 8.931q-.047.031-.227.102 0 .016-.008.039t-.008.031q.242.141.172.289-.094.18-.438.266-.078.102-.227.187h-.008q-.016.648.008 1.172.148.266.273.57zm.539 1.297q4.156.164 8.945 0-1.984-1.148-3.344-1.531-.594.273-1.219.445-.062.023-.125 0-.508-.164-1.008-.383-1.625.469-3.25 1.469h-.008v.008q.008 0 .008-.008zm9.25-.36q.031-.422.219-.937.109-.297.258-.555l-.008.008q.023-.602.023-1.195-.117-.062-.234-.195-.328-.07-.438-.258-.07-.156.172-.297-.016-.031-.016-.07-.125-.031-.219-.094-1.594 1.484-2.992 2.219 1.547.461 3.234 1.375zm3.063.18q.039-.422-.305-.84t-.813-.625-.797-.113q-.297.086-.566.551t-.402 1.012q0 .125.023.234.078.383.414.617t.734.219q.422-.016.93-.328t.781-.727z"/></svg>