<svg xmlns="http://www.w3.org/2000/svg" width="11" height="14" viewBox="0 0 11 14"><path fill="#444" d="M10.953 8.617q-.25.625-.594 1.078t-.711.691-.773.363-.793.113-.754-.066-.676-.172-.543-.215-.359-.176l-.133-.078q-.883 1.781-2.262 2.809T.351 13.999q-.148 0-.25-.102t-.102-.25.102-.246.25-.098q1.352-.008 2.52-.84t1.965-2.301q-.281.109-.563.18t-.648.102-.711-.02-.727-.223-.719-.461-.66-.781-.582-1.141q.891-.367 1.672-.445t1.309.059.973.441.691.602.441.641q.414-1.023.617-2.273l-.141.02q-.086.012-.363.02t-.543-.004-.637-.078-.691-.18-.656-.332-.586-.508-.426-.738-.223-.996q.547-.219 1.043-.285t.879.008.719.234.574.391.438.477.328.492.215.438.125.309l.031.125q.094-.953.094-1.523l-.168-.125q-.106-.078-.383-.348t-.496-.559-.422-.727-.258-.879.094-.992.547-1.082q.57.195.996.48t.66.598.375.664.16.695-.004.668-.102.598-.148.484-.133.328l-.055.117q.008.039.008.395t-.008.559q.023-.055.078-.145t.238-.336.395-.453.555-.434.715-.348.875-.113 1.035.187q-.016.609-.168 1.105t-.391.816-.543.559-.637.355-.66.187-.625.074-.527-.008-.363-.035l-.133-.023q-.18 1.148-.57 2.211.047-.055.141-.145t.387-.32.605-.41.777-.328.918-.156 1.008.184 1.07.605z"/></svg>