<svg xmlns="http://www.w3.org/2000/svg" width="14" height="14" viewBox="0 0 14 14"><path fill="#444" d="M12.617 0q.547 0 .957.363t.41.91q0 .492-.352 1.18-2.594 4.914-3.633 5.875-.758.711-1.703.711-.984 0-1.691-.723t-.707-1.715q0-1 .719-1.656L11.601.422Q12.062 0 12.617 0zM5.516 8.078q.305.594.832 1.016t1.176.594l.008.555q.031 1.664-1.012 2.711t-2.723 1.047q-.961 0-1.703-.363t-1.191-.996-.676-1.43T0 9.493l.32.234q.265.195.484.348t.461.285.359.133q.32 0 .43-.289.195-.516.449-.879t.543-.594.688-.371.805-.199.977-.082z"/></svg>