<svg xmlns="http://www.w3.org/2000/svg" width="11" height="14" viewBox="0 0 11 14"><path fill="#444" d="M10.969 10.82q0 .914-.617 1.531t-1.531.617q-1.055 0-1.836-.781L.915 6.124Q.032 5.226.032 4.007q0-1.242.859-2.109t2.102-.867q1.234 0 2.133.883l4.727 4.734q.078.078.078.172 0 .125-.238.363t-.363.238q-.102 0-.18-.078L4.416 2.601q-.617-.602-1.414-.602-.828 0-1.398.586t-.57 1.414q0 .82.594 1.414l6.063 6.07q.492.492 1.133.492.5 0 .828-.328t.328-.828q0-.641-.492-1.133L4.949 5.147q-.203-.187-.469-.187-.227 0-.375.148t-.148.375q0 .25.195.461l3.203 3.203q.078.078.078.172 0 .125-.242.367t-.367.242q-.094 0-.172-.078L3.449 6.647q-.492-.477-.492-1.164 0-.641.445-1.086t1.086-.445q.688 0 1.164.492l4.539 4.539q.781.766.781 1.836z"/></svg>