<svg xmlns="http://www.w3.org/2000/svg" width="10" height="14" viewBox="0 0 10 14"><path fill="#444" d="M9.984 1.477v.57q0 .227-.145.477t-.332.25q-.391 0-.422.008-.203.047-.25.242-.023.086-.023.5v9q0 .195-.141.336t-.336.141h-.844q-.195 0-.336-.141t-.141-.336V3.008H5.897v9.516q0 .195-.137.336t-.34.141h-.844q-.203 0-.34-.141t-.137-.336V8.649q-1.148-.094-1.914-.461-.984-.453-1.5-1.398-.5-.914-.5-2.023 0-1.297.688-2.234.688-.922 1.633-1.242.867-.289 3.258-.289h3.742q.195 0 .336.141t.141.336z"/></svg>