<svg xmlns="http://www.w3.org/2000/svg" width="14" height="14" viewBox="0 0 14 14"><path fill="#444" d="M6.86 9.8a4.036 4.036 0 0 1-2.45-.826l-1.05 1.834h1.4l.84 1.26L6.86 9.8l1.26 2.268.84-1.26h1.4L9.31 8.974a4.005 4.005 0 0 1-2.45.826zm1.12-2.66a.32.32 0 0 1-.154-.042L6.58 6.314V4.48c0-.154.126-.28.28-.28s.28.126.28.28v1.526l.994.616a.287.287 0 0 1 .084.392.275.275 0 0 1-.238.126z"/><path fill="#444" d="M8.778 9.016c-.266.154-.532.28-.812.364l-.168-.532a2.72 2.72 0 0 0 .686-.308l.294.476zm.49-.336l-.35-.434c.196-.168.378-.35.518-.546l.448.336a3.822 3.822 0 0 1-.616.644zm-1.876.826a3.825 3.825 0 0 1-.896.014l.056-.56c.252.028.504.014.756-.014l.084.56zm2.814-1.974l-.49-.266c.112-.224.21-.462.28-.714l.546.14a4.384 4.384 0 0 1-.336.84zm-4.298 1.89a3.27 3.27 0 0 1-.826-.322l.266-.49c.224.112.462.21.714.28l-.154.532zm4.718-3.304l-.56-.056a3.414 3.414 0 0 0-.014-.756l.56-.084c.042.294.056.602.014.896zm-6.048 2.66a4.47 4.47 0 0 1-.644-.616l.434-.35c.168.196.35.378.546.518l-.336.448zm5.908-4.13l-.532.168a2.516 2.516 0 0 0-.308-.686l-.014-.014.49-.28c.154.252.28.532.364.812zM4.074 7.392l-.49.28a3.909 3.909 0 0 1-.364-.826l.532-.168c.084.252.196.476.322.714zm5.278-3.696a3.913 3.913 0 0 0-.546-.532l.336-.448c.238.182.448.392.644.616l-.434.364zM3.654 6.188l-.56.07a3.825 3.825 0 0 1-.014-.896l.56.056c-.014.266-.014.518.014.77zm4.732-3.29a3.156 3.156 0 0 0-.714-.28l.14-.546c.294.07.56.182.826.322l-.252.504zm-4.648 2.03l-.546-.14c.07-.294.182-.56.322-.826l.49.266c-.112.224-.21.462-.266.7zm3.444-2.394a3.414 3.414 0 0 0-.756.014l-.07-.56c.294-.042.588-.042.896-.014l-.07.56zm-2.898 1.26l-.448-.336a4.47 4.47 0 0 1 .616-.644l.35.434c-.182.168-.364.35-.518.546zM5.922 2.66c-.238.07-.476.182-.686.308l-.014.014-.266-.49c.252-.154.532-.266.812-.35l.154.518z"/></svg>