<svg xmlns="http://www.w3.org/2000/svg" width="13" height="14" viewBox="0 0 13 14"><path fill="#444" d="M6.094 3.687q0 .469-.148.887t-.492.723-.82.305q-.594 0-1.078-.449t-.719-1.059-.234-1.18q0-.469.148-.887t.492-.723.82-.305q.602 0 1.082.449t.715 1.055.234 1.184zM3.422 7.461q0 .625-.328 1.086t-.93.461q-.594 0-1.105-.434T.274 7.531.001 6.344q0-.625.328-1.09t.93-.465q.594 0 1.105.434t.785 1.047.273 1.191zM6.5 7.25q.922 0 1.992.762t1.789 1.852.719 1.988q0 .359-.133.598t-.379.352-.504.156-.594.043q-.531 0-1.465-.352t-1.426-.352q-.516 0-1.504.348t-1.566.348q-1.43 0-1.43-1.141 0-.672.438-1.496t1.09-1.504 1.465-1.141T6.5 7.25zm1.867-1.648q-.477 0-.82-.305t-.492-.723-.148-.887q0-.578.234-1.184t.715-1.055T8.938.999q.477 0 .82.305t.492.723.148.887q0 .57-.234 1.18t-.719 1.059-1.078.449zm3.375-.813q.602 0 .93.465T13 6.344q0 .578-.273 1.187t-.785 1.043-1.105.434q-.602 0-.93-.461t-.328-1.086q0-.578.273-1.191t.785-1.047 1.105-.434z"/></svg>