<svg xmlns="http://www.w3.org/2000/svg" width="12" height="14" viewBox="0 0 12 14"><path fill="#444" d="M11.867 5.047q.141.656-.031 1.594-.68 3.469-4.414 3.469h-.344q-.195 0-.344.129t-.187.332l-.031.148-.43 2.703-.016.117q-.039.203-.191.332T5.531 14H3.57q-.164 0-.258-.117t-.07-.281l.207-1.313.207-1.313.211-1.309.211-1.309q.039-.289.336-.289h1.023q1.039.016 1.844-.164Q8.648 7.6 9.523 6.78q.797-.742 1.211-1.922.187-.547.273-1.039.008-.047.02-.059t.027-.008.047.027q.617.461.766 1.266zm-1.344-2.203q0 .836-.359 1.844-.625 1.82-2.359 2.461-.883.312-1.969.328 0 .008-.703.008l-.703-.008q-.781 0-.922.75-.016.062-.664 4.141-.008.078-.094.078H.445q-.172 0-.285-.129t-.09-.301L1.882.524q.039-.227.215-.375t.402-.148h4.672q.266 0 .762.102t.871.25q.836.32 1.277.961t.441 1.531z"/></svg>