<svg xmlns="http://www.w3.org/2000/svg" width="12" height="14" viewBox="0 0 12 14"><path fill="#444" d="M3.156 8.656l1.187 1.187-.406.406h-.438v-.75h-.75v-.438zm3.235-3.047q.109.102-.023.234L4.095 8.116q-.133.133-.234.023-.109-.102.023-.234l2.273-2.273q.133-.133.234-.023zM4.25 11L8.5 6.75 6.25 4.5 2 8.75V11h2.25zM9 6.25l.719-.719q.219-.219.219-.531t-.219-.531L8.532 3.282q-.219-.219-.531-.219t-.531.219l-.719.719zm3-3v7.5q0 .93-.66 1.59T9.75 13h-7.5q-.93 0-1.59-.66T0 10.75v-7.5q0-.93.66-1.59T2.25 1h7.5q.93 0 1.59.66T12 3.25z"/></svg>