<svg xmlns="http://www.w3.org/2000/svg" width="11" height="14" viewBox="0 0 11 14"><path fill="#444" d="M11 9.687q0 .211-.078.551t-.164.535q-.164.391-.953.828-.734.398-1.453.398-.211 0-.41-.027t-.449-.098-.371-.113-.434-.16-.383-.141q-.766-.273-1.367-.648-1-.617-2.066-1.684T1.188 7.062Q.813 6.46.54 5.695q-.023-.07-.141-.383t-.16-.434-.113-.371-.098-.449-.027-.41q0-.719.398-1.453.438-.789.828-.953.195-.086.535-.164T2.313 1q.109 0 .164.023.141.047.414.594.086.148.234.422t.273.496.242.418l.137.195q.114.164.168.277T4 3.648q0 .156-.223.391t-.484.43-.484.414-.223.359q0 .07.039.176t.066.16.109.187.09.148q.594 1.07 1.359 1.836t1.836 1.359q.016.008.148.09t.187.109.16.066.176.039q.141 0 .359-.223t.414-.484.43-.484.391-.223q.109 0 .223.055t.277.168.195.137q.195.117.418.242t.496.273.422.234q.547.273.594.414.023.055.023.164z"/></svg>