<svg xmlns="http://www.w3.org/2000/svg" width="12" height="14" viewBox="0 0 12 14"><path fill="#444" d="M10 9.32q0-.086-.016-.125-.023-.062-.301-.23t-.691-.387l-.414-.227q-.039-.023-.148-.102t-.195-.117-.164-.039q-.141 0-.367.254t-.445.512-.344.258q-.055 0-.129-.027t-.121-.051-.133-.074-.109-.066q-.773-.43-1.332-.988t-.988-1.332q-.016-.023-.066-.109t-.074-.133-.051-.121-.027-.129q0-.102.16-.262t.352-.301.352-.309.16-.285q0-.078-.039-.164t-.117-.195-.102-.148q-.023-.047-.117-.223t-.195-.355-.207-.371-.195-.316-.129-.141-.125-.016q-.375 0-.789.172-.359.164-.625.738t-.266 1.02q0 .125.02.266t.039.238.07.258.078.23.098.258.086.234q.469 1.281 1.691 2.504t2.504 1.691q.047.016.234.086t.258.098.23.078.258.07.238.039.266.02q.445 0 1.02-.266t.738-.625q.172-.414.172-.789zm2-6.07v7.5q0 .93-.66 1.59T9.75 13h-7.5q-.93 0-1.59-.66T0 10.75v-7.5q0-.93.66-1.59T2.25 1h7.5q.93 0 1.59.66T12 3.25z"/></svg>