<svg xmlns="http://www.w3.org/2000/svg" width="16" height="14" viewBox="0 0 16 14"><path fill="#444" d="M9.547 7.258q.586-.023 1.121.16t.922.457.789.738.656.844.59.941q.258.438.613.852t.59.629.773.691q-.375.234-.848.449t-1.082.461-.891.371q-.344-.289-.578-.898t-.34-1.285-.258-1.41-.332-1.316-.566-.961-.957-.379l-.078.016-.047.031q.031.039.102.109l.219.184q.172.145.199.172t.148.141.141.16.09.164.082.215.035.242.031.316l.008.258q.008.203-.02.449t-.059.406-.098.457-.09.414q-.273-.008-.789.074t-.766.082q-.305 0-.563-.078-.016-.125-.016-.367 0-.578.023-.75.016-.102.246-.324t.445-.461.207-.402q-.187-.016-.336.187-.281.414-.871.777t-1.066.363q-.195 0-.59-.492t-.832-1.09-.656-.754q-.047-.031-.211-.234-3.766.875-4.008.875-.125 0-.219-.086t-.094-.211q0-.117.066-.207t.176-.113l3.797-.828q-.062-.109-.062-.195t.043-.137.125-.09.156-.055.18-.035.145-.035q.031-.008.121-.059T5.2 6.64q.117 0 .219.125t.156.258q1.273-.289 1.344-.289.133 0 .23.086t.098.219q0 .117-.066.203t-.184.109l-1.422.312-.008.125q-.008.203.637.918t.816.715q.367 0 .93-.625t.563-1.008q0-.281-.184-.414t-.398-.145-.398-.09-.184-.266q0-.125.078-.266l-.531-.148q.336-.344.336-.914 0-.203-.039-.453.641-.125 1.125-.125.344 0 .559.012t.379.066.242.105.16.191.121.262.133.371.187.469l.391-.195q-.023.312-.18.469t-.332.164-.312.051-.129.16zm.469-1.836q-.039-.039-.105-.121t-.094-.113-.082-.09-.078-.082l-.062-.062-.066-.059-.062-.039-.066-.035q-.055-.023-.113-.039t-.16-.02-.172-.004h-.547q-.984 0-1.695.336.125-.234.281-.363t.422-.23.512-.281.359-.285.391-.43.34-.395q.094.07.219.246t.25.285.297.102l.094-.008v.594l.172.008q1.93-.742 2.898-1.484.219-.164.391-.305t.332-.293.258-.242.23-.266.187-.242.191-.289.18-.297.211-.371.23-.414l.055-.07q-.016.414-.336 1.086-.617 1.289-1.602 2.062t-2.391 1.109q-.109.023-.328.059t-.391.074-.305.109q.023.148.191.359t.168.266q0 .086-.203.234zm-1.727 7.195q.305-.203 1.027-.371t1.145-.168q.07 0 .176.121t.219.332.203.391.187.398.113.258q-.945.352-1.906.352-.477 0-.977-.086zM6.422 7.563l.375-.094.852 1.383-.57.375zm3.914 4.039q.023.117.023.125 0 .055-.137.113t-.359.102-.422.074-.418.059-.25.035l-.055-.336q.164-.016.473-.066t.563-.078.473-.027h.109zm-3.57-4.907l-.75.156-.047-.133q.078-.008.254-.055t.27-.047q.148 0 .273.078zm1.523 4.953h.242l.078.648-.32.094v-.742zM15.234.008zm0 0l-.008.039-.016.016.008-.023zm0 0L15.242 0z"/></svg>