<svg xmlns="http://www.w3.org/2000/svg" width="12" height="14" viewBox="0 0 12 14"><path fill="#444" d="M8.172 7.969q0 .5-.297.852t-.711.352q-.336 0-.547-.117V6.892q.219-.133.547-.133.414 0 .711.355t.297.855zm-2.68-3.344q0 .5-.297.855t-.711.355q-.336 0-.547-.117V3.554q.219-.133.547-.133.414 0 .711.352t.297.852zm4.391 3.367q0-1.047-.688-1.789t-1.664-.742q-.156 0-.305.023-.18.609-.609 1.062-.68.742-1.648.789v4.969l1.648-.32v-1.609q.398.148.914.148.977 0 1.664-.742t.688-1.789zm-2.68-3.336q0-1.047-.691-1.789t-1.668-.742q-.578 0-1.102.281H2.289v6.563l1.648-.32V7.04q.43.148.906.148.977 0 1.668-.742t.691-1.789zM12 3.25v7.5q0 .93-.66 1.59T9.75 13h-7.5q-.93 0-1.59-.66T0 10.75v-7.5q0-.93.66-1.59T2.25 1h7.5q.93 0 1.59.66T12 3.25z"/></svg>