<svg xmlns="http://www.w3.org/2000/svg" width="12" height="14" viewBox="0 0 12 14"><path fill="#444" d="M9.75 1q.93 0 1.59.66T12 3.25v7.5q0 .93-.66 1.59T9.75 13H4.086q.664-.953.844-1.641.07-.266.414-1.633.164.305.574.523t.879.219q1.414 0 2.309-1.152t.895-2.918q0-.656-.273-1.27t-.754-1.086-1.191-.758-1.539-.285q-.813 0-1.52.223t-1.195.598-.84.855-.52 1-.168 1.035q0 .797.309 1.406t.91.859q.102.039.184 0t.113-.148q.078-.344.117-.477.047-.18-.086-.328-.391-.484-.391-1.172 0-1.172.809-2.004t2.113-.832q1.164 0 1.816.633t.652 1.641q0 1.313-.527 2.234t-1.355.922q-.469 0-.758-.34t-.18-.809q.062-.266.207-.723t.23-.797.086-.582q0-.383-.207-.637t-.59-.254q-.477 0-.809.441t-.332 1.09q0 .563.187.945l-.766 3.234q-.187.781-.055 1.984h-1.43q-.93 0-1.59-.66t-.66-1.59v-7.5q0-.93.66-1.59t1.59-.66h7.5z"/></svg>