<svg xmlns="http://www.w3.org/2000/svg" width="10" height="14" viewBox="0 0 10 14"><path fill="#444" d="M0 4.664q0-.844.293-1.59t.809-1.301T2.289.812 3.734.203 5.312 0q1.234 0 2.297.52t1.727 1.512T10 4.274q0 .75-.148 1.469t-.469 1.383-.781 1.168-1.133.805-1.477.301q-.531 0-1.055-.25t-.75-.688q-.078.305-.219.879t-.184.742-.16.555-.203.555-.25.488-.359.605-.484.676l-.109.039-.07-.078q-.117-1.227-.117-1.469 0-.719.168-1.613t.52-2.246.406-1.586q-.25-.508-.25-1.32 0-.648.406-1.219t1.031-.57q.477 0 .742.316t.266.801q0 .516-.344 1.492T4.633 6.97q0 .492.352.816t.852.324q.43 0 .797-.195t.613-.531.438-.742.297-.863.156-.867.051-.777q0-1.352-.855-2.105t-2.23-.754q-1.563 0-2.609 1.012T1.448 4.854q0 .344.098.664t.211.508.211.355.098.238q0 .219-.117.57t-.289.352q-.016 0-.133-.023-.398-.117-.707-.438t-.477-.738-.254-.844-.086-.832z"/></svg>