<svg xmlns="http://www.w3.org/2000/svg" width="12" height="14" viewBox="0 0 12 14"><path fill="#444" d="M12 7q0 1.633-.805 3.012t-2.184 2.184-3.012.805q-.867 0-1.703-.25.461-.727.609-1.281.07-.266.422-1.648.156.305.57.527t.891.223q.945 0 1.688-.535t1.148-1.473.406-2.109q0-.891-.465-1.672T8.217 3.51t-1.992-.492q-.82 0-1.531.227t-1.207.602-.852.863-.523 1.012-.168 1.047q0 .813.312 1.43t.914.867q.234.094.297-.156.016-.055.062-.242t.062-.234q.047-.18-.086-.336-.398-.477-.398-1.18 0-1.18.816-2.027t2.137-.848q1.18 0 1.84.641t.66 1.664q0 1.328-.535 2.258t-1.371.93q-.477 0-.766-.34t-.18-.816q.062-.273.207-.73t.234-.805.09-.59q0-.391-.211-.648t-.602-.258q-.484 0-.82.445T4.27 6.903q0 .57.195.953l-.773 3.266q-.133.547-.102 1.383-1.609-.711-2.602-2.195t-.992-3.305q0-1.633.805-3.012t2.184-2.184 3.012-.805 3.012.805 2.184 2.184.805 3.012z"/></svg>