<svg xmlns="http://www.w3.org/2000/svg" width="11" height="14" viewBox="0 0 11 14"><path fill="#444" d="M10.75 1.25q.344.406.094 1.156T10 3.75L8.742 5.008l1.25 5.437q.039.148-.094.258l-1 .75q-.055.047-.148.047-.031 0-.055-.008-.117-.023-.164-.125l-2.18-3.969-2.023 2.023.414 1.516q.039.133-.062.242l-.75.75q-.07.07-.18.07h-.016q-.117-.016-.187-.102L2.07 9.928.101 8.451q-.086-.055-.102-.18-.008-.102.07-.195l.75-.758q.07-.07.18-.07.047 0 .062.008l1.516.414L4.6 5.647.631 3.467Q.522 3.405.498 3.28q-.016-.125.07-.211l1-1q.109-.102.234-.062l5.195 1.242 1.25-1.25q.594-.594 1.344-.844t1.156.094z"/></svg>