<svg xmlns="http://www.w3.org/2000/svg" width="14" height="14" viewBox="0 0 14 14"><path fill="#444" d="M8.82 4.06h-.98c-1.288 0-2.38 1.092-2.38 2.38v1.68h.56v-.98c0-.896.504-1.75 1.33-2.226.07-.042.154-.014.196.056s.014.154-.056.196c-.728.42-1.19 1.176-1.19 1.974h.14c1.092 0 1.96-.812 1.96-1.946 0-.448.126-.826.462-1.008.056-.056.014-.126-.042-.126z"/><path fill="#444" d="M10.78 5.88c0-2.156-1.764-3.92-3.92-3.92S2.94 3.724 2.94 5.88c0 1.246.574 2.352 1.484 3.066l-1.05 1.834h1.4l.84 1.26 1.26-2.24 1.26 2.24.84-1.26h1.4l-1.05-1.848A3.951 3.951 0 0 0 10.78 5.88zM7.182 9.226c-.098.014-.21.014-.322.014-.098 0-.196 0-.294-.014a3.23 3.23 0 0 1-1.862-.77A3.33 3.33 0 0 1 3.5 5.88c0-1.848 1.512-3.36 3.36-3.36s3.36 1.512 3.36 3.36a3.36 3.36 0 0 1-1.176 2.548 3.3 3.3 0 0 1-1.862.798z"/></svg>