<svg xmlns="http://www.w3.org/2000/svg" width="11" height="14" viewBox="0 0 11 14"><path fill="#444" d="M9 6.25v.5q0 .109-.07.18T8.75 7H6v2.75q0 .109-.07.18t-.18.07h-.5q-.109 0-.18-.07T5 9.75V7H2.25q-.109 0-.18-.07T2 6.75v-.5q0-.109.07-.18T2.25 6H5V3.25q0-.109.07-.18T5.25 3h.5q.109 0 .18.07t.07.18V6h2.75q.109 0 .18.07t.07.18zm1 3.5v-6.5q0-.516-.367-.883T8.75 2h-6.5q-.516 0-.883.367T1 3.25v6.5q0 .516.367.883T2.25 11h6.5q.516 0 .883-.367T10 9.75zm1-6.5v6.5q0 .93-.66 1.59T8.75 12h-6.5q-.93 0-1.59-.66T0 9.75v-6.5q0-.93.66-1.59T2.25 1h6.5q.93 0 1.59.66T11 3.25z"/></svg>