<svg xmlns="http://www.w3.org/2000/svg" width="12" height="14" viewBox="0 0 12 14"><path fill="#444" d="M12 7q0 1.219-.477 2.328t-1.281 1.914-1.914 1.281T6 13t-2.328-.477-1.914-1.281T.477 9.328 0 7q0-1.422.629-2.68t1.77-2.109q.336-.25.746-.195t.652.391q.25.328.191.738t-.387.66q-.766.578-1.184 1.414T1.999 7q0 .813.316 1.551t.855 1.277 1.277.855 1.551.316 1.551-.316 1.277-.855.855-1.277T9.997 7q0-.945-.418-1.781T8.395 3.805q-.328-.25-.387-.66t.191-.738q.242-.336.656-.391t.742.195q1.141.852 1.77 2.109T11.996 7zM7 1v5q0 .406-.297.703T6 7t-.703-.297T5 6V1q0-.406.297-.703T6 0t.703.297T7 1z"/></svg>