<svg xmlns="http://www.w3.org/2000/svg" width="13" height="14" viewBox="0 0 13 14"><path fill="#444" d="M3 12h7v-2H3v2zm0-5h7V4H8.75q-.312 0-.531-.219T8 3.25V2H3v5zm9 .5q0-.203-.148-.352T11.5 7t-.352.148T11 7.5t.148.352T11.5 8t.352-.148T12 7.5zm1 0v3.25q0 .102-.074.176T12.75 11H11v1.25q0 .312-.219.531T10.25 13h-7.5q-.312 0-.531-.219T2 12.25V11H.25q-.102 0-.176-.074T0 10.75V7.5q0-.617.441-1.059T1.5 6H2V1.75q0-.312.219-.531T2.75 1H8q.312 0 .688.156t.594.375l1.187 1.187q.219.219.375.594T11 4v2h.5q.617 0 1.059.441T13 7.5z"/></svg>