<svg xmlns="http://www.w3.org/2000/svg" width="14" height="14" viewBox="0 0 14 14"><path fill="#444" d="M6.37 6.09h1.204v1.204H6.37V6.09zm-.714-1.834l-.392.7-.406.686h1.61l-.406-.686z"/><path fill="#444" d="M10.5 9.702l-.196.196-.392-.392a1.826 1.826 0 0 0-1.428-2.898v-3.5H7.168V1.96H2.24v6.398h1.316V9.52h3.43a1.83 1.83 0 0 0 1.456.742c.406 0 .77-.126 1.078-.35l.392.392-.21.196 1.526 1.526.798-.798L10.5 9.702zM3.556 7.798H2.8V2.52h3.808v.602H3.556v4.676zm3.066.644c0 .182.028.35.084.518h-2.59V3.682h3.822v3.01a1.819 1.819 0 0 0-1.316 1.75zm1.82 1.26c-.238 0-.448-.07-.644-.182a1.226 1.226 0 0 1-.504-.56 1.256 1.256 0 0 1 1.148-1.778h.042c.672.028 1.218.574 1.218 1.26s-.574 1.26-1.26 1.26z"/><path fill="#444" d="M6.076 7.644a.755.755 0 1 1-1.51.001.755.755 0 0 1 1.51-.001z"/></svg>