<svg xmlns="http://www.w3.org/2000/svg" width="14" height="14" viewBox="0 0 14 14"><path fill="#444" d="M9.24 10.08H6.608l-.042.084a.75.75 0 0 1-.658.42.719.719 0 0 1-.518-.21L4.186 9.268a.83.83 0 0 0-.266-.154.826.826 0 0 0-.196-.028v-.35c.112 0 .21.014.308.042.196.056.35.182.434.252l1.162 1.092c.084.07.182.098.28.098.168 0 .322-.126.392-.266a.497.497 0 0 0 .028-.14.472.472 0 0 0-.126-.308l-2.198-2.31a1.227 1.227 0 0 0-.882-.364H1.96V8.82h.378c.21 0 .406.084.546.224L4.55 10.71c.308.308.742.49 1.19.49h3.5c.308 0 .56-.252.56-.56s-.252-.56-.56-.56z"/><path fill="#444" d="M12.04 7.28s0-.014 0 0c0-.028 0-.042-.014-.056l-1.12-3.22c0-.014-.014-.028-.014-.028l-.014-.014-.028-.028h-.014c-.014 0-.028-.014-.042-.014H8.848l-.028-.84c0-.07-.07-.14-.14-.14s-.14.056-.14.14l-.028.84h-1.96c-.014 0-.028.014-.042.014h-.014c-.014 0-.014.014-.028.028l-.014.014c-.014.014-.014.028-.014.028l-1.12 3.22v.056c.014.532.574.966 1.26.966s1.246-.434 1.26-.966 0 0 0-.014v-.042L6.79 4.186h1.736L8.4 8.4c-1.036.056-1.82.336-1.82.686h4.34c0-.364-.868-.658-1.96-.7l-.112-4.2h1.736l-1.05 3.038v.056c.014.532.574.966 1.26.966s1.232-.434 1.246-.966zm-6.426-.014l.826-2.394v2.394h-.826zm1.932 0H6.72V4.872l.826 2.394zm2.268 0l.826-2.394v2.394h-.826zm1.106-2.394l.826 2.394h-.826V4.872z"/></svg>