<svg xmlns="http://www.w3.org/2000/svg" width="14" height="14" viewBox="0 0 14 14"><path fill="#444" d="M8.68 6.02c0 .7-.56 1.26-1.26 1.26s-1.26-.56-1.26-1.26.56-1.26 1.26-1.26 1.26.56 1.26 1.26zM6.86 9.24h1.12v.28H6.86v-.28zm1.12.616V9.8H6.86v.28h.77a.838.838 0 0 1 .35-.224zm-1.12.504v.28h.56c0-.098.014-.196.056-.28H6.86zm0 .56v.28h.77a1.144 1.144 0 0 1-.168-.28H6.86z"/><path fill="#444" d="M11.116 10.346L10.01 8.54a1.569 1.569 0 0 0-1.386-.826H6.272L4.928 7.14l-.476-1.442a.563.563 0 0 0-1.064.364l.56 1.68c.056.154.168.28.308.336l1.344.56v3.402h3.5v-.56H6.58V8.96h1.68v.84h.84v-.602l.546.882H8.26c-.308 0-.56.252-.56.56s.252.56.56.56h2.38a.582.582 0 0 0 .49-.28.562.562 0 0 0-.014-.574zM4.2 4.62h-.56c-.084 0-.14-.056-.14-.14s.056-.14.14-.14h.56c.084 0 .14.056.14.14s-.056.14-.14.14zm-.14.42h-.28c-.084 0-.14-.056-.14-.14s.056-.14.14-.14h.28c.084 0 .14.056.14.14s-.056.14-.14.14zm.77-2.17c0-.504-.406-.91-.91-.91s-.91.406-.91.91c0 .224.07.42.21.574.294.364.28.616.28.616 0 .084.056.14.14.14h.56c.084 0 .14-.056.14-.14 0 0-.014-.252.28-.616a.83.83 0 0 0 .21-.574z"/></svg>