<svg xmlns="http://www.w3.org/2000/svg" width="14" height="14" viewBox="0 0 14 14"><path fill="#444" d="M12.04 1.96H1.96v10.08h.98V7.98h9.1L9.24 4.9l2.8-2.94zM6.804 7.084h-.098a.191.191 0 0 1-.196.196h-.196a.191.191 0 0 1-.196-.196H6.02c-.112 0-.196-.084-.196-.196s.084-.196.196-.196h.784c.112 0 .196.084.196.196s-.098.196-.196.196zm0-.588H6.02c-.112 0-.196-.084-.196-.196s.084-.196.196-.196h.784c.112 0 .196.084.196.196s-.098.196-.196.196zm.616-1.61c-.112.126-.42.504-.42.826v.014a.191.191 0 0 1-.196.196H6.02a.191.191 0 0 1-.196-.196c0-.336-.35-.756-.448-.854a1.364 1.364 0 0 1-.336-.896c0-.756.616-1.372 1.372-1.372s1.372.616 1.372 1.372c-.014.336-.14.658-.364.91z"/></svg>