<svg xmlns="http://www.w3.org/2000/svg" width="13" height="14" viewBox="0 0 13 14"><path fill="#444" d="M13 8.578q0 .633-.348 1.055t-.965.422q-.32 0-.605-.137t-.461-.297-.441-.297-.555-.137q-.859 0-.859.969 0 .305.125.898t.117.898v.039q-.172 0-.258.008-.266.023-.762.09t-.902.105-.766.039q-.477 0-.805-.207t-.328-.652q0-.289.137-.555t.297-.441.297-.461.137-.605q0-.617-.422-.965t-1.055-.348q-.656 0-1.117.355T3 9.35q0 .336.117.648t.262.504.262.414.117.395q0 .352-.359.695-.289.273-.914.273-.742 0-1.914-.187-.07-.016-.215-.031t-.215-.031l-.102-.016q-.008 0-.023-.008-.016 0-.016-.008v-8q.016.008.137.027t.266.039.168.027q1.172.187 1.914.187.625 0 .914-.273.359-.344.359-.695 0-.172-.117-.395t-.262-.414-.262-.504T3 1.349q0-.641.461-.996t1.125-.355q.625 0 1.047.348t.422.965q0 .32-.137.605t-.297.461-.297.441-.137.555q0 .445.328.652t.805.207q.5 0 1.406-.117t1.273-.133v.016q-.008.016-.027.137t-.039.266-.027.168q-.187 1.172-.187 1.914 0 .625.273.914.344.359.695.359.172 0 .395-.117t.414-.262.504-.262.648-.117q.641 0 .996.461t.355 1.117z"/></svg>