<svg xmlns="http://www.w3.org/2000/svg" width="18" height="14" viewBox="0 0 18 14"><path fill="#444" d="M10.867 8.953l-.008-.008q-.117-.141-.27-.293t-.488-.449-.73-.484-.746-.187q-.375 0-.648.168t-.398.422-.18.461-.055.371q0 .164.055.375t.18.461.398.418.648.168q.352 0 .746-.187t.734-.488.484-.445.27-.293zm5.563 0q0-.164-.055-.371t-.18-.461-.398-.422-.648-.168q-.352 0-.746.187t-.734.488-.484.445-.27.293l-.008.008.008.008q.117.141.27.293t.488.449.73.484.746.187q.375 0 .648-.168t.398-.418.18-.461.055-.375zM18 8.93q0 .539-.187 1.074t-.531.984-.906.73-1.242.281q-.531 0-1.047-.187t-.887-.457-.66-.543-.465-.461-.199-.187-.176.187-.426.457-.637.543-.898.461-1.121.187q-.508 0-.965-.176t-.754-.422-.52-.52-.32-.465-.098-.254q0 .062-.066.207t-.195.355-.367.43-.539.41-.754.312-.977.121q-.555 0-1.016-.121t-.77-.309-.551-.441-.375-.496-.215-.496-.109-.422T0 9.427h1.695q0 .43.383.84t.984.41q.617 0 1.051-.523t.434-1.156q0-.625-.406-1.066t-1.078-.441q-.039 0-.102.004t-.242.039-.336.094-.328.191-.266.312H.266l.797-4.555h4.703v1.359H2.289q-.211 1.242-.32 1.937.031 0 .129-.102t.246-.223.508-.223.844-.102.891.16.645.387.402.457.242.391.086.16.102-.195.285-.473.473-.559.758-.477 1.039-.195 1.098.195.902.473.652.559.441.477.164.195q.016 0 .172-.195t.438-.473.652-.559.902-.477 1.094-.195q.719 0 1.285.273t.902.727.508.977.172 1.07z"/></svg>