<svg xmlns="http://www.w3.org/2000/svg" width="14" height="14" viewBox="0 0 14 14"><path fill="#444" d="M2.109 6.297q-.062-.148-.062-.406 0-.156.086-.383t.187-.352q-.008-.172.059-.414t.176-.336q0-1.086.723-2.254T4.977.515q1.086-.516 2.531-.516 1.039 0 2.078.43.383.164.703.375t.555.438.43.531.328.578.254.66.199.699.172.766l.008.039q.43.648.43 1.172 0 .109-.07.312t-.07.297q0 .008.012.027t.027.039.016.027q.602.891.941 1.676t.34 1.629q0 .336-.152.781t-.434.445q-.07 0-.152-.059t-.148-.137-.148-.203-.125-.207-.105-.203-.07-.137q-.008-.008-.023-.008l-.039.031q-.461 1.203-1.031 1.742.156.156.48.301t.539.324.277.508q-.016.031-.031.125t-.055.141q-.5.758-2.359.758-.414 0-.863-.07t-.766-.156-.816-.234q-.117-.039-.18-.055-.109-.031-.359-.035t-.312-.012q-.32.352-.996.508t-1.316.156q-.273 0-.539-.012t-.727-.07-.789-.16-.582-.312-.254-.5q0-.312.078-.465t.32-.379q.086-.016.316-.102t.387-.094q.031 0 .109-.016.016-.016.016-.031l-.016-.023q-.375-.086-.844-.824t-.57-1.223l-.039-.023q-.031 0-.094.156-.141.32-.426.582t-.605.293H.41q-.031 0-.047-.035t-.039-.043q-.18-.422-.18-.781 0-2.148 1.969-3.641z"/></svg>