<svg xmlns="http://www.w3.org/2000/svg" width="8" height="14" viewBox="0 0 8 14"><path fill="#444" d="M5.5 9.812v1.875q0 .125-.094.219T5.187 12H3.312q-.125 0-.219-.094t-.094-.219V9.812q0-.125.094-.219t.219-.094h1.875q.125 0 .219.094t.094.219zm2.469-4.687q0 .422-.121.789t-.273.598-.43.465-.449.34-.477.277q-.32.18-.535.508t-.215.523q0 .133-.094.254T5.156 9H3.281q-.117 0-.199-.145T3 8.562V8.21q0-.648.508-1.223t1.117-.848q.461-.211.656-.438t.195-.594q0-.328-.363-.578t-.84-.25q-.508 0-.844.227-.273.195-.836.898-.102.125-.242.125-.094 0-.195-.062L.875 4.49q-.102-.078-.121-.195t.043-.219q1.25-2.078 3.625-2.078.625 0 1.258.242t1.141.648.828.996.32 1.238z"/></svg>