<svg xmlns="http://www.w3.org/2000/svg" width="13" height="14" viewBox="0 0 13 14"><path fill="#444" d="M6 7.5v3q0 .625-.438 1.062T4.5 12h-3q-.625 0-1.062-.438T0 10.5V5q0-.813.316-1.551t.855-1.277 1.277-.855 1.551-.316h.5q.203 0 .352.148t.148.352v1q0 .203-.148.352t-.352.148h-.5q-.828 0-1.414.586t-.586 1.414v.25q0 .312.219.531t.531.219h1.75q.625 0 1.062.438t.438 1.062zm7 0v3q0 .625-.438 1.062T11.5 12h-3q-.625 0-1.062-.438T7 10.5V5q0-.813.316-1.551t.855-1.277 1.277-.855 1.551-.316h.5q.203 0 .352.148t.148.352v1q0 .203-.148.352t-.352.148h-.5q-.828 0-1.414.586t-.586 1.414v.25q0 .312.219.531t.531.219h1.75q.625 0 1.062.438t.438 1.062z"/></svg>