<svg xmlns="http://www.w3.org/2000/svg" width="14" height="14" viewBox="0 0 14 14"><path fill="#444" d="M.148 6.828q.062-1.695.906-3.172t2.383-2.484h.039q0 .008-.008.023-.062.062-.219.262t-.406.598-.469.863-.348 1.059-.109 1.176.305 1.23.848 1.203q.391.391.797.543t.707.09.543-.184.367-.254l.125-.125q.305-.398.414-.91t.051-.957-.164-.836-.207-.625l-.109-.227q-.078-.195-.238-.387t-.336-.32-.34-.23-.273-.148l-.102-.047.813-.898q.305.133.609.406t.461.477l.148.211q.008-.375-.145-.809t-.316-.684l-.156-.242L6.977 0l1.25 1.414q-.258.359-.41.801t-.176.707l-.031.258q.172-.289.48-.566t.527-.41l.219-.133.805.898q-.344.109-.664.391t-.469.508l-.148.227q-.242.438-.375 1.043T7.93 6.466t.445 1.223q.258.352.605.473t.664.043.594-.207.449-.262l.164-.125q.469-.414.754-.898t.379-.949.078-.949-.141-.922-.289-.84-.355-.727-.352-.563-.27-.371l-.102-.133q-.109-.102-.055-.102l.078.023q.312.227.488.359t.484.391.5.453.457.508.434.602.355.688.297.805.184.914.082 1.062q.023 2.023-.844 3.633t-2.438 2.508-3.562.898q-1.445 0-2.742-.578t-2.215-1.547T.618 9.587.145 6.829z"/></svg>