<svg xmlns="http://www.w3.org/2000/svg" width="14" height="14" viewBox="0 0 14 14"><path fill="#444" d="M5.203 3.758q-.469.719-1.07 2.133-.172-.352-.289-.566t-.316-.496-.398-.441-.492-.273-.637-.113H.251q-.109 0-.18-.07t-.07-.18v-1.5q0-.109.07-.18t.18-.07h1.75q1.953 0 3.203 1.758zM14 10q0 .109-.07.18l-2.5 2.5q-.07.07-.18.07-.102 0-.176-.074T11 12.5V11q-.25 0-.664.004t-.633.008-.57-.008-.555-.039-.5-.082-.492-.145-.453-.223-.461-.312-.43-.418-.438-.543q.461-.727 1.062-2.133.172.352.289.566t.316.496.398.441.492.273.637.113h2v-1.5q0-.109.07-.18t.18-.07q.094 0 .187.078l2.492 2.492q.07.07.07.18zm0-7q0 .109-.07.18l-2.5 2.5q-.07.07-.18.07-.102 0-.176-.074T11 5.5V4H9q-.375 0-.68.117t-.539.352-.398.48-.352.605q-.25.484-.609 1.336-.227.516-.387.867t-.422.82-.5.781-.578.648-.703.535-.832.328-1 .129H.25q-.109 0-.18-.07t-.07-.18v-1.5q0-.109.07-.18t.18-.07H2q.375 0 .68-.117t.539-.352.398-.48.352-.605q.25-.484.609-1.336.227-.516.387-.867t.422-.82.5-.781.578-.648.703-.535T8 2.129 9 2h2V.5q0-.109.07-.18t.18-.07q.094 0 .187.078l2.492 2.492q.07.07.07.18z"/></svg>