<svg xmlns="http://www.w3.org/2000/svg" width="14" height="14" viewBox="0 0 14 14"><path fill="#444" d="M6.531 9.133l-.117 2.875-.016.172-3.281-.227q-.281-.023-.523-.246t-.367-.512q-.086-.211-.113-.43t.031-.508.094-.43.168-.5.148-.414q.609.094 3.977.219zM3.508 4.555l1.406 2.961-1.148-.719q-.492.563-.871 1.129t-.566.977-.309.738-.145.492l-.031.164L.36 7.508Q.227 7.305.219 7.07t.047-.367l.062-.141q.273-.492.891-1.469L.125 4.421zm9.617 4.039l-1.469 2.805q-.094.227-.285.363t-.34.16l-.141.031q-.555.055-1.711.094l.062 1.281-1.797-2.867 1.648-2.828.055 1.352q1.328.125 2.211.039t1.328-.258zM6.992 1.375q-.367.492-2.07 3.398L2.445 3.312l-.148-.094L4.055.437q.156-.242.469-.352t.625-.078q.187.016.379.094t.328.164.324.258.281.27.281.309.25.273zm5.117 2.398l1.656 2.836q.141.289.098.594t-.215.578q-.102.156-.258.289t-.297.219-.379.172-.367.125-.402.109-.359.094q-.266-.563-2.07-3.406l2.445-1.523zm-1.117-1.765l1.109-.648-1.719 2.914-3.273-.156 1.18-.672q-.266-.695-.586-1.297t-.59-.965-.504-.625-.367-.363L6.109.094l3.164.008q.242-.023.453.082t.305.223l.086.117q.305.477.875 1.484z"/></svg>