<svg xmlns="http://www.w3.org/2000/svg" width="14" height="14" viewBox="0 0 14 14"><path fill="#444" d="M8.555 9.117q.125.125 0 .242-.484.484-1.555.484t-1.555-.484q-.125-.117 0-.242.047-.047.117-.047t.117.047q.375.383 1.32.383.937 0 1.32-.383.047-.047.117-.047t.117.047zM6.156 7.703q0 .289-.203.492t-.492.203-.496-.203-.207-.492q0-.297.207-.5T5.461 7t.492.207.203.496zm3.086 0q0 .289-.207.492t-.496.203-.492-.203-.203-.492.203-.496T8.539 7t.496.203.207.5zm1.961-.937q0-.383-.273-.656t-.664-.273-.672.281q-1.016-.703-2.43-.75l.492-2.211 1.563.352q0 .289.203.492t.492.203.496-.207.207-.496-.207-.496-.496-.207q-.422 0-.625.391l-1.727-.383q-.148-.039-.195.125l-.539 2.438q-1.406.055-2.414.758-.273-.289-.68-.289-.391 0-.664.273t-.273.656q0 .273.145.5t.387.344q-.047.211-.047.438 0 1.109 1.094 1.898t2.633.789q1.547 0 2.641-.789t1.094-1.898q0-.25-.055-.445.234-.117.375-.34t.141-.496zM14 7q0 1.422-.555 2.719t-1.492 2.234-2.234 1.492T7 14t-2.719-.555-2.234-1.492T.555 9.719 0 7t.555-2.719 1.492-2.234T4.281.555 7 0t2.719.555 2.234 1.492 1.492 2.234T14 7z"/></svg>