<svg xmlns="http://www.w3.org/2000/svg" width="12" height="14" viewBox="0 0 12 14"><path fill="#444" d="M7.336 8.82q.102.102 0 .203-.414.414-1.336.414t-1.336-.414q-.102-.102 0-.203.039-.047.102-.047t.102.047q.328.328 1.133.328t1.133-.328q.039-.047.102-.047t.102.047zM5.281 7.602q0 .242-.18.422t-.422.18-.422-.18-.18-.422q0-.25.176-.426T4.679 7t.426.176.176.426zm2.641 0q0 .242-.18.422t-.422.18-.422-.18-.18-.422q0-.25.176-.426T7.32 7t.426.176.176.426zm1.68-.805q0-.328-.234-.563T8.798 6q-.328 0-.57.242-.883-.609-2.086-.641l.422-1.898 1.336.305q.008.25.184.422t.418.172q.25 0 .426-.176T9.104 4t-.176-.426-.426-.176q-.375 0-.539.336l-1.477-.328q-.133-.039-.164.102l-.469 2.094q-1.203.047-2.07.648Q3.549 6 3.205 6q-.336 0-.57.234t-.234.563q0 .234.125.43t.328.297q-.039.195-.039.375 0 .953.937 1.629t2.258.676q1.328 0 2.266-.676t.937-1.629q0-.195-.047-.383.195-.102.316-.293t.121-.426zM12 3.25v7.5q0 .93-.66 1.59T9.75 13h-7.5q-.93 0-1.59-.66T0 10.75v-7.5q0-.93.66-1.59T2.25 1h7.5q.93 0 1.59.66T12 3.25z"/></svg>