<svg xmlns="http://www.w3.org/2000/svg" width="12" height="14" viewBox="0 0 12 14"><path fill="#444" d="M11.805 8.25q0 .039-.008.055-.5 2.094-2.094 3.395t-3.734 1.301q-1.141 0-2.207-.43T1.86 11.344L.852 12.352Q.704 12.5.5 12.5t-.352-.148T0 12V8.5q0-.203.148-.352T.5 8H4q.203 0 .352.148T4.5 8.5t-.148.352l-1.07 1.07q.555.516 1.258.797T6.001 11q1.047 0 1.953-.508t1.453-1.398q.086-.133.414-.914.062-.18.234-.18h1.5q.102 0 .176.074t.074.176zM12 2v3.5q0 .203-.148.352T11.5 6H8q-.203 0-.352-.148T7.5 5.5t.148-.352L8.726 4.07Q7.57 3 5.999 3q-1.047 0-1.953.508T2.593 4.906q-.086.133-.414.914-.062.18-.234.18H.39q-.102 0-.176-.074T.14 5.75v-.055Q.648 3.601 2.249 2.3T5.999.999q1.141 0 2.219.434t1.914 1.223l1.016-1.008q.148-.148.352-.148t.352.148T12 2z"/></svg>