<svg xmlns="http://www.w3.org/2000/svg" width="14" height="14" viewBox="0 0 14 14"><path fill="#444" d="M8.141 5.492q0-.688-.469-.945-.258-.141-.914-.141h-.961v2.195h1.266q.516 0 .797-.289t.281-.82zm.406 2.227l1.602 2.914q.062.133-.008.242-.062.125-.211.125H8.743q-.156 0-.219-.133L7.008 8.015H5.797v2.734q0 .109-.07.18t-.18.07H4.5q-.109 0-.18-.07t-.07-.18v-7.5q0-.109.07-.18t.18-.07h2.297q1 0 1.484.187.664.242 1.047.852t.383 1.406q0 .719-.332 1.293t-.902.855q.047.078.07.125zM7 1.25q-1.172 0-2.234.457T2.934 2.934 1.707 4.766 1.25 7t.457 2.234 1.227 1.832 1.832 1.227T7 12.75t2.234-.457 1.832-1.227 1.227-1.832T12.75 7t-.457-2.234-1.227-1.832-1.832-1.227T7 1.25zM14 7q0 1.422-.555 2.719t-1.492 2.234-2.234 1.492T7 14t-2.719-.555-2.234-1.492T.555 9.719 0 7t.555-2.719 1.492-2.234T4.281.555 7 0t2.719.555 2.234 1.492 1.492 2.234T14 7z"/></svg>