<svg xmlns="http://www.w3.org/2000/svg" width="12" height="14" viewBox="0 0 12 14"><path fill="#444" d="M12 2v3.5q0 .203-.148.352T11.5 6H8q-.328 0-.461-.312-.133-.305.109-.539l1.078-1.078q-1.156-1.07-2.727-1.07-.813 0-1.551.316t-1.277.855-.855 1.277T2 7t.316 1.551.855 1.277 1.277.855 1.551.316q.93 0 1.758-.406t1.398-1.148q.055-.078.18-.094.109 0 .195.07l1.07 1.078q.07.062.074.16t-.059.176q-.852 1.031-2.062 1.598t-2.555.566q-1.219 0-2.328-.477t-1.914-1.281T.475 9.327t-.477-2.328.477-2.328 1.281-1.914T3.67 1.476 5.998.999q1.148 0 2.223.434t1.91 1.223l1.016-1.008q.227-.242.547-.109.305.133.305.461z"/></svg>