<svg xmlns="http://www.w3.org/2000/svg" width="15" height="14" viewBox="0 0 15 14"><path fill="#444" d="M10 11.75q0 .102-.074.176T9.75 12h-7.5q-.062 0-.105-.016t-.07-.055-.043-.062-.023-.09-.008-.09V7h-1.5q-.203 0-.352-.148T.001 6.5q0-.187.117-.32l2.5-3q.148-.172.383-.172t.383.172l2.5 3q.117.133.117.32 0 .203-.148.352T5.501 7h-1.5v3h4.5q.125 0 .195.086l1.25 1.5q.055.086.055.164zm5-3.25q0 .187-.117.32l-2.5 3Q12.227 12 12 12t-.383-.18l-2.5-3Q9 8.687 9 8.5q0-.203.148-.352T9.5 8H11V5H6.5q-.125 0-.195-.094l-1.25-1.5Q5 3.336 5 3.25q0-.102.074-.176T5.25 3h7.5q.062 0 .105.016t.07.055.043.062.023.09.008.09V8h1.5q.203 0 .352.148t.148.352z"/></svg>