<svg xmlns="http://www.w3.org/2000/svg" width="15" height="14" viewBox="0 0 15 14"><path fill="#444" d="M8.68 7.781V7.75l-.187-2.5q-.008-.102-.086-.176T8.227 5H6.774q-.102 0-.18.074t-.086.176l-.187 2.5v.031q-.008.094.062.156t.164.062h1.906q.094 0 .164-.062t.062-.156zm5.929 3.649q0 .57-.359.57h-5.5q.102 0 .172-.074t.062-.176l-.156-2q-.008-.102-.086-.176t-.18-.074H6.437q-.102 0-.18.074t-.086.176l-.156 2q-.008.102.062.176t.172.074h-5.5q-.359 0-.359-.57 0-.422.203-.906l3.258-8.156q.062-.148.203-.258t.297-.109h2.648q-.102 0-.18.074t-.086.176l-.117 1.5q-.008.109.062.18t.172.07h1.297q.102 0 .172-.07t.062-.18l-.117-1.5q-.008-.102-.086-.176t-.18-.074h2.648q.156 0 .297.109t.203.258l3.258 8.156q.203.484.203.906z"/></svg>