<svg xmlns="http://www.w3.org/2000/svg" width="13" height="14" viewBox="0 0 13 14"><path fill="#444" d="M11.25 3.5q0-.312-.219-.531T10.5 2.75t-.531.219-.219.531.219.531.531.219.531-.219.219-.531zM13 1.25q0 1.945-.59 3.363t-1.98 2.816q-.633.625-1.523 1.375l-.156 2.961q-.016.125-.125.203l-3 1.75q-.055.031-.125.031-.094 0-.18-.07l-.5-.5q-.102-.109-.062-.25l.664-2.156-2.195-2.195-2.156.664q-.023.008-.07.008-.109 0-.18-.07l-.5-.5q-.133-.148-.039-.305l1.75-3q.078-.109.203-.125l2.961-.156q.75-.891 1.375-1.523Q8.041 2.11 9.369 1.555T12.736 1q.109 0 .187.074t.078.176z"/></svg>