<svg xmlns="http://www.w3.org/2000/svg" width="10" height="14" viewBox="0 0 10 14"><path fill="#444" d="M8.148 4.414q0-.781-.508-1.266t-1.336-.484h-2.5v3.5h2.5q.828 0 1.336-.484t.508-1.266zm1.852 0q0 1.508-.988 2.461t-2.551.953H3.805v.922H7.75q.109 0 .18.07T8 9v1q0 .109-.07.18t-.18.07H3.805v1.5q0 .109-.074.18t-.176.07H2.25q-.109 0-.18-.07T2 11.75v-1.5H.25q-.109 0-.18-.07T0 10V9q0-.109.07-.18t.18-.07H2v-.922H.25q-.109 0-.18-.07T0 7.578V6.414q0-.102.07-.176t.18-.074H2V1.25q0-.109.07-.18T2.25 1h4.211q1.563 0 2.551.953T10 4.414z"/></svg>