<svg xmlns="http://www.w3.org/2000/svg" width="12" height="14" viewBox="0 0 12 14"><path fill="#444" d="M4 10q0-.414-.293-.707T3 9t-.707.293T2 10t.293.707T3 11t.707-.293T4 10zm2.742.734Q6.64 8.922 5.359 7.64T2.265 6.257q-.109-.008-.187.07T2 6.507v1q0 .102.066.172t.168.078q1.203.086 2.062.945t.945 2.062q.008.102.078.168t.172.066h1q.102 0 .18-.078t.07-.187zm3 .008q-.039-1.203-.438-2.324t-1.09-2.031-1.602-1.602-2.031-1.09-2.324-.438q-.109-.008-.18.07-.078.078-.078.18v1q0 .102.07.172t.172.078q1.594.055 2.953.871T7.37 7.804t.871 2.953q.008.102.078.172t.172.07h1q.102 0 .18-.078.086-.07.07-.18zM12 3.25v7.5q0 .93-.66 1.59T9.75 13h-7.5q-.93 0-1.59-.66T0 10.75v-7.5q0-.93.66-1.59T2.25 1h7.5q.93 0 1.59.66T12 3.25z"/></svg>