<svg xmlns="http://www.w3.org/2000/svg" width="11" height="14" viewBox="0 0 11 14"><path d="M3 10.5q0 .625-.438 1.062T1.5 12t-1.062-.438T0 10.5t.438-1.062T1.5 9t1.062.438T3 10.5zm4 .961q.016.219-.133.375Q6.726 12 6.5 12H5.445q-.195 0-.336-.129t-.156-.324q-.172-1.789-1.441-3.059T.453 7.047q-.195-.016-.324-.156T0 6.555V5.5q0-.227.164-.367Q.297 5 .5 5h.039q1.25.102 2.391.629t2.023 1.418q.891.883 1.418 2.023T7 11.461zm4 .016q.016.211-.141.367-.141.156-.359.156H9.383q-.203 0-.348-.137t-.152-.332q-.094-1.68-.789-3.191T6.285 5.715 3.66 3.906.469 3.109q-.195-.008-.332-.152T0 2.617V1.5q0-.219.156-.359Q.297 1 .5 1h.023q2.047.102 3.918.937t3.324 2.297q1.461 1.453 2.297 3.324t.937 3.918z" fill="#444"/></svg>