<svg xmlns="http://www.w3.org/2000/svg" width="14" height="14" viewBox="0 0 14 14"><path fill="#444" d="M7.414 6.977q0 .203-.129.352t-.324.148q-.203 0-.352-.129t-.148-.324q0-.203.133-.352t.328-.148.344.129.148.324zm.117.453l2.734-4.539q-.07.062-.527.488t-.98.91-1.066.992-.914.863-.395.402l-2.727 4.531q.055-.055.523-.484t.984-.91 1.062-.992.914-.867.391-.395zM12.586 7q0 1.57-.813 2.898l-.133-.086q-.11-.07-.207-.129t-.129-.059q-.102 0-.102.102 0 .078.461.344-.578.875-1.441 1.488t-1.887.863l-.125-.523q-.008-.078-.117-.078-.039 0-.062.043t-.016.074l.125.531q-.563.117-1.141.117-1.555 0-2.906-.82.008-.016.102-.16t.168-.262.074-.148q0-.102-.102-.102-.047 0-.133.113t-.176.27-.105.18q-.883-.586-1.5-1.465t-.859-1.91l.539-.117q.078-.023.078-.117 0-.039-.043-.062t-.082-.016l-.531.117Q1.414 7.523 1.414 7q0-1.609.852-2.961.016.008.145.094t.234.148.137.062q.102 0 .102-.094 0-.047-.098-.121t-.254-.168l-.156-.094q.602-.875 1.477-1.477t1.906-.836l.117.523q.016.078.117.078.039 0 .062-.043t.016-.082l-.117-.516q.555-.102 1.047-.102 1.594 0 2.961.852-.305.438-.305.508 0 .102.094.102.086 0 .375-.5.867.586 1.465 1.453t.84 1.883l-.438.094q-.078.016-.078.125 0 .039.043.062t.074.016l.445-.102q.109.563.109 1.094zm.664 0q0-1.273-.496-2.43t-1.332-1.992T9.43 1.246 7 .75t-2.43.496-1.992 1.332T1.246 4.57.75 7t.496 2.43 1.332 1.992 1.992 1.332T7 13.25t2.43-.496 1.992-1.332 1.332-1.992T13.25 7zM14 7q0 1.422-.555 2.719t-1.492 2.234-2.234 1.492T7 14t-2.719-.555-2.234-1.492T.555 9.719 0 7t.555-2.719 1.492-2.234T4.281.555 7 0t2.719.555 2.234 1.492 1.492 2.234T14 7z"/></svg>