<svg xmlns="http://www.w3.org/2000/svg" width="16" height="14" viewBox="0 0 16 14"><path fill="#444" d="M11.719 10.711V4.984q0-.164-.117-.281t-.273-.117h-.727q-.156 0-.273.117t-.117.281v5.727q0 .156.117.273t.273.117h.727q.156 0 .273-.117t.117-.273zm-2.219 0V6.563q0-.156-.117-.273t-.273-.117h-.789q-.156 0-.273.117t-.117.273v4.148q0 .156.117.273t.273.117h.789q.156 0 .273-.117t.117-.273zm-2.281 0V7.359q0-.156-.117-.273t-.273-.117H6.04q-.156 0-.273.117t-.117.273v3.352q0 .156.117.273t.273.117h.789q.156 0 .273-.117t.117-.273zm-2.281 0V7.883q0-.156-.117-.273t-.273-.117h-.789q-.156 0-.273.117t-.117.273v2.828q0 .156.117.273t.273.117h.789q.156 0 .273-.117t.117-.273zM16 9.57q0 1.297-.922 2.219t-2.219.922H3.14q-1.297 0-2.219-.922T-.001 9.57q0-.906.492-1.676t1.313-1.16q-.078-.266-.078-.57 0-.883.629-1.512t1.512-.629q.797 0 1.406.523.352-1.43 1.516-2.344t2.641-.914q1.164 0 2.148.574t1.559 1.559.574 2.148q0 .516-.109.953 1.055.258 1.727 1.113t.672 1.934z"/></svg>