<svg xmlns="http://www.w3.org/2000/svg" width="14" height="14" viewBox="0 0 14 14"><path fill="#444" d="M11.76 8.12H2.24c-.154 0-.28-.126-.28-.28s.126-.28.28-.28h9.52c.154 0 .28.126.28.28s-.126.28-.28.28zm-3.248.308A.264.264 0 0 0 8.4 8.4H6.02c-.154 0-.28.126-.28.28s.112.252.28.28l1.428.238c.098.028.084.182-.028.182H6.216a1.89 1.89 0 0 1-.392-.056l-2.212-.896A.264.264 0 0 0 3.5 8.4a.28.28 0 0 0-.28.28c0 .098.042.182.112.224l2.408 1.582c.182.112.378.154.588.154H9.24l.658.266.266-1.75-1.652-.728zm1.988.392l-.07.462-.252 1.736-.098.602 1.96.42V9.1zM7.364 6.496H6.58c-.112 0-.196-.084-.196-.196s.084-.196.196-.196h.784c.112 0 .196.084.196.196s-.098.196-.196.196zm0 .196H6.58c-.112 0-.196.084-.196.196s.084.196.196.196h.098c0 .112.084.196.196.196h.196a.191.191 0 0 0 .196-.196h.098c.112 0 .196-.084.196-.196s-.098-.196-.196-.196zm.644-1.848a1.4 1.4 0 0 0 .364-.938c0-.77-.616-1.386-1.386-1.386S5.6 3.136 5.6 3.906c0 .35.126.672.336.91.098.098.448.532.448.868 0 .112.084.196.196.196h.784a.191.191 0 0 0 .196-.196V5.67c.028-.322.322-.7.448-.826z"/></svg>