<svg xmlns="http://www.w3.org/2000/svg" width="12" height="14" viewBox="0 0 12 14"><path fill="#444" d="M7.852 8.602l2.75-2.75q.148-.148.148-.352t-.148-.352l-2.75-2.75q-.234-.242-.539-.109-.312.133-.312.461V4q-.93 0-1.688.152t-1.27.398-.891.617-.598.746-.348.852-.168.871-.039.863q0 1.414 1.305 3.156.078.094.195.094.055 0 .102-.023.172-.07.148-.258-.344-2.766.484-3.695.359-.406 1.016-.59t1.75-.184v1.25q0 .328.312.461.094.039.187.039.203 0 .352-.148zM12 3.25v7.5q0 .93-.66 1.59T9.75 13h-7.5q-.93 0-1.59-.66T0 10.75v-7.5q0-.93.66-1.59T2.25 1h7.5q.93 0 1.59.66T12 3.25z"/></svg>