<svg xmlns="http://www.w3.org/2000/svg" width="12" height="14" viewBox="0 0 12 14"><path fill="#444" d="M10 9.336q0-.688-.488-1.18t-1.176-.492q-.656 0-1.133.453L5.32 7.18q.016-.125.016-.18t-.016-.18l1.883-.937q.477.453 1.133.453.688 0 1.176-.492T10 4.664t-.488-1.176T8.336 3t-1.18.488-.492 1.176q0 .055.016.18l-1.883.937q-.484-.445-1.133-.445-.688 0-1.176.488T2 7t.488 1.176 1.176.488q.648 0 1.133-.445l1.883.937q-.016.125-.016.18 0 .688.492 1.176t1.18.488 1.176-.488T10 9.336zm2-6.086v7.5q0 .93-.66 1.59T9.75 13h-7.5q-.93 0-1.59-.66T0 10.75v-7.5q0-.93.66-1.59T2.25 1h7.5q.93 0 1.59.66T12 3.25z"/></svg>