<svg xmlns="http://www.w3.org/2000/svg" width="13" height="14" viewBox="0 0 13 14"><path fill="#444" d="M11 7.727V9.75q0 .93-.66 1.59T8.75 12h-6.5q-.93 0-1.59-.66T0 9.75v-6.5q0-.93.66-1.59T2.25 1h1.992q.102 0 .176.074t.074.176q0 .211-.203.25-.602.203-1.039.469Q3.172 2 3.125 2H2.25q-.516 0-.883.367T1 3.25v6.5q0 .516.367.883T2.25 11h6.5q.516 0 .883-.367T10 9.75V8.078q0-.148.141-.227.219-.102.422-.289.125-.125.273-.062.164.07.164.227zm1.852-3.875l-3 3Q9.711 7 9.5 7q-.094 0-.195-.039Q9 6.828 9 6.5V5H7.75Q5.227 5 4.328 6.023q-.93 1.07-.578 3.695.023.18-.156.266Q3.532 10 3.5 10q-.125 0-.203-.102-.078-.109-.164-.242t-.309-.535-.387-.777-.301-.891-.137-.953q0-.383.027-.711t.109-.703.219-.688.367-.637.535-.578.738-.48.973-.379 1.246-.238T7.748 2h1.25V.5q0-.328.305-.461Q9.405 0 9.498 0q.203 0 .352.148l3 3q.148.148.148.352t-.148.352z"/></svg>