<svg xmlns="http://www.w3.org/2000/svg" width="16" height="14" viewBox="0 0 16 14"><path fill="#444" d="M14.148 12.148Q14.296 12 14.5 12t.352.148l1 1-.703.703-.648-.648-.648.648q-.141.148-.352.148t-.352-.148l-.648-.648-.648.648q-.148.148-.352.148t-.352-.148l-.648-.648-.648.648q-.148.148-.352.148t-.352-.148l-.648-.648-.648.648q-.148.148-.352.148t-.352-.148l-.648-.648-.648.648q-.148.148-.352.148t-.352-.148l-.648-.648-.648.648q-.148.148-.352.148t-.352-.148l-.648-.648-.648.648q-.148.148-.352.148t-.352-.148l-1-1 .703-.703.648.648.648-.648Q2.296 12 2.5 12t.352.148l.648.648.648-.648Q4.296 12 4.5 12t.352.148l.648.648.648-.648Q6.296 12 6.5 12t.352.148l.648.648.648-.648Q8.296 12 8.5 12t.352.148l.648.648.648-.648Q10.296 12 10.5 12t.352.148l.648.648.648-.648Q12.296 12 12.5 12t.352.148l.648.648zm-12.296-.296Q1.704 12 1.5 12t-.352-.148l-1-1 .703-.703.648.641.648-.641q.148-.148.352-.148t.352.148l.648.641.5-.5V8.001L2.358 5.548q-.133-.203-.055-.441t.312-.316l1.383-.453V2.002h1v-1h2v-1h2v1h2v1h1v2.336l1.383.453q.234.078.312.316t-.055.441l-1.641 2.453v2.289l.148-.141q.148-.148.352-.148t.352.148l.648.641.648-.641q.148-.148.352-.148t.352.148l1 1-.703.703-.648-.648-.648.648q-.141.148-.352.148t-.352-.148l-.648-.648-.648.648q-.148.148-.352.148t-.352-.148l-.648-.648-.648.648Q9.702 12 9.498 12t-.352-.148l-.648-.648-.648.648Q7.702 12 7.498 12t-.352-.148l-.648-.648-.648.648Q5.702 12 5.498 12t-.352-.148l-.648-.648-.648.648Q3.702 12 3.498 12t-.352-.148l-.648-.648zM5 3v1l3-1 3 1V3h-1V2H6v1H5z"/></svg>