<svg xmlns="http://www.w3.org/2000/svg" width="12" height="14" viewBox="0 0 12 14"><path fill="#444" d="M0 0h12v10.875l-6.063 2.641-5.938-2.641V0zm11.219 10.367V3.133H.781v7.234l5.164 2.297zm0-8.015V.782H.781v1.57h10.438zM1.414 4.68v.898h-.289V4.68h.289zm0 1.156v.898h-.289v-.898h.289zm0 1.156v.898h-.289v-.898h.289zm0 1.156v.898h-.289v-.898h.289zm0 1.157v.898h-.289v-.898h.289zm.203 1.117l.117-.266.82.367-.117.258zm1.063.469l.117-.266.82.359-.117.266zm1.054.468l.117-.266.82.359-.117.266zm1.063.461l.117-.258.813.359-.117.266zm1.43.102l.82-.359.117.258-.82.367zm1.054-.469l.82-.359.117.266-.82.359zm1.063-.469l.82-.359.117.266-.82.359zm1.054-.461l.82-.367.117.266-.82.359zM2.023 1.148v.281h-.891v-.281h.891zm1.266 0v.281h-.898v-.281h.898zm1.266 0v.281h-.898v-.281h.898zm1.258 0v.281h-.891v-.281h.891zm1.265 0v.281h-.891v-.281h.891zm1.266 0v.281h-.898v-.281h.898zm1.265 0v.281h-.898v-.281h.898zm1.258 0v.281h-.891v-.281h.891zM1.414 3.805v.617h-.289v-.898h.898v.281h-.609zm1.875-.282v.281h-.898v-.281h.898zm1.266 0v.281h-.898v-.281h.898zm1.258 0v.281h-.891v-.281h.891zm1.265 0v.281h-.891v-.281h.891zm1.266 0v.281h-.898v-.281h.898zm1.265 0v.281h-.898v-.281h.898zm.977.899v-.617h-.609v-.281h.898v.898h-.289zm0 1.156V4.68h.289v.898h-.289zm0 1.156v-.898h.289v.898h-.289zm0 1.157v-.898h.289v.898h-.289zm0 1.156v-.898h.289v.898h-.289zm0 1.156v-.898h.289v.898h-.289zM5.938 9.93q-1.008 0-1.727-.715t-.719-1.73q0-1.008.719-1.727t1.727-.719q1.016 0 1.73.719t.715 1.727q0 1.016-.715 1.73t-1.73.715zm-1.29-2.977q0 .281.152.441t.387.195.5.055.5.016.387.07.152.238q0 .383-.875.383-.758 0-.961-.398h-.023l-.242.492q.523.328 1.266.328.227 0 .441-.039t.434-.125.355-.258.137-.414q0-.359-.215-.543t-.527-.211-.621-.023-.523-.039-.215-.199q0-.164.16-.258t.316-.117.32-.023q.266 0 .551.086t.402.266h.023l.234-.453q-.023-.008-.164-.066t-.176-.07-.152-.055-.172-.055-.156-.035-.187-.031-.18-.008q-.227 0-.441.039t-.422.129-.336.266-.129.418z"/></svg>