<svg xmlns="http://www.w3.org/2000/svg" width="13" height="14" viewBox="0 0 13 14"><path fill="#444" d="M5 12q0 .406-.297.703T4 13t-.703-.297T3 12t.297-.703T4 11t.703.297T5 12zm7 0q0 .406-.297.703T11 13t-.703-.297T10 12t.297-.703T11 11t.703.297T12 12zm1-8.5v4q0 .187-.129.332T12.555 8l-8.156.953q.102.469.102.547 0 .125-.187.5h7.187q.203 0 .352.148t.148.352-.148.352-.352.148h-8q-.203 0-.352-.148t-.148-.352q0-.086.062-.246t.125-.281.168-.312.121-.23l-1.383-6.43H.5q-.203 0-.352-.148T0 2.501t.148-.352.352-.148h2q.125 0 .223.051t.152.121.102.191.062.203.043.23.035.203H12.5q.203 0 .352.148T13 3.5z"/></svg>