<svg xmlns="http://www.w3.org/2000/svg" width="12" height="14" viewBox="0 0 12 14"><path fill="#444" d="M9.25 7q0 .203-.148.352l-4.25 4.25q-.148.148-.352.148t-.352-.148T4 11.25V9H.5q-.203 0-.352-.148T0 8.5v-3q0-.203.148-.352T.5 5H4V2.75q0-.203.148-.352T4.5 2.25t.352.148l4.25 4.25q.148.148.148.352zM12 4.25v5.5q0 .93-.66 1.59T9.75 12h-2.5q-.102 0-.176-.074T7 11.75q0-.031-.008-.156t-.004-.207.023-.184.078-.152.16-.051h2.5q.516 0 .883-.367t.367-.883v-5.5q0-.516-.367-.883T9.749 3H7.311l-.09-.008-.09-.023-.062-.043-.055-.07-.016-.105q0-.031-.008-.156t-.004-.207.023-.184.078-.152.16-.051h2.5q.93 0 1.59.66t.66 1.59z"/></svg>