<svg xmlns="http://www.w3.org/2000/svg" width="13" height="14" viewBox="0 0 13 14"><path fill="#444" d="M5 11.25q0 .031.008.156t.004.207-.023.184-.078.152-.16.051h-2.5q-.93 0-1.59-.66t-.66-1.59v-5.5q0-.93.66-1.59T2.251 2h2.5q.102 0 .176.074t.074.176q0 .031.008.156t.004.207-.023.184-.078.152-.16.051h-2.5q-.516 0-.883.367t-.367.883v5.5q0 .516.367.883t.883.367H4.69l.09.008.09.023.062.043.055.07.016.105zM12.25 7q0 .203-.148.352l-4.25 4.25q-.148.148-.352.148t-.352-.148T7 11.25V9H3.5q-.203 0-.352-.148T3 8.5v-3q0-.203.148-.352T3.5 5H7V2.75q0-.203.148-.352T7.5 2.25t.352.148l4.25 4.25q.148.148.148.352z"/></svg>