<svg xmlns="http://www.w3.org/2000/svg" width="14" height="14" viewBox="0 0 14 14"><path fill="#444" d="M2 11.25v1.5q0 .109-.07.18t-.18.07H.25q-.109 0-.18-.07T0 12.75v-1.5q0-.109.07-.18T.25 11h1.5q.109 0 .18.07t.07.18zm3-1v2.5q0 .109-.07.18t-.18.07h-1.5q-.109 0-.18-.07T3 12.75v-2.5q0-.109.07-.18t.18-.07h1.5q.109 0 .18.07t.07.18zm3-2v4.5q0 .109-.07.18t-.18.07h-1.5q-.109 0-.18-.07T6 12.75v-4.5q0-.109.07-.18T6.25 8h1.5q.109 0 .18.07t.07.18zm3-3v7.5q0 .109-.07.18t-.18.07h-1.5q-.109 0-.18-.07T9 12.75v-7.5q0-.109.07-.18T9.25 5h1.5q.109 0 .18.07t.07.18zm3-4v11.5q0 .109-.07.18t-.18.07h-1.5q-.109 0-.18-.07t-.07-.18V1.25q0-.109.07-.18t.18-.07h1.5q.109 0 .18.07t.07.18z"/></svg>