<svg xmlns="http://www.w3.org/2000/svg" width="16" height="14" viewBox="0 0 16 14"><path fill="#444" d="M6.742 8.062q0-.875-.621-1.496t-1.496-.621-1.492.621-.617 1.496.617 1.492 1.492.617 1.496-.617.621-1.492zm6.742-.007q0-.875-.617-1.492t-1.492-.617-1.496.617-.621 1.492q0 .883.621 1.5t1.496.617 1.492-.621.617-1.496zM16 1.734v10.531q0 .344-.246.59t-.598.246H.844q-.352 0-.598-.246T0 12.265V1.734q0-.344.246-.59T.844.898h3.367q.344 0 .594.246t.25.59v1.258h5.891V1.734q0-.344.25-.59t.594-.246h3.367q.352 0 .598.246t.246.59z"/></svg>