<svg xmlns="http://www.w3.org/2000/svg" width="16" height="14" viewBox="0 0 16 14"><path fill="#444" d="M13.203 6.148q1.156 0 1.977.77t.82 1.91q0 1.227-.852 2.043t-2.086.816q-.664 0-1.266-.215t-1.078-.574-.922-.828-.852-.988-.809-1.035-.848-.984-.914-.828-1.062-.574-1.242-.215q-1.203 0-1.965.715t-.762 1.91q0 1.227.813 1.953t2.055.727q.781 0 1.625-.293t1.508-.77q.039-.031.164-.145t.234-.187.172-.074q.109 0 .191.082t.082.191q0 .187-.469.602-.789.688-1.832 1.109t-2.035.422q-1.039 0-1.918-.453T.526 9.946t-.527-1.883q0-1.602 1.105-2.664t2.715-1.062q.937 0 1.77.34t1.449.883 1.184 1.195 1.086 1.309 1.043 1.199 1.168.883 1.348.34q.797 0 1.316-.48t.52-1.27q0-.742-.504-1.242t-1.246-.5q-.234 0-.637.145t-.535.145q-.156 0-.277-.117t-.121-.273q0-.141.066-.445t.066-.461q0-1.242-.84-2.055T8.593 3.12q-.453 0-.871.145t-.656.316-.434.316-.258.145q-.117 0-.199-.082t-.082-.199q0-.148.195-.359.461-.523 1.148-.809t1.422-.285q1.492 0 2.484.98t.992 2.465q0 .289-.031.516.445-.117.898-.117z"/></svg>