<svg xmlns="http://www.w3.org/2000/svg" width="12" height="14" viewBox="0 0 12 14"><path fill="#444" d="M9.164 8.305q0-.391-.152-.715t-.379-.535-.57-.383-.645-.266-.684-.18l-.813-.187-.344-.082q-.11-.027-.273-.09t-.234-.125-.129-.164-.059-.234q0-.602 1.125-.602.336 0 .602.094t.422.223.297.262.312.227.375.094q.367 0 .59-.25t.223-.602q0-.43-.438-.777t-1.109-.527-1.422-.18q-.531 0-1.031.121t-.934.367-.695.68-.262 1.004q0 .477.148.832t.438.59.625.379.805.254l1.141.281q.703.172.875.281.25.156.25.469 0 .305-.312.504t-.82.199q-.398 0-.715-.125t-.508-.301-.355-.352-.359-.301-.422-.125q-.391 0-.59.234t-.199.586q0 .719.953 1.23t2.273.512q.57 0 1.094-.145t.957-.418.691-.73.258-1.027zM12 10q0 1.242-.879 2.121T9 13q-1.016 0-1.828-.625Q6.57 12.5 6 12.5q-1.117 0-2.137-.434t-1.758-1.172T.933 9.136.499 6.999q0-.57.125-1.172-.625-.813-.625-1.828 0-1.242.879-2.121T2.999.999q1.016 0 1.828.625.602-.125 1.172-.125 1.117 0 2.137.434t1.758 1.172 1.172 1.758T11.5 7q0 .57-.125 1.172Q12 8.985 12 10z"/></svg>