<svg xmlns="http://www.w3.org/2000/svg" width="13" height="14" viewBox="0 0 13 14"><path fill="#444" d="M11.867 6.063q.484 0 .809.316t.324.793q0 .758-.727 1.016l-1.344.461.438 1.305q.055.164.055.367 0 .461-.328.797t-.789.336q-.367 0-.668-.211t-.418-.563l-.43-1.289-2.422.828.43 1.281q.062.187.062.367 0 .461-.328.797T5.734 13q-.367 0-.664-.211t-.414-.563l-.43-1.273-1.195.414q-.227.07-.391.07-.477 0-.793-.312t-.316-.789q0-.367.215-.664t.559-.414l1.219-.414-.82-2.445-1.219.422q-.203.062-.375.062-.469 0-.789-.316t-.32-.785q0-.367.215-.664t.559-.414l1.227-.414-.414-1.242q-.062-.187-.062-.367 0-.469.328-.801t.797-.332q.367 0 .664.211t.414.563l.422 1.25 2.422-.82-.422-1.25q-.062-.187-.062-.367 0-.461.332-.797t.793-.336q.367 0 .668.215T8.3.776l.414 1.258 1.266-.43q.164-.047.336-.047.469 0 .801.309t.332.77q0 .352-.234.637t-.578.402l-1.227.422.82 2.469 1.281-.438q.187-.062.359-.062zM5.664 8.109l2.422-.82-.82-2.461-2.422.836z"/></svg>