<svg xmlns="http://www.w3.org/2000/svg" width="12" height="14" viewBox="0 0 12 14"><path fill="#444" d="M2.75 11v1H0v-1h2.75zm2.75-1q.203 0 .352.148T6 10.5v2q0 .203-.148.352T5.5 13h-2q-.203 0-.352-.148T3 12.5v-2q0-.203.148-.352T3.5 10h2zm1.25-3v1H0V7h6.75zm-5-4v1H0V3h1.75zM12 11v1H6.25v-1H12zM4.5 2q.203 0 .352.148T5 2.5v2q0 .203-.148.352T4.5 5h-2q-.203 0-.352-.148T2 4.5v-2q0-.203.148-.352T2.5 2h2zm5 4q.203 0 .352.148T10 6.5v2q0 .203-.148.352T9.5 9h-2q-.203 0-.352-.148T7 8.5v-2q0-.203.148-.352T7.5 6h2zM12 7v1h-1.75V7H12zm0-4v1H5.25V3H12z"/></svg>