<svg xmlns="http://www.w3.org/2000/svg" width="14" height="14" viewBox="0 0 14 14"><path fill="#444" d="M6.82 5.781q0 .648-.496 1.113t-1.191.465-1.191-.465-.496-1.113q0-.656.496-1.117t1.191-.461 1.191.461.496 1.117zm3.922 0q0 .648-.492 1.113t-1.195.465q-.695 0-1.191-.465t-.496-1.113q0-.656.496-1.117t1.191-.461q.703 0 1.195.461t.492 1.117zM12.5 7.187V1.976q0-.68-.25-.965t-.867-.285H2.695q-.648 0-.879.266t-.23.984v5.258q.336.18.691.312t.633.219.633.145.555.086.547.031.457.004.441-.016.348-.016q.531-.008.742.211.047.047.078.07.203.195.477.398.055-.711.922-.68.039 0 .285.012t.336.016.355.008.414-.008.426-.035.477-.066.484-.105.523-.152.527-.211.563-.27zm1.273-.039q-.945 1.164-2.906 1.969.656 2.227-.18 3.633-.516.883-1.43 1.156-.813.25-1.422-.117-.672-.398-.641-1.281l-.008-2.547v-.008l-.191-.047q-.129-.031-.184-.039l-.008 2.641q.031.891-.648 1.281-.617.367-1.43.117-.914-.281-1.422-1.172-.82-1.406-.172-3.617Q1.17 8.312.225 7.148.03 6.859.194 6.656t.469.008q.023.016.086.055t.086.062V1.359q0-.563.367-.961T2.093 0h9.82q.523 0 .891.398t.367.961v5.422l.164-.117q.305-.211.469-.008t-.031.492z"/></svg>