<svg xmlns="http://www.w3.org/2000/svg" width="14" height="14" viewBox="0 0 14 14"><path fill="#444" d="M11.508 7.28L7.028 3.5l-4.34 3.78h1.12v4.76h1.82l-.126-1.554a.425.425 0 0 1-.294-.406v-.84c0-.238.182-.42.42-.42h.7c.238 0 .42.182.42.42v.84c0 .196-.126.35-.294.406l-.126 1.554h1.54l-.126-1.554a.425.425 0 0 1-.294-.406v-.84c0-.238.182-.42.42-.42h.7c.238 0 .42.182.42.42v.84c0 .196-.126.35-.294.406l-.126 1.554h1.82V7.28h1.12zm-5.53 1.26c-.196 0-.35-.154-.35-.35s.154-.35.35-.35c.196 0 .35.154.35.35 0 .182-.168.35-.35.35zm2.24 0c-.196 0-.35-.154-.35-.35s.154-.35.35-.35c.196 0 .35.154.35.35 0 .182-.168.35-.35.35zm2.352-3.92h-.56c-.084 0-.14-.056-.14-.14s.056-.14.14-.14h.56c.084 0 .14.056.14.14s-.056.14-.14.14zm-.14.42h-.28c-.084 0-.14-.056-.14-.14s.056-.14.14-.14h.28c.084 0 .14.056.14.14s-.056.14-.14.14zm.77-2.17c0-.504-.406-.91-.91-.91s-.91.406-.91.91c0 .224.07.42.21.574.294.364.28.616.28.616 0 .084.056.14.14.14h.56c.084 0 .14-.056.14-.14 0 0-.014-.252.28-.616a.83.83 0 0 0 .21-.574z"/></svg>