<svg xmlns="http://www.w3.org/2000/svg" width="14" height="14" viewBox="0 0 14 14"><path fill="#444" d="M5.75 11.25q0 .094-.078.187L3.18 13.929q-.078.07-.18.07-.094 0-.18-.07l-2.5-2.5q-.117-.125-.055-.273Q.327 11 .499 11h1.5V.25q0-.109.07-.18t.18-.07h1.5q.109 0 .18.07t.07.18V11h1.5q.109 0 .18.07t.07.18zm8.25 1v1.5q0 .109-.07.18t-.18.07h-6.5q-.109 0-.18-.07T7 13.75v-1.5q0-.109.07-.18t.18-.07h6.5q.109 0 .18.07t.07.18zm-1.5-4v1.5q0 .109-.07.18t-.18.07h-5q-.109 0-.18-.07T7 9.75v-1.5q0-.109.07-.18T7.25 8h5q.109 0 .18.07t.07.18zm-1.5-4v1.5q0 .109-.07.18t-.18.07h-3.5q-.109 0-.18-.07T7 5.75v-1.5q0-.109.07-.18T7.25 4h3.5q.109 0 .18.07t.07.18zm-1.5-4v1.5q0 .109-.07.18T9.25 2h-2q-.109 0-.18-.07T7 1.75V.25q0-.109.07-.18T7.25 0h2q.109 0 .18.07t.07.18z"/></svg>