<svg xmlns="http://www.w3.org/2000/svg" width="13" height="14" viewBox="0 0 13 14"><path fill="#444" d="M9.305 11.188h1.383l-.563-1.703-.094-.367q-.016-.125-.016-.156h-.031l-.023.156q0 .008-.027.141t-.059.227zm-3.555.062q0 .094-.078.187L3.18 13.929q-.078.07-.18.07-.094 0-.18-.07l-2.5-2.5q-.117-.125-.055-.273Q.327 11 .499 11h1.5V.25q0-.109.07-.18t.18-.07h1.5q.109 0 .18.07t.07.18V11h1.5q.109 0 .18.07t.07.18zm7.227 1.922V14h-2.25v-.828h.586l-.367-1.125H9.048l-.367 1.125h.586V14H7.025v-.828h.547L9.369 8h1.266l1.797 5.172h.547zm-.696-8.992V6H7.719v-.703l2.883-4.133q.094-.141.164-.211l.086-.07V.86q-.016 0-.051.004t-.059.004q-.094.023-.234.023H8.696v.898h-.937V0h4.43v.695L9.306 4.836q-.047.062-.164.203l-.086.078v.023l.109-.023q.07-.008.234-.008h1.937v-.93h.945z"/></svg>