<svg xmlns="http://www.w3.org/2000/svg" width="12" height="14" viewBox="0 0 12 14"><path fill="#444" d="M10.516 10.258q0-.492-.344-.906t-.805-.414q-.406 0-.648.289t-.242.734.285.742.816.297q.391 0 .664-.211t.273-.531zm-4.766.992q0 .094-.078.187L3.18 13.929q-.078.07-.18.07-.094 0-.18-.07l-2.5-2.5q-.117-.125-.055-.273Q.327 11 .499 11h1.5V.25q0-.109.07-.18t.18-.07h1.5q.109 0 .18.07t.07.18V11h1.5q.109 0 .18.07t.07.18zm5.859-.539q0 .484-.102.949t-.32.891-.531.746-.77.512T8.89 14q-.484 0-.844-.125-.187-.062-.328-.117l.305-.883q.117.055.242.086.289.102.586.102.656 0 1.051-.457t.52-1.137h-.016q-.164.18-.48.289t-.66.109q-.828 0-1.352-.559T7.391 9.96q0-.82.563-1.391t1.414-.57q.961 0 1.602.738t.641 1.973zm-.234-5.602V6H7.711v-.891h1.305V1.734q0-.055.004-.148t.004-.133v-.125h-.016l-.055.094q-.062.102-.203.242l-.484.453-.641-.672L9.125 0h.961v5.109h1.289z"/></svg>