<svg xmlns="http://www.w3.org/2000/svg" width="18" height="14" viewBox="0 0 18 14"><path fill="#444" d="M6.125 10.719l.125-1.883-.125-4.086q-.008-.078-.059-.133t-.129-.055q-.07 0-.125.055t-.055.133l-.109 4.086.109 1.883q.008.078.059.129t.121.051q.172 0 .187-.18zm2.313-.227l.086-1.648-.094-4.578q0-.125-.102-.187-.062-.039-.125-.039t-.125.039q-.102.062-.102.187l-.008.047-.078 4.523.086 1.844v.008q0 .078.047.133.07.086.18.086.086 0 .156-.07.07-.055.07-.156zM.273 7.836l.156 1-.156.984q-.016.07-.07.07t-.07-.07L0 8.836l.133-1q.016-.07.07-.07t.07.07zm.672-.617l.203 1.617-.203 1.586q-.016.07-.078.07-.07 0-.07-.078l-.18-1.578.18-1.617q0-.07.07-.07.062 0 .078.07zm.719-.297l.195 1.914-.195 1.852q0 .086-.086.086-.078 0-.094-.086L1.32 8.836l.164-1.914q.016-.094.094-.094.086 0 .086.094zm.734-.055l.18 1.969-.18 1.906q-.016.102-.109.102-.102 0-.102-.102l-.164-1.906.164-1.969q0-.102.102-.102.094 0 .109.102zm.735.141l.164 1.828-.164 1.922q-.016.125-.125.125-.047 0-.082-.035t-.035-.09l-.156-1.922.156-1.828q0-.047.035-.082t.082-.035q.109 0 .125.117zm.734-1.141l.164 2.969-.164 1.922q0 .055-.039.098t-.094.043q-.125 0-.141-.141l-.141-1.922.141-2.969q.016-.141.141-.141.055 0 .094.043t.039.098zm.735-.672l.148 3.656-.148 1.906q0 .062-.043.105t-.105.043q-.141 0-.156-.148l-.125-1.906.125-3.656q.016-.148.156-.148.062 0 .105.043t.043.105zm.765-.312l.141 3.953-.141 1.891q-.016.164-.172.164-.148 0-.164-.164l-.125-1.891.125-3.953q0-.07.051-.121t.113-.051q.07 0 .117.051t.055.121zM8.43 10.68zM6.883 4.852L7 8.836l-.117 1.867q0 .078-.059.137t-.137.059-.133-.055-.062-.141l-.109-1.867.109-3.984q0-.086.059-.141t.137-.055.137.055.059.141zM7.656 5l.109 3.844-.109 1.844q0 .086-.062.148t-.148.062-.148-.062-.07-.148l-.094-1.844L7.228 5q.008-.094.07-.156t.148-.062.145.062.066.156zm1.657 3.844l-.109 1.805q0 .102-.07.172t-.172.07-.172-.07-.078-.172l-.047-.891-.047-.914.094-4.969v-.023q.016-.117.094-.187.07-.055.156-.055.062 0 .117.039.109.062.125.203zM18 8.695q0 .914-.648 1.559t-1.563.645H9.648q-.102-.016-.172-.086t-.07-.172V3.618q0-.18.219-.258.664-.266 1.414-.266 1.523 0 2.641 1.027t1.25 2.527q.414-.172.859-.172.914 0 1.563.648T18 8.694z"/></svg>