<svg xmlns="http://www.w3.org/2000/svg" width="17" height="14" viewBox="0 0 17 14"><path fill="#444" d="M4.844 8.75q-.859.5-2.094.5h-1v-.5h-.5q-.102 0-.176-.184T1 8.125q0-.187.055-.383-.453-.016-.754-.082T0 7.5t.301-.16.754-.082Q1 7.063 1 6.875q0-.258.074-.441t.176-.184h.5v-.5h1q1.234 0 2.094.5h8.695l.832.141q.504.086.629.109.695.117 1.172.316t.652.371.176.312-.176.312-.652.371T15 8.498q-.125.023-.629.109t-.832.141H4.844zm8.742-1.969Q14 7.062 14 7.5t-.414.719l.633.234q.531-.375.531-.953t-.531-.953zM4.883 8.875h7.93L9.251 9.5q-.445 0-.883.187t-.648.375l-.219.187-2.25 2.25q-.203.203-.551.352t-.699.148h-.75l-.727-3.625h.227q1.227 0 2.133-.5zM2.75 5.625h-.227L3.25 2H4q.359 0 .703.148t.547.352L7.5 4.75q.031.031.086.082t.238.18.379.227.48.18.566.082l3.562.625h-7.93q-.906-.5-2.133-.5z"/></svg>