<svg xmlns="http://www.w3.org/2000/svg" width="14" height="14" viewBox="0 0 14 14"><path fill="#444" d="M4.109 10.891q0 .414-.293.707t-.707.293q-.406 0-.703-.297t-.297-.703q0-.414.293-.707t.707-.293.707.293.293.707zM8 12.5q0 .414-.293.707T7 13.5t-.707-.293T6 12.5t.293-.707T7 11.5t.707.293T8 12.5zM2.5 7q0 .414-.293.707T1.5 8t-.707-.293T.5 7t.293-.707T1.5 6t.707.293T2.5 7zm9.391 3.891q0 .406-.297.703t-.703.297q-.414 0-.707-.293t-.293-.707.293-.707.707-.293.707.293.293.707zM4.359 3.109q0 .516-.367.883t-.883.367-.883-.367-.367-.883.367-.883.883-.367.883.367.367.883zM13.5 7q0 .414-.293.707T12.5 8t-.707-.293T11.5 7t.293-.707T12.5 6t.707.293T13.5 7zm-5-5.5q0 .625-.438 1.062T7 3t-1.062-.438T5.5 1.5 5.938.438 7 0t1.062.438T8.5 1.5zm4.141 1.609q0 .727-.516 1.238t-1.234.512q-.727 0-1.238-.512t-.512-1.238q0-.719.512-1.234t1.238-.516q.719 0 1.234.516t.516 1.234z"/></svg>