<svg xmlns="http://www.w3.org/2000/svg" width="12" height="14" viewBox="0 0 12 14"><path fill="#444" d="M8.805 9.453q0-.25-.234-.398-1.508-.898-3.492-.898-1.039 0-2.242.266-.328.07-.328.406 0 .156.105.27t.277.113q.039 0 .289-.062 1.031-.211 1.898-.211 1.766 0 3.102.805.148.086.258.086.148 0 .258-.105t.109-.27zm.75-1.68q0-.312-.273-.477Q7.43 6.194 5.001 6.194q-1.195 0-2.367.328-.375.102-.375.5 0 .195.137.332t.332.137q.055 0 .289-.062.953-.258 1.961-.258 2.18 0 3.812.969.187.102.297.102.195 0 .332-.137t.137-.332zm.843-1.937q0-.367-.312-.547-.984-.57-2.289-.863t-2.68-.293q-1.594 0-2.844.367-.18.055-.301.199t-.121.379q0 .242.16.406t.402.164q.086 0 .312-.062 1.039-.289 2.398-.289 1.242 0 2.418.266t1.98.742q.164.094.312.094.227 0 .395-.16t.168-.402zM12 7q0 1.633-.805 3.012t-2.184 2.184-3.012.805-3.012-.805-2.184-2.184T-.002 7t.805-3.012 2.184-2.184T5.999.999t3.012.805 2.184 2.184T12 7z"/></svg>