<svg xmlns="http://www.w3.org/2000/svg" width="13" height="14" viewBox="0 0 13 14"><path fill="#444" d="M9.266 7.477l2.008-1.953-3.297-.484-.234-.469-1.242-2.516v7.523l.461.242 2.484 1.313-.469-2.773-.094-.516zm3.531-2.047L9.961 8.196l.672 3.906q.039.258-.047.402t-.266.145q-.133 0-.312-.094L6.5 10.711l-3.508 1.844q-.18.094-.312.094-.18 0-.266-.145t-.047-.402l.672-3.906L.195 5.43q-.25-.25-.18-.465t.422-.27l3.922-.57L6.117.57Q6.273.25 6.5.25q.219 0 .383.32l1.758 3.555 3.922.57q.352.055.422.27t-.187.465z"/></svg>