<svg xmlns="http://www.w3.org/2000/svg" width="13" height="14" viewBox="0 0 13 14"><path fill="#444" d="M8.883 7.844l2.391-2.32-3.297-.484L6.5 2.056 5.023 5.04l-3.297.484 2.391 2.32-.57 3.289L6.5 9.578l2.945 1.555zM13 5.055q0 .172-.203.375L9.961 8.196l.672 3.906q.008.055.008.156 0 .391-.32.391-.148 0-.312-.094l-3.508-1.844-3.508 1.844q-.172.094-.312.094-.164 0-.246-.113t-.082-.277q0-.047.016-.156l.672-3.906L.197 5.431Q.002 5.22.002 5.056q0-.289.438-.359l3.922-.57L6.12.572q.148-.32.383-.32t.383.32l1.758 3.555 3.922.57q.438.07.438.359z"/></svg>