<svg xmlns="http://www.w3.org/2000/svg" width="12" height="14" viewBox="0 0 12 14"><path fill="#444" d="M9.703 5.055q0-.625-.445-1.066t-1.07-.441-1.066.445-.441 1.062q0 .625.441 1.066t1.066.441 1.07-.441.445-1.066zM4.938 9.648q0 .648-.453 1.098t-1.094.449q-.438 0-.805-.227t-.563-.602q.406.156.766.312.469.187.937-.012t.664-.676q.187-.469-.012-.937t-.676-.656l-.641-.258q.172-.039.328-.039.641 0 1.094.449t.453 1.098zM12 3.25v7.5q0 .93-.66 1.59T9.75 13h-7.5q-.93 0-1.59-.66T0 10.75V9.555l1.344.539q.156.719.73 1.187t1.316.469q.813 0 1.414-.547t.68-1.352l2.695-1.969q1.172 0 1.996-.824t.824-1.988q0-1.172-.824-1.996T8.179 2.25q-1.156 0-1.977.816t-.836 1.973L3.608 7.555q-.07-.008-.219-.008-.586 0-1.07.289l-2.32-.93V3.25q0-.93.66-1.59T2.249 1h7.5q.93 0 1.59.66t.66 1.59zm-1.93 1.82q0 .781-.555 1.332t-1.336.551-1.332-.551-.551-1.332.551-1.336 1.332-.555q.789 0 1.34.551t.551 1.34z"/></svg>