<svg xmlns="http://www.w3.org/2000/svg" width="14" height="14" viewBox="0 0 14 14"><path fill="#444" d="M12.359 4.547q0 .789-.559 1.348t-1.348.559-1.348-.559-.559-1.348.559-1.348 1.348-.559 1.348.559.559 1.348zm-6.015 5.797q0-.813-.57-1.383t-1.383-.57q-.211 0-.422.047l.813.328q.602.242.855.832t.012 1.184q-.242.602-.836.852t-1.187.008q-.164-.062-.484-.191t-.477-.191q.25.469.711.754t1.016.285q.813 0 1.383-.57t.57-1.383zm6.484-5.789q0-.984-.699-1.684t-1.684-.699q-.992 0-1.691.699t-.699 1.684q0 .992.699 1.688t1.691.695q.984 0 1.684-.695t.699-1.688zm1.172 0q0 1.477-1.043 2.516T10.445 8.11l-3.414 2.492q-.094 1.008-.852 1.703T4.39 13q-.945 0-1.672-.594t-.922-1.5l-1.797-.719V6.835l3.039 1.227q.617-.375 1.352-.375.102 0 .273.016l2.219-3.18q.016-1.461 1.059-2.492T10.445 1q1.469 0 2.512 1.043T14 4.555z"/></svg>