<svg xmlns="http://www.w3.org/2000/svg" width="14" height="14" viewBox="0 0 14 14"><path fill="#444" d="M4.62 7.28c0 .462-.378.84-.84.84s-.84-.378-.84-.84.378-.84.84-.84.84.378.84.84zm3.01 2.66H6.286l-.266-.406-.182-.266-.266-.42c-.14-.252-.406-.448-.812-.448H2.94c-.7 0-.98.56-.98.98v2.1h3.08V9.52h.14l.616.952s0 .014.014.014c.07.084.168.14.28.14h1.54c.196 0 .35-.154.35-.35a.344.344 0 0 0-.35-.336zm4.41-1.54H5.88V2.24h6.16V8.4zm-5.88-.28h5.6v-5.6h-5.6v5.6z"/><path fill="#444" d="M8.358 4.41s0-.014-.014-.014l-.406-.518V3.22c.084 0 .14-.056.14-.14s-.056-.14-.14-.14h-.84c-.084 0-.14.056-.14.14s.056.14.14.14v.658l-.406.518-.014.014a.357.357 0 0 0 0 .336.336.336 0 0 0 .28.168h1.12c.126 0 .224-.056.28-.168s.056-.238 0-.336zm-.7-1.19v.7c0 .028.014.056.028.084l.154.196h-.644l.154-.196a.199.199 0 0 0 .028-.084v-.7h.28zm.882 3.64v-.28h-.294c-.014-.084-.056-.168-.098-.252l.21-.21-.196-.196-.21.21a.678.678 0 0 0-.252-.098V5.74h-.28v.294c-.084.014-.168.056-.252.098l-.21-.21-.196.196.21.21a.678.678 0 0 0-.098.252H6.58v.28h.294c.014.084.056.168.098.252l-.21.21.196.196.21-.21c.07.042.154.084.252.098V7.7h.28v-.294c.084-.014.168-.056.252-.098l.21.21.196-.196-.21-.21a.678.678 0 0 0 .098-.252h.294zM7.546 7c-.154 0-.28-.126-.28-.28s.126-.28.28-.28.28.126.28.28a.28.28 0 0 1-.28.28zm3.668-.84v-.28H9.828s-.322 0-.42.448c0 0-.014.084.056.056.098-.028.07-.28.462-.238 0 0 .042.826-.322 1.19 0 0-.154.126.014.238.084.07.364-.028.476-.308.126-.35.14-1.12.14-1.12h.266s-.266 1.47.35 1.47c.308 0 .378-.546.378-.546h-.056s-.182.42-.336.21c-.21-.28-.056-1.12-.056-1.12h.434zM9.002 3.71l.196.196a1.377 1.377 0 0 1 1.96 0l.196-.196a1.648 1.648 0 0 0-2.352 0z"/><path fill="#444" d="M9.422 4.06l.196.196c.154-.154.35-.238.56-.238s.42.084.56.238l.196-.196a1.04 1.04 0 0 0-1.512 0z"/><path fill="#444" d="M10.458 4.508a.28.28 0 1 1-.56 0 .28.28 0 0 1 .56 0z"/></svg>