<svg xmlns="http://www.w3.org/2000/svg" width="11" height="14" viewBox="0 0 11 14"><path fill="#444" d="M11 12q0 .492-.48.887t-1.281.633-1.758.359-1.98.121-1.98-.121-1.758-.359-1.281-.633T.002 12q0-.383.258-.691t.711-.52.922-.348 1.023-.23q.203-.039.375.082t.203.324q.039.203-.082.375t-.324.203q-.453.078-.828.184t-.598.199-.379.184-.215.152-.066.094q.023.086.211.207t.57.258.891.254 1.254.195T5.502 13t1.574-.078 1.254-.195.891-.258.57-.262.211-.215q-.008-.031-.066-.086t-.215-.148-.379-.184-.598-.195-.828-.184q-.203-.031-.324-.203t-.082-.375q.031-.203.203-.324t.375-.082q.555.094 1.023.23t.922.348.711.52.258.691zM8 5v3q0 .203-.148.352T7.5 8.5H7v3q0 .203-.148.352T6.5 12h-2q-.203 0-.352-.148T4 11.5v-3h-.5q-.203 0-.352-.148T3 8V5q0-.414.293-.707T4 4h3q.414 0 .707.293T8 5zm-.75-3q0 .727-.512 1.238T5.5 3.75t-1.238-.512T3.75 2 4.262.762 5.5.25t1.238.512T7.25 2z"/></svg>