<svg xmlns="http://www.w3.org/2000/svg" width="14" height="14" viewBox="0 0 14 14"><path fill="#444" d="M13.75 7q.109 0 .18.07t.07.18v.5q0 .109-.07.18t-.18.07H.25q-.109 0-.18-.07T0 7.75v-.5q0-.109.07-.18T.25 7h13.5zm-9.977-.5q-.219-.273-.398-.625Q3 5.117 3 4.406q0-1.414 1.047-2.414Q5.086 1 7.117 1q.391 0 1.305.148.516.094 1.383.375.078.297.164.922.109.961.109 1.43 0 .141-.039.352l-.094.023-.656-.047-.109-.016q-.391-1.164-.805-1.602-.688-.711-1.641-.711-.891 0-1.422.461-.523.453-.523 1.141 0 .57.516 1.094t2.18 1.008q.539.156 1.352.516.453.219.742.406H3.774zm3.961 2h3.211q.055.305.055.719 0 .867-.32 1.656-.18.43-.555.813-.289.273-.852.633-.625.375-1.195.516-.625.164-1.586.164-.891 0-1.523-.18l-1.094-.312q-.445-.125-.563-.219-.062-.062-.062-.172v-.102q0-.844-.016-1.219-.008-.234 0-.531l.016-.289v-.344l.797-.016q.117.266.234.555t.176.438.098.211q.273.445.625.734.336.281.82.445.461.172 1.031.172.5 0 1.086-.211.602-.203.953-.672.367-.477.367-1.008 0-.656-.633-1.227-.266-.227-1.07-.555z"/></svg>