<svg xmlns="http://www.w3.org/2000/svg" width="15" height="14" viewBox="0 0 15 14"><path fill="#444" d="M8.297 5.562V4.64q0-.328-.234-.563T7.5 3.843t-.563.234-.234.563v4.781q0 1.367-.984 2.336t-2.367.969q-1.391 0-2.371-.98t-.98-2.371V7.297h2.563v2.047q0 .336.234.566t.563.23.563-.23.234-.566V4.5q0-1.336.988-2.281t2.355-.945q1.375 0 2.359.953t.984 2.297v1.062l-1.523.453zm4.14 1.735H15v2.078q0 1.391-.98 2.371t-2.371.98q-1.383 0-2.367-.973t-.984-2.348V7.311l1.023.477 1.523-.453v2.109q0 .328.234.559t.563.23.563-.23.234-.559V7.296z"/></svg>