<svg xmlns="http://www.w3.org/2000/svg" width="12" height="14" viewBox="0 0 12 14"><path fill="#444" d="M6.766 6.555l.703-.211V5.86q0-.617-.453-1.055t-1.078-.438-1.078.434-.453 1.051v2.211q0 .156-.109.262t-.258.105-.254-.105-.105-.262v-.937h-1.18v.953q0 .641.449 1.086t1.09.445q.633 0 1.082-.441t.449-1.066V5.915q0-.148.105-.258t.262-.109q.148 0 .254.109t.105.258v.422zm2.601 1.523v-.953H8.195v.984q0 .156-.105.262t-.262.105q-.148 0-.254-.109t-.105-.258v-.961l-.703.203-.469-.219v.961q0 .625.453 1.07t1.086.445 1.082-.445.449-1.086zM12 7q0 1.633-.805 3.012t-2.184 2.184-3.012.805-3.012-.805-2.184-2.184T-.002 7t.805-3.012 2.184-2.184T5.999.999t3.012.805 2.184 2.184T12 7z"/></svg>