<svg xmlns="http://www.w3.org/2000/svg" width="12" height="14" viewBox="0 0 12 14"><path fill="#444" d="M7.008 10.695V12H5.071l-1.242-1.969-.187-.328q-.062-.07-.086-.164h-.023l-.07.164q-.078.156-.195.344L2.057 12H.041v-1.305h1L2.58 8.422 1.135 6.297H.065V4.984h2.156l1.086 1.781.18.328q.062.07.086.164h.023q.023-.07.086-.164l.195-.328 1.094-1.781h2.008v1.313h-.977L4.564 8.383l1.594 2.313h.852zM12 12.391V14H7.984l-.031-.211-.023-.359q0-.5.203-.914t.508-.676.656-.508.656-.426.508-.422.203-.5q0-.297-.23-.488t-.551-.191q-.398 0-.758.305-.109.086-.281.297l-.82-.719q.203-.289.492-.516.625-.508 1.469-.508.859 0 1.391.465t.531 1.238q0 .516-.27.926t-.656.672-.777.488-.68.492-.32.57h1.812v-.625H12z"/></svg>