<svg xmlns="http://www.w3.org/2000/svg" width="14" height="14" viewBox="0 0 14 14"><path fill="#444" d="M11.5 7q0-.914-.355-1.746t-.961-1.438-1.438-.961T7 2.5t-1.746.355-1.438.961-.961 1.438T2.5 7t.355 1.746.961 1.438 1.438.961T7 11.5t1.746-.355 1.438-.961.961-1.438T11.5 7zm2.156 2.164q-.031.117-.156.156l-2.281.75v2.391q0 .125-.102.203-.117.078-.227.031l-2.281-.734-1.406 1.937Q7.125 14 7 14t-.203-.102l-1.406-1.937-2.281.734q-.109.047-.227-.031-.102-.078-.102-.203V10.07L.5 9.32q-.125-.039-.156-.156-.039-.133.031-.227L1.781 7 .375 5.063q-.07-.102-.031-.227.031-.117.156-.156l2.281-.75V1.539q0-.125.102-.203.117-.078.227-.031l2.281.734L6.797.102Q6.867.008 7 .008t.203.094l1.406 1.937 2.281-.734q.109-.047.227.031.102.078.102.203V3.93l2.281.75q.125.039.156.156.039.125-.031.227L12.219 7l1.406 1.937q.07.094.031.227z"/></svg>