<svg xmlns="http://www.w3.org/2000/svg" width="15" height="14" viewBox="0 0 15 14"><path fill="#444" d="M3.5 3.5q0-.414-.293-.707T2.5 2.5t-.707.293T1.5 3.5t.293.707.707.293.707-.293T3.5 3.5zM11.836 8q0 .414-.289.703l-3.836 3.844q-.305.289-.711.289-.414 0-.703-.289L.711 6.953q-.297-.289-.504-.789T0 5.25V2q0-.406.297-.703T1 1h3.25q.414 0 .914.207t.797.504l5.586 5.578q.289.305.289.711zm3 0q0 .414-.289.703l-3.836 3.844q-.305.289-.711.289-.281 0-.461-.109t-.414-.352l3.672-3.672q.289-.289.289-.703 0-.406-.289-.711L7.211 1.711q-.297-.297-.797-.504T5.5 1h1.75q.414 0 .914.207t.797.504l5.586 5.578q.289.305.289.711z"/></svg>