<svg xmlns="http://www.w3.org/2000/svg" width="10" height="14" viewBox="0 0 10 14"><path fill="#444" d="M6.578 4.469q0 .625-.445 1.066t-1.062.441q-.469 0-.867-.273-.484.523-.898 1.141-1.93 2.898-1.578 6.711.008.172-.098.301t-.27.145h-.039q-.156 0-.273-.105t-.133-.262Q.806 12.65.888 11.7t.23-1.695.422-1.453.539-1.215.578-.977q.477-.703 1.031-1.289-.125-.273-.125-.602 0-.625.441-1.066t1.066-.441 1.066.441.441 1.066zm2.977.086q0 1.234-.609 2.281t-1.66 1.656-2.285.609q-.5 0-1.023-.109-.164-.039-.254-.184t-.051-.309q.039-.156.18-.246t.305-.059q.398.102.844.102.758 0 1.453-.297t1.195-.797.797-1.195.297-1.453-.297-1.453-.797-1.195-1.195-.797T5.002.812t-1.453.297-1.195.797-.797 1.195-.297 1.453q0 .891.406 1.703.078.156.027.312t-.199.234-.309.023-.238-.203q-.5-.961-.5-2.07 0-.93.363-1.773t.973-1.453T3.236.358t1.766-.359q1.234 0 2.285.609t1.66 1.66.609 2.285z"/></svg>