<svg xmlns="http://www.w3.org/2000/svg" width="12" height="14" viewBox="0 0 12 14"><path fill="#444" d="M.633 1.008l.422.211q.094.039 1.648.039.344 0 1.031-.016t1.031-.016q.547 0 1.926-.008t2.379-.004 1.93.035q.258.008.438-.242l.328-.008q.031 0 .109.004t.109.004Q12 1.882 12 3.632q0 .625-.039.852-.305.109-.531.141-.195-.344-.422-1-.023-.07-.086-.371t-.117-.574-.055-.281q-.078-.102-.211-.148-.039-.016-.516-.016-.234 0-.727-.008t-.805-.008-.734.016-.75.055q-.07.633-.062 1.062l.008 1.187v-.406q0 .43.008 1.203t.012 1.406.004 1.195q0 .125-.02.559t0 .715.098.539q.312.164.969.332t.937.293q.039.312.039.391 0 .109-.023.227l-.266.008q-.594.016-1.703-.062t-1.617-.078q-.391 0-1.18.07t-1.187.07l-.023-.406v-.07q.133-.211.48-.336t.77-.227.609-.211q.055-.125.09-.578t.047-1.137.012-1.211-.004-1.199-.004-.695q0-.055-.02-.168t-.02-.176l.004-.344.008-.57q.004-.281 0-.598t-.023-.527-.051-.25q-.086-.094-1.266-.094-.32 0-1.273.105T1.282 2.5q-.148.094-.266.559T.77 3.93t-.332.422Q.11 4.149 0 4.008V1.016zm9.601 10.015q.094 0 .328.152t.449.324.465.383.281.234q.203.164.203.383t-.203.383q-.031.023-.281.234t-.465.383-.449.324-.328.152q-.102 0-.16-.082t-.078-.223-.02-.262.012-.258.012-.152H2q0 .016.012.152t.012.258-.02.262-.078.223-.16.082q-.094 0-.328-.152t-.449-.324-.465-.383-.281-.234q-.203-.164-.203-.383t.203-.383q.031-.023.281-.234t.465-.383.449-.324.328-.152q.102 0 .16.082t.078.223.02.262-.012.258T2 12h8q0-.016-.012-.152t-.012-.258.02-.262.078-.223.16-.082z"/></svg>