<svg xmlns="http://www.w3.org/2000/svg" width="14" height="14" viewBox="0 0 14 14"><path fill="#444" d="M13.625 11q.258 0 .328.145t-.086.348l-.984 1.266q-.156.203-.383.203t-.383-.203l-.984-1.266q-.156-.203-.086-.348t.328-.145H12V3h-.625q-.258 0-.328-.145t.086-.348l.984-1.266q.156-.203.383-.203t.383.203l.984 1.266q.156.203.086.348T13.625 3H13v8h.625zM.633 1.008l.422.211q.094.039 1.648.039.344 0 1.031-.016t1.031-.016q.281 0 .84.004t.84.004h2.289q.047 0 .164.004t.16 0 .125-.023.137-.07.117-.137L9.765 1q.031 0 .109.004t.109.004q.016.875.016 2.625 0 .625-.039.852-.305.109-.531.141-.195-.344-.422-1-.023-.07-.086-.375t-.113-.574-.059-.277q-.047-.062-.094-.098t-.121-.047-.102-.02-.141-.004-.129.004q-.133 0-.52-.004t-.582-.004-.5.016-.555.047q-.07.633-.062 1.062 0 .734.016 3.031t.016 3.555q0 .125-.02.559t0 .715.098.539q.312.164.969.332t.937.293q.039.312.039.391 0 .109-.023.227l-.266.008q-.594.016-1.703-.062t-1.617-.078q-.391 0-1.18.07t-1.187.07l-.023-.406v-.07q.133-.211.48-.336t.77-.227.609-.211q.148-.328.148-2.992 0-.789-.023-2.367T3.96 4.026v-.914l.004-.121q.004-.105.004-.195t-.008-.199-.023-.187-.039-.109q-.086-.094-1.266-.094-.258 0-.727.094t-.625.203q-.148.102-.266.566t-.246.867-.332.418q-.328-.203-.438-.344V1.019z"/></svg>