<svg xmlns="http://www.w3.org/2000/svg" width="13" height="14" viewBox="0 0 13 14"><path fill="#444" d="M6 8v3q0 .406-.297.703T5 12H1q-.406 0-.703-.297T0 11V8q0-.406.297-.703T1 7h4q.406 0 .703.297T6 8zm0-6v3q0 .406-.297.703T5 6H1q-.406 0-.703-.297T0 5V2q0-.406.297-.703T1 1h4q.406 0 .703.297T6 2zm7 6v3q0 .406-.297.703T12 12H8q-.406 0-.703-.297T7 11V8q0-.406.297-.703T8 7h4q.406 0 .703.297T13 8zm0-6v3q0 .406-.297.703T12 6H8q-.406 0-.703-.297T7 5V2q0-.406.297-.703T8 1h4q.406 0 .703.297T13 2z"/></svg>