<svg xmlns="http://www.w3.org/2000/svg" width="14" height="14" viewBox="0 0 14 14"><path fill="#444" d="M4 9.75v1.5q0 .312-.219.531T3.25 12H.75q-.312 0-.531-.219T0 11.25v-1.5q0-.312.219-.531T.75 9h2.5q.312 0 .531.219T4 9.75zm0-4v1.5q0 .312-.219.531T3.25 8H.75q-.312 0-.531-.219T0 7.25v-1.5q0-.312.219-.531T.75 5h2.5q.312 0 .531.219T4 5.75zm5 4v1.5q0 .312-.219.531T8.25 12h-2.5q-.312 0-.531-.219T5 11.25v-1.5q0-.312.219-.531T5.75 9h2.5q.312 0 .531.219T9 9.75zm-5-8v1.5q0 .312-.219.531T3.25 4H.75q-.312 0-.531-.219T0 3.25v-1.5q0-.312.219-.531T.75 1h2.5q.312 0 .531.219T4 1.75zm5 4v1.5q0 .312-.219.531T8.25 8h-2.5q-.312 0-.531-.219T5 7.25v-1.5q0-.312.219-.531T5.75 5h2.5q.312 0 .531.219T9 5.75zm5 4v1.5q0 .312-.219.531T13.25 12h-2.5q-.312 0-.531-.219T10 11.25v-1.5q0-.312.219-.531T10.75 9h2.5q.312 0 .531.219T14 9.75zm-5-8v1.5q0 .312-.219.531T8.25 4h-2.5q-.312 0-.531-.219T5 3.25v-1.5q0-.312.219-.531T5.75 1h2.5q.312 0 .531.219T9 1.75zm5 4v1.5q0 .312-.219.531T13.25 8h-2.5q-.312 0-.531-.219T10 7.25v-1.5q0-.312.219-.531T10.75 5h2.5q.312 0 .531.219T14 5.75zm0-4v1.5q0 .312-.219.531T13.25 4h-2.5q-.312 0-.531-.219T10 3.25v-1.5q0-.312.219-.531T10.75 1h2.5q.312 0 .531.219T14 1.75z"/></svg>