<svg xmlns="http://www.w3.org/2000/svg" width="13" height="14" viewBox="0 0 13 14"><path fill="#444" d="M2 10.5q0-.203-.148-.352T1.5 10q-.211 0-.355.148T1 10.5q0 .211.145.355T1.5 11q.203 0 .352-.145T2 10.5zm1.25-4v5q0 .203-.148.352T2.75 12H.5q-.203 0-.352-.148T0 11.5v-5q0-.203.148-.352T.5 6h2.25q.203 0 .352.148t.148.352zm9.25 0q0 .672-.43 1.164.117.344.117.594.023.594-.336 1.07.133.438 0 .914-.117.445-.422.734.07.875-.383 1.414-.5.594-1.539.609H8.499q-.516 0-1.125-.121t-.949-.227-.941-.309q-.961-.336-1.234-.344-.203-.008-.352-.152t-.148-.348V6.49q0-.195.141-.34t.336-.16q.187-.016.594-.461t.789-.945q.531-.68.789-.937.141-.141.242-.375t.137-.379.105-.473q.055-.305.098-.477t.152-.406.266-.391q.148-.148.352-.148.359 0 .645.082t.469.203.312.316.187.352.094.391.039.352.004.305q0 .297-.074.594t-.148.469-.215.438q-.023.047-.078.141t-.086.172T8.838 5h2.164q.609 0 1.055.445t.445 1.055z"/></svg>