<svg xmlns="http://www.w3.org/2000/svg" width="12" height="14" viewBox="0 0 12 14"><path fill="#444" d="M2 10.5q0-.203-.148-.352T1.5 10t-.352.148T1 10.5t.148.352T1.5 11t.352-.148T2 10.5zM11 6q0-.398-.305-.699T10 5H7.25q0-.453.375-1.246T8 2.5q0-.766-.25-1.133T6.75 1q-.203.203-.297.664t-.238.98-.465.855q-.172.18-.602.711l-.18.234-.246.32q-.097.125-.27.332t-.312.344-.301.277-.312.211-.277.07H3v5h.25q.102 0 .246.023t.258.051.297.086.273.09.277.098.227.082q1.648.57 2.672.57h.945q1.5 0 1.5-1.305 0-.203-.039-.438.234-.125.371-.41t.137-.574-.141-.539q.414-.391.414-.93 0-.195-.078-.434t-.195-.371q.25-.008.418-.367T11 5.997zm1-.008q0 .695-.383 1.273.07.258.07.539 0 .602-.297 1.125.023.164.023.336 0 .789-.469 1.391.008 1.086-.664 1.715T8.507 13H7.499q-.75 0-1.48-.176t-1.691-.512Q3.422 12 3.25 12H1q-.414 0-.707-.293T0 11V6q0-.414.293-.707T1 5h2.141q.281-.187 1.07-1.211.453-.586.836-1 .187-.195.277-.668t.238-.988.484-.844Q6.351 0 6.749 0q.656 0 1.18.254t.797.793.273 1.453q0 .727-.375 1.5h1.375q.813 0 1.406.594t.594 1.398z"/></svg>