<svg xmlns="http://www.w3.org/2000/svg" width="13" height="14" viewBox="0 0 13 14"><path fill="#444" d="M2 4.5q0 .203-.148.352T1.5 5q-.211 0-.355-.148T1 4.5q0-.211.145-.355T1.5 4q.203 0 .352.145T2 4.5zm1.25 4v-5q0-.203-.148-.352T2.75 3H.5q-.203 0-.352.148T0 3.5v5q0 .203.148.352T.5 9h2.25q.203 0 .352-.148T3.25 8.5zm8.82-1.164q.43.477.43 1.164-.008.609-.449 1.055T11 10H8.836q.031.109.062.187t.086.172.078.141q.141.289.211.445t.148.457.078.598q0 .187-.004.305t-.039.352-.094.391-.187.352-.312.316-.469.203-.645.082q-.203 0-.352-.148-.156-.156-.266-.391t-.152-.406-.098-.477q-.07-.328-.105-.473t-.137-.379-.242-.375q-.258-.258-.789-.937-.383-.5-.789-.945t-.594-.461q-.195-.016-.336-.16t-.141-.34V3.501q0-.203.148-.348t.352-.152q.273-.008 1.234-.344.602-.203.941-.309t.949-.227T8.497 2h1.008q1.039.016 1.539.609.453.539.383 1.414.305.289.422.734.133.477 0 .914.359.477.336 1.07 0 .25-.117.594z"/></svg>