<svg xmlns="http://www.w3.org/2000/svg" width="12" height="14" viewBox="0 0 12 14"><path fill="#444" d="M2 3.5q0-.203-.148-.352T1.5 3t-.352.148T1 3.5t.148.352T1.5 4t.352-.148T2 3.5zM11 8q0-.273-.168-.633T10.414 7q.117-.133.195-.371t.078-.434q0-.539-.414-.93.141-.25.141-.539t-.137-.574-.371-.41q.039-.234.039-.438 0-.664-.383-.984T8.5 2h-1q-1.023 0-2.672.57-.039.016-.227.082t-.277.098-.273.09-.297.086-.258.051T3.25 3H3v5h.25q.125 0 .277.07t.312.211.301.277.312.344.27.332.246.32.18.234q.43.531.602.711.32.336.465.855t.238.98.297.664q.75 0 1-.367T8 11.498q0-.461-.375-1.254T7.25 8.998H10q.391 0 .695-.301T11 7.998zm1 .008q0 .805-.594 1.398T10 10H8.625Q9 10.773 9 11.5q0 .922-.273 1.453-.273.539-.797.793T6.75 14q-.398 0-.703-.289-.266-.258-.422-.641t-.199-.707-.137-.66-.242-.5q-.375-.391-.836-.992Q3.422 9.188 3.141 9H1q-.414 0-.707-.293T0 8V3q0-.414.293-.707T1 2h2.25q.172 0 1.078-.312 1-.344 1.742-.516T7.633 1h.875q1.094 0 1.77.617t.668 1.688v.039q.469.602.469 1.391 0 .172-.023.336.297.523.297 1.125 0 .281-.07.539.383.578.383 1.273z"/></svg>