<svg xmlns="http://www.w3.org/2000/svg" width="14" height="14" viewBox="0 0 14 14"><path fill="#444" d="M8 3.531L10.469 6 6 10.469 3.531 8zM6.352 11.18l4.828-4.828q.148-.148.148-.352t-.148-.352L8.352 2.82Q8.211 2.679 8 2.679t-.352.141L2.82 7.648q-.148.148-.148.352t.148.352l2.828 2.828q.141.141.352.141t.352-.141zm6.945-4.977l-7.086 7.094q-.289.289-.707.289t-.707-.289l-.984-.984q.438-.438.438-1.062t-.438-1.062-1.062-.438-1.062.438l-.977-.984q-.289-.289-.289-.707t.289-.707L7.798.713q.289-.289.707-.289t.707.289l.977.977q-.438.438-.438 1.062t.438 1.062 1.062.438 1.062-.438l.984.977q.289.289.289.707t-.289.707z"/></svg>