<svg xmlns="http://www.w3.org/2000/svg" width="12" height="14" viewBox="0 0 12 14"><path fill="#444" d="M8.977 8.766q0-.203-.148-.352L7.415 7l1.414-1.414q.148-.148.148-.352 0-.211-.148-.359l-.703-.703q-.148-.148-.359-.148-.203 0-.352.148L6.001 5.586 4.587 4.172q-.148-.148-.352-.148-.211 0-.359.148l-.703.703q-.148.148-.148.359 0 .203.148.352L4.587 7 3.173 8.414q-.148.148-.148.352 0 .211.148.359l.703.703q.148.148.359.148.203 0 .352-.148l1.414-1.414 1.414 1.414q.148.148.352.148.211 0 .359-.148l.703-.703q.148-.148.148-.359zM12 7q0 1.633-.805 3.012t-2.184 2.184-3.012.805-3.012-.805-2.184-2.184T-.002 7t.805-3.012 2.184-2.184T5.999.999t3.012.805 2.184 2.184T12 7z"/></svg>