<svg xmlns="http://www.w3.org/2000/svg" width="14" height="14" viewBox="0 0 14 14"><path fill="#444" d="M9.8 6.86v-2.1c0-1.54-1.26-2.8-2.8-2.8s-2.8 1.26-2.8 2.8v2.1h-.98v5.18h7.56V6.86H9.8zm-2.59 4.2h-.28c-.084 0-.14-.056-.14-.14s.056-.14.14-.14h.28c.084 0 .14.056.14.14s-.056.14-.14.14zm.14-.42h-.56c-.084 0-.14-.056-.14-.14s.056-.14.14-.14h.56c.084 0 .14.056.14.14s-.056.14-.14.14zm.42-1.176c-.294.364-.28.616-.28.616 0 .084-.056.14-.14.14h-.56c-.084 0-.14-.056-.14-.14 0 0 .014-.252-.28-.616a.9.9 0 0 1-.21-.574c0-.504.406-.91.91-.91s.91.406.91.91a.83.83 0 0 1-.21.574zM5.32 6.86v-2.1c0-.924.756-1.68 1.68-1.68s1.68.756 1.68 1.68v2.1H5.32z"/></svg>