<svg xmlns="http://www.w3.org/2000/svg" width="15" height="14" viewBox="0 0 15 14"><path fill="#444" d="M6.695 4.25v.914q0 .102-.074.172t-.176.07H4.117v6.344q0 .102-.07.176T3.875 12H2.82q-.102 0-.176-.07t-.074-.18V5.406H.25q-.102 0-.176-.07T0 5.164V4.25q0-.109.07-.18T.25 4h6.195q.102 0 .176.074t.074.176zm8.11-.023l.602 7.508q.008.102-.062.187-.078.078-.18.078h-1.047q-.094 0-.164-.066t-.078-.16l-.359-4.594-1.477 3.32q-.062.148-.227.148h-.937q-.156 0-.227-.148L9.18 7.164l-.352 4.609q-.008.094-.078.16t-.164.066H7.531q-.102 0-.18-.078-.07-.078-.07-.187l.609-7.508q.008-.094.078-.16T8.132 4h1.109q.156 0 .227.148l1.719 4.063q.078.187.156.398.023-.055.074-.191t.082-.207l1.727-4.063q.07-.148.227-.148h1.102q.102 0 .172.066t.078.16z"/></svg>