<svg xmlns="http://www.w3.org/2000/svg" width="13" height="14" viewBox="0 0 13 14"><path fill="#444" d="M10 .25q0-.109.07-.18t.18-.07h2.25q.203 0 .352.148T13 .5v2.25q0 .109-.07.18t-.18.07h-.5q-.109 0-.18-.07T12 2.75V1.703l-1.984 1.992Q11 4.929 11 6.5q0 1.727-1.152 3.004T7 10.969V12h.75q.109 0 .18.07t.07.18v.5q0 .109-.07.18t-.18.07H7v.75q0 .109-.07.18t-.18.07h-.5q-.109 0-.18-.07T6 13.75V13h-.75q-.109 0-.18-.07T5 12.75v-.5q0-.109.07-.18t.18-.07H6v-1.031q-1.695-.187-2.848-1.465T2 6.5q0-1.57.984-2.805l-.406-.414-.789.867q-.07.078-.172.082t-.18-.059l-.375-.344Q.984 3.765.98 3.659t.066-.184l.82-.898-.867-.875v1.047q0 .109-.07.18t-.18.07h-.5q-.109 0-.18-.07t-.07-.18V.499q0-.203.148-.352t.352-.148h2.25q.109 0 .18.07t.07.18v.5q0 .109-.07.18t-.18.07H1.71l.828.836.672-.734q.07-.078.172-.082t.18.059l.375.344q.078.062.082.168t-.066.184l-.703.773.445.438q1.234-.984 2.805-.984t2.805.984l1.992-1.984H10.25q-.109 0-.18-.07T10 .751v-.5zM6.5 10q1.445 0 2.473-1.027T10 6.5 8.973 4.027 6.5 3 4.027 4.027 3 6.5t1.027 2.473T6.5 10z"/></svg>