<svg xmlns="http://www.w3.org/2000/svg" width="11" height="14" viewBox="0 0 11 14"><path fill="#444" d="M4 10.75v-5.5q0-.109-.07-.18T3.75 5h-.5q-.109 0-.18.07T3 5.25v5.5q0 .109.07.18t.18.07h.5q.109 0 .18-.07t.07-.18zm2 0v-5.5q0-.109-.07-.18T5.75 5h-.5q-.109 0-.18.07T5 5.25v5.5q0 .109.07.18t.18.07h.5q.109 0 .18-.07t.07-.18zm2 0v-5.5q0-.109-.07-.18T7.75 5h-.5q-.109 0-.18.07T7 5.25v5.5q0 .109.07.18t.18.07h.5q.109 0 .18-.07t.07-.18zM3.75 3h3.5l-.375-.914Q6.82 2.016 6.742 2H4.265q-.078.016-.133.086zm7.25.25v.5q0 .109-.07.18t-.18.07H10v7.406q0 .648-.367 1.121T8.75 13h-6.5q-.516 0-.883-.457T1 11.438V4H.25q-.109 0-.18-.07T0 3.75v-.5q0-.109.07-.18T.25 3h2.414l.547-1.305q.117-.289.422-.492T4.25 1h2.5q.312 0 .617.203t.422.492L8.336 3h2.414q.109 0 .18.07t.07.18z"/></svg>