<svg xmlns="http://www.w3.org/2000/svg" width="12" height="14" viewBox="0 0 12 14"><path fill="#444" d="M11.75 11.5q0 .203-.148.352T11.25 12H7.641q.008.133.047.684t.039.848q0 .195-.141.332t-.336.137h-2.5q-.195 0-.336-.137t-.141-.332q0-.297.039-.848T4.359 12H.75q-.203 0-.352-.148T.25 11.5t.148-.352L3.539 8H1.75q-.203 0-.352-.148T1.25 7.5t.148-.352L4.539 4H3q-.203 0-.352-.148T2.5 3.5t.148-.352l3-3Q5.796 0 6 0t.352.148l3 3q.148.148.148.352t-.148.352T9 4H7.461l3.141 3.148q.148.148.148.352t-.148.352T10.25 8H8.461l3.141 3.148q.148.148.148.352z"/></svg>