<svg xmlns="http://www.w3.org/2000/svg" width="18" height="14" viewBox="0 0 18 14"><path fill="#444" d="M5.086 7.789q0 .305-.215.52t-.512.215q-.305 0-.52-.215t-.215-.52q0-.297.215-.512t.52-.215q.297 0 .512.215t.215.512zm9.016-.008q0 .305-.215.52t-.52.215-.52-.215-.215-.52.215-.516.52-.211.52.211.215.516zm-8.125.008q0-.617-.441-1.062T4.47 6.282t-1.066.441-.441 1.066.441 1.066 1.066.441 1.066-.441.441-1.066zm9.007-.008q0-.625-.441-1.066t-1.066-.441q-.617 0-1.062.441t-.445 1.066.441 1.066 1.066.441 1.066-.441.441-1.066zm-8.343.008q0 .906-.637 1.543t-1.535.637q-.906 0-1.543-.641t-.637-1.539.641-1.535 1.539-.637 1.535.637.637 1.535zm9.015-.008q0 .898-.637 1.535t-1.543.637q-.898 0-1.535-.637t-.637-1.535.637-1.535 1.535-.637q.906 0 1.543.637t.637 1.535zm-7.531.024q0-1.492-1.059-2.551T4.515 4.195q-.977 0-1.805.484T1.398 5.995.914 7.804t.484 1.809 1.312 1.316 1.805.484q1.492 0 2.551-1.059t1.059-2.551zm5.219-4.477Q11.36 2.461 9 2.461q-2.492 0-4.477.859.914 0 1.742.355t1.426.957.953 1.43.355 1.742q0-.898.34-1.715t.922-1.41 1.387-.961 1.695-.391zm3.742 4.477q0-1.492-1.055-2.551t-2.547-1.059-2.551 1.059-1.059 2.551 1.059 2.551 2.551 1.059 2.547-1.059 1.055-2.551zm-2.078-4.422H18q-.344.398-.586.895t-.312.895q.859 1.18.859 2.633 0 1.219-.602 2.25t-1.633 1.629-2.242.598q-1.039 0-1.945-.438t-1.531-1.211q-.367.438-1.008 1.398-.086-.172-.418-.645T8 10.625q-.625.773-1.535 1.215t-1.949.441q-1.211 0-2.242-.598T.641 10.054t-.602-2.25q0-1.453.859-2.633-.07-.398-.312-.895T0 3.381h2.852Q4.016 2.6 5.625 2.158T9 1.717q1.75 0 3.289.437t2.719 1.227z"/></svg>