<svg xmlns="http://www.w3.org/2000/svg" width="14" height="14" viewBox="0 0 14 14"><path fill="#444" d="M5 11q0-.406-.297-.703T4 10t-.703.297T3 11t.297.703T4 12t.703-.297T5 11zM2 7h3V5H3.766q-.102 0-.172.07L2.071 6.593q-.07.07-.07.172v.234zm10 4q0-.406-.297-.703T11 10t-.703.297T10 11t.297.703T11 12t.703-.297T12 11zm2-8.5v8q0 .117-.031.207t-.105.145-.129.09-.184.047-.176.016-.199 0-.176-.004q0 .828-.586 1.414T11 13.001t-1.414-.586T9 11.001H6q0 .828-.586 1.414T4 13.001t-1.414-.586T2 11.001h-.5l-.176.004q-.153.004-.199 0t-.176-.016-.184-.047-.129-.09-.105-.145T.5 10.5q0-.203.148-.352T1 10V7.5l-.004-.273q-.004-.211 0-.297t.02-.27.051-.289.109-.238.176-.234l1.547-1.547q.148-.148.395-.25T3.751 4h1.25V2.5q0-.203.148-.352T5.501 2h8q.203 0 .352.148t.148.352z"/></svg>