<svg xmlns="http://www.w3.org/2000/svg" width="9" height="14" viewBox="0 0 9 14"><path fill="#444" d="M9 6.5q0 1.492-.738 2.758t-2.004 2.004T3.5 12H2.25q-.109 0-.18-.07T2 11.75V6.977l-1.68.516q-.023.008-.07.008-.078 0-.148-.047Q0 7.376 0 7.251v-1q0-.18.18-.242L2 5.454v-.727l-1.68.516q-.023.008-.07.008-.078 0-.148-.047Q0 5.126 0 5.001v-1q0-.18.18-.242L2 3.204V1.251q0-.109.07-.18t.18-.07H3.5q.109 0 .18.07t.07.18v1.414l2.93-.906q.117-.039.219.039t.102.203v1q0 .18-.18.242l-3.07.945v.727l2.93-.906q.117-.039.219.039t.102.203v1q0 .18-.18.242l-3.07.945v3.805q1.469-.102 2.484-1.18T7.252 6.5q0-.109.07-.18t.18-.07h1.25q.109 0 .18.07t.07.18z"/></svg>