<svg xmlns="http://www.w3.org/2000/svg" width="14" height="14" viewBox="0 0 14 14"><path fill="#444" d="M3.5 10.25v1.5q0 .109-.07.18t-.18.07h-1.5q-.109 0-.18-.07t-.07-.18v-1.5q0-.109.07-.18t.18-.07h1.5q.109 0 .18.07t.07.18zm-1.5-3v1.5q0 .109-.07.18T1.75 9H.25q-.109 0-.18-.07T0 8.75v-1.5q0-.109.07-.18T.25 7h1.5q.109 0 .18.07t.07.18zm4.5 3v1.5q0 .109-.07.18t-.18.07h-1.5q-.109 0-.18-.07t-.07-.18v-1.5q0-.109.07-.18t.18-.07h1.5q.109 0 .18.07t.07.18zm-1.5-3v1.5q0 .109-.07.18T4.75 9h-1.5q-.109 0-.18-.07T3 8.75v-1.5q0-.109.07-.18T3.25 7h1.5q.109 0 .18.07t.07.18zM.516 6q-.219 0-.367-.148t-.148-.359V4.485h4.016v1.008q0 .211-.148.359T3.51 6H.518zM9.5 10.25v1.5q0 .109-.07.18t-.18.07h-1.5q-.109 0-.18-.07t-.07-.18v-1.5q0-.109.07-.18t.18-.07h1.5q.109 0 .18.07t.07.18zm-1.5-3v1.5q0 .109-.07.18T7.75 9h-1.5q-.109 0-.18-.07T6 8.75v-1.5q0-.109.07-.18T6.25 7h1.5q.109 0 .18.07t.07.18zm4.5 3v1.5q0 .109-.07.18t-.18.07h-1.5q-.109 0-.18-.07t-.07-.18v-1.5q0-.109.07-.18t.18-.07h1.5q.109 0 .18.07t.07.18zm-1.5-3v1.5q0 .109-.07.18t-.18.07h-1.5q-.109 0-.18-.07T9 8.75v-1.5q0-.109.07-.18T9.25 7h1.5q.109 0 .18.07t.07.18zm3-3.187v.102H9.984v-.078q0-.813-2.984-.797-2.984.008-2.984.797v.078H0v-.102q0-.133.066-.336t.266-.5.512-.59.863-.594 1.25-.527 1.75-.371T7 1t2.289.145 1.75.371 1.254.527.863.594.512.59.266.5.066.336zm0 3.187v1.5q0 .109-.07.18t-.18.07h-1.5q-.109 0-.18-.07T12 8.75v-1.5q0-.109.07-.18t.18-.07h1.5q.109 0 .18.07t.07.18zm0-2.766v1.008q0 .211-.148.359t-.359.148h-3q-.211 0-.359-.148t-.148-.359V4.484h4.016z"/></svg>