<svg xmlns="http://www.w3.org/2000/svg" width="12" height="14" viewBox="0 0 12 14"><path fill="#444" d="M8.875 11.414l-.484-1.43q-.344.172-.805.172-.281.008-.484-.082t-.301-.246-.137-.316-.039-.34V6.063h2.008V4.547h-2V2H5.164q-.062 0-.07.078-.039.344-.137.68t-.305.742-.602.742-.926.531v1.289H4.14v3.266q0 .445.168.898t.508.867.945.668 1.379.238q.539-.008 1.066-.195t.668-.391zM12 3.25v7.5q0 .93-.66 1.59T9.75 13h-7.5q-.93 0-1.59-.66T0 10.75v-7.5q0-.93.66-1.59T2.25 1h7.5q.93 0 1.59.66T12 3.25z"/></svg>