<svg xmlns="http://www.w3.org/2000/svg" width="12" height="14" viewBox="0 0 12 14"><path fill="#444" d="M10 4.766q-.438.195-.945.266.531-.312.727-.914-.508.297-1.047.398Q8.258 4 7.54 4q-.68 0-1.16.48T5.9 5.64q0 .227.039.375-1.008-.055-1.891-.508t-1.5-1.211q-.227.391-.227.828 0 .891.711 1.367-.367-.008-.781-.203v.016q0 .586.391 1.043t.961.566q-.227.062-.398.062-.102 0-.305-.031.164.492.582.813t.949.328q-.906.703-2.039.703-.203 0-.391-.023 1.156.734 2.516.734.875 0 1.641-.277t1.313-.742.941-1.07.586-1.266.191-1.316q0-.141-.008-.211.492-.352.82-.852zm2-1.516v7.5q0 .93-.66 1.59T9.75 13h-7.5q-.93 0-1.59-.66T0 10.75v-7.5q0-.93.66-1.59T2.25 1h7.5q.93 0 1.59.66T12 3.25z"/></svg>