<svg xmlns="http://www.w3.org/2000/svg" width="13" height="14" viewBox="0 0 13 14"><path fill="#444" d="M7 6.469V11q0 .813-.594 1.406T5 13t-1.406-.594T3 11q0-.203.148-.352T3.5 10.5t.352.148T4 11q0 .391.305.695T5 12t.695-.305T6 11V6.469q.258-.086.5-.086t.5.086zm6 .211q0 .102-.074.176t-.176.074q-.086 0-.18-.078-.383-.359-.727-.539t-.797-.18q-.531 0-1 .289t-.805.758q-.055.078-.137.219t-.113.187q-.086.133-.219.133-.141 0-.227-.133-.031-.047-.113-.187t-.137-.219q-.336-.469-.801-.758t-.996-.289-.996.289-.801.758q-.055.078-.137.219t-.113.187q-.086.133-.227.133-.133 0-.219-.133-.031-.047-.113-.187t-.137-.219q-.336-.469-.805-.758t-1-.289q-.453 0-.797.18t-.727.539q-.094.078-.18.078-.102 0-.176-.074t-.074-.176q0-.039.008-.055.352-1.43 1.348-2.496T3.68 2.531 6.496 2q1.094 0 2.145.312t1.926.887 1.52 1.461.902 1.965q.008.016.008.055zM7 1v.766q-.328-.016-.5-.016t-.5.016V1q0-.203.148-.352T6.5.5t.352.148T7 1z"/></svg>