<svg xmlns="http://www.w3.org/2000/svg" width="12" height="14" viewBox="0 0 12 14"><path fill="#444" d="M.375 1.742q-.289-.016-.352-.031L0 1.023q.102-.008.312-.008.469 0 .875.031 1.031.055 1.297.055.672 0 1.313-.023l1.141-.039q.438 0 .672-.016l-.008.109.016.5v.07q-.469.07-.969.07-.469 0-.617.195-.102.109-.102 1.031 0 .102.004.254t.004.199l.008 1.789.109 2.188q.047.969.398 1.578.273.461.75.719.688.367 1.383.367.813 0 1.492-.219.438-.141.773-.398.375-.281.508-.5.281-.438.414-.891.164-.57.164-1.789 0-.617-.027-1t-.086-.957-.105-1.246l-.031-.461q-.039-.523-.187-.688-.266-.273-.602-.266l-.781.016-.109-.023.016-.672h.656l1.602.078q.594.023 1.531-.078l.141.016q.047.297.047.398 0 .055-.031.242-.352.094-.656.102-.57.086-.617.133-.117.117-.117.32 0 .055.012.211t.012.242q.062.148.172 3.094.047 1.523-.117 2.375-.117.594-.32.953-.297.508-.875.961-.586.445-1.422.695-.852.258-1.992.258-1.305 0-2.219-.359-.93-.367-1.398-.953-.477-.594-.648-1.523-.125-.625-.125-1.852V3.709q0-1.469-.133-1.664Q1.333 1.764.38 1.74zM12 12.75v-.5q0-.109-.07-.18t-.18-.07H.25q-.109 0-.18.07t-.07.18v.5q0 .109.07.18t.18.07h11.5q.109 0 .18-.07t.07-.18z"/></svg>