<svg xmlns="http://www.w3.org/2000/svg" width="13" height="14" viewBox="0 0 13 14"><path fill="#444" d="M10 11.5q0-.203-.148-.352T9.5 11t-.352.148T9 11.5t.148.352T9.5 12t.352-.148T10 11.5zm2 0q0-.203-.148-.352T11.5 11t-.352.148T11 11.5t.148.352.352.148.352-.148T12 11.5zm1-1.75v2.5q0 .312-.219.531T12.25 13H.75q-.312 0-.531-.219T0 12.25v-2.5q0-.312.219-.531T.75 9h3.336q.164.438.551.719T5.5 10h2q.477 0 .863-.281T8.914 9h3.336q.312 0 .531.219T13 9.75zm-2.539-5.063q-.133.312-.461.312H8v3.5q0 .203-.148.352t-.352.148h-2q-.203 0-.352-.148T5 8.499v-3.5H3q-.328 0-.461-.312-.133-.305.109-.539l3.5-3.5Q6.289.5 6.5.5t.352.148l3.5 3.5q.242.234.109.539z"/></svg>