<svg xmlns="http://www.w3.org/2000/svg" width="11" height="14" viewBox="0 0 11 14"><path fill="#444" d="M4.5 12l.75-3.5-.75-1-1-.5zm2 0l1-5-1 .5-.75 1zm1.25-7.891q-.016-.031-.031-.047Q7.641 4 6.969 4q-.547 0-1.305.148-.055.016-.164.016t-.164-.016Q4.578 4 4.031 4q-.672 0-.75.062-.016.016-.031.047.016.141.031.211.016.023.059.051t.059.082q.016.031.059.16t.055.16.059.133.066.133.07.109.094.105.109.074.137.062.16.031.191.016q.281 0 .461-.098t.254-.234.113-.27.09-.23.137-.098h.094q.086 0 .137.098t.09.23.113.27.254.234.461.098q.102 0 .191-.016t.16-.031.137-.062.109-.074.094-.105.07-.109.066-.133.059-.133.055-.16.059-.16q.016-.055.059-.082t.059-.051q.016-.07.031-.211zM11 10.977q0 .945-.57 1.484T8.914 13H2.086q-.945 0-1.516-.539T0 10.977q0-.477.035-.922t.148-.98.293-.965.496-.809.73-.582L.999 5h1.672q-.172-.5-.172-1 0-.094.016-.25Q.999 3.438.999 3q0-.445 1.641-.773.133-.484.402-1.047t.551-.891Q3.843 0 4.187 0q.234 0 .656.242t.656.242.656-.242T6.811 0q.344 0 .594.289.281.328.551.891t.402 1.047q1.641.328 1.641.773 0 .438-1.516.75.055.633-.156 1.25h1.672l-.641 1.758q.492.258.84.754t.512 1.121.227 1.184.062 1.16z"/></svg>