<svg xmlns="http://www.w3.org/2000/svg" width="11" height="14" viewBox="0 0 11 14"><path fill="#444" d="M3 10.5q0 .203-.148.352T2.5 11t-.352-.148T2 10.5t.148-.352T2.5 10t.352.148T3 10.5zm8 .477q0 .945-.57 1.484T8.914 13H2.086q-.945 0-1.516-.539T0 10.977q0-.531.043-1.023T.23 8.876t.371-1.035.633-.805.937-.473q-.172.406-.172.937v1.586q-.453.156-.727.547t-.273.867q0 .625.438 1.062T2.499 12t1.062-.438.438-1.062q0-.477-.277-.867t-.723-.547V7.5q0-.484.195-.727 1.031.813 2.305.813t2.305-.813q.195.242.195.727V8q-.828 0-1.414.586T5.999 10v.695q-.25.227-.25.555 0 .312.219.531t.531.219.531-.219.219-.531q0-.328-.25-.555V10q0-.406.297-.703T7.999 9t.703.297.297.703v.695q-.25.227-.25.555 0 .312.219.531t.531.219.531-.219.219-.531q0-.328-.25-.555V10q0-.531-.27-.996t-.73-.73l.004-.332q.004-.254 0-.375t-.02-.324-.055-.367-.102-.312q.531.117.937.473t.633.805.371 1.035.187 1.078.043 1.023zM8.5 4q0 1.242-.879 2.121T5.5 7t-2.121-.879T2.5 4t.879-2.121T5.5 1t2.121.879T8.5 4z"/></svg>