<svg xmlns="http://www.w3.org/2000/svg" width="16" height="14" viewBox="0 0 16 14"><path fill="#444" d="M5.5 7q-1.242 0-2.121-.879T2.5 4t.879-2.121T5.5 1t2.121.879T8.5 4t-.879 2.121T5.5 7zM13 8h2.75q.102 0 .176.074T16 8.25v1.5q0 .102-.074.176T15.75 10H13v2.75q0 .102-.074.176T12.75 13h-1.5q-.102 0-.176-.074T11 12.75V10H8.25q-.102 0-.176-.074T8 9.75v-1.5q0-.102.074-.176T8.25 8H11V5.25q0-.102.074-.176T11.25 5h1.5q.102 0 .176.074T13 5.25V8zM7.25 9.75q0 .406.297.703t.703.297h2v1.859Q9.719 13 8.914 13H2.086q-.945 0-1.516-.539T0 10.977q0-.414.027-.809t.109-.852.207-.848.336-.762.484-.633.668-.418.871-.156q.148 0 .305.133.617.477 1.207.715t1.285.238 1.285-.238 1.207-.715q.156-.133.305-.133 1.031 0 1.695.75H8.249q-.406 0-.703.297t-.297.703v1.5z"/></svg>