<svg xmlns="http://www.w3.org/2000/svg" width="16" height="14" viewBox="0 0 16 14"><path fill="#444" d="M5.5 7q-1.242 0-2.121-.879T2.5 4t.879-2.121T5.5 1t2.121.879T8.5 4t-.879 2.121T5.5 7zm8.414 2.5l1.945 1.945q.07.07.07.18 0 .102-.07.172l-1.062 1.062q-.07.07-.172.07-.109 0-.18-.07L12.5 10.914l-1.945 1.945q-.07.07-.18.07-.102 0-.172-.07l-1.062-1.062q-.07-.07-.07-.172 0-.109.07-.18L11.086 9.5 9.141 7.555q-.07-.07-.07-.18 0-.102.07-.172l1.062-1.062q.07-.07.172-.07.109 0 .18.07L12.5 8.086l1.945-1.945q.07-.07.18-.07.102 0 .172.07l1.062 1.062q.07.07.07.172 0 .109-.07.18zm-3.891 0l-1.414 1.414q-.289.289-.289.711 0 .414.289.703l.648.648q-.164.023-.344.023H2.085q-.945 0-1.516-.539t-.57-1.484q0-.414.027-.809t.109-.852.207-.848.336-.762.484-.633.668-.418.871-.156q.148 0 .305.133 1.203.953 2.492.953t2.492-.953q.156-.133.305-.133.219 0 .445.047-.219.211-.32.391t-.102.438q0 .422.289.711z"/></svg>