<svg xmlns="http://www.w3.org/2000/svg" width="14" height="14" viewBox="0 0 14 14"><path fill="#444" d="M9.1 6.16V5.6l-.756-.126a.99.99 0 0 0-.154-.35l.448-.63-.392-.392-.63.448a1.565 1.565 0 0 0-.35-.154L7.14 3.64h-.56l-.126.756a.99.99 0 0 0-.35.154l-.63-.448-.392.392.448.63c-.07.112-.112.224-.154.35L4.62 5.6v.56l.756.126a.99.99 0 0 0 .154.35l-.448.63.392.392.63-.448c.112.07.224.112.35.154l.126.756h.56l.126-.756a.99.99 0 0 0 .35-.154l.63.448.392-.392-.448-.63c.07-.112.112-.224.154-.35L9.1 6.16zm-2.24.546c-.462 0-.826-.378-.826-.826s.378-.826.826-.826.826.378.826.826-.364.826-.826.826z"/><path fill="#444" d="M10.78 5.88c0-2.156-1.764-3.92-3.92-3.92S2.94 3.724 2.94 5.88c0 1.246.574 2.352 1.484 3.066l-1.05 1.834h1.4l.84 1.26 1.26-2.24 1.26 2.24.84-1.26h1.4l-1.05-1.848A3.951 3.951 0 0 0 10.78 5.88zM7.182 9.226c-.098.014-.21.014-.322.014-.098 0-.196 0-.294-.014a3.23 3.23 0 0 1-1.862-.77A3.33 3.33 0 0 1 3.5 5.88c0-1.848 1.512-3.36 3.36-3.36s3.36 1.512 3.36 3.36a3.36 3.36 0 0 1-1.176 2.548 3.3 3.3 0 0 1-1.862.798z"/></svg>