<svg xmlns="http://www.w3.org/2000/svg" width="14" height="14" viewBox="0 0 14 14"><path fill="#444" d="M13.984 4.133q.094 1.211-.41 2.281t-1.453 1.75T10 8.969V11h1.75q.109 0 .18.07t.07.18v.5q0 .109-.07.18t-.18.07H10v1.75q0 .109-.07.18t-.18.07h-.5q-.109 0-.18-.07T9 13.75V12H5v1.75q0 .109-.07.18t-.18.07h-.5q-.109 0-.18-.07T4 13.75V12H2.25q-.109 0-.18-.07T2 11.75v-.5q0-.109.07-.18t.18-.07H4V8.969q-1.172-.125-2.121-.805T.426 6.414t-.41-2.281q.133-1.609 1.285-2.785T4.055.024Q5.664-.14 7 .758 8.336-.14 9.945.024q1.602.148 2.754 1.324t1.285 2.785zM7 6.945Q8 5.922 8 4.5T7 2.055Q6 3.078 6 4.5t1 2.445zM4.5 8q.898 0 1.703-.445Q5 6.266 5 4.5q0-1.75 1.203-3.055Q5.398 1 4.5 1 3.055 1 2.027 2.027T1 4.5t1.027 2.473T4.5 8zM9 11V8.969q-1.07-.117-2-.734-.93.617-2 .734V11h4zm.5-3q1.445 0 2.473-1.027T13 4.5t-1.027-2.473T9.5 1q-.898 0-1.703.445Q9 2.75 9 4.5q0 1.766-1.203 3.055Q8.602 8 9.5 8z"/></svg>