<svg xmlns="http://www.w3.org/2000/svg" width="9" height="14" viewBox="0 0 9 14"><path fill="#444" d="M9 4.5q0 1.727-1.152 3.004T5 8.969V11h1.75q.109 0 .18.07t.07.18v.5q0 .109-.07.18t-.18.07H5v1.75q0 .109-.07.18t-.18.07h-.5q-.109 0-.18-.07T4 13.75V12H2.25q-.109 0-.18-.07T2 11.75v-.5q0-.109.07-.18t.18-.07H4V8.969q-1.172-.125-2.121-.805T.426 6.414t-.41-2.281q.086-1.047.629-1.945T2.067.719 3.985.031q1.328-.148 2.492.422t1.844 1.656.68 2.391zm-8 0q0 1.445 1.027 2.473T4.5 8t2.473-1.027T8 4.5 6.973 2.027 4.5 1 2.027 2.027 1 4.5z"/></svg>