<svg xmlns="http://www.w3.org/2000/svg" width="16" height="14" viewBox="0 0 16 14"><path fill="#444" d="M13 .25q0-.109.07-.18t.18-.07h2.25q.203 0 .352.148T16 .5v2.25q0 .109-.07.18t-.18.07h-.5q-.109 0-.18-.07T15 2.75V1.703l-1.984 1.992q.594.742.84 1.672t.074 1.93q-.25 1.406-1.285 2.422t-2.449 1.227q-1.742.266-3.195-.703-.914.609-2 .727v1.031h.75q.109 0 .18.07t.07.18v.5q0 .109-.07.18t-.18.07h-.75v.75q0 .109-.07.18t-.18.07h-.5q-.109 0-.18-.07t-.07-.18v-.75h-.75q-.109 0-.18-.07t-.07-.18v-.5q0-.109.07-.18t.18-.07h.75V10.97q-1.211-.133-2.184-.855T.356 8.26.047 5.862q.195-1.461 1.246-2.52t2.504-1.285Q5.547 1.791 7 2.76q1.141-.758 2.5-.758 1.57 0 2.805.984l1.992-1.984H13.25q-.109 0-.18-.07T13 .752v-.5zM7 8.945Q8 7.922 8 6.5T7 4.055Q6 5.078 6 6.5t1 2.445zM1 6.5q0 1.445 1.027 2.473T4.5 10q.914 0 1.703-.445Q5 8.25 5 6.5t1.203-3.055Q5.414 3 4.5 3 3.055 3 2.027 4.027T1 6.5zM9.5 10q1.445 0 2.473-1.027T13 6.5t-1.027-2.473T9.5 3q-.914 0-1.703.445Q9 4.75 9 6.5T7.797 9.555Q8.586 10 9.5 10z"/></svg>