<svg xmlns="http://www.w3.org/2000/svg" width="14" height="14" viewBox="0 0 14 14"><path fill="#444" d="M13.352 4.047q-.078 1.844-2.594 5.086Q8.156 12.5 6.367 12.5q-1.109 0-1.875-2.055-.344-1.25-1.031-3.766-.563-2.047-1.227-2.047-.141 0-.992.594L.64 4.46q.187-.164.844-.754T2.5 2.804q1.219-1.078 1.883-1.141.742-.07 1.195.434t.633 1.59q.344 2.242.516 2.914.43 1.945.937 1.945.398 0 1.203-1.258.789-1.258.852-1.922.102-1.086-.852-1.086-.445 0-.945.203.937-3.07 3.586-2.984 1.961.062 1.844 2.547z"/></svg>