<svg xmlns="http://www.w3.org/2000/svg" width="12" height="14" viewBox="0 0 12 14"><path fill="#444" d="M10.094 4.984q.078-1.688-1.258-1.734-1.805-.062-2.438 2.039.344-.148.641-.148.664 0 .578.75-.031.445-.578 1.305t-.82.859q-.336 0-.641-1.32-.102-.422-.352-1.992-.234-1.477-1.25-1.383-.461.055-1.281.781L1.429 5.266l.406.523q.594-.406.68-.406.445 0 .836 1.398l.352 1.285.352 1.285q.531 1.398 1.281 1.398 1.227 0 2.992-2.297 1.719-2.211 1.766-3.469zM12 3.25v7.5q0 .93-.66 1.59T9.75 13h-7.5q-.93 0-1.59-.66T0 10.75v-7.5q0-.93.66-1.59T2.25 1h7.5q.93 0 1.59.66T12 3.25z"/></svg>