<svg xmlns="http://www.w3.org/2000/svg" width="12" height="14" viewBox="0 0 12 14"><path fill="#444" d="M11.695 6.461v1.547q-.789.18-1.547.18-.508 1.062-1.293 2.117t-1.418 1.684-1 .832q-.625.352-1.266-.023-.219-.133-.473-.34t-.664-.652-.801-1.004-.84-1.438-.824-1.906-.715-2.457-.551-3.047h2.211q.203 1.703.547 3.113t.816 2.477.949 1.84 1.094 1.523q1.32-1.32 2.242-3.172-1.109-.563-1.742-1.719t-.633-2.602q0-1.5.813-2.457T8.819 0q1.391 0 2.133.824t.742 2.324q0 1.242-.453 2.234l-.152.023q-.097.015-.359.016t-.492-.047-.484-.199-.395-.402q.242-.805.242-1.438 0-.68-.227-1.031t-.617-.352q-.414 0-.664.387t-.25 1.098q0 1.453.82 2.293t2.086.84q.484 0 .945-.109z"/></svg>