<svg xmlns="http://www.w3.org/2000/svg" width="15" height="14" viewBox="0 0 15 14"><path fill="#444" d="M14.977 4.063q.18.5-1.172 2.297-.187.25-.508.664-.609.781-.703 1.023-.133.32.109.633.133.164.633.641h.008l.031.031q1.102 1.023 1.492 1.727.023.039.051.098t.055.207-.004.266-.195.215-.461.098l-2 .031q-.187.039-.438-.039t-.406-.172l-.156-.094q-.234-.164-.547-.5t-.535-.605-.477-.453-.441-.121q-.023.008-.062.027t-.133.113-.168.23-.133.406-.051.605q0 .117-.027.215t-.059.145l-.031.039q-.141.148-.414.172h-.898q-.555.031-1.141-.129t-1.027-.414-.805-.516-.551-.449l-.195-.187q-.078-.078-.215-.234t-.559-.711-.828-1.18-.957-1.648-1.02-2.125q-.047-.125-.047-.211t.023-.125l.031-.047q.117-.148.445-.148l2.141-.016q.094.016.18.051t.125.066l.039.023q.125.086.187.25.156.391.359.809t.32.637l.125.227q.227.469.438.813t.379.535.324.301.266.109.211-.039q.016-.008.039-.039t.094-.172.105-.367.074-.633 0-.977q-.016-.312-.07-.57t-.109-.359l-.047-.094q-.195-.266-.664-.336-.102-.016.039-.187.133-.148.297-.234.414-.203 1.867-.187.641.008 1.055.102.156.039.262.105t.16.187.082.25.027.355-.008.43-.02.551-.012.645q0 .086-.008.328t-.004.375.027.316.09.305.176.191q.062.016.133.031t.203-.086.297-.27.406-.523.531-.84q.469-.813.836-1.758.031-.078.078-.137t.086-.082l.031-.023.039-.02.102-.023.156-.004 2.25-.016q.305-.039.5.02t.242.129z"/></svg>