<svg xmlns="http://www.w3.org/2000/svg" width="9" height="14" viewBox="0 0 9 14"><path fill="#444" d="M6 2.75v8.5q0 .203-.148.352t-.352.148-.352-.148L2.546 9H.499q-.203 0-.352-.148T-.001 8.5v-3q0-.203.148-.352T.499 5h2.047l2.602-2.602q.148-.148.352-.148t.352.148T6 2.75zM9 7q0 .594-.332 1.105t-.879.73q-.078.039-.195.039-.203 0-.352-.145t-.148-.355q0-.164.094-.277t.227-.195.266-.18.227-.277T8.002 7t-.094-.445-.227-.277-.266-.18-.227-.195-.094-.277q0-.211.148-.355t.352-.145q.117 0 .195.039.547.211.879.727T9 7.001z"/></svg>