<svg xmlns="http://www.w3.org/2000/svg" width="13" height="14" viewBox="0 0 13 14"><path fill="#444" d="M6 2.75v8.5q0 .203-.148.352t-.352.148-.352-.148L2.546 9H.499q-.203 0-.352-.148T-.001 8.5v-3q0-.203.148-.352T.499 5h2.047l2.602-2.602q.148-.148.352-.148t.352.148T6 2.75zM9 7q0 .594-.332 1.105t-.879.73q-.078.039-.195.039-.203 0-.352-.145t-.148-.355q0-.164.094-.277t.227-.195.266-.18.227-.277T8.002 7t-.094-.445-.227-.277-.266-.18-.227-.195-.094-.277q0-.211.148-.355t.352-.145q.117 0 .195.039.547.211.879.727T9 7.001zm2 0q0 1.195-.664 2.207T8.578 10.68q-.102.039-.195.039-.211 0-.359-.148t-.148-.352q0-.305.305-.461.438-.227.594-.344.578-.422.902-1.059T10.001 7t-.324-1.355-.902-1.059q-.156-.117-.594-.344-.305-.156-.305-.461 0-.203.148-.352t.352-.148q.102 0 .203.039 1.094.461 1.758 1.473T11.001 7zm2 0q0 1.797-.992 3.301t-2.641 2.215q-.102.039-.203.039-.203 0-.352-.148t-.148-.352q0-.281.305-.461.055-.031.176-.082t.176-.082q.359-.195.641-.398.961-.711 1.5-1.773t.539-2.258-.539-2.258-1.5-1.773q-.281-.203-.641-.398-.055-.031-.176-.082t-.176-.082q-.305-.18-.305-.461 0-.203.148-.352t.352-.148q.102 0 .203.039 1.648.711 2.641 2.215T13 7.002z"/></svg>