<svg xmlns="http://www.w3.org/2000/svg" width="16" height="14" viewBox="0 0 16 14"><path fill="#444" d="M4.531 3.602q0-.32-.195-.516t-.516-.195q-.336 0-.594.199t-.258.512q0 .305.258.504t.594.199q.32 0 .516-.191t.195-.512zm5.805 3.961q0-.219-.199-.391T9.625 7q-.211 0-.387.176t-.176.387q0 .219.176.395t.387.176q.312 0 .512-.172t.199-.398zM8.492 3.602q0-.32-.191-.516t-.512-.195q-.336 0-.594.199t-.258.512q0 .305.258.504t.594.199q.32 0 .512-.191t.191-.512zm4.961 3.961q0-.219-.203-.391T12.742 7q-.211 0-.387.176t-.176.387q0 .219.176.395t.387.176q.305 0 .508-.172t.203-.398zm-2.078-3.102q-.242-.031-.547-.031-1.32 0-2.43.602T6.652 6.661t-.637 2.246q0 .609.18 1.187-.273.023-.531.023-.203 0-.391-.012t-.43-.051-.348-.055-.426-.082-.391-.082l-1.977.992.563-1.703Q-.002 7.538-.002 5.296q0-1.32.762-2.43T2.822 1.12t2.84-.637q1.375 0 2.598.516t2.047 1.426 1.066 2.035zM16 8.844q0 .914-.535 1.746t-1.449 1.512l.43 1.414-1.555-.852q-1.172.289-1.703.289-1.32 0-2.43-.551t-1.746-1.496-.637-2.062.637-2.062 1.746-1.496 2.43-.551q1.258 0 2.367.551t1.777 1.5T16 8.845z"/></svg>