<svg xmlns="http://www.w3.org/2000/svg" width="14" height="14" viewBox="0 0 14 14"><path fill="#444" d="M5.273 10.031q.164-.266.086-.539t-.352-.391q-.266-.109-.57-.008t-.469.359q-.172.266-.102.535t.336.395.582.02.488-.371zm.735-.945q.062-.102.027-.207t-.137-.145q-.109-.039-.223.004t-.168.145q-.133.242.102.352.109.039.227-.004t.172-.145zm1.359.836q-.352.797-1.234 1.172t-1.75.094q-.836-.266-1.152-.988t.051-1.465q.367-.727 1.184-1.086t1.645-.148q.867.227 1.238.934t.02 1.488zm2.438-1.25q-.07-.75-.695-1.328t-1.629-.852-2.145-.164q-1.742.18-2.887 1.105T1.414 9.499q.07.75.695 1.328t1.629.852 2.145.164q1.742-.18 2.887-1.105t1.035-2.066zm2.406.031q0 .531-.289 1.09t-.852 1.07-1.316.918-1.766.648-2.113.242-2.148-.262-1.879-.727-1.34-1.18T0 8.943q0-.898.543-1.914t1.543-2.016q1.32-1.32 2.668-1.844t1.926.055q.508.5.156 1.633-.031.109-.008.156t.078.055.113-.004.105-.027l.047-.016q1.086-.461 1.922-.461t1.195.477q.352.492 0 1.391-.016.102-.035.156t.035.098.094.059.133.047q.445.141.805.367t.625.637.266.91zm-.578-4.875q.328.367.426.848t-.051.918q-.062.18-.23.266t-.348.031q-.18-.062-.266-.23t-.031-.348q.156-.492-.187-.867t-.836-.273q-.187.039-.352-.062t-.195-.289q-.039-.187.062-.348t.289-.199q.469-.102.93.043t.789.512zm1.414-1.273q.68.75.879 1.738t-.105 1.887q-.07.211-.266.312t-.406.031-.312-.266-.039-.406q.219-.641.078-1.344t-.625-1.234q-.484-.539-1.156-.746t-1.352-.066q-.219.047-.406-.074t-.234-.34.074-.402.34-.23q.961-.203 1.906.09t1.625 1.051z"/></svg>