<svg xmlns="http://www.w3.org/2000/svg" width="12" height="14" viewBox="0 0 12 14"><path fill="#444" d="M7.695 7.609q.102 0 .762.344t.699.414q.016.039.016.117 0 .258-.133.594-.125.305-.555.512t-.797.207q-.445 0-1.484-.484-.766-.352-1.328-.922T3.719 6.946q-.563-.836-.555-1.516v-.062q.023-.711.578-1.234.187-.172.406-.172.047 0 .141.012t.148.012q.148 0 .207.051t.121.215q.062.156.258.688t.195.586q0 .164-.27.449t-.27.363q0 .055.039.117.266.57.797 1.07.438.414 1.18.789.094.055.172.055.117 0 .422-.379t.406-.379zM6.109 11.75q.992 0 1.902-.391t1.566-1.047 1.047-1.566.391-1.902-.391-1.902-1.047-1.566-1.566-1.047-1.902-.391-1.902.391-1.566 1.047-1.047 1.566-.391 1.902q0 1.586.937 2.875l-.617 1.82 1.891-.602q1.234.813 2.695.813zm0-10.797q1.195 0 2.285.469t1.879 1.258 1.258 1.879T12 6.844t-.469 2.285-1.258 1.879-1.879 1.258-2.285.469q-1.523 0-2.852-.734l-3.258 1.047 1.062-3.164Q.217 8.493.217 6.845q0-1.195.469-2.285t1.258-1.879 1.879-1.258T6.108.954z"/></svg>