<svg xmlns="http://www.w3.org/2000/svg" width="13" height="14" viewBox="0 0 13 14"><path fill="#444" d="M7.992 9.273l.797 1.594q-.453 1.398-1.641 2.266T4.5 14q-1.219 0-2.254-.605T.605 11.754 0 9.5q0-1.414.816-2.578t2.145-1.648l.133 1.023q-.953.422-1.523 1.293t-.57 1.91q0 1.445 1.027 2.473T4.501 13q.984 0 1.816-.508t1.289-1.371.387-1.848zm4.281.782l.453.891-2 1q-.102.055-.227.055-.312 0-.445-.273L8.187 8.001H4.5q-.187 0-.332-.129T4 7.556L3.25 1.47q-.016-.125.047-.328.109-.398.445-.645T4.5.251q.516 0 .883.367t.367.883q0 .539-.406.918t-.937.324l.289 2.258h3.305v1h-3.18l.125 1h3.555q.312 0 .445.273l1.781 3.555z"/></svg>