<svg xmlns="http://www.w3.org/2000/svg" width="16" height="14" viewBox="0 0 16 14"><path fill="#444" d="M8 11.898q-.156 0-.727-.574t-.57-.73q0-.25.488-.422T8 10t.809.172.488.422q0 .156-.57.73T8 11.898zm2.109-2.117q-.016 0-.312-.195t-.793-.391T8 9t-1.004.195-.789.391-.316.195q-.141 0-.73-.586t-.59-.727q0-.102.078-.18.609-.602 1.531-.945T8 6.999t1.82.344 1.531.945q.078.078.078.18 0 .141-.59.727t-.73.586zm2.133-2.125q-.086 0-.18-.062-1.062-.82-1.969-1.207T7.999 6q-.664 0-1.332.172t-1.164.414-.887.484-.617.414-.242.172q-.133 0-.719-.586t-.586-.727q0-.094.078-.172 1.031-1.031 2.5-1.602t2.969-.57 2.969.57 2.5 1.602q.078.078.078.172 0 .141-.586.727t-.719.586zm2.117-2.117q-.086 0-.172-.07-1.398-1.227-2.902-1.848T8 3t-3.285.621-2.902 1.848q-.086.07-.172.07-.133 0-.723-.586t-.59-.727q0-.102.078-.18 1.461-1.453 3.477-2.25T8 .999t4.117.797 3.477 2.25q.078.078.078.18 0 .141-.59.727t-.723.586z"/></svg>