<svg xmlns="http://www.w3.org/2000/svg" width="18" height="14" viewBox="0 0 18 14"><path fill="#444" d="M11.672 12.805l-2.305-5.43q-.195.383-1.238 2.387t-1.551 3.043q-.008.008-.215.004t-.207-.012q-.641-1.508-1.996-4.586T2.133 3.555q-.164-.391-.52-.84T.804 1.93t-.797-.336l-.004-.187q-.004-.148-.004-.211h4.555v.391q-.305.016-.621.125t-.52.336-.078.5q.203.461 1.691 3.898t1.84 4.219q.242-.477 1.094-2.082t1.023-1.934q-.148-.305-.984-2.195T6.937 2.149q-.297-.539-1.57-.555v-.391l4.008.008v.367q-.469.016-.73.195t-.098.539q.258.547.68 1.48t.672 1.465q.859-1.672 1.352-2.836.187-.43-.078-.621t-1.008-.207q.008-.055.008-.195v-.187q.5 0 1.332-.004t1.406-.008.723-.004v.383q-.484.016-.93.258t-.703.633l-1.664 3.453q.102.258.996 2.266t.949 2.141l3.445-7.945q-.109-.297-.387-.488t-.508-.246-.434-.062v-.391l3.594.031.008.016-.008.344q-1.086.031-1.57 1.133-4.109 9.5-4.367 10.086h-.383z"/></svg>