<svg xmlns="http://www.w3.org/2000/svg" width="14" height="14" viewBox="0 0 14 14"><path fill="#444" d="M.992 7q0-1.273.523-2.445l2.867 7.852q-1.531-.742-2.461-2.195t-.93-3.211zm10.063-.305q0 .148-.02.301t-.078.387-.09.344-.137.461-.137.453l-.594 2-2.172-6.453q.359-.023.688-.062.148-.016.203-.145t-.02-.242-.223-.105l-1.602.078q-.586-.008-1.578-.078-.094-.008-.16.039t-.09.117-.012.145.07.129.152.062l.625.062.937 2.563-1.313 3.938-2.188-6.5q.359-.023.688-.062.148-.016.203-.145t-.02-.242-.223-.105l-1.602.078q-.055 0-.18-.004t-.203-.004q.82-1.25 2.145-1.98t2.871-.73q1.148 0 2.191.414t1.863 1.164h-.078q-.43 0-.719.316t-.289.746q0 .094.016.187t.031.168.062.18.07.164.094.176.098.164.113.187.109.18q.492.836.492 1.656zm-3.953.828l1.852 5.055q.008.047.039.086-.984.344-1.992.344-.875 0-1.695-.25zm5.164-3.406q.742 1.359.742 2.883 0 1.633-.813 3.012t-2.18 2.176l1.836-5.297q.461-1.32.461-2.156 0-.328-.047-.617zM7 0q1.422 0 2.719.555t2.234 1.492 1.492 2.234T14 7t-.555 2.719-1.492 2.234-2.234 1.492T7 14t-2.719-.555-2.234-1.492T.555 9.719 0 7t.555-2.719 1.492-2.234T4.281.555 7 0zm0 13.68q1.352 0 2.59-.531t2.133-1.426 1.426-2.133T13.68 7t-.531-2.59-1.426-2.133T9.59.851 7 .32 4.41.851 2.277 2.277.851 4.41.32 7t.531 2.59 1.426 2.133 2.133 1.426T7 13.68z"/></svg>