<svg xmlns="http://www.w3.org/2000/svg" width="12" height="14" viewBox="0 0 12 14"><path fill="#444" d="M5.352 5.977q0-.008-.984-1.734-.164-.266-.406-.266H2.524q-.141 0-.203.086-.055.094.008.227l.977 1.688v.008L1.775 8.689q-.07.109 0 .219.062.102.187.102h1.445q.242 0 .391-.281zm4.875-3.883Q10.172 2 10.04 2H8.579q-.234 0-.383.273L4.985 7.968l2.047 3.758q.156.273.406.273h1.438q.141 0 .195-.094.062-.102-.008-.219L7.032 7.967v-.008l3.195-5.648q.062-.125 0-.219zM12 3.25v7.5q0 .93-.66 1.59T9.75 13h-7.5q-.93 0-1.59-.66T0 10.75v-7.5q0-.93.66-1.59T2.25 1h7.5q.93 0 1.59.66T12 3.25z"/></svg>