<svg xmlns="http://www.w3.org/2000/svg" width="14" height="14" viewBox="0 0 14 14"><path fill="#444" d="M6.039 10.305v.992q-.008 2.281-.047 2.383-.094.25-.398.312-.422.07-1.418-.297T2.906 13q-.102-.117-.133-.281-.008-.094.031-.203.031-.078.266-.367t1.414-1.688q.008 0 .469-.547.117-.148.309-.191t.387.027q.187.078.293.227t.098.328zM4.875 8.344q-.023.43-.406.547l-.937.305q-2.148.688-2.281.688-.273-.016-.422-.281-.094-.195-.133-.586-.062-.594.008-1.301t.234-.973.437-.25q.102 0 1.578.602.547.227.898.367l.656.266q.18.07.277.238t.09.379zm6.453 2.32q-.055.422-.715 1.258t-1.059.992q-.289.109-.492-.055-.109-.078-1.438-2.242l-.367-.602q-.109-.164-.09-.359t.152-.359q.273-.336.648-.203.008.008.93.312 1.586.516 1.891.621t.367.16q.219.172.172.477zm-5.25-4.937q.039.797-.422.953-.453.133-.891-.555L1.812 1.453Q1.75 1.18 1.96.969 2.28.633 3.581.27T5.335.024q.312.078.383.352.023.141.172 2.387t.187 2.965zm5.172.843q.023.305-.203.461-.117.078-2.57.672-.523.117-.711.18l.008-.016q-.18.047-.359-.031t-.289-.25q-.234-.367 0-.68.008-.008.586-.797.977-1.336 1.172-1.594t.266-.305q.219-.148.508-.016.375.18.961 1.043t.633 1.309v.023z"/></svg>