<svg xmlns="http://www.w3.org/2000/svg" width="12" height="14" viewBox="0 0 12 14"><path fill="#444" d="M7.18 10.18V8.953q0-.391-.227-.391-.133 0-.258.125v1.75q.125.125.258.125.227 0 .227-.383zm1.437-.953h.516v-.266q0-.398-.258-.398t-.258.398v.266zM4.156 7.148v.547h-.625V11h-.578V7.695h-.609v-.547h1.812zm1.571.985V11h-.523v-.312q-.305.352-.594.352-.258 0-.328-.219-.047-.125-.047-.422V8.133h.516v2.109q0 .187.008.203.008.117.117.117.156 0 .328-.242V8.132h.523zM7.695 9v1.141q0 .406-.055.57-.094.328-.414.328-.273 0-.531-.32V11h-.523V7.148h.523v1.258q.25-.312.531-.312.32 0 .414.328.055.164.055.578zm1.961 1.008v.07q0 .227-.016.336-.023.172-.117.312-.211.312-.625.312-.406 0-.633-.297-.164-.211-.164-.672V9.061q0-.461.156-.672.227-.297.625-.297t.609.297q.164.219.164.672v.594H8.616v.508q0 .398.266.398.187 0 .234-.203l.004-.055q.004-.047.004-.129v-.168h.531zM6.133 3.57v1.219q0 .398-.25.398t-.25-.398V3.57q0-.406.25-.406t.25.406zm4.164 5.571q0-1.383-.148-2.031-.078-.344-.336-.574t-.594-.27Q8.157 6.149 6 6.149q-2.148 0-3.211.117-.344.039-.598.27t-.332.574q-.156.68-.156 2.031 0 1.375.156 2.031.078.336.332.57t.59.273q1.07.117 3.219.117t3.219-.117q.336-.039.59-.273t.332-.57q.156-.656.156-2.031zM4.398 4.055l.703-2.313h-.586l-.398 1.523-.414-1.523h-.609l.187.539.18.539q.273.805.359 1.234v1.57h.578v-1.57zm2.258.632V3.671q0-.453-.164-.68-.227-.297-.609-.297-.398 0-.609.297-.164.227-.164.68v1.016q0 .453.164.68.211.297.609.297.383 0 .609-.297.164-.211.164-.68zm1.414.938h.523V2.734H8.07v2.211q-.172.242-.328.242-.117 0-.125-.125-.008-.016-.008-.203V2.734h-.523v2.289q0 .289.047.43.086.211.336.211.281 0 .602-.352v.312zM12 3.25v7.5q0 .93-.66 1.59T9.75 13h-7.5q-.93 0-1.59-.66T0 10.75v-7.5q0-.93.66-1.59T2.25 1h7.5q.93 0 1.59.66T12 3.25z"/></svg>