<svg xmlns="http://www.w3.org/2000/svg" xmlns:xlink="http://www.w3.org/1999/xlink" width="1008" height="112" viewBox="0 0 1008 112"><svg id="icon-utility-patent:after" width="48" height="48" viewBox="0 0 48 48"><path fill="#444" d="M31.2 21.12V19.2l-2.592-.432a3.392 3.392 0 0 0-.528-1.2l1.536-2.16-1.344-1.344-2.16 1.536c-.384-.24-.768-.384-1.2-.528l-.432-2.592h-1.92l-.432 2.592a3.392 3.392 0 0 0-1.2.528l-2.16-1.536-1.344 1.344 1.536 2.16c-.24.384-.384.768-.528 1.2l-2.592.432v1.92l2.592.432c.096.432.288.864.528 1.2l-1.536 2.16 1.344 1.344 2.16-1.536c.384.24.768.384 1.2.528l.432 2.592h1.92l.432-2.592a3.392 3.392 0 0 0 1.2-.528l2.16 1.536 1.344-1.344-1.536-2.16c.24-.384.384-.768.528-1.2l2.592-.432zm-7.68 1.872c-1.584 0-2.832-1.296-2.832-2.832s1.296-2.832 2.832-2.832 2.832 1.296 2.832 2.832-1.248 2.832-2.832 2.832z"/><path fill="#444" d="M36.96 20.16c0-7.392-6.048-13.44-13.44-13.44s-13.44 6.048-13.44 13.44c0 4.272 1.968 8.064 5.088 10.512l-3.6 6.288h4.8l2.88 4.32 4.32-7.68 4.32 7.68 2.88-4.32h4.8l-3.6-6.336c3.024-2.496 4.992-6.24 4.992-10.464zM24.624 31.632c-.336.048-.72.048-1.104.048-.336 0-.672 0-1.008-.048a11.074 11.074 0 0 1-6.384-2.64A11.414 11.414 0 0 1 12 20.16c0-6.336 5.184-11.52 11.52-11.52s11.52 5.184 11.52 11.52c0 3.504-1.584 6.624-4.032 8.736a11.316 11.316 0 0 1-6.384 2.736z"/></svg><svg id="icon-patent-pending:after" width="48" height="48" viewBox="0 0 48 48" x="64"><path fill="#444" d="M23.52 33.6c-3.168 0-6.048-1.056-8.4-2.832l-3.6 6.288h4.8l2.88 4.32 4.32-7.776 4.32 7.776 2.88-4.32h4.8l-3.6-6.288c-2.304 1.776-5.232 2.832-8.4 2.832zm3.84-9.12c-.192 0-.336-.048-.528-.144l-4.272-2.688V15.36c0-.528.432-.96.96-.96s.96.432.96.96v5.232l3.408 2.112a.985.985 0 0 1 .288 1.344.943.943 0 0 1-.816.432z"/><path fill="#444" d="M30.096 30.912c-.912.528-1.824.96-2.784 1.248l-.576-1.824a9.328 9.328 0 0 0 2.352-1.056l1.008 1.632zm1.68-1.152l-1.2-1.488c.672-.576 1.296-1.2 1.776-1.872l1.536 1.152a13.104 13.104 0 0 1-2.112 2.208zm-6.432 2.832c-1.008.144-2.016.144-3.072.048l.192-1.92c.864.096 1.728.048 2.592-.048l.288 1.92zm9.648-6.768l-1.68-.912c.384-.768.72-1.584.96-2.448l1.872.48a15.032 15.032 0 0 1-1.152 2.88zm-14.736 6.48a11.212 11.212 0 0 1-2.832-1.104l.912-1.68c.768.384 1.584.72 2.448.96l-.528 1.824zm16.176-11.328l-1.92-.192c.096-.864.048-1.728-.048-2.592l1.92-.288c.144 1.008.192 2.064.048 3.072zm-20.736 9.12c-.816-.624-1.536-1.344-2.208-2.112l1.488-1.2c.576.672 1.2 1.296 1.872 1.776l-1.152 1.536zm20.256-14.16l-1.824.576c-.24-.816-.576-1.632-1.056-2.352l-.048-.048 1.68-.96c.528.864.96 1.824 1.248 2.784zm-21.984 9.408l-1.68.96a13.402 13.402 0 0 1-1.248-2.832l1.824-.576c.288.864.672 1.632 1.104 2.448zm18.096-12.672a13.415 13.415 0 0 0-1.872-1.824l1.152-1.536c.816.624 1.536 1.344 2.208 2.112l-1.488 1.248zm-19.536 8.544l-1.92.24c-.144-1.008-.144-2.016-.048-3.072l1.92.192c-.048.912-.048 1.776.048 2.64zm16.224-11.28c-.768-.432-1.584-.72-2.448-.96l.48-1.872c1.008.24 1.92.624 2.832 1.104l-.864 1.728zm-15.936 6.96l-1.872-.48c.24-1.008.624-1.92 1.104-2.832l1.68.912c-.384.768-.72 1.584-.912 2.4zm11.808-8.208c-.864-.096-1.728-.048-2.592.048l-.24-1.92c1.008-.144 2.016-.144 3.072-.048l-.24 1.92zm-9.936 4.32l-1.536-1.152c.624-.816 1.344-1.536 2.112-2.208l1.2 1.488c-.624.576-1.248 1.2-1.776 1.872zm5.616-3.888a10.37 10.37 0 0 0-2.352 1.056l-.048.048-.912-1.68c.864-.528 1.824-.912 2.784-1.2l.528 1.776z"/></svg><svg id="icon-plant-patent:after" width="48" height="48" viewBox="0 0 48 48" x="128"><path fill="#444" d="M30.24 13.92h-3.36c-4.416 0-8.16 3.744-8.16 8.16v5.76h1.92v-3.36c0-3.072 1.728-6 4.56-7.632.24-.144.528-.048.672.192s.048.528-.192.672c-2.496 1.44-4.08 4.032-4.08 6.768h.48c3.744 0 6.72-2.784 6.72-6.672 0-1.536.432-2.832 1.584-3.456.192-.192.048-.432-.144-.432z"/><path fill="#444" d="M36.96 20.16c0-7.392-6.048-13.44-13.44-13.44s-13.44 6.048-13.44 13.44c0 4.272 1.968 8.064 5.088 10.512l-3.6 6.288h4.8l2.88 4.32 4.32-7.68 4.32 7.68 2.88-4.32h4.8l-3.6-6.336c3.024-2.496 4.992-6.24 4.992-10.464zM24.624 31.632c-.336.048-.72.048-1.104.048-.336 0-.672 0-1.008-.048a11.074 11.074 0 0 1-6.384-2.64A11.414 11.414 0 0 1 12 20.16c0-6.336 5.184-11.52 11.52-11.52s11.52 5.184 11.52 11.52c0 3.504-1.584 6.624-4.032 8.736a11.316 11.316 0 0 1-6.384 2.736z"/></svg><svg id="icon-pro-se:after" width="48" height="48" viewBox="0 0 48 48" x="192"><path fill="#444" d="M29.76 20.64c0 2.4-1.92 4.32-4.32 4.32s-4.32-1.92-4.32-4.32 1.92-4.32 4.32-4.32c2.4 0 4.32 1.92 4.32 4.32zm-6.24 11.04h3.84v.96h-3.84v-.96zm3.84 2.112V33.6h-3.84v.96h2.64c.336-.336.72-.624 1.2-.768zm-3.84 1.728v.96h1.92c0-.336.048-.672.192-.96H23.52zm0 1.92v.96h2.64a3.924 3.924 0 0 1-.576-.96H23.52z"/><path fill="#444" d="M38.112 35.472L34.32 29.28a5.379 5.379 0 0 0-4.752-2.832h-8.064l-4.608-1.968-1.632-4.944c-.336-1.008-1.44-1.536-2.448-1.2s-1.536 1.44-1.2 2.448l1.92 5.76c.192.528.576.96 1.056 1.152l4.608 1.92V41.28h12v-1.92h-8.64v-8.64h5.76v2.88h2.88v-2.064l1.872 3.024H28.32c-1.056 0-1.92.864-1.92 1.92s.864 1.92 1.92 1.92h8.16c.672 0 1.344-.384 1.68-.96.336-.624.336-1.392-.048-1.968zM14.4 15.84h-1.92c-.288 0-.48-.192-.48-.48s.192-.48.48-.48h1.92c.288 0 .48.192.48.48s-.192.48-.48.48zm-.48 1.44h-.96c-.288 0-.48-.192-.48-.48s.192-.48.48-.48h.96c.288 0 .48.192.48.48s-.192.48-.48.48zm2.64-7.44c0-1.728-1.392-3.12-3.12-3.12s-3.12 1.392-3.12 3.12c0 .768.24 1.44.72 1.968 1.008 1.248.96 2.112.96 2.112 0 .288.192.48.48.48h1.92c.288 0 .48-.192.48-.48 0 0-.048-.864.96-2.112.48-.528.72-1.2.72-1.968z"/></svg><svg id="icon-invention:after" width="48" height="48" viewBox="0 0 48 48" x="256"><path fill="#444" d="M22.608 20.064a1.104 1.104 0 1 1-2.207 0 1.104 1.104 0 0 1 2.207 0zm4.848 4.176a1.152 1.152 0 1 1-2.305 0 1.152 1.152 0 0 1 2.305 0z"/><path fill="#444" d="M31.68 22.08c0-4.224-3.456-7.68-7.68-7.68s-7.68 3.456-7.68 7.68c0 1.68.528 3.216 1.44 4.464 2.352 3.072 2.88 4.656 2.88 6.096 0 .528.432.96.96.96h4.8c.528 0 .96-.432.96-.96v-.096c.048-1.344.576-2.832 2.544-5.52a7.782 7.782 0 0 0 1.776-4.944zm-9.648-.048c-.144.048-.336.048-.528.048l-.384.96-.72-.192.096-1.008c-.144-.096-.288-.192-.384-.288l-.96.384-.384-.624.768-.672c-.048-.144-.048-.336-.048-.528l-.96-.432.192-.72 1.008.096c.096-.144.192-.288.288-.384l-.384-.96.624-.384.672.768c.144-.048.336-.048.528-.048l.432-.912.72.192-.096 1.008c.144.096.288.192.384.288l.96-.384.384.624-.768.672c.048.144.048.336.048.528l.912.432-.192.72-1.008-.096c-.096.144-.192.288-.288.384l.384.96-.624.384-.672-.816zm7.44 2.592l-1.056.192a1.437 1.437 0 0 1-.192.48l.624.864-.576.576-.864-.624c-.144.096-.336.144-.48.192l-.192 1.056h-.816l-.192-1.056a1.437 1.437 0 0 1-.48-.192l-.864.624-.576-.576.624-.864c-.096-.144-.144-.336-.192-.48l-1.056-.192v-.768l1.056-.192c.048-.192.096-.336.192-.48l-.624-.864.576-.576.864.624c.144-.096.336-.144.48-.192l.192-1.056h.768l.192 1.056c.192.048.336.096.48.192l.864-.624.576.576-.624.864c.096.144.144.336.192.48l1.056.192v.768zM24 13.44a.963.963 0 0 1-.96-.96v-4.8c0-.528.432-.96.96-.96s.96.432.96.96v4.8c0 .528-.432.96-.96.96zm2.16 21.12h-4.32c-.672 0-1.2.528-1.2 1.2s.528 1.2 1.2 1.2h4.32c.672 0 1.2-.528 1.2-1.2s-.528-1.2-1.2-1.2zm0 3.36h-4.32c-.672 0-1.2.528-1.2 1.2s.528 1.2 1.2 1.2h.24c0 .528.432.96.96.96h1.92c.528 0 .96-.432.96-.96h.24c.672 0 1.2-.528 1.2-1.2s-.528-1.2-1.2-1.2zm-8.88-21.6a.948.948 0 0 1-.672-.288l-3.36-3.36c-.384-.384-.384-.96 0-1.344s.96-.384 1.344 0l3.36 3.36a.928.928 0 0 1 0 1.344.948.948 0 0 1-.672.288zm13.44 0a.948.948 0 0 1-.672-.288.928.928 0 0 1 0-1.344l3.36-3.36c.384-.384.96-.384 1.344 0s.384.96 0 1.344l-3.36 3.36a.948.948 0 0 1-.672.288zM14.4 23.04H9.6c-.528 0-.96-.432-.96-.96s.432-.96.96-.96h4.8c.528 0 .96.432.96.96s-.432.96-.96.96zm24 0h-4.8c-.528 0-.96-.432-.96-.96s.432-.96.96-.96h4.8c.528 0 .96.432.96.96s-.432.96-.96.96z"/></svg><svg id="icon-maker:after" width="48" height="48" viewBox="0 0 48 48" x="320"><path fill="#444" d="M24.432 9.888c-.864-1.872-2.784-3.168-4.992-3.168s-4.08 1.296-4.992 3.12c-.624.528-1.008 1.344-1.008 2.256 0 .816.336 1.536.816 2.064.768 2.112 2.784 3.6 5.184 3.6s4.416-1.536 5.184-3.648c.48-.528.816-1.248.816-2.016 0-.864-.384-1.68-1.008-2.208zm-2.016 4.224c-.864 0-1.632-.576-1.92-1.392-.144-.48-.576-.768-1.056-.768s-.912.336-1.104.768c-.288.816-1.056 1.392-1.92 1.392-1.104 0-2.016-.912-2.016-2.016s.912-2.016 2.016-2.016h6c1.104 0 2.016.912 2.016 2.016s-.864 2.016-2.016 2.016zM37.92 32.64H31.2v-6.72c0-3.696-3.024-6.72-6.72-6.72H13.44c-3.648.048-6.624 2.976-6.72 6.624V39.36c0 1.056.864 1.92 1.92 1.92s1.92-.864 1.92-1.92V26.016H12V41.28h13.92V25.968h1.44v8.592c0 1.056.864 1.92 1.92 1.92h8.64c1.056 0 1.92-.864 1.92-1.92s-.864-1.92-1.92-1.92z"/><path fill="#444" d="M40.848 21.984h-.48c-.288 0-.48.24-.48.48 0 .336-.768.336-1.104.096l-.528-.384a1.618 1.618 0 0 0-.816-.24h-1.056c-3.36 0-4.176 2.448-4.176 2.448l.672.528c.576-.72 1.056-1.008 2.016-1.008a.984.984 0 0 1 1.008 1.008l-.48 11.04h3.024l-.48-11.04c0-.288.048-1.008 1.008-1.008 1.008 0 1.008.48 1.008.48 0 .288.24.48.48.48h.48c.288 0 .48-.24.48-.48v-2.016c-.096-.192-.336-.384-.576-.384z"/></svg><svg id="icon-intellectual-property:after" width="48" height="48" viewBox="0 0 48 48" x="384"><path fill="#444" d="M29.52 13.2A5.52 5.52 0 0 1 24 18.72c-3.072 0-5.52-2.448-5.52-5.52S20.928 7.68 24 7.68a5.52 5.52 0 0 1 5.52 5.52zm-15.936 9.072a7.187 7.187 0 0 0-1.92 2.256 1.437 1.437 0 0 0-.192.48c.048-.144.096-.336.192-.48a6.773 6.773 0 0 1 1.92-2.256zm0 0c.528-.384 1.104-.768 1.776-1.008-.624.24-1.2.576-1.776 1.008zm1.776-1.008c.336-.144.624-.24.96-.336-.288.096-.624.192-.96.336z"/><path fill="#444" d="M38.832 32.544c0-.24-.048-.432-.144-.672l-2.496-7.056c-.048-.096-.096-.192-.144-.336-.144-.288-.336-.576-.528-.864-.384-.528-.864-1.008-1.392-1.44s-1.104-.768-1.776-1.008a7.619 7.619 0 0 0-.96-.336c-.672-.096-1.392-.192-2.112-.192H18.192c-.72 0-1.44.096-2.112.288-.336.096-.672.192-.96.336-.624.24-1.248.624-1.776 1.008-.192.144-.384.336-.576.48-.528.528-1.008 1.104-1.344 1.776a1.437 1.437 0 0 0-.192.48l-2.016 7.056a2.263 2.263 0 0 0 .048 1.488c.048.144.096.288.192.432s.144.24.24.384l5.04 6.048c.288.384.72.624 1.152.768.24.096.528.144.816.144h5.52a.904.904 0 0 0 .384-.096c.144-.048.24-.144.336-.192.096-.096.144-.192.192-.336s.096-.24.096-.384c0-.288-.096-.576-.336-.72a1.05 1.05 0 0 0-.24-.144c-.048-.096-.192-.096-.336-.096h-1.776l-6.096-7.248 1.248-4.464h.96v5.568l4.32 5.184h5.712l4.128-4.704v-6.048h1.056l1.584 4.464-2.64 3.024-3.696 4.224H25.2c-.192.048-.432.096-.576.24l-.144.144a.774.774 0 0 0-.192.336c0 .048-.048.144-.048.192 0 .336.192.672.432.816.096.096.24.144.384.144h5.712c.672 0 1.344-.288 1.872-.816l5.52-6.048c.336-.336.528-.768.624-1.2.048-.144.096-.384.048-.624zM24.48 36h-.96c-.288 0-.48-.192-.48-.48s.192-.48.48-.48h.96c.288 0 .48.192.48.48s-.192.48-.48.48zm.48-1.44h-1.92c-.288 0-.48-.192-.48-.48s.192-.48.48-.48h1.92c.288 0 .48.192.48.48s-.192.48-.48.48zm1.44-4.032c-1.008 1.248-.96 2.112-.96 2.112 0 .288-.192.48-.48.48h-1.92c-.288 0-.48-.192-.48-.48 0 0 .048-.864-.96-2.112a3.088 3.088 0 0 1-.72-1.968c0-1.728 1.392-3.12 3.12-3.12s3.12 1.392 3.12 3.12c0 .768-.24 1.44-.72 1.968z"/></svg><svg id="icon-design-patent:after" width="48" height="48" viewBox="0 0 48 48" x="448"><path fill="#444" d="M37.392 20.16c0-7.392-6.048-13.44-13.44-13.44s-13.44 6.048-13.44 13.44c0 4.272 1.968 8.064 5.088 10.512L12 36.96h4.8l2.88 4.32L24 33.6l4.32 7.68 2.88-4.32H36l-3.6-6.336c3.024-2.496 4.992-6.24 4.992-10.464zM25.056 31.632c-.336.048-.72.048-1.104.048-.336 0-.672 0-1.008-.048a11.074 11.074 0 0 1-6.384-2.64c-2.496-2.112-4.128-5.28-4.128-8.832 0-6.336 5.184-11.52 11.52-11.52s11.52 5.184 11.52 11.52c0 3.504-1.584 6.624-4.032 8.736a11.46 11.46 0 0 1-6.384 2.736z"/><path fill="#444" d="M18.384 22.944l-1.008 4.416 4.416-1.008 7.824-7.824-3.408-3.408-7.824 7.824zm2.736 2.736l-1.68.336-.72-.672.336-1.68 2.064 2.016zm10.512-10.56l-2.016-2.016a.928.928 0 0 0-1.344 0l-1.392 1.344 3.408 3.408 1.344-1.344a.985.985 0 0 0 0-1.392z"/></svg><svg id="icon-prior-art:after" width="48" height="48" viewBox="0 0 48 48" x="512"><path fill="#444" d="M21.84 20.88h4.128v4.128H21.84V20.88zm-2.448-6.288l-1.344 2.4-1.392 2.352h5.52l-1.392-2.352z"/><path fill="#444" d="M36 33.264l-.672.672-1.344-1.344a6.189 6.189 0 0 0 1.2-3.696c0-3.36-2.688-6.144-6.096-6.24v-12h-4.512V6.72H7.68v21.936h4.512v3.984h11.76c1.152 1.536 2.976 2.544 4.992 2.544 1.392 0 2.64-.432 3.696-1.2l1.344 1.344-.72.672 5.232 5.232 2.736-2.736L36 33.264zm-23.808-6.528H9.6V8.64h13.056v2.064H12.192v16.032zm10.512 2.208c0 .624.096 1.2.288 1.776h-8.88V12.624h13.104v10.32a6.235 6.235 0 0 0-4.512 6zm6.24 4.32c-.816 0-1.536-.24-2.208-.624-.768-.432-1.344-1.104-1.728-1.92a4.365 4.365 0 0 1-.384-1.776 4.305 4.305 0 0 1 2.544-3.936 4.365 4.365 0 0 1 1.776-.384h.144c2.304.096 4.176 1.968 4.176 4.32s-1.968 4.32-4.32 4.32z"/><path fill="#444" d="M20.832 26.208a2.591 2.591 0 1 1-5.183.001 2.591 2.591 0 0 1 5.183-.001z"/></svg><svg id="icon-small-inventor:after" width="48" height="48" viewBox="0 0 48 48" x="576"><path fill="#444" d="M39.456 24.96L24.096 12 9.216 24.96h3.84v16.32h6.24l-.432-5.328a1.456 1.456 0 0 1-1.008-1.392v-2.88c0-.816.624-1.44 1.44-1.44h2.4c.816 0 1.44.624 1.44 1.44v2.88c0 .672-.432 1.2-1.008 1.392l-.432 5.328h5.28l-.432-5.328a1.456 1.456 0 0 1-1.008-1.392v-2.88c0-.816.624-1.44 1.44-1.44h2.4c.816 0 1.44.624 1.44 1.44v2.88c0 .672-.432 1.2-1.008 1.392l-.432 5.328h6.24V24.96h3.84zm-18.96 4.32c-.672 0-1.2-.528-1.2-1.2s.528-1.2 1.2-1.2c.672 0 1.2.528 1.2 1.2 0 .624-.576 1.2-1.2 1.2zm7.68 0c-.672 0-1.2-.528-1.2-1.2s.528-1.2 1.2-1.2c.672 0 1.2.528 1.2 1.2 0 .624-.576 1.2-1.2 1.2zm8.064-13.44h-1.92c-.288 0-.48-.192-.48-.48s.192-.48.48-.48h1.92c.288 0 .48.192.48.48s-.192.48-.48.48zm-.48 1.44h-.96c-.288 0-.48-.192-.48-.48s.192-.48.48-.48h.96c.288 0 .48.192.48.48s-.192.48-.48.48zm2.64-7.44c0-1.728-1.392-3.12-3.12-3.12s-3.12 1.392-3.12 3.12c0 .768.24 1.44.72 1.968 1.008 1.248.96 2.112.96 2.112 0 .288.192.48.48.48h1.92c.288 0 .48-.192.48-.48 0 0-.048-.864.96-2.112.48-.528.72-1.2.72-1.968z"/></svg><svg id="icon-large-inventor:after" width="48" height="48" viewBox="0 0 48 48" x="640"><path fill="#444" d="M31.68 20.64v3.84l-9.6-3.84v3.84l-9.6-3.84v3.84h-.96l-.96-17.76h-2.4L7.2 24.48v16.8h3.36l-.432-5.328c-.576-.24-1.008-.768-1.008-1.392v-2.88c0-.816.624-1.44 1.44-1.44h2.4c.816 0 1.44.624 1.44 1.44v2.88c0 .672-.432 1.2-1.008 1.392l-.432 5.328h3.84l-.432-5.328c-.576-.24-1.008-.768-1.008-1.392v-2.88c0-.816.624-1.44 1.44-1.44h2.4c.816 0 1.44.624 1.44 1.44v2.88c0 .672-.432 1.2-1.008 1.392L19.2 41.28h3.84l-.432-5.328c-.576-.24-1.008-.768-1.008-1.392v-2.88c0-.816.624-1.44 1.44-1.44h2.4c.816 0 1.44.624 1.44 1.44v2.88c0 .672-.432 1.2-1.008 1.392l-.432 5.328h3.84l-.432-5.328c-.576-.24-1.008-.768-1.008-1.392v-2.88c0-.816.624-1.44 1.44-1.44h2.4c.816 0 1.44.624 1.44 1.44v2.88c0 .672-.432 1.2-1.008 1.392l-.432 5.328h3.84l-.432-5.328c-.576-.24-1.008-.768-1.008-1.392v-2.88c0-.816.624-1.44 1.44-1.44h2.4c.816 0 1.44.624 1.44 1.44v2.88c0 .672-.432 1.2-1.008 1.392l-.432 5.328h3.36v-16.8l-9.6-3.84zm-19.92 8.64c-.672 0-1.2-.528-1.2-1.2s.528-1.2 1.2-1.2c.672 0 1.2.528 1.2 1.2 0 .624-.528 1.2-1.2 1.2zm6.24 0c-.672 0-1.2-.528-1.2-1.2s.528-1.2 1.2-1.2c.672 0 1.2.528 1.2 1.2 0 .624-.528 1.2-1.2 1.2zm6.24 0c-.672 0-1.2-.528-1.2-1.2s.528-1.2 1.2-1.2c.672 0 1.2.528 1.2 1.2 0 .624-.528 1.2-1.2 1.2zm6.24 0c-.672 0-1.2-.528-1.2-1.2s.528-1.2 1.2-1.2c.672 0 1.2.528 1.2 1.2 0 .624-.528 1.2-1.2 1.2zm6.24 0c-.672 0-1.2-.528-1.2-1.2s.528-1.2 1.2-1.2c.672 0 1.2.528 1.2 1.2 0 .624-.528 1.2-1.2 1.2zm-.48-13.44h-1.92c-.288 0-.48-.192-.48-.48s.192-.48.48-.48h1.92c.288 0 .48.192.48.48s-.192.48-.48.48zm-.48 1.44h-.96c-.288 0-.48-.192-.48-.48s.192-.48.48-.48h.96c.288 0 .48.192.48.48s-.192.48-.48.48zm2.64-7.44c0-1.728-1.392-3.12-3.12-3.12s-3.12 1.392-3.12 3.12c0 .768.24 1.44.72 1.968 1.008 1.248.96 2.112.96 2.112 0 .288.192.48.48.48h1.92c.288 0 .48-.192.48-.48 0 0-.048-.864.96-2.112.48-.528.72-1.2.72-1.968z"/></svg><svg id="icon-infringement:after" width="48" height="48" viewBox="0 0 48 48" x="704"><path fill="#444" d="M29.76 13.152c1.728-.336 2.88-2.064 2.496-3.84-.336-1.776-2.064-2.88-3.792-2.544s-2.88 2.064-2.496 3.84c.336 1.776 2.064 2.88 3.792 2.544zm5.808 3.456l1.152-2.064h-4.896l1.152 2.064c.384-.192.816-.336 1.296-.336s.912.144 1.296.336zM36 21.024l-.192.192-5.904 3.936c-.048.048-.096.048-.144.096h-.048c-.048 0-.096.048-.096.048-.144.048-.24.096-.384.144-.768 1.488-1.296 3.024-1.344 4.32 0 3.264 1.44 6.384 6.384 6.384 4.944 0 6.384-3.12 6.384-6.384 0-2.832-2.496-6.768-4.656-8.736zm-1.2 13.152h-.96a.481.481 0 0 1 0-.96h.96c.288 0 .48.24.48.48s-.24.48-.48.48zm.48-1.488h-1.968a.481.481 0 0 1 0-.96h1.968c.288 0 .48.24.48.48 0 .288-.192.48-.48.48zm1.152-4.176s-.672 1.056-.672 2.208c0 .288-.24.48-.48.48h-1.92a.481.481 0 0 1-.48-.48c0-1.152-.672-2.208-.672-2.208a2.494 2.494 0 0 1-.336-1.2c0-1.344 1.104-2.448 2.448-2.448s2.448 1.104 2.448 2.448c0 .432-.144.864-.336 1.2z"/><path fill="#444" d="M35.712 18.048c-.096-.096-.144-.192-.24-.288l-.096-.096a1.05 1.05 0 0 0-.24-.144c-.048 0-.096-.048-.096-.048-.096-.048-.144-.048-.24-.096-.048 0-.048-.048-.096-.048-.144-.048-.288-.048-.384-.048-.096 0-.192 0-.288.048h-.096c-.096 0-.144.048-.24.048-.048 0-.048 0-.096.048l-.288.144-3.888 2.592-1.344-4.656c-.288-.96-1.056-1.68-2.064-1.92-.096-.048-.24-.048-.336-.048h-.336c-.144 0-.336 0-.48.048-.048 0-.096 0-.096.048l-.432.144h-.048a1.946 1.946 0 0 0-.432.24c-.048 0-.048.048-.096.048-.144.096-.288.192-.384.336l-.096.096-6.336 7.152a7.232 7.232 0 0 0-2.112 4.704l-.672 4.416-5.712 1.2c-.912.192-1.536 1.104-1.296 2.016.192.816.864 1.344 1.68 1.344.096 0 .24 0 .384-.048l6.864-1.488h.048c.048 0 .096-.048.144-.048s.096-.048.096-.048c.048 0 .096-.048.144-.048s.096-.048.096-.048a.103.103 0 0 0 .096-.096l.096-.096.096-.096.096-.096.096-.096c.048-.048.048-.096.096-.096 0-.048.048-.048.048-.096s.048-.096.048-.144c0-.048.048-.048.048-.096l1.632-4.56 3.84 4.08-.432 7.104c-.048.96.672 1.776 1.584 1.824h.096c.912 0 1.632-.72 1.728-1.632l.48-7.824v-.432c0-.048-.048-.144-.048-.192s-.048-.096-.048-.096l-.096-.192c0-.048-.048-.048-.048-.096 0 0 0-.048-.048-.048l-4.224-6.096 4.176-4.512.912 3.264c0 .048 0 .048.048.096 0 .048.048.096.048.144.048.048.048.096.096.144 0 .048 0 .048.048.096l.048.048c.048.096.144.144.192.24l.048.048c.096.096.192.144.288.192.048 0 .048.048.096.048.096.048.192.096.288.096.048 0 .096 0 .144.048.096 0 .192.048.24.048h.288c.096 0 .192-.048.288-.048.096-.048.192-.048.288-.096.048 0 .048-.048.096-.048s.048-.048.096-.048l.96-.624 4.848-3.216.048-.048c.72-.528.912-1.584.384-2.352zm-11.424-4.32l.432-.144-.432.144zm-.96.624c.144-.144.24-.24.384-.336-.144.096-.24.192-.384.336zm1.536-.816c.144-.048.336-.048.48-.048-.192 0-.336.048-.48.048zm-1.056.432zm1.776-.432h.144-.144z"/></svg><svg id="icon-trade-secret:after" width="48" height="48" viewBox="0 0 48 48" x="768"><path fill="#444" d="M33.6 23.52v-7.2c0-5.28-4.32-9.6-9.6-9.6s-9.6 4.32-9.6 9.6v7.2h-3.36v17.76h25.92V23.52H33.6zm-8.88 14.4h-.96c-.288 0-.48-.192-.48-.48s.192-.48.48-.48h.96c.288 0 .48.192.48.48s-.192.48-.48.48zm.48-1.44h-1.92c-.288 0-.48-.192-.48-.48s.192-.48.48-.48h1.92c.288 0 .48.192.48.48s-.192.48-.48.48zm1.44-4.032c-1.008 1.248-.96 2.112-.96 2.112 0 .288-.192.48-.48.48h-1.92c-.288 0-.48-.192-.48-.48 0 0 .048-.864-.96-2.112a3.088 3.088 0 0 1-.72-1.968c0-1.728 1.392-3.12 3.12-3.12s3.12 1.392 3.12 3.12c0 .768-.24 1.44-.72 1.968zm-8.4-8.928v-7.2c0-3.168 2.592-5.76 5.76-5.76s5.76 2.592 5.76 5.76v7.2H18.24z"/></svg><svg id="icon-micro-entity-inventor:after" width="48" height="48" viewBox="0 0 48 48" x="832"><path fill="#444" d="M23.52 14.496L9.6 27.36h2.88v13.92h22.08V27.36h2.88L23.52 14.496zm0 12.384c.672 0 1.2.528 1.2 1.2s-.528 1.2-1.2 1.2-1.2-.528-1.2-1.2c0-.672.528-1.2 1.2-1.2zm2.64 7.68c0 .672-.432 1.2-1.008 1.392l-.432 5.328h-2.4l-.432-5.328a1.456 1.456 0 0 1-1.008-1.392v-2.88c0-.816.624-1.44 1.44-1.44h2.4c.816 0 1.44.624 1.44 1.44v2.88zm7.68-18.72h-1.92c-.288 0-.48-.192-.48-.48s.192-.48.48-.48h1.92c.288 0 .48.192.48.48s-.192.48-.48.48zm-.48 1.44h-.96c-.288 0-.48-.192-.48-.48s.192-.48.48-.48h.96c.288 0 .48.192.48.48s-.192.48-.48.48zM36 9.84c0-1.728-1.392-3.12-3.12-3.12s-3.12 1.392-3.12 3.12c0 .768.24 1.44.72 1.968 1.008 1.248.96 2.112.96 2.112 0 .288.192.48.48.48h1.92c.288 0 .48-.192.48-.48 0 0-.048-.864.96-2.112.48-.528.72-1.2.72-1.968z"/></svg><svg id="icon-service-mark:after" width="48" height="48" viewBox="0 0 48 48" x="896"><path fill="#444" d="M40.32 27.84H7.68c-.528 0-.96-.432-.96-.96s.432-.96.96-.96h32.64c.528 0 .96.432.96.96s-.432.96-.96.96zm-11.136 1.056a.904.904 0 0 0-.384-.096h-8.16c-.528 0-.96.432-.96.96s.384.864.96.96l4.896.816c.336.096.288.624-.096.624h-4.128c-.432 0-.912-.096-1.344-.192l-7.584-3.072A.904.904 0 0 0 12 28.8a.963.963 0 0 0-.96.96c0 .336.144.624.384.768l8.256 5.424c.624.384 1.296.528 2.016.528h9.984l2.256.912.912-6-5.664-2.496zM36 30.24l-.24 1.584-.864 5.952-.336 2.064 6.72 1.44V31.2zm-10.752-7.968H22.56c-.384 0-.672-.288-.672-.672s.288-.672.672-.672h2.688c.384 0 .672.288.672.672s-.336.672-.672.672zm0 .672H22.56c-.384 0-.672.288-.672.672s.288.672.672.672h.336c0 .384.288.672.672.672h.672a.656.656 0 0 0 .672-.672h.336c.384 0 .672-.288.672-.672s-.336-.672-.672-.672zm2.208-6.336c.768-.864 1.248-1.968 1.248-3.216 0-2.64-2.112-4.752-4.752-4.752S19.2 10.752 19.2 13.392c0 1.2.432 2.304 1.152 3.12.336.336 1.536 1.824 1.536 2.976 0 .384.288.672.672.672h2.688a.656.656 0 0 0 .672-.672v-.048c.096-1.104 1.104-2.4 1.536-2.832z"/></svg><svg id="icon-counterfeit:after" width="48" height="48" viewBox="0 0 48 48" x="960"><path fill="#444" d="M37.296 26.4c-.048-.096-.048-.192-.048-.192l-2.544-6.384c-.144-7.152-6-13.104-13.2-13.104l-.048 29.76h6.768c.672 0 1.296-.096 1.872-.24s1.104-.384 1.536-.624l.432-.288c.432-.336.768-.72 1.056-1.152.192-.288.336-.624.48-1.008.144-.432.24-.864.336-1.344h-4.32v-.96h4.416V28.08H36c.192 0 .336-.048.528-.096.144-.048.288-.144.432-.288.24-.24.384-.576.384-.912 0-.144-.048-.288-.048-.384zm-6.48-6.384c-.672 0-1.2-.528-1.2-1.2s.528-1.2 1.2-1.2c.672 0 1.2.528 1.2 1.2s-.528 1.2-1.2 1.2zM20.544 7.68c-6.288.912-11.136 6.288-11.136 12.816 1.152.576 4.56 1.92 11.136 2.016V7.68z"/><path fill="#444" d="M28.224 37.392h-7.728v-13.92c-6-.048-9.456-1.152-11.04-1.872.288 3.168 1.68 6.048 3.84 8.16v11.52h15.552v-3.888h-.624z"/></svg><svg id="icon-ptotrademark:after" width="32" height="32" viewBox="0 0 48 48" x="10" y="70"><path fill="#444" d="M48 0H0v48h4.7V28.7H48L34.7 14 48 0zM12 9.8v12H7.9v-12H5V6h9.8v3.8H12zm15.3 12V10.5l-2.6 11.3H22l-2.7-11.3v11.3h-3.2V6.1h5.6l2 8.4 1.9-8.4h5.6v15.7h-3.9z"/></svg><svg id="icon-stem:after" width="48" height="48" viewBox="0 0 48 48" x="64" y="64"><path fill="#444" d="M15.84 24.96c0 1.584-1.296 2.88-2.88 2.88s-2.88-1.296-2.88-2.88 1.296-2.88 2.88-2.88 2.88 1.296 2.88 2.88zm10.32 9.12h-4.608l-.912-1.392-.624-.912-.912-1.44c-.48-.864-1.392-1.536-2.784-1.536h-6.24c-2.4 0-3.36 1.92-3.36 3.36v7.2h10.56v-6.72h.48l2.112 3.264s0 .048.048.048c.24.288.576.48.96.48h5.28c.672 0 1.2-.528 1.2-1.2 0-.624-.528-1.152-1.2-1.152zm15.12-5.28H20.16V7.68h21.12V28.8zm-20.16-.96h19.2V8.64h-19.2v19.2z"/><path fill="#444" d="M28.656 15.12s0-.048-.048-.048l-1.392-1.776V11.04c.288 0 .48-.192.48-.48s-.192-.48-.48-.48h-2.88c-.288 0-.48.192-.48.48s.192.48.48.48v2.256l-1.392 1.776-.048.048c-.192.336-.192.768 0 1.152.192.336.576.576.96.576h3.84c.432 0 .768-.192.96-.576s.192-.816 0-1.152zm-2.4-4.08v2.4c0 .096.048.192.096.288l.528.672h-2.208l.528-.672c.048-.096.096-.192.096-.288v-2.4h.96zm3.024 12.48v-.96h-1.008c-.048-.288-.192-.576-.336-.864l.72-.72-.672-.672-.72.72c-.24-.144-.528-.288-.864-.336V19.68h-.96v1.008c-.288.048-.576.192-.864.336l-.72-.72-.672.672.72.72c-.144.24-.288.528-.336.864H22.56v.96h1.008c.048.288.192.576.336.864l-.72.72.672.672.72-.72c.24.144.528.288.864.336V26.4h.96v-1.008c.288-.048.576-.192.864-.336l.72.72.672-.672-.72-.72c.144-.24.288-.528.336-.864h1.008zm-3.408.48c-.528 0-.96-.432-.96-.96s.432-.96.96-.96.96.432.96.96-.432.96-.96.96zm12.576-2.88v-.96h-4.752s-1.104 0-1.44 1.536c0 0-.048.288.192.192.336-.096.24-.96 1.584-.816 0 0 .144 2.832-1.104 4.08 0 0-.528.432.048.816.288.24 1.248-.096 1.632-1.056.432-1.2.48-3.84.48-3.84H36s-.912 5.04 1.2 5.04c1.056 0 1.296-1.872 1.296-1.872h-.192s-.624 1.44-1.152.72c-.72-.96-.192-3.84-.192-3.84h1.488zm-7.584-8.4l.672.672c1.872-1.872 4.896-1.872 6.72 0l.672-.672a5.65 5.65 0 0 0-8.064 0z"/><path fill="#444" d="M32.304 13.92l.672.672c.528-.528 1.2-.816 1.92-.816s1.44.288 1.92.816l.672-.672c-1.392-1.488-3.744-1.488-5.184 0z"/><path fill="#444" d="M35.856 15.456a.96.96 0 1 1-1.92 0 .96.96 0 0 1 1.92 0z"/></svg><svg id="icon-pro-bono:after" width="48" height="48" viewBox="0 0 48 48" x="128" y="64"><path fill="#444" d="M31.68 34.56h-9.024l-.144.288c-.48.912-1.344 1.44-2.256 1.44-.672 0-1.296-.24-1.776-.72l-4.128-3.792c-.24-.192-.576-.432-.912-.528a2.833 2.833 0 0 0-.672-.096v-1.2c.384 0 .72.048 1.056.144.672.192 1.2.624 1.488.864l3.984 3.744c.288.24.624.336.96.336.576 0 1.104-.432 1.344-.912.048-.144.096-.336.096-.48 0-.432-.192-.768-.432-1.056l-7.536-7.92a4.208 4.208 0 0 0-3.024-1.248H6.72v6.816h1.296c.72 0 1.392.288 1.872.768L15.6 36.72a5.815 5.815 0 0 0 4.08 1.68h12c1.056 0 1.92-.864 1.92-1.92s-.864-1.92-1.92-1.92z"/><path fill="#444" d="M41.28 24.96s0-.048 0 0c0-.096 0-.144-.048-.192l-3.84-11.04c0-.048-.048-.096-.048-.096l-.048-.048-.096-.096h-.048c-.048 0-.096-.048-.144-.048h-6.672l-.096-2.88c0-.24-.24-.48-.48-.48s-.48.192-.48.48l-.096 2.88h-6.72c-.048 0-.096.048-.144.048h-.048c-.048 0-.048.048-.096.096l-.048.048c-.048.048-.048.096-.048.096l-3.84 11.04v.192c.048 1.824 1.968 3.312 4.32 3.312s4.272-1.488 4.32-3.312 0 0 0-.048v-.144l-3.6-10.416h5.952L28.8 28.8c-3.552.192-6.24 1.152-6.24 2.352h14.88c0-1.248-2.976-2.256-6.72-2.4l-.384-14.4h5.952l-3.6 10.416v.192c.048 1.824 1.968 3.312 4.32 3.312s4.224-1.488 4.272-3.312zm-22.032-.048l2.832-8.208v8.208h-2.832zm6.624 0H23.04v-8.208l2.832 8.208zm7.776 0l2.832-8.208v8.208h-2.832zm3.792-8.208l2.832 8.208H37.44v-8.208z"/></svg></svg>